<svg width="24" height="24" viewBox="0 0 24 24" fill="none" xmlns="http://www.w3.org/2000/svg">
<defs>
<linearGradient id="paint0_linear_408_8971" x1="22.8352" y1="20.2855" x2="4.24011" y2="2.74781" gradientUnits="userSpaceOnUse">
<stop stop-color="#33A752"/>
<stop offset="1" stop-color="#8DCB9E"/>
</linearGradient>
<linearGradient id="paint1_linear_408_8971" x1="22.8352" y1="20.2855" x2="4.24011" y2="2.74781" gradientUnits="userSpaceOnUse">
<stop stop-color="#33A752"/>
<stop offset="1" stop-color="#8DCB9E"/>
</linearGradient>
<linearGradient id="paint2_linear_408_8971" x1="22.8352" y1="20.2855" x2="4.24011" y2="2.74781" gradientUnits="userSpaceOnUse">
<stop stop-color="#33A752"/>
<stop offset="1" stop-color="#8DCB9E"/>
</linearGradient>
</defs>
<path d="M1.88251 1.51451C1.58551 1.50326 1.28926 1.60451 1.06501 1.82951C0.616509 2.27726 0.660009 3.01451 1.11001 3.46526L9.93301 12.2883L9.40276 12.8185C9.35789 12.8637 9.32528 12.9196 9.30799 12.9809C9.2907 13.0422 9.2893 13.1069 9.30393 13.1689C9.31857 13.2308 9.34875 13.2881 9.39162 13.3352C9.4345 13.3823 9.48866 13.4177 9.54901 13.438L10.683 13.8175C10.569 14.1963 10.692 14.6365 10.9935 14.938C11.31 15.2538 11.7788 15.376 12.1688 15.2328C12.1748 15.3505 12.1733 15.3588 12.1838 15.5268C12.2468 16.5723 12.393 18.6715 12.7223 22.9038C12.7296 22.9975 12.7719 23.0852 12.8408 23.1492C12.9097 23.2132 13.0002 23.249 13.0943 23.2495C14.0209 23.2506 14.9427 23.116 15.8303 22.8498C15.9136 22.8248 15.9856 22.7716 16.034 22.6994C16.0825 22.6271 16.1043 22.5403 16.0958 22.4538C16.0208 21.6985 16.0013 21.451 15.9713 21.1165C16.2413 21.3535 16.4595 21.5433 17.1023 22.1028C17.1596 22.1521 17.2306 22.183 17.3058 22.1913C17.381 22.1996 17.457 22.185 17.5238 22.1493C17.7938 22.0053 18.0563 21.8485 18.312 21.679C18.3125 21.679 18.313 21.679 18.3135 21.679C19.6003 20.8208 20.6548 19.6576 21.3829 18.2929C22.111 16.9283 22.4901 15.4047 22.4865 13.858C22.4861 13.7647 22.451 13.6748 22.3878 13.606C22.3247 13.5372 22.2382 13.4944 22.1453 13.486C17.9918 13.111 15.915 12.9423 14.8725 12.8665C14.658 12.8515 14.6295 12.8515 14.493 12.8433C14.5905 12.472 14.4683 12.049 14.175 11.7558C13.8735 11.455 13.4325 11.3313 13.053 11.446L12.675 10.312C12.6489 10.2344 12.5981 10.1675 12.5304 10.1214C12.4627 10.0754 12.3818 10.0527 12.3 10.057C12.2074 10.0616 12.1197 10.1003 12.054 10.1658L11.5238 10.696L2.70151 1.87451C2.47651 1.64951 2.17951 1.52501 1.88251 1.51451ZM1.86451 2.25851C1.96801 2.26376 2.07676 2.31101 2.17126 2.40476L10.9935 11.2263L10.7288 11.4925L10.4633 11.758L1.64026 2.93501C1.45276 2.74751 1.45576 2.49851 1.59526 2.35901C1.63065 2.32419 1.67299 2.29724 1.71952 2.27992C1.76605 2.2626 1.81497 2.25531 1.86451 2.25851ZM7.88401 2.27126C7.78455 2.27126 7.68917 2.31077 7.61884 2.3811C7.54852 2.45143 7.50901 2.54681 7.50901 2.64626C7.50901 2.74572 7.54852 2.8411 7.61884 2.91143C7.68917 2.98176 7.78455 3.02126 7.88401 3.02126C7.98346 3.02126 8.07885 2.98176 8.14917 2.91143C8.2195 2.8411 8.25901 2.74572 8.25901 2.64626C8.25901 2.54681 8.2195 2.45143 8.14917 2.3811C8.07885 2.31077 7.98346 2.27126 7.88401 2.27126ZM4.85026 2.27276C4.7508 2.27774 4.6574 2.32202 4.59059 2.39586C4.52378 2.4697 4.48904 2.56706 4.49401 2.66651C4.49898 2.76597 4.54326 2.85938 4.6171 2.92619C4.69094 2.993 4.7883 3.02774 4.88776 3.02276H6.38776C6.48722 3.02276 6.5826 2.98326 6.65292 2.91293C6.72325 2.8426 6.76276 2.74722 6.76276 2.64776C6.76276 2.54831 6.72325 2.45293 6.65292 2.3826C6.5826 2.31227 6.48722 2.27276 6.38776 2.27276H4.88776C4.87527 2.27214 4.86275 2.27214 4.85026 2.27276ZM6.35176 3.77276C6.2523 3.77764 6.15886 3.82182 6.09198 3.89559C6.0251 3.96936 5.99026 4.06668 5.99513 4.16614C6.00001 4.2656 6.04419 4.35904 6.11796 4.42592C6.19173 4.4928 6.28905 4.52764 6.38851 4.52276H9.38851C9.48796 4.52276 9.58335 4.48326 9.65367 4.41293C9.724 4.3426 9.76351 4.24722 9.76351 4.14776C9.76351 4.04831 9.724 3.95293 9.65367 3.8826C9.58335 3.81227 9.48796 3.77276 9.38851 3.77276H6.38851C6.37602 3.77214 6.36425 3.77214 6.35176 3.77276ZM12.1553 11.125L12.4208 11.92L11.1563 13.1845L10.362 12.9198L10.7093 12.571C10.7144 12.5662 10.7194 12.5612 10.7243 12.556L11.259 12.0235L11.7893 11.491L12.1553 11.125ZM13.3853 12.1503C13.4663 12.1593 13.5578 12.1998 13.6448 12.2868C13.818 12.4593 13.806 12.6543 13.7258 12.7345L11.9723 14.4895C11.8913 14.5705 11.697 14.581 11.5238 14.407C11.3513 14.2345 11.361 14.0395 11.4413 13.9593L11.4945 13.9053C11.5137 13.8895 11.5313 13.872 11.547 13.8528L13.092 12.3085C13.1083 12.2948 13.1233 12.2798 13.137 12.2635L13.1955 12.2043C13.2353 12.1645 13.3043 12.142 13.3853 12.1503ZM13.9613 13.561C14.0888 13.5685 14.3235 13.5775 14.8185 13.6135C15.7935 13.684 17.9685 13.8648 21.6698 14.197C21.5858 16.3653 20.7503 18.4383 19.2128 19.9758C18.8108 20.3775 18.3702 20.7385 17.8973 21.0535C17.7323 21.163 17.5598 21.259 17.3895 21.3573L16.0005 20.1453L15.798 19.9683L15.7868 19.9563C15.7838 19.9535 15.7808 19.9507 15.7778 19.948H15.7748C15.7281 19.9045 15.6711 19.8736 15.6092 19.8583C15.5473 19.8429 15.4825 19.8436 15.421 19.8603C15.3594 19.8769 15.3031 19.909 15.2574 19.9535C15.2117 19.998 15.1781 20.0534 15.1598 20.1145L15.1463 20.1715L15.1448 20.1985L15.1433 20.2278C15.1492 20.3369 15.1567 20.4459 15.1658 20.5548C15.1853 20.8 15.243 21.4173 15.3195 22.2033C15.1448 22.249 14.9715 22.2985 14.7938 22.3338C14.3513 22.4215 13.8968 22.4463 13.4415 22.4643C13.1468 18.6595 12.9915 16.4635 12.9315 15.4803C12.9145 15.222 12.9013 14.9634 12.8918 14.7048C12.9131 14.6681 12.9281 14.628 12.936 14.5863L13.9613 13.561ZM14.4405 14.299C14.3445 14.3007 14.2528 14.3392 14.1843 14.4065C14.1158 14.4738 14.0757 14.5648 14.0723 14.6608C14.069 14.7568 14.1026 14.8504 14.1662 14.9224C14.2298 14.9943 14.3186 15.0391 14.4143 15.0475L20.2673 15.5463C20.3664 15.5548 20.4649 15.5236 20.5411 15.4596C20.6172 15.3955 20.6648 15.3038 20.6734 15.2046C20.6819 15.1055 20.6507 15.007 20.5867 14.9308C20.5226 14.8547 20.4309 14.8071 20.3318 14.7985L14.4773 14.3005C14.4648 14.2999 14.4522 14.2999 14.4398 14.3005L14.4405 14.299Z" fill="url(#paint0_linear_408_8971)"/>
<path fill-rule="evenodd" clip-rule="evenodd" d="M13.9613 13.561C14.0888 13.5685 14.3235 13.5775 14.8185 13.6135C15.7935 13.684 17.9685 13.8648 21.6698 14.197C21.5858 16.3653 20.7503 18.4383 19.2128 19.9758C18.8108 20.3775 18.3702 20.7385 17.8973 21.0535C17.7323 21.163 17.5598 21.259 17.3895 21.3573L16.0005 20.1453L15.798 19.9683L15.7868 19.9563L15.7778 19.948H15.7748C15.7281 19.9045 15.6711 19.8736 15.6092 19.8583C15.5473 19.8429 15.4825 19.8436 15.421 19.8603C15.3594 19.8769 15.3031 19.909 15.2574 19.9535C15.2117 19.998 15.1781 20.0534 15.1598 20.1145L15.1463 20.1715L15.1448 20.1985L15.1433 20.2278C15.1492 20.3369 15.1567 20.4459 15.1658 20.5548C15.1853 20.8 15.243 21.4173 15.3195 22.2033C15.1448 22.249 14.9715 22.2985 14.7938 22.3338C14.3513 22.4215 13.8968 22.4463 13.4415 22.4643C13.1468 18.6595 12.9915 16.4635 12.9315 15.4803C12.9145 15.222 12.9013 14.9634 12.8918 14.7048C12.9131 14.6681 12.9281 14.628 12.936 14.5863L13.9613 13.561ZM14.4405 14.299C14.4408 14.299 14.4403 14.299 14.4405 14.299L14.4398 14.3005C14.4522 14.2999 14.4648 14.2999 14.4773 14.3005L20.3318 14.7985C20.4309 14.8071 20.5226 14.8547 20.5867 14.9308C20.6507 15.007 20.6819 15.1055 20.6734 15.2046C20.6648 15.3038 20.6172 15.3955 20.5411 15.4596C20.4649 15.5236 20.3664 15.5548 20.2673 15.5463L14.4143 15.0475C14.3186 15.0391 14.2298 14.9943 14.1662 14.9224C14.1026 14.8504 14.069 14.7568 14.0723 14.6608C14.0757 14.5648 14.1158 14.4738 14.1843 14.4065C14.2528 14.3392 14.3445 14.3007 14.4405 14.299Z" fill="url(#paint1_linear_408_8971)"/>
<path d="M1.86451 2.25851C1.96801 2.26376 2.07676 2.31101 2.17126 2.40476L10.9935 11.2263L10.7288 11.4925L10.4633 11.758L1.64026 2.93501C1.45276 2.74751 1.45576 2.49851 1.59526 2.35901C1.63065 2.32419 1.67299 2.29724 1.71952 2.27992C1.76605 2.2626 1.81497 2.25531 1.86451 2.25851Z" fill="url(#paint2_linear_408_8971)"/>
</svg>
