<svg width="24" height="24" viewBox="0 0 24 24" fill="none" xmlns="http://www.w3.org/2000/svg">
<defs>
<linearGradient id="paint0_linear_2233_2990" x1="17.6363" y1="18.575" x2="-0.570962" y2="4.4128" gradientUnits="userSpaceOnUse">
<stop stop-color="#3258F3"/>
<stop offset="1" stop-color="#2DA6FF"/>
</linearGradient>
</defs>
<path d="M14.801 12.211C14.3285 12.2143 13.8626 12.3286 13.4367 12.5458C13.0108 12.763 12.6355 13.0776 12.3378 13.4669L8.25916 11.4727C8.45093 10.8496 8.45093 10.1779 8.25916 9.55477L12.3378 7.5605C12.819 8.17657 13.4897 8.59249 14.2317 8.73486C14.9737 8.87723 15.7393 8.73689 16.3933 8.33861C17.0473 7.94033 17.5476 7.30971 17.8061 6.55805C18.0646 5.80639 18.0645 4.98201 17.8059 4.2304C17.5473 3.4788 17.0468 2.84827 16.3928 2.45012C15.7387 2.05197 14.9732 1.91177 14.2312 2.05428C13.4892 2.19679 12.8185 2.61284 12.3375 3.22901C11.8564 3.84518 11.596 4.62185 11.6021 5.42196C11.6045 5.62413 11.6232 5.82571 11.6581 6.02448L7.43543 8.08665C6.98524 7.61954 6.41516 7.3038 5.79661 7.17898C5.17806 7.05416 4.53855 7.1258 3.9582 7.38494C3.37786 7.64409 2.88248 8.0792 2.53414 8.63576C2.18581 9.19233 2 9.8456 2 10.5137C2 11.1818 2.18581 11.8351 2.53414 12.3917C2.88248 12.9482 3.37786 13.3834 3.9582 13.6425C4.53855 13.9016 5.17806 13.9733 5.79661 13.8485C6.41516 13.7236 6.98524 13.4079 7.43543 12.9408L11.6581 15.003C11.6232 15.2017 11.6045 15.4033 11.6021 15.6055C11.6021 16.2769 11.7897 16.9332 12.1412 17.4914C12.4927 18.0496 12.9923 18.4847 13.5768 18.7416C14.1614 18.9985 14.8046 19.0658 15.4251 18.9348C16.0457 18.8038 16.6157 18.4805 17.063 18.0058C17.5104 17.531 17.8151 16.9262 17.9385 16.2677C18.062 15.6093 17.9986 14.9267 17.7565 14.3065C17.5144 13.6862 17.1044 13.156 16.5783 12.7831C16.0522 12.4101 15.4337 12.211 14.801 12.211ZM14.801 3.7247C15.1174 3.7247 15.4266 3.82424 15.6897 4.01074C15.9527 4.19724 16.1577 4.46231 16.2788 4.77244C16.3998 5.08258 16.4315 5.42384 16.3698 5.75307C16.3081 6.08231 16.1557 6.38473 15.932 6.6221C15.7084 6.85946 15.4234 7.02111 15.1131 7.0866C14.8028 7.15209 14.4812 7.11848 14.1889 6.99002C13.8967 6.86155 13.6469 6.64401 13.4711 6.3649C13.2954 6.08579 13.2016 5.75764 13.2016 5.42196C13.2016 4.97182 13.3701 4.54011 13.67 4.22182C13.97 3.90352 14.3768 3.7247 14.801 3.7247ZM5.20416 12.211C4.88781 12.211 4.57857 12.1114 4.31553 11.9249C4.0525 11.7384 3.84749 11.4734 3.72643 11.1632C3.60537 10.8531 3.57369 10.5118 3.63541 10.1826C3.69713 9.85337 3.84946 9.55095 4.07315 9.31358C4.29684 9.07622 4.58185 8.91457 4.89211 8.84908C5.20238 8.78359 5.52398 8.8172 5.81625 8.94566C6.10852 9.07412 6.35832 9.29167 6.53408 9.57078C6.70983 9.84989 6.80364 10.178 6.80364 10.5137C6.80364 10.9639 6.63512 11.3956 6.33516 11.7139C6.0352 12.0322 5.62837 12.211 5.20416 12.211ZM14.801 17.3027C14.4847 17.3027 14.1754 17.2032 13.9124 17.0167C13.6494 16.8302 13.4444 16.5651 13.3233 16.255C13.2023 15.9449 13.1706 15.6036 13.2323 15.2744C13.294 14.9451 13.4463 14.6427 13.67 14.4053C13.8937 14.168 14.1787 14.0063 14.489 13.9408C14.7993 13.8754 15.1209 13.909 15.4131 14.0374C15.7054 14.1659 15.9552 14.3834 16.131 14.6625C16.3067 14.9417 16.4005 15.2698 16.4005 15.6055C16.4005 16.0556 16.232 16.4873 15.932 16.8056C15.6321 17.1239 15.2252 17.3027 14.801 17.3027Z" fill="url(#paint0_linear_2233_2990)"/>
</svg>
