<svg width="32" height="32" viewBox="0 0 32 32" fill="none" xmlns="http://www.w3.org/2000/svg">
    <defs>
        <linearGradient id="paint0_linear_5222_29834" x1="27.4318" y1="27.425" x2="2.16223" y2="4.72511"
            gradientUnits="userSpaceOnUse">
            <stop stop-color="#3258F3" />
            <stop offset="1" stop-color="#2DA6FF" />
        </linearGradient>
    </defs>
    <path
        d="M27.5625 5.27728C27.4262 5.16971 27.2664 5.09041 27.0938 5.04477C26.9213 4.99913 26.7401 4.98822 26.5625 5.0128L10.3125 7.31267C10.0166 7.35397 9.74658 7.49158 9.55161 7.7005C9.35663 7.90941 9.24961 8.17575 9.25 8.4511V20.3529C8.66596 20.0905 8.02499 19.9529 7.375 19.9505C6.50971 19.9505 5.66385 20.1865 4.94438 20.6287C4.22492 21.071 3.66416 21.6996 3.33303 22.435C3.0019 23.1704 2.91526 23.9797 3.08407 24.7604C3.25288 25.5411 3.66956 26.2583 4.28141 26.8212C4.89326 27.384 5.67281 27.7674 6.52148 27.9227C7.37015 28.078 8.24981 27.9983 9.04924 27.6936C9.84867 27.389 10.5319 26.8731 11.0127 26.2113C11.4934 25.5494 11.75 24.7713 11.75 23.9752V15.1897L25.5 13.2463V18.0531C24.916 17.7906 24.275 17.653 23.625 17.6506C22.7597 17.6506 21.9138 17.8866 21.1944 18.3289C20.4749 18.7711 19.9142 19.3997 19.583 20.1351C19.2519 20.8706 19.1653 21.6798 19.3341 22.4605C19.5029 23.2413 19.9196 23.9584 20.5314 24.5213C21.1433 25.0842 21.9228 25.4675 22.7715 25.6228C23.6201 25.7781 24.4998 25.6984 25.2992 25.3938C26.0987 25.0891 26.7819 24.5733 27.2627 23.9114C27.7434 23.2495 28 22.4714 28 21.6754V6.15123C28 5.98513 27.9609 5.82101 27.8854 5.67014C27.8099 5.51927 27.6997 5.38524 27.5625 5.27728V5.27728ZM7.375 25.7001C7.00416 25.7001 6.64165 25.599 6.33331 25.4094C6.02497 25.2199 5.78464 24.9505 5.64273 24.6353C5.50081 24.3201 5.46368 23.9733 5.53603 23.6387C5.60838 23.3041 5.78695 22.9968 6.04918 22.7555C6.3114 22.5143 6.64549 22.35 7.00921 22.2835C7.37292 22.2169 7.74992 22.2511 8.09253 22.3816C8.43514 22.5122 8.72798 22.7333 8.93401 23.0169C9.14003 23.3006 9.25 23.6341 9.25 23.9752C9.25 24.4327 9.05246 24.8714 8.70083 25.1949C8.3492 25.5184 7.87228 25.7001 7.375 25.7001ZM23.625 23.4003C23.2542 23.4003 22.8916 23.2991 22.5833 23.1096C22.275 22.92 22.0346 22.6506 21.8927 22.3354C21.7508 22.0203 21.7137 21.6734 21.786 21.3388C21.8584 21.0042 22.037 20.6969 22.2992 20.4557C22.5614 20.2144 22.8955 20.0502 23.2592 19.9836C23.6229 19.917 23.9999 19.9512 24.3425 20.0818C24.6851 20.2123 24.978 20.4334 25.184 20.7171C25.39 21.0007 25.5 21.3342 25.5 21.6754C25.5 22.1328 25.3025 22.5716 24.9508 22.895C24.5992 23.2185 24.1223 23.4003 23.625 23.4003ZM25.5 10.912L11.75 12.8554V9.40555L25.5 7.49666V10.912Z"
        fill="url(#paint0_linear_5222_29834)" />
</svg>