<svg width="32" height="32" viewBox="0 0 32 32" fill="none" xmlns="http://www.w3.org/2000/svg">
    <defs>
        <linearGradient id="paint0_linear_5221_27070" x1="28.7271" y1="27.165" x2="3.61885" y2="2.82365"
            gradientUnits="userSpaceOnUse">
            <stop stop-color="#3258F3" />
            <stop offset="1" stop-color="#2DA6FF" />
        </linearGradient>
        <linearGradient id="paint1_linear_5221_27070" x1="19.8182" y1="21.8" x2="11.1364" y2="14.625"
            gradientUnits="userSpaceOnUse">
            <stop stop-color="#3258F3" />
            <stop offset="1" stop-color="#2DA6FF" />
        </linearGradient>
    </defs>
    <path
        d="M25.3327 9.00003H23.626L23.1993 7.6667C22.9227 6.88434 22.4097 6.20737 21.7312 5.72958C21.0528 5.25179 20.2425 4.99683 19.4127 5.00003H12.586C11.7481 5.0016 10.9318 5.26627 10.2524 5.7567C9.57295 6.24713 9.06469 6.93855 8.79935 7.73336L8.37268 9.0667H6.66602C5.60515 9.0667 4.58773 9.48812 3.83759 10.2383C3.08744 10.9884 2.66602 12.0058 2.66602 13.0667V23.7334C2.66602 24.7942 3.08744 25.8116 3.83759 26.5618C4.58773 27.3119 5.60515 27.7334 6.66602 27.7334H25.3327C26.3935 27.7334 27.411 27.3119 28.1611 26.5618C28.9113 25.8116 29.3327 24.7942 29.3327 23.7334V13.0667C29.3415 12.5358 29.2446 12.0085 29.0476 11.5155C28.8505 11.0225 28.5573 10.5736 28.1849 10.1951C27.8126 9.81655 27.3687 9.51594 26.879 9.31076C26.3893 9.10559 25.8636 8.99996 25.3327 9.00003ZM26.666 23.6667C26.666 24.0203 26.5255 24.3595 26.2755 24.6095C26.0254 24.8596 25.6863 25 25.3327 25H6.66602C6.31239 25 5.97326 24.8596 5.72321 24.6095C5.47316 24.3595 5.33268 24.0203 5.33268 23.6667V13C5.33268 12.6464 5.47316 12.3073 5.72321 12.0572C5.97326 11.8072 6.31239 11.6667 6.66602 11.6667H9.33268C9.62344 11.6819 9.91117 11.6015 10.1519 11.4377C10.3927 11.274 10.5732 11.036 10.666 10.76L11.386 8.57336C11.4755 8.30853 11.6459 8.07852 11.8732 7.91582C12.1005 7.75312 12.3732 7.66597 12.6527 7.6667H19.4793C19.7589 7.66597 20.0316 7.75312 20.2589 7.91582C20.4862 8.07852 20.6566 8.30853 20.746 8.57336L21.466 10.76C21.5516 11.0144 21.7119 11.2369 21.926 11.3987C22.1401 11.5605 22.398 11.6539 22.666 11.6667H25.3327C25.6863 11.6667 26.0254 11.8072 26.2755 12.0572C26.5255 12.3073 26.666 12.6464 26.666 13V23.6667Z"
        fill="url(#paint0_linear_5221_27070)" />
    <circle cx="16" cy="18" r="3" stroke="url(#paint1_linear_5221_27070)" stroke-width="2" />
</svg>