<svg width="32" height="32" viewBox="0 0 32 32" fill="none" xmlns="http://www.w3.org/2000/svg">
    <defs>
        <linearGradient id="paint0_linear_5221_27088" x1="29.5055" y1="24.7273" x2="8.94445" y2="3.65012"
            gradientUnits="userSpaceOnUse">
            <stop stop-color="#FF7728" />
            <stop offset="1" stop-color="#FF984C" />
        </linearGradient>
    </defs>
    <path fill-rule="evenodd" clip-rule="evenodd"
        d="M26.587 24C26.587 24.6836 26.1296 25.2605 25.5042 25.4412H6.58278C5.95735 25.2605 5.5 24.6836 5.5 24V12.1739C5.5 11.3455 6.17157 10.6739 7 10.6739H18.215H25.087C25.9154 10.6739 26.587 11.3455 26.587 12.1739V24ZM7 8.17391C6.46955 8.17391 5.96322 8.27717 5.5 8.46467V6.5H12.295C12.4788 6.5 12.6546 6.57566 12.7809 6.70919L14.1669 8.17391H7ZM25.087 8.17391H18.215C17.828 8.17391 17.458 8.01464 17.192 7.73351L14.5968 4.99091C13.9983 4.35837 13.1658 4 12.295 4H5.11268C3.94588 4 3 4.94588 3 6.11268V12.1739V24V25.8285C3 26.9953 3.94588 27.9412 5.11268 27.9412H6.31291C6.53614 27.9799 6.76572 28 7 28H25.087C25.3212 28 25.5508 27.9799 25.774 27.9412H26.9743C28.1411 27.9412 29.087 26.9953 29.087 25.8285V24V12.1739C29.087 9.96477 27.2961 8.17391 25.087 8.17391ZM17.5657 14.9565C17.5657 14.4042 17.118 13.9565 16.5657 13.9565C16.0134 13.9565 15.5657 14.4042 15.5657 14.9565V19.8466L14.1424 18.4233C13.7519 18.0328 13.1187 18.0328 12.7282 18.4233C12.3377 18.8138 12.3377 19.447 12.7282 19.8375L15.8586 22.968C16.0461 23.1555 16.3005 23.2609 16.5657 23.2609C16.8309 23.2609 17.0853 23.1555 17.2728 22.968L20.4033 19.8375C20.7938 19.447 20.7938 18.8139 20.4033 18.4233C20.0127 18.0328 19.3796 18.0328 18.9891 18.4233L17.5657 19.8467V14.9565Z"
        fill="url(#paint0_linear_5221_27088)" />
</svg>