<svg width="32" height="32" viewBox="0 0 32 32" fill="none" xmlns="http://www.w3.org/2000/svg">
    <defs>
        <linearGradient id="paint0_linear_5215_27040" x1="28.4011" y1="24.815" x2="8.74628" y2="4.61733"
            gradientUnits="userSpaceOnUse">
            <stop stop-color="#FF7728" />
            <stop offset="1" stop-color="#FF984C" />
        </linearGradient>
    </defs>
    <path fill-rule="evenodd" clip-rule="evenodd"
        d="M17.531 10.9894H25.5V12.7415C25.0368 12.554 24.5305 12.4507 24 12.4507H7C6.46955 12.4507 5.96322 12.554 5.5 12.7415V7.5H11.972C12.1407 7.5 12.3031 7.56373 12.4268 7.67843L14.8736 9.94704C15.5963 10.6171 16.5454 10.9894 17.531 10.9894ZM5.5 16.4507V23.9437C5.5 24.7705 6.16896 25.4411 6.99516 25.4437H24.0048C24.831 25.4411 25.5 24.7705 25.5 23.9437V16.4507C25.5 15.6223 24.8284 14.9507 24 14.9507H7C6.17157 14.9507 5.5 15.6223 5.5 16.4507ZM3 16.4507V7.11268C3 5.94588 3.94588 5 5.11268 5H11.972C12.7711 5 13.5406 5.30188 14.1266 5.84518L16.5734 8.1138C16.8338 8.35527 17.1758 8.48944 17.531 8.48944H25.8873C27.0541 8.48944 28 9.43531 28 10.6021V16.4507V23.9437V25.831C28 26.9978 27.0541 27.9437 25.8873 27.9437H24.0079C24.0053 27.9437 24.0026 27.9437 24 27.9437H7C6.99737 27.9437 6.99474 27.9437 6.9921 27.9437H5.11268C3.94588 27.9437 3 26.9978 3 25.831V23.9437V16.4507Z"
        fill="url(#paint0_linear_5215_27040)" />
</svg>