<svg width="32" height="32" viewBox="0 0 32 32" fill="none" xmlns="http://www.w3.org/2000/svg">
    <defs>
        <linearGradient id="paint0_linear_5215_27017" x1="31.372" y1="24.4259" x2="11.3067" y2="1.2961"
            gradientUnits="userSpaceOnUse">
            <stop stop-color="#33A752" />
            <stop offset="1" stop-color="#8DCB9E" />
        </linearGradient>
    </defs>
    <path
        d="M30.8968 9.18474L27.9032 23.6174C27.8086 24.0586 27.4305 24.3737 26.9893 24.3737C26.9263 24.3737 26.8632 24.3737 26.8002 24.3422C26.296 24.2477 25.9494 23.7435 26.0754 23.2393L28.88 9.75197L10.7919 6.06502L10.3508 8.08181C10.2247 8.58601 9.72053 8.90113 9.21633 8.8066C8.71213 8.68055 8.39701 8.17635 8.49155 7.67215L9.15331 4.7415C9.27935 4.2373 9.75204 3.92218 10.2562 4.01672L30.172 8.0503C30.4241 8.11332 30.6447 8.23937 30.7708 8.45996C30.8968 8.68055 30.9283 8.93265 30.8968 9.18474V9.18474ZM25.004 26.3905C25.004 27.0838 24.4368 27.651 23.7435 27.651H3.26049C2.56722 27.651 2 27.0838 2 26.3905V10.9494C2 10.2562 2.56722 9.68894 3.26049 9.68894H23.7435C24.4368 9.68894 25.004 10.2562 25.004 10.9494V26.3905ZM4.52099 12.2099V19.9935L9.84658 15.6763C10.2562 15.3297 10.918 15.3297 11.3277 15.7078L17.315 21.0019L19.8045 18.859C20.2141 18.5124 20.6868 18.5124 21.0965 18.859L22.1364 19.9305V12.2099H4.52099ZM22.1679 25.13V22.8296L20.4032 21.1594L18.0083 23.3023C17.8102 23.4702 17.5589 23.5623 17.2992 23.5623C17.0396 23.5623 16.7883 23.4702 16.5902 23.3023L10.5083 17.9767L4.52099 22.8611V25.13H22.1679ZM16.9369 17.3464C18.0083 17.3464 18.8591 16.4956 18.8591 15.4242C18.8591 14.3528 17.9768 13.5019 16.9369 13.5019C15.8654 13.5019 15.0146 14.3528 15.0146 15.4242C14.9831 16.4641 15.8654 17.3464 16.9369 17.3464Z"
        fill="url(#paint0_linear_5215_27017)" />
</svg>