<svg width="32" height="32" viewBox="0 0 32 32" fill="none" xmlns="http://www.w3.org/2000/svg">
    <defs>
        <linearGradient id="paint0_linear_5215_27053" x1="25.4873" y1="25.1851" x2="6.56028" y2="8.19192"
            gradientUnits="userSpaceOnUse">
            <stop stop-color="#F43B2E" />
            <stop offset="1" stop-color="#FF5A7B" />
        </linearGradient>
        <linearGradient id="paint1_linear_5215_27053" x1="25.4873" y1="25.1851" x2="6.56028" y2="8.19192"
            gradientUnits="userSpaceOnUse">
            <stop stop-color="#F43B2E" />
            <stop offset="1" stop-color="#FF5A7B" />
        </linearGradient>
    </defs>
    <path fill-rule="evenodd" clip-rule="evenodd"
        d="M5.43538 12.9377H7.55429H15.5514H23.5486H27.4446V25.5486C27.4446 26.2281 26.8938 26.7789 26.2143 26.7789H6.66571C5.98622 26.7789 5.43538 26.2281 5.43538 25.5486V12.9377ZM28.88 12.22V11.5023V8.66571C28.88 7.19348 27.6865 6 26.2143 6H25.4335H18.2171H17.4363H10.22H9.43917H6.66571C5.19348 6 4 7.19348 4 8.66571V11.5023V12.22V12.9377V25.5486C4 27.0208 5.19348 28.2143 6.66571 28.2143H26.2143C27.6865 28.2143 28.88 27.0208 28.88 25.5486V12.9377V12.22ZM27.4446 8.66571C27.4446 8.04085 26.9788 7.52479 26.3755 7.44585L24.637 11.5023H27.4446V8.66571ZM18.3828 7.43538H24.8183L23.0753 11.5023H16.6398L18.3828 7.43538ZM16.8212 7.43538L15.0782 11.5023H8.64269L10.3857 7.43538H16.8212ZM5.43538 11.5023H7.08104L8.82401 7.43538H6.66571C5.98622 7.43538 5.43538 7.98622 5.43538 8.66571V11.5023ZM20.3175 20.1679C20.9637 19.7948 20.9637 18.862 20.3175 18.4889L15.2284 15.5507C14.5821 15.1776 13.7744 15.644 13.7744 16.3902V22.2666C13.7744 23.0128 14.5821 23.4792 15.2284 23.1061L20.3175 20.1679Z"
        fill="url(#paint0_linear_5215_27053)" />
    <path fill-rule="evenodd" clip-rule="evenodd"
        d="M6.39231 13.4162H7.55429H15.5514H23.5486H26.4877V25.5486C26.4877 25.6996 26.3653 25.822 26.2143 25.822H6.66571C6.51472 25.822 6.39231 25.6996 6.39231 25.5486V13.4162ZM23.5486 11.0238H26.4877V8.66571C26.4877 8.51472 26.3653 8.39231 26.2143 8.39231H18.2171H10.22H6.66571C6.51472 8.39231 6.39231 8.51472 6.39231 8.66571V11.0238H7.55429H15.5514H23.5486ZM28.88 8.66571V11.0238V12.22V13.4162V25.5486C28.88 27.0208 27.6865 28.2143 26.2143 28.2143H6.66571C5.19348 28.2143 4 27.0208 4 25.5486V13.4162V12.22V11.0238V8.66571C4 7.19348 5.19348 6 6.66571 6H10.22H18.2171H26.2143C27.6865 6 28.88 7.19348 28.88 8.66571ZM20.3175 20.1679C20.9637 19.7948 20.9637 18.862 20.3175 18.4889L15.2284 15.5507C14.5821 15.1776 13.7744 15.644 13.7744 16.3902V22.2666C13.7744 23.0128 14.5821 23.4792 15.2284 23.1061L20.3175 20.1679Z"
        fill="url(#paint1_linear_5215_27053)" />
</svg>