<svg width="18" height="18" viewBox="0 0 18 18" fill="none" xmlns="http://www.w3.org/2000/svg">
<defs>
<linearGradient id="paint0_linear_626_13372" x1="18.2363" y1="14.4324" x2="5.77832" y2="0.071703" gradientUnits="userSpaceOnUse">
<stop stop-color="#33A752"/>
<stop offset="1" stop-color="#8DCB9E"/>
</linearGradient>
</defs>
<path d="M17.9413 4.96956L16.0826 13.9304C16.0239 14.2043 15.7891 14.4 15.5152 14.4C15.4761 14.4 15.437 14.4 15.3978 14.3804C15.0848 14.3217 14.8696 14.0087 14.9478 13.6957L16.6891 5.32174L5.4587 3.03261L5.18478 4.28478C5.10652 4.59782 4.79348 4.79348 4.48043 4.73478C4.16739 4.65652 3.97174 4.34348 4.03043 4.03043L4.4413 2.21087C4.51957 1.89782 4.81304 1.70217 5.12609 1.76087L17.4913 4.26522C17.6478 4.30435 17.7848 4.38261 17.863 4.51956C17.9413 4.65652 17.9609 4.81304 17.9413 4.96956ZM14.2826 15.6522C14.2826 16.0826 13.9304 16.4348 13.5 16.4348H0.782609C0.352174 16.4348 0 16.0826 0 15.6522V6.06522C0 5.63478 0.352174 5.28261 0.782609 5.28261H13.5C13.9304 5.28261 14.2826 5.63478 14.2826 6.06522V15.6522ZM1.56522 6.84782V11.6804L4.87174 9C5.12609 8.78478 5.53696 8.78478 5.7913 9.01956L9.5087 12.3065L11.0543 10.9761C11.3087 10.7609 11.6022 10.7609 11.8565 10.9761L12.5022 11.6413V6.84782H1.56522ZM12.5217 14.8696V13.4413L11.4261 12.4043L9.93913 13.7348C9.81614 13.839 9.66014 13.8962 9.49891 13.8962C9.33769 13.8962 9.18169 13.839 9.0587 13.7348L5.28261 10.4283L1.56522 13.4609V14.8696H12.5217ZM9.27391 10.037C9.93913 10.037 10.4674 9.50869 10.4674 8.84348C10.4674 8.17826 9.91957 7.65 9.27391 7.65C8.6087 7.65 8.08043 8.17826 8.08043 8.84348C8.06087 9.48913 8.6087 10.037 9.27391 10.037Z" fill="url(#paint0_linear_626_13372)"/>
</svg>
