<svg width="18" height="18" viewBox="0 0 18 18" fill="none" xmlns="http://www.w3.org/2000/svg">
<defs>
<linearGradient id="paint0_linear_626_13384" x1="9.21796" y1="14.1321" x2="-1.00353" y2="8.50371" gradientUnits="userSpaceOnUse">
<stop stop-color="#FCD300"/>
<stop offset="1" stop-color="#FFE662"/>
</linearGradient>
<linearGradient id="paint1_linear_626_13384" x1="17.2661" y1="15.1363" x2="7.53588" y2="11.3733" gradientUnits="userSpaceOnUse">
<stop stop-color="#FCD300"/>
<stop offset="1" stop-color="#FFE662"/>
</linearGradient>
<linearGradient id="paint2_linear_626_13384" x1="14.4754" y1="12.5896" x2="8.63198" y2="10.2487" gradientUnits="userSpaceOnUse">
<stop stop-color="#FCD300"/>
<stop offset="1" stop-color="#FFE662"/>
</linearGradient>
<clipPath id="clip0_626_13384">
<rect width="18" height="18" fill="white"/>
</clipPath>
</defs>
<g clip-path="url(#clip0_626_13384)">
<mask id="mask0_626_13384" style="mask-type:alpha" maskUnits="userSpaceOnUse" x="0" y="0" width="18" height="18">
<path d="M18 0H0V18H18V0Z" fill="white"/>
</mask>
<g mask="url(#mask0_626_13384)">
<path d="M1.87507 12.4333H4.62204C4.8116 12.4333 5.07429 12.5422 5.20816 12.676L8.35732 15.8255C8.7595 16.2274 9.08575 16.0921 9.08575 15.5237V2.47539C9.08575 1.90698 8.7595 1.7717 8.35732 2.17389L5.20816 5.32304C5.07429 5.4572 4.8116 5.56576 4.62204 5.56576H1.87507C1.30638 5.56576 0.844849 6.02758 0.844849 6.59598V11.4031C0.844849 11.9718 1.30638 12.4333 1.87507 12.4333Z" fill="white"/>
<path d="M1.87507 12.4333H4.62204C4.8116 12.4333 5.07429 12.5422 5.20816 12.676L8.35732 15.8255C8.7595 16.2274 9.08575 16.0921 9.08575 15.5237V2.47539C9.08575 1.90698 8.7595 1.7717 8.35732 2.17389L5.20816 5.32304C5.07429 5.4572 4.8116 5.56576 4.62204 5.56576H1.87507C1.30638 5.56576 0.844849 6.02758 0.844849 6.59598V11.4031C0.844849 11.9718 1.30638 12.4333 1.87507 12.4333Z" fill="url(#paint0_linear_626_13384)"/>
<path fill-rule="evenodd" clip-rule="evenodd" d="M15.7815 8.99998C15.7815 7.44804 15.2904 5.93379 14.3772 4.67689C13.4808 3.44079 12.2276 2.50339 10.789 1.99179L10.4636 1.87648C10.285 1.8132 10.1916 1.61661 10.2549 1.43829L10.485 0.790855C10.5485 0.612262 10.7451 0.518887 10.9234 0.582449L11.2458 0.697199C12.9487 1.30161 14.4287 2.4072 15.4898 3.86998C16.5712 5.36032 17.1551 7.15611 17.1551 8.99998C17.1551 10.8405 16.5712 12.6363 15.4898 14.1266C14.4287 15.5894 12.9487 16.6984 11.2458 17.3028L10.9234 17.4175C10.7451 17.4811 10.5485 17.3877 10.485 17.2091L10.2549 16.5617C10.1916 16.3834 10.285 16.1868 10.4636 16.1235L10.789 16.0082C12.2276 15.4966 13.4808 14.5592 14.3772 13.3231C15.2904 12.0662 15.7815 10.5519 15.7815 8.99998Z" fill="white"/>
<path fill-rule="evenodd" clip-rule="evenodd" d="M15.7815 8.99998C15.7815 7.44804 15.2904 5.93379 14.3772 4.67689C13.4808 3.44079 12.2276 2.50339 10.789 1.99179L10.4636 1.87648C10.285 1.8132 10.1916 1.61661 10.2549 1.43829L10.485 0.790855C10.5485 0.612262 10.7451 0.518887 10.9234 0.582449L11.2458 0.697199C12.9487 1.30161 14.4287 2.4072 15.4898 3.86998C16.5712 5.36032 17.1551 7.15611 17.1551 8.99998C17.1551 10.8405 16.5712 12.6363 15.4898 14.1266C14.4287 15.5894 12.9487 16.6984 11.2458 17.3028L10.9234 17.4175C10.7451 17.4811 10.5485 17.3877 10.485 17.2091L10.2549 16.5617C10.1916 16.3834 10.285 16.1868 10.4636 16.1235L10.789 16.0082C12.2276 15.4966 13.4808 14.5592 14.3772 13.3231C15.2904 12.0662 15.7815 10.5519 15.7815 8.99998Z" fill="url(#paint1_linear_626_13384)"/>
<path d="M10.71 5.48045L10.402 5.32576C10.2327 5.24054 10.1644 5.03382 10.2496 4.86451L10.5592 4.24885C10.6442 4.07954 10.8506 4.01148 11.0199 4.09698L11.3245 4.2511C12.2209 4.7011 12.983 5.37048 13.5461 6.1982C14.1024 7.02564 14.4048 8.00073 14.4081 9.00001C14.4048 9.99929 14.1024 10.971 13.5461 11.7984C12.983 12.6259 12.2209 13.2955 11.3245 13.7455L11.0199 13.8994C10.8506 13.9849 10.6442 13.9171 10.5589 13.7478L10.2499 13.1352C10.1646 12.9659 10.2327 12.7595 10.402 12.6743L10.71 12.5196C11.3934 12.1762 11.977 11.6612 12.4096 11.0292C12.8115 10.4285 13.0311 9.72451 13.0345 9.00001C13.0311 8.27551 12.8115 7.56817 12.4096 6.97079C11.977 6.33545 11.3934 5.82385 10.71 5.48045Z" fill="white"/>
<path d="M10.71 5.48045L10.402 5.32576C10.2327 5.24054 10.1644 5.03382 10.2496 4.86451L10.5592 4.24885C10.6442 4.07954 10.8506 4.01148 11.0199 4.09698L11.3245 4.2511C12.2209 4.7011 12.983 5.37048 13.5461 6.1982C14.1024 7.02564 14.4048 8.00073 14.4081 9.00001C14.4048 9.99929 14.1024 10.971 13.5461 11.7984C12.983 12.6259 12.2209 13.2955 11.3245 13.7455L11.0199 13.8994C10.8506 13.9849 10.6442 13.9171 10.5589 13.7478L10.2499 13.1352C10.1646 12.9659 10.2327 12.7595 10.402 12.6743L10.71 12.5196C11.3934 12.1762 11.977 11.6612 12.4096 11.0292C12.8115 10.4285 13.0311 9.72451 13.0345 9.00001C13.0311 8.27551 12.8115 7.56817 12.4096 6.97079C11.977 6.33545 11.3934 5.82385 10.71 5.48045Z" fill="url(#paint2_linear_626_13384)"/>
</g>
</g>
</svg>
