<svg width="24" height="24" viewBox="0 0 24 24" fill="none" xmlns="http://www.w3.org/2000/svg">
<defs>
<linearGradient id="paint0_linear_503_16806" x1="17.8538" y1="16.0758" x2="7.87296" y2="6.66285" gradientUnits="userSpaceOnUse">
<stop stop-color="#33A752"/>
<stop offset="1" stop-color="#8DCB9E"/>
</linearGradient>
<clipPath id="clip0_503_16806">
<rect width="24" height="24" fill="white"/>
</clipPath>
</defs>
<g clip-path="url(#clip0_503_16806)">
<circle cx="12" cy="12" r="12" fill="#4AB76A" fill-opacity="0.2"/>
<path d="M15.9167 6H7.75C7.28587 6 6.84075 6.18437 6.51256 6.51256C6.18437 6.84075 6 7.28587 6 7.75V15.9167C6 16.3808 6.18437 16.8259 6.51256 17.1541C6.84075 17.4823 7.28587 17.6667 7.75 17.6667H15.9167C16.3808 17.6667 16.8259 17.4823 17.1541 17.1541C17.4823 16.8259 17.6667 16.3808 17.6667 15.9167V7.75C17.6667 7.28587 17.4823 6.84075 17.1541 6.51256C16.8259 6.18437 16.3808 6 15.9167 6ZM10.6667 7.16667H13V8.9925L12.1542 8.40917C12.0589 8.34644 11.9474 8.31301 11.8333 8.31301C11.7193 8.31301 11.6077 8.34644 11.5125 8.40917L10.6667 8.9925V7.16667ZM16.5 15.9167C16.5 16.0714 16.4385 16.2198 16.3291 16.3291C16.2198 16.4385 16.0714 16.5 15.9167 16.5H7.75C7.59529 16.5 7.44692 16.4385 7.33752 16.3291C7.22812 16.2198 7.16667 16.0714 7.16667 15.9167V7.75C7.16667 7.59529 7.22812 7.44692 7.33752 7.33752C7.44692 7.22812 7.59529 7.16667 7.75 7.16667H9.5V10.0833C9.50028 10.1889 9.52918 10.2923 9.58363 10.3827C9.63807 10.4731 9.71602 10.5471 9.80917 10.5967C9.90038 10.6435 10.0023 10.6655 10.1047 10.6603C10.2072 10.6552 10.3064 10.6232 10.3925 10.5675L11.8333 9.61667L13.2625 10.5675C13.3502 10.6253 13.4519 10.6583 13.5569 10.6631C13.6618 10.6678 13.7661 10.6442 13.8587 10.5946C13.9513 10.545 14.0288 10.4713 14.083 10.3813C14.1372 10.2913 14.1661 10.1884 14.1667 10.0833V7.16667H15.9167C16.0714 7.16667 16.2198 7.22812 16.3291 7.33752C16.4385 7.44692 16.5 7.59529 16.5 7.75V15.9167Z" fill="url(#paint0_linear_503_16806)"/>
</g>
</svg>
