<svg width="24" height="24" viewBox="0 0 24 24" fill="none" xmlns="http://www.w3.org/2000/svg">
<defs>
<linearGradient id="paint0_linear_503_16785" x1="18.0286" y1="17.2978" x2="5.24071" y2="5.1385" gradientUnits="userSpaceOnUse">
<stop stop-color="#3258F3"/>
<stop offset="1" stop-color="#2DA6FF"/>
</linearGradient>
<clipPath id="clip0_503_16785">
<rect width="24" height="24" fill="white"/>
</clipPath>
</defs>
<g clip-path="url(#clip0_503_16785)">
<circle cx="12" cy="12" r="12" fill="#D3E1F6"/>
<path d="M18.3293 13.4359C18.3324 13.4071 18.3324 13.378 18.3293 13.3492C18.3267 13.3226 18.3267 13.2958 18.3293 13.2692L18.296 13.1892L14.296 6.32923C14.2321 6.22044 14.1387 6.132 14.0266 6.07417C13.9145 6.01635 13.7883 5.99152 13.6626 6.00256H9.66265C9.54587 6.00175 9.43092 6.03164 9.32932 6.08923L9.25598 6.14256C9.23455 6.15866 9.21448 6.17649 9.19598 6.19589C9.17026 6.21943 9.14783 6.24634 9.12932 6.27589C9.12932 6.27589 9.12932 6.27589 9.08932 6.32923L5.08932 13.2159C5.0308 13.3172 5 13.4322 5 13.5492C5 13.6663 5.0308 13.7812 5.08932 13.8826L7.08932 17.2692C7.10994 17.3052 7.13454 17.3387 7.16265 17.3692V17.4092C7.24546 17.4892 7.34595 17.5486 7.45598 17.5826C7.50466 17.5891 7.55398 17.5891 7.60265 17.5826H15.6626C15.7783 17.5825 15.892 17.5524 15.9926 17.4951C16.0931 17.4379 16.177 17.3554 16.236 17.2559L18.236 13.8292L18.2693 13.7492C18.2667 13.7226 18.2667 13.6958 18.2693 13.6692C18.2729 13.6404 18.2729 13.6113 18.2693 13.5826C18.273 13.5538 18.273 13.5247 18.2693 13.4959C18.2914 13.4781 18.3115 13.458 18.3293 13.4359ZM7.66265 15.6292L6.46932 13.5626L9.66265 7.98923L10.2426 8.98923L10.9093 10.0959L8.32932 14.4159L7.66265 15.6292ZM11.6626 11.4159L12.5026 12.8559H10.8093L11.6626 11.4159ZM15.2826 16.2826H8.79598L10.0226 14.1892H16.5026L15.2826 16.2826ZM14.0426 12.8559L10.8226 7.33589H13.2826L16.5026 12.8559H14.0426Z" fill="url(#paint0_linear_503_16785)"/>
</g>
</svg>
