<svg width="18" height="18" viewBox="0 0 18 18" fill="none" xmlns="http://www.w3.org/2000/svg">
<defs>
<linearGradient id="paint0_linear_626_13396" x1="16.2129" y1="5.4831" x2="4.41162" y2="19.9008" gradientUnits="userSpaceOnUse">
<stop stop-color="#3258F3"/>
<stop offset="1" stop-color="#2DA6FF"/>
</linearGradient>
<clipPath id="clip0_626_13396">
<rect width="18" height="18" fill="white"/>
</clipPath>
</defs>
<g clip-path="url(#clip0_626_13396)">
<mask id="mask0_626_13396" style="mask-type:alpha" maskUnits="userSpaceOnUse" x="0" y="0" width="18" height="18">
<path d="M0 0H18V18H0V0Z" fill="white"/>
</mask>
<g mask="url(#mask0_626_13396)">
<path d="M0.473694 14.2107C0.473694 14.7132 0.673317 15.1952 1.02865 15.5505C1.38398 15.9058 1.86592 16.1055 2.36843 16.1055H13.7369C14.2394 16.1055 14.7213 15.9058 15.0766 15.5505C15.432 15.1952 15.6316 14.7132 15.6316 14.2107V6.1581C15.6316 5.65558 15.432 5.17365 15.0766 4.81832C14.7213 4.46299 14.2394 4.26336 13.7369 4.26336H9.47369C7.78643 4.26336 8.05264 1.89494 5.47722 1.89494H2.36843C1.86592 1.89494 1.38398 2.09457 1.02865 2.4499C0.673317 2.80523 0.473694 3.28716 0.473694 3.78968V14.2107Z" fill="#3F74E0"/>
<path d="M14.6842 5.21073H11.5759C9.00001 5.21073 9.26622 7.57915 7.57896 7.57915H3.3158C2.81328 7.57915 2.33135 7.77878 1.97602 8.13411C1.62069 8.48944 1.42106 8.97137 1.42106 9.47389V14.2107C1.42106 14.3364 1.37116 14.4568 1.28232 14.5457C1.19349 14.6345 1.07301 14.6844 0.947378 14.6844C0.821749 14.6844 0.701265 14.6345 0.612432 14.5457C0.523599 14.4568 0.473694 14.3364 0.473694 14.2107C0.473694 14.7132 0.673318 15.1952 1.02865 15.5505C1.38398 15.9058 1.86592 16.1055 2.36843 16.1055H14.6842C15.1867 16.1055 15.6687 15.9058 16.024 15.5505C16.3793 15.1952 16.579 14.7132 16.579 14.2107V7.10547C16.579 6.60295 16.3793 6.12102 16.024 5.76569C15.6687 5.41036 15.1867 5.21073 14.6842 5.21073Z" fill="url(#paint0_linear_626_13396)"/>
</g>
</g>
</svg>
