<svg width="18" height="18" viewBox="0 0 18 18" fill="none" xmlns="http://www.w3.org/2000/svg">
<defs>
<linearGradient id="paint0_linear_626_13378" x1="15.1016" y1="13.9091" x2="3.53252" y2="2.38215" gradientUnits="userSpaceOnUse">
<stop stop-color="#F43B2E"/>
<stop offset="1" stop-color="#FF5A7B"/>
</linearGradient>
</defs>
<path d="M14.5772 2.25H3.42279C2.67687 2.25 1.9615 2.54632 1.43405 3.07376C0.906607 3.60121 0.610291 4.31658 0.610291 5.0625V12.9375C0.610291 13.6834 0.906607 14.3988 1.43405 14.9262C1.9615 15.4537 2.67687 15.75 3.42279 15.75H14.5772C15.3231 15.75 16.0385 15.4537 16.5659 14.9262C17.0934 14.3988 17.3897 13.6834 17.3897 12.9375V5.0625C17.3897 4.31658 17.0934 3.60121 16.5659 3.07376C16.0385 2.54632 15.3231 2.25 14.5772 2.25ZM12.0122 9.7425L7.39685 12.2175C7.27414 12.2837 7.13692 12.3185 6.99748 12.3187C6.7737 12.3187 6.55909 12.2299 6.40086 12.0716C6.24262 11.9134 6.15373 11.6988 6.15373 11.475V6.525C6.15386 6.37914 6.1918 6.2358 6.26385 6.10897C6.3359 5.98215 6.43959 5.87616 6.56482 5.80137C6.69005 5.72657 6.83252 5.68552 6.97835 5.68221C7.12417 5.67891 7.26837 5.71346 7.39685 5.7825L12.0122 8.2575C12.1461 8.3298 12.258 8.43698 12.336 8.5677C12.414 8.69841 12.4552 8.84779 12.4552 9C12.4552 9.15221 12.414 9.30159 12.336 9.4323C12.258 9.56302 12.1461 9.6702 12.0122 9.7425ZM7.27873 6.99469L11.0165 9L7.27873 11.0053V6.99469Z" fill="url(#paint0_linear_626_13378)"/>
</svg>
