<svg width="133" height="93" viewBox="0 0 133 93" fill="none" xmlns="http://www.w3.org/2000/svg">
<path d="M83.658 4.13672C84.9553 4.64311 86.2083 5.25632 87.4042 5.97002C89.9112 7.42032 92.2063 9.20941 94.2245 11.2867C99.5357 16.7231 102.693 23.9025 103.111 31.4913C103.549 38.8779 101.306 46.1744 96.7944 52.0397C92.2831 57.905 85.8064 61.945 78.5547 63.4171C75.961 63.9417 73.3111 64.1349 70.6688 63.9921C69.382 63.9431 68.1008 63.7956 66.8365 63.5509C66.6608 63.5015 66.4742 63.5068 66.3015 63.566C66.1288 63.6251 65.9782 63.7354 65.8697 63.8822C64.2562 65.7681 62.6156 67.6332 60.999 69.5175C59.9971 70.6818 59.0255 71.8732 57.8134 72.8305C57.1349 73.3656 56.4356 73.8801 55.6169 74.1939C54.1133 72.9006 52.6103 71.6083 51.1078 70.3171C50.8943 70.1355 51.0345 69.9985 51.1253 69.8472C53.0366 66.5931 54.9591 63.3534 57.0632 60.2204C58.6299 57.8704 60.329 55.6114 62.1521 53.4542C62.3401 53.2344 62.493 53.1946 62.7893 53.2949C65.3935 54.1471 67.257 53.4765 68.6364 51.4425C68.7256 51.4266 68.7351 51.3613 68.7351 51.2832L68.8164 51.1606V51.1351L68.896 51.0045C68.9087 50.9647 68.9215 50.9249 68.9358 50.885C69.0855 50.8404 69.0505 50.7162 69.0537 50.6095L69.0441 50.5856C69.1939 50.4741 69.1285 50.3148 69.1349 50.1731C69.2815 49.888 69.4646 49.8625 69.6669 50.1094C69.7752 50.2432 69.9393 50.2686 70.0715 50.3435C71.8459 51.4359 73.7904 52.2241 75.8246 52.6753C77.3362 53.0114 78.8605 53.2408 80.4182 53.1787C81.0872 53.1516 81.7578 53.1978 82.4235 53.0942C83.1196 52.9875 83.8316 52.935 84.5117 52.7613C85.5725 52.4874 86.6221 52.1513 87.659 51.7945C88.0079 51.6751 88.4045 51.6703 88.7023 51.476C89.2056 51.1367 89.7583 50.8898 90.2728 50.5729C91.2285 49.9835 92.1842 49.4053 93.0156 48.6408C93.4552 48.2362 94.0206 47.9336 94.3583 47.4637C94.8202 46.8266 95.4271 46.3249 95.9001 45.6941C96.5826 44.7743 97.2091 43.8142 97.7764 42.8192C98.095 42.2681 98.3084 41.6564 98.6047 41.0974C99.0124 40.3249 99.1685 39.4775 99.4871 38.6811C99.6634 38.175 99.783 37.651 99.8439 37.1186C100.021 36.0036 100.233 34.8998 100.19 33.7658C100.162 33.057 100.164 32.3498 100.131 31.641C100.073 30.8458 99.9643 30.0551 99.8041 29.2741C99.5821 28.0623 99.2152 26.8815 98.7114 25.7572C98.4884 25.2491 98.3132 24.7124 98.0026 24.2329C97.6554 23.7009 97.3814 23.1259 97.0215 22.5924C96.7682 22.218 96.5739 21.7609 96.292 21.4025C95.1012 19.8591 93.7083 18.4828 92.1507 17.3107C91.3846 16.742 90.5579 16.2706 89.7472 15.78C89.0535 15.3886 88.3271 15.0581 87.5762 14.7925C86.8897 14.5281 86.2016 14.2796 85.5056 14.0693C84.4505 13.7633 83.3682 13.5606 82.2738 13.4641C81.3484 13.3733 80.4119 13.4227 79.4801 13.3908C78.7868 13.3928 78.0956 13.4664 77.4174 13.6106C76.5191 13.7699 75.6128 13.8878 74.7352 14.1777C74.0598 14.4006 73.4052 14.6555 72.7442 14.9215C71.6823 15.3162 70.663 15.8173 69.702 16.4171C69.0919 16.8153 68.5105 17.2629 67.9371 17.7216C66.9448 18.518 65.9955 19.3415 65.2071 20.3354C64.5254 21.1939 63.8309 22.0381 63.2544 22.981C62.5825 24.0883 62.0208 25.2587 61.5771 26.4756C61.3073 27.168 61.0942 27.8813 60.94 28.6083C60.6855 29.8502 60.5078 31.1067 60.408 32.3705C60.3634 33.0442 60.4447 33.7036 60.4272 34.3678C60.4033 35.2136 60.5657 36.0387 60.7075 36.8605C60.9362 38.2146 61.326 39.5364 61.8686 40.7979C62.0454 41.2057 62.1728 41.6389 62.3783 42.0307C62.8714 42.9975 63.4319 43.9284 64.0555 44.8165C64.8418 45.9153 65.728 46.9391 66.7027 47.8747C66.8286 47.9957 67.093 48.034 67.042 48.2601C66.991 48.4863 66.7234 48.2761 66.6024 48.4274C66.2392 48.4815 65.8777 48.5389 65.5687 48.7603C65.1179 48.7459 64.871 49.0135 64.7006 49.3862L64.6226 49.4722C64.5164 49.4722 64.4633 49.5253 64.4633 49.6315L64.355 49.6506L64.3932 49.7064C64.3872 49.7402 64.3724 49.7718 64.3503 49.7981C64.3282 49.8243 64.2996 49.8444 64.2674 49.8561C64.21 49.8672 64.1591 49.8864 64.1431 49.9501C63.6876 50.1364 63.4598 50.5028 63.3467 50.9583L63.3388 50.9695L63.2703 51.0555C62.9899 51.4361 62.7017 51.8105 62.4341 52.1991C62.2748 52.4364 62.1075 52.4332 61.8702 52.3074C60.3891 51.4971 59.0965 50.3821 58.0778 49.0358C57.8309 48.7173 57.8389 48.4608 57.9886 48.112C58.4776 46.9763 58.785 45.7977 58.6751 44.5457C58.6444 43.9102 58.4143 43.3005 58.0173 42.8032C57.9193 42.6755 57.7948 42.5706 57.6525 42.4955C57.5101 42.4205 57.3531 42.3772 57.1924 42.3685C57.0317 42.3599 56.871 42.3862 56.7214 42.4455C56.5718 42.5049 56.4368 42.596 56.3257 42.7125C55.8973 43.1329 55.8017 43.6681 55.7826 44.232C55.7332 45.7563 56.2286 47.1292 57.0058 48.4114C57.0631 48.4899 57.0956 48.5838 57.099 48.6809C57.1024 48.778 57.0766 48.8739 57.025 48.9562C56.7325 49.5299 56.3993 50.0819 56.0279 50.6079C54.322 52.9843 52.3645 55.1426 50.3639 57.2721C48.9541 58.8155 47.4394 60.2599 45.8308 61.5949C45.0841 62.2178 44.2971 62.7908 43.4751 63.3104C43.3349 63.3948 43.2091 63.5015 43.0228 63.3359C41.9317 62.369 40.8295 61.415 39.7305 60.4577C40.1812 59.561 40.6145 58.6531 41.0875 57.7675C41.7469 56.5363 42.5736 55.4086 43.3349 54.241C43.7061 53.6708 44.1505 53.1372 44.5694 52.5941C45.232 51.7351 45.8845 50.8702 46.5269 49.9995C47.4969 48.6838 48.5179 47.4064 49.4736 46.0796C50.2492 45.0029 50.9771 43.8895 51.7035 42.7746C52.2928 41.8667 52.8614 40.946 53.3966 40.0015C54.0337 38.877 54.6374 37.7382 55.163 36.5595C55.6364 35.548 56.0506 34.5099 56.4038 33.4504C56.6108 32.7894 56.8657 32.1411 57.0409 31.4706C57.4564 29.7568 57.7755 28.0212 57.9966 26.2717C58.1909 24.8796 58.6162 23.5464 59.0956 22.2308C59.5941 20.8642 60.2902 19.5931 61.034 18.346C61.8479 16.9762 62.8705 15.7673 63.9361 14.5982C64.5697 13.9218 65.2459 13.2865 65.9605 12.6964C67.0076 11.7978 68.1198 10.9779 69.2878 10.2435C70.4776 9.50123 71.677 8.77651 72.9305 8.15214C73.762 7.73801 74.5823 7.3 75.4503 6.96073C76.2165 6.66129 76.9571 6.29972 77.7439 6.0401C78.2568 5.87286 78.7538 5.63075 79.2746 5.46988C80.7336 5.02072 82.1958 4.58111 83.658 4.13672Z" fill="#96CAFF"/>
<path d="M51.7844 12.2723C51.9087 12.1767 52.017 12.0971 52.1109 12.035C52.0393 12.0384 51.9702 12.0627 51.9122 12.1048C51.8542 12.147 51.8098 12.2052 51.7844 12.2723ZM51.7844 12.2723C51.9087 12.1767 52.017 12.0971 52.1109 12.035C52.0393 12.0384 51.9702 12.0627 51.9122 12.1048C51.8542 12.147 51.8098 12.2052 51.7844 12.2723ZM51.7844 12.2723C51.9087 12.1767 52.017 12.0971 52.1109 12.035C52.0393 12.0384 51.9702 12.0627 51.9122 12.1048C51.8542 12.147 51.8098 12.2052 51.7844 12.2723ZM51.7844 12.2723C51.9087 12.1767 52.017 12.0971 52.1109 12.035C52.0393 12.0384 51.9702 12.0627 51.9122 12.1048C51.8542 12.147 51.8098 12.2052 51.7844 12.2723ZM51.7844 12.2723C51.9087 12.1767 52.017 12.0971 52.1109 12.035C52.0393 12.0384 51.9702 12.0627 51.9122 12.1048C51.8542 12.147 51.8098 12.2052 51.7844 12.2723ZM51.7844 12.2723C51.9087 12.1767 52.017 12.0971 52.1109 12.035C52.0393 12.0384 51.9702 12.0627 51.9122 12.1048C51.8542 12.147 51.8098 12.2052 51.7844 12.2723ZM83.5255 4.05669C79.829 2.53868 75.8765 1.74073 71.8806 1.70573C69.6042 1.68622 67.3325 1.91697 65.1065 2.39382C61.2725 3.19683 57.6296 4.73221 54.3775 6.91574C49.7824 10.0018 46.1031 14.2683 43.7262 19.2672C41.3492 24.266 40.3623 29.8127 40.869 35.3247C41.1324 38.289 41.8201 41.2 42.911 43.9688C42.9528 44.049 42.9674 44.1407 42.9528 44.23C42.9381 44.3193 42.895 44.4014 42.8298 44.4641C41.194 46.3516 39.5725 48.2518 37.9272 50.1265C36.8616 51.345 35.7928 52.5571 35.0601 54.0209C34.7671 54.6086 34.4613 55.1915 34.3418 55.8478C34.349 55.8936 34.3672 55.937 34.395 55.9742C34.4227 56.0114 34.4592 56.0413 34.5011 56.0612C36.0556 57.1188 37.3681 58.4711 38.8016 59.6625C39.1202 59.9205 39.418 60.1881 39.7254 60.4589C40.1762 59.5622 40.6094 58.6543 41.0841 57.7687C41.7419 56.5375 42.5685 55.4098 43.3299 54.2422C43.701 53.672 44.1454 53.1384 44.5659 52.5953C45.2264 51.7363 45.8789 50.8714 46.5234 50.0006C47.4919 48.685 48.5128 47.4076 49.4685 46.0808C50.2442 45.0041 50.9721 43.8907 51.6984 42.7758C52.2877 41.8679 52.8548 40.9472 53.3899 40.0027C54.0271 38.8782 54.6307 37.7394 55.1563 36.5607C55.6319 35.5488 56.0484 34.5102 56.4035 33.45C56.6106 32.789 56.8654 32.1407 57.0406 31.4702C57.4577 29.7568 57.7767 28.021 57.9963 26.2713C58.1906 24.8792 58.6159 23.546 59.0953 22.2304C59.615 20.8781 60.2603 19.5775 61.0226 18.3456C61.8381 16.9758 62.8591 15.7669 63.9246 14.5978C64.5626 13.9218 65.2425 13.2866 65.9602 12.696C67.0079 11.7982 68.12 10.9783 69.2876 10.2431C70.4774 9.50083 71.6767 8.77612 72.9303 8.15174C73.7617 7.73762 74.5836 7.2996 75.4501 6.96034C76.2178 6.66089 76.9568 6.29774 77.7437 6.03971C78.2581 5.87246 78.7535 5.63036 79.2743 5.46949C80.7333 5.02032 82.1971 4.58071 83.6577 4.13633C83.6161 4.10586 83.5719 4.0792 83.5255 4.05669ZM49.3395 16.6588C49.2979 16.6797 49.2501 16.6851 49.2049 16.674C49.1597 16.6629 49.1198 16.6361 49.0926 16.5983C48.9158 16.4247 48.7422 16.2447 48.5622 16.0727C48.43 15.9484 48.3408 15.7541 48.0844 15.9277C47.9585 16.0153 47.7658 15.8258 47.8518 15.7C48.0015 15.469 47.8518 15.3814 47.7435 15.2396C47.5205 14.9625 47.6432 14.448 47.9617 14.2888C48.0061 14.2608 48.0592 14.2499 48.1111 14.2581C48.1629 14.2663 48.21 14.293 48.2436 14.3334C48.3328 14.4178 48.3663 14.5038 48.2675 14.6025C48.1688 14.7013 48.0525 14.8367 48.2054 15.0023C48.3583 15.168 48.4539 15.0437 48.5622 14.9482C48.5792 14.9278 48.6006 14.9113 48.6246 14.9001C48.6487 14.8888 48.675 14.883 48.7016 14.883C48.7282 14.883 48.7544 14.8888 48.7785 14.9001C48.8026 14.9113 48.8239 14.9278 48.8409 14.9482C48.8613 14.9656 48.8774 14.9875 48.888 15.0121C48.8985 15.0368 48.9033 15.0635 48.9019 15.0903C48.9005 15.117 48.893 15.1431 48.88 15.1665C48.8669 15.19 48.8487 15.2101 48.8266 15.2253C48.618 15.3989 48.7071 15.5264 48.8632 15.6681C49.048 15.8369 49.2184 16.0185 49.3936 16.1953C49.4574 16.2606 49.5306 16.3212 49.529 16.4263C49.519 16.4776 49.4964 16.5257 49.4633 16.5663C49.4303 16.6068 49.3877 16.6386 49.3395 16.6588ZM50.3175 15.7031C50.2283 15.7939 50.12 15.8624 50.0116 15.7637C49.6612 15.4292 49.322 15.0851 48.9795 14.7411C48.954 14.7156 48.9222 14.6551 48.9317 14.6424C49.1499 14.3748 49.3761 14.1104 49.6103 13.83C49.7982 13.9304 49.897 14.0992 49.7871 14.2378C49.4812 14.6185 49.701 14.8542 49.9623 15.1011C50.0769 15.2094 50.1837 15.3241 50.2968 15.434C50.3828 15.5216 50.4162 15.606 50.3175 15.7063V15.7031ZM53.1717 12.8059C52.9997 13.2057 52.5697 13.4876 52.2161 13.443C51.778 13.3761 51.3926 13.0241 51.3496 12.6466C51.3488 12.6381 51.3488 12.6296 51.3496 12.6211C51.2397 12.7119 51.1202 12.8122 50.9912 12.9237L51.0979 12.9572L51.1537 12.9763C51.1907 12.9894 51.2269 13.0048 51.262 13.0225C51.6825 13.2264 51.692 13.298 51.3528 13.6437C51.2062 13.7934 51.0549 13.9399 50.9084 14.0912C50.8654 14.1358 50.8001 14.1836 50.8367 14.2505C50.8733 14.3174 50.9737 14.319 51.047 14.3079C51.137 14.2911 51.2211 14.2512 51.2909 14.192C51.3608 14.1327 51.4139 14.0563 51.4452 13.9702C51.5264 13.7998 51.6554 13.7058 51.8179 13.7982C51.9803 13.8906 51.8752 14.053 51.8179 14.1773C51.6395 14.5739 51.1664 14.8574 50.8128 14.7873C50.59 14.7348 50.3909 14.6098 50.2468 14.432C50.1026 14.2541 50.0216 14.0334 50.0164 13.8045C50.3923 13.4621 50.7157 13.1674 50.9928 12.9349C50.5994 12.8282 50.4051 12.868 51.3958 12.1385C51.3958 12.1242 51.4069 12.1082 51.4133 12.0939C51.4183 12.0795 51.4247 12.0656 51.4324 12.0525C51.4452 12.0237 51.4612 11.9964 51.4802 11.9712C51.4977 11.9474 51.5152 11.9235 51.5359 11.8996C51.5762 11.8531 51.6223 11.8119 51.6729 11.7769C51.6984 11.7578 51.7255 11.7403 51.7542 11.7228L51.821 11.6877L51.8577 11.6702C51.8951 11.6524 51.9334 11.6364 51.9724 11.6224C52.0374 11.601 52.104 11.5845 52.1715 11.5731C52.3984 11.5957 52.614 11.683 52.7927 11.8247C52.8081 11.8344 52.823 11.8451 52.8372 11.8566C52.9758 11.9633 52.928 12.0843 52.8213 12.1926C52.6366 12.3774 52.4502 12.5622 52.267 12.7501C52.2145 12.8043 52.1316 12.8648 52.1874 12.9476C52.2431 13.0305 52.3323 13.005 52.4056 12.9906C52.4946 12.9663 52.5764 12.9207 52.6438 12.8577C52.7112 12.7947 52.7623 12.7162 52.7927 12.6291C52.8659 12.4698 52.9822 12.3933 53.1367 12.4698C53.339 12.5367 53.2275 12.6816 53.1717 12.8091V12.8059ZM53.6416 9.332C53.6015 9.33399 53.5613 9.32766 53.5238 9.3134C53.4862 9.29914 53.4519 9.27727 53.4232 9.24914C53.3945 9.22102 53.3719 9.18726 53.3569 9.14999C53.3418 9.11272 53.3346 9.07273 53.3358 9.03255C53.3301 8.9929 53.3333 8.95248 53.345 8.91418C53.3568 8.87589 53.3768 8.84065 53.4037 8.81099C53.4307 8.78133 53.4638 8.75797 53.5008 8.74258C53.5378 8.72719 53.5777 8.72015 53.6177 8.72196C53.699 8.72447 53.7765 8.75692 53.8353 8.81307C53.894 8.86922 53.93 8.94512 53.9363 9.02618C53.8885 9.1775 53.8455 9.34156 53.6416 9.33518V9.332ZM55.244 10.7655C55.1532 10.8499 55.0767 10.8037 55.005 10.7337C54.6865 10.4071 54.3552 10.0838 54.0334 9.75568C54.01 9.73563 53.9914 9.71044 53.9793 9.68206C53.9671 9.65368 53.9617 9.62289 53.9634 9.59207C53.9651 9.56125 53.9739 9.53123 53.9891 9.50436C54.0042 9.47749 54.0254 9.45448 54.051 9.43712C54.1417 9.34315 54.2501 9.27784 54.3584 9.38615C54.7088 9.72223 55.0496 10.0695 55.3921 10.4135C55.4127 10.4425 55.4283 10.4749 55.4383 10.5091C55.4056 10.6172 55.3371 10.7111 55.244 10.7751V10.7655ZM56.0133 9.49128C55.9177 9.49128 55.7807 9.43712 55.7377 9.56773C55.7059 9.6633 55.8126 9.72701 55.8779 9.78594C56.0212 9.91018 56.0053 10.0137 55.8779 10.1443C55.7505 10.2749 55.6501 10.2733 55.5195 10.1443C55.0703 9.684 54.61 9.23484 54.1593 8.77452C54.0812 8.68644 54.0206 8.58426 53.9809 8.47349C53.9578 8.42522 53.953 8.37023 53.9674 8.3187C53.9817 8.26717 54.0142 8.22257 54.0589 8.19316C54.1688 8.11829 54.258 8.17245 54.3377 8.2505C54.5527 8.46393 54.7645 8.67896 54.9748 8.88761C55.0194 8.93062 55.0895 8.98636 55.134 8.9784C55.2344 8.96088 55.2105 8.85894 55.2169 8.78408C55.2344 8.54357 55.142 8.27598 55.3921 8.09281C55.4558 8.04662 55.5115 7.9845 55.6007 8.01476C55.6899 8.04503 55.6867 8.13422 55.6883 8.21068C55.6955 8.30239 55.6955 8.39452 55.6883 8.48623C55.6198 9.01822 55.6183 9.01663 56.1662 9.01822C56.3255 9.01822 56.4847 9.01822 56.644 9.03574C56.7112 9.05313 56.7752 9.08109 56.8335 9.11857C56.652 9.5295 56.3334 9.51039 56.0133 9.51039V9.49128ZM51.7844 12.2723C51.9087 12.1767 52.017 12.0971 52.1109 12.035C52.0393 12.0384 51.9702 12.0627 51.9122 12.1048C51.8542 12.147 51.8098 12.2052 51.7844 12.2723ZM51.7844 12.2723C51.9087 12.1767 52.017 12.0971 52.1109 12.035C52.0393 12.0384 51.9702 12.0627 51.9122 12.1048C51.8542 12.147 51.8098 12.2052 51.7844 12.2723ZM51.7844 12.2723C51.9087 12.1767 52.017 12.0971 52.1109 12.035C52.0393 12.0384 51.9702 12.0627 51.9122 12.1048C51.8542 12.147 51.8098 12.2052 51.7844 12.2723ZM51.7844 12.2723C51.9087 12.1767 52.017 12.0971 52.1109 12.035C52.0393 12.0384 51.9702 12.0627 51.9122 12.1048C51.8542 12.147 51.8098 12.2052 51.7844 12.2723ZM51.7844 12.2723C51.9087 12.1767 52.017 12.0971 52.1109 12.035C52.0393 12.0384 51.9702 12.0627 51.9122 12.1048C51.8542 12.147 51.8098 12.2052 51.7844 12.2723Z" fill="#96CAFF"/>
<path d="M51.345 12.3961C51.338 12.4708 51.338 12.546 51.345 12.6207C51.2351 12.7115 51.1156 12.8119 50.9866 12.9233C50.5932 12.8166 50.3988 12.8564 51.3896 12.127C51.3702 12.1783 51.3569 12.2318 51.3497 12.2862C51.3497 12.3069 51.3497 12.3276 51.3497 12.3484C51.3497 12.3691 51.345 12.377 51.345 12.3961Z" fill="#96CAFF"/>
<path d="M55.6251 74.2762C56.4932 74.9882 57.0586 75.8833 57.1845 77.011C57.3692 78.7472 56.0345 80.0007 54.2935 79.7761C53.6962 79.6996 53.1595 79.4575 52.6131 79.2441C52.0397 78.7296 51.3915 78.306 50.8356 77.766C50.2064 77.1544 49.52 76.6033 48.8542 76.0315C47.8587 75.1809 46.8536 74.3415 45.8645 73.483C44.9248 72.6691 44.0057 71.8297 43.066 71.0158C41.8475 69.9629 40.6035 68.9452 39.4026 67.8764C38.3704 66.9669 37.3495 66.0463 36.2743 65.1894C36.0179 64.9488 35.7694 64.6988 35.5034 64.4694C34.3996 63.5249 33.3086 62.5692 32.1936 61.6502C31.7731 61.3061 31.4434 60.8538 30.9465 60.6021C31.0261 60.4221 30.8525 60.3457 30.7872 60.2406C30.3559 59.656 30.0966 58.9625 30.0386 58.2384C29.9542 56.6361 31.0962 55.4909 32.7001 55.5801C33.1742 55.5947 33.6402 55.7058 34.0699 55.9066C34.3009 56.1694 34.4506 56.5103 34.8504 56.601C35.0097 56.6361 35.1275 56.7922 35.2709 56.8814C35.6277 57.106 35.8538 57.4771 36.2265 57.6873C36.561 57.8769 36.6232 58.3945 37.0962 58.4296C37.1058 58.4296 37.1137 58.4455 37.1233 58.4551C37.6967 59.03 38.3657 59.4999 38.9375 60.0685C39.6112 60.7391 40.5303 61.1548 41.0001 62.0356C41.0208 62.0739 41.0877 62.0866 41.1339 62.1105C41.7519 62.4291 42.2393 62.918 42.7458 63.3847C42.9051 63.5233 43.0246 63.6444 43.2476 63.6205C43.3383 63.6109 43.5406 63.5966 43.496 63.7144C43.3288 64.1572 43.7079 64.1795 43.9181 64.3611C44.8403 65.1575 45.7307 65.981 46.6641 66.7583C46.9619 67.0067 47.1833 67.4097 47.6564 67.4033C47.7711 67.8573 48.1916 68.0532 48.4719 68.3686C48.8701 68.8177 49.4276 69.0789 49.8513 69.501C50.1539 69.8053 50.431 70.1095 50.9535 69.775C50.6476 70.2082 50.697 70.4806 51.1892 70.6144C51.2895 70.6431 51.3596 70.7737 51.4488 70.8517C51.8996 71.2467 52.3551 71.6386 52.8043 72.0368C53.5258 72.6739 54.2378 73.3269 54.9689 73.9481C55.1425 74.101 55.2763 74.4243 55.6251 74.2762ZM37.5279 62.8225C37.5327 62.7442 37.5641 62.67 37.6171 62.6122C37.6887 62.5246 37.8608 62.4529 37.7986 62.3399C37.7126 62.1806 37.6059 62.3478 37.5103 62.386C37.4148 62.4243 37.3925 62.3685 37.3511 62.3144C37.2714 62.2077 37.1695 62.1439 37.0548 62.2491C36.9401 62.3542 37.0389 62.4721 37.1313 62.5294C37.2826 62.6218 37.2746 62.7173 37.2013 62.848C37.1551 62.934 37.0691 63.0502 37.2189 63.1092C37.3686 63.1681 37.3447 63.0216 37.3909 62.9499C37.4305 62.9 37.4765 62.8555 37.5279 62.8177C37.5361 62.9748 37.5066 63.1315 37.4418 63.2748C37.2571 63.7813 37.3988 64.2305 37.719 64.6223C38.0168 64.9919 38.1267 64.9775 38.5154 64.7099C38.8515 64.4853 39.076 64.1397 39.4153 63.9231C39.2927 64.4742 38.7479 64.6717 38.4055 65.0603C38.74 65.183 39.0203 65.0603 39.2974 65.0157C39.6717 64.9441 40.1798 64.3404 40.2037 63.9932C40.6067 64.1525 40.8679 64.4949 41.1833 64.7657C42.2584 65.6863 43.3352 66.6053 44.4039 67.5339C45.3246 68.3303 46.2293 69.1522 47.1515 69.9518C48.4385 71.0667 49.735 72.1721 51.0267 73.2823C51.7817 73.9322 52.5351 74.5852 53.2949 75.2303C53.3403 75.2792 53.3958 75.3175 53.4576 75.3426C53.5195 75.3678 53.586 75.379 53.6526 75.3757C53.7193 75.3724 53.7844 75.3545 53.8434 75.3233C53.9024 75.2921 53.9538 75.2484 53.9941 75.1953C54.2028 74.9643 54.2633 74.7174 54.0212 74.4626C53.8619 74.3033 53.7026 74.144 53.5433 73.9959C52.404 73.0083 51.2641 72.0219 50.1236 71.0365C49.4403 70.444 48.7666 69.8403 48.0817 69.2494C47.0479 68.3606 46.011 67.4814 44.9741 66.5926C44.0599 65.7962 43.1584 64.9998 42.2457 64.2146C41.1037 63.2286 39.976 62.23 38.8339 61.2456C37.8783 60.4253 36.9226 59.6019 35.9669 58.7863C35.9152 58.735 35.8535 58.6947 35.7857 58.668C35.7178 58.6412 35.6452 58.6286 35.5724 58.6308C35.4995 58.6331 35.4278 58.6501 35.3617 58.681C35.2957 58.7118 35.2366 58.7558 35.1881 58.8102C34.9491 59.0969 34.973 59.39 35.2597 59.6417C35.3967 59.7627 35.5448 59.8726 35.6818 59.9937L38.2462 62.265C37.9834 62.4179 37.8512 62.7444 37.5279 62.8225ZM54.9896 75.5361C54.7523 75.5265 54.6567 75.6492 54.671 75.877C54.6854 76.1047 55.0406 76.4934 55.2635 76.4743C55.4531 76.4567 55.6203 76.3771 55.6235 76.1366C55.6267 75.8961 55.2508 75.5329 54.9896 75.5361Z" fill="#4D5E68"/>
<path d="M42.7396 90.7057C42.3653 91.1453 42.0038 91.596 41.6119 92.0197C41.1038 92.5724 40.2151 92.6568 39.339 92.3032C38.7672 92.0675 38.3228 91.6661 37.8657 91.2679C36.6244 90.1944 35.3841 89.1209 34.1449 88.0473C34.0956 87.9865 34.0328 87.938 33.9614 87.9057C33.8901 87.8733 33.8123 87.858 33.734 87.861C33.7434 87.7887 33.7305 87.7153 33.6973 87.6504C33.664 87.5856 33.6118 87.5324 33.5476 87.4978C33.1699 87.2162 32.8122 86.9086 32.4773 86.5772C31.9995 86.1423 31.5025 85.7441 31.0215 85.3205C30.3175 84.6961 29.5386 84.1561 28.9142 83.4426C28.92 83.2851 28.8923 83.1282 28.833 82.9822C28.7263 82.592 28.5957 82.2066 28.5288 81.81C28.3886 80.9801 28.4539 80.1391 28.4396 79.3013C28.4363 79.0137 28.4905 78.7283 28.5989 78.4619C29.623 79.2328 30.5516 80.1136 31.5184 80.9498C32.3706 81.6857 33.2132 82.4295 34.0669 83.1654C34.9206 83.9013 35.7998 84.6372 36.66 85.3826C37.5599 86.1614 38.4502 86.9531 39.3454 87.7383L42.7396 90.7057Z" fill="#667982"/>
<path d="M42.7412 90.7061L39.3486 87.7387C38.4534 86.9535 37.5631 86.1618 36.6632 85.383C35.803 84.6375 34.9318 83.908 34.0701 83.1658C33.2084 82.4236 32.3738 81.6861 31.5216 80.9502C30.5548 80.114 29.6262 79.2332 28.6021 78.4623C28.4715 78.2804 28.3141 78.1193 28.1354 77.9845C27.7005 77.6293 27.2625 77.2773 26.85 76.8966C26.1603 76.2595 25.4165 75.6749 24.7236 75.041C23.7982 74.1968 22.8123 73.4179 21.8821 72.577C21.6352 72.3556 21.417 72.08 21.0857 71.9765C20.9599 71.7519 20.7974 71.5448 20.8292 71.2597C20.8369 71.1265 20.8768 70.997 20.9456 70.8826C21.0144 70.7682 21.1099 70.6723 21.224 70.603C21.3381 70.5337 21.4673 70.4932 21.6006 70.485C21.7338 70.4767 21.867 70.501 21.9888 70.5557C22.0828 70.5923 22.1672 70.672 22.2787 70.6051C22.3074 70.8727 22.5272 71.0001 22.7008 71.1482C23.6835 71.9908 24.6918 72.8047 25.6602 73.6616C26.7369 74.6173 27.82 75.5602 28.9222 76.4841C28.9848 76.5675 29.0541 76.6458 29.1293 76.7182C29.7218 77.2152 30.3175 77.7041 30.8813 78.2314C31.4834 78.7936 32.1237 79.316 32.7481 79.8528C33.8009 80.7559 34.8569 81.6543 35.9066 82.5605C36.6201 83.177 37.3178 83.8093 38.0314 84.4257C39.2886 85.5109 40.549 86.593 41.8126 87.6718L43.8626 89.4382C44.377 89.8937 44.4774 90.3493 44.1524 90.7507C44.0238 90.9088 43.8405 91.013 43.6387 91.0425C43.437 91.072 43.2315 91.0247 43.063 90.9099C42.9515 90.8558 42.8479 90.7793 42.7412 90.7061Z" fill="#4D5E68"/>
<path d="M28.5373 63.3779C28.5723 63.2728 28.499 63.2186 28.4449 63.139C28.1598 62.7424 28.1821 62.3314 28.4975 62.0144C28.8128 61.6975 29.1664 61.7086 29.5837 61.9826C29.6198 61.9972 29.658 62.0058 29.6968 62.0081C29.8274 62.1339 29.9533 62.2645 30.0886 62.3856C31.0109 63.2011 31.9299 64.0214 32.8617 64.8257C33.5641 65.4326 34.2856 66.0187 34.9976 66.6144C36.3462 67.7952 37.6953 68.9749 39.0449 70.1536C40.1598 71.1363 41.2605 72.1557 42.4168 73.0987C43.6035 74.0671 44.7327 75.1008 45.9082 76.0804C47.4373 77.3546 48.8995 78.7069 50.4142 79.9938C50.7184 80.2519 50.9494 80.6118 51.3492 80.7536C51.3847 80.8064 51.4236 80.8569 51.4655 80.9049C51.8047 81.2505 51.8477 81.6917 51.5738 82.0358C51.2998 82.3798 50.8554 82.4467 50.4493 82.1951C50.3601 82.1393 50.29 82.0597 50.1657 82.1027C50.1657 81.9323 50.0351 81.8478 49.9316 81.7555C49.0619 80.9798 48.1493 80.2535 47.2971 79.4587C46.7142 78.9139 46.0834 78.4218 45.4766 77.9025C44.4922 77.0599 43.5063 76.2205 42.5283 75.37C41.7765 74.7169 41.0598 74.0225 40.2889 73.3949C39.0146 72.3516 37.7993 71.2319 36.5378 70.1695C35.6475 69.4193 34.7746 68.6484 33.8938 67.8855C33.2105 67.2754 32.5272 66.6686 31.8232 66.084C30.9679 65.372 30.1555 64.6075 29.2891 63.9083C29.0581 63.714 28.91 63.3715 28.5373 63.3779Z" fill="#4D5E68"/>
<path d="M23.6783 68.978C23.2721 68.2979 23.3932 67.7627 23.9873 67.527C24.2979 67.4044 24.5432 67.578 24.8124 67.6512C24.9731 67.8868 25.173 68.0931 25.4033 68.2613C26.7508 69.3762 28.0521 70.5533 29.3853 71.6858C29.7373 71.9852 30.0224 72.3946 30.4922 72.5411C30.5008 72.5997 30.5222 72.6557 30.555 72.705C30.5877 72.7543 30.6311 72.7957 30.6818 72.8262C31.2286 73.2966 31.7734 73.7676 32.316 74.239C33.1368 74.9515 33.9582 75.663 34.78 76.3734C35.6529 77.1236 36.5321 77.8674 37.4034 78.6208C38.2746 79.3742 39.1188 80.1196 39.9789 80.8666C41.1257 81.8626 42.2736 82.856 43.4225 83.8467C44.2842 84.5937 45.1363 85.3487 46.006 86.0766C46.1366 86.1865 46.2561 86.3585 46.4647 86.3569C46.452 86.5035 46.5826 86.5497 46.6606 86.6309C46.8179 86.7736 46.9135 86.9717 46.9274 87.1835C46.9413 87.3954 46.8724 87.6043 46.7352 87.7663C46.598 87.9283 46.4033 88.0307 46.192 88.0518C45.9808 88.073 45.7696 88.0112 45.603 87.8797L45.3498 87.7156C45.2675 87.6143 45.1792 87.518 45.0854 87.4273C43.8637 86.3792 42.6325 85.3423 41.422 84.2879C40.2831 83.3004 39.1666 82.2906 38.0277 81.3046C36.8124 80.2454 35.5701 79.2149 34.35 78.1589C33.1012 77.0869 31.8748 75.9847 30.6101 74.9255C30.3441 74.7025 30.1482 74.3808 29.7898 74.2725C29.3008 73.6529 28.6414 73.2149 28.0601 72.6972C26.84 71.6093 25.5801 70.5676 24.3712 69.467C24.1657 69.2791 23.9793 69.0402 23.6783 68.978Z" fill="#4D5E68"/>
<path d="M49.0066 83.4439C49.0055 83.4823 49.0115 83.5206 49.0241 83.5569C49.3251 84.0539 49.3315 84.3629 49.0432 84.6846C48.7549 85.0064 48.3726 85.0398 47.8757 84.7818C46.8675 83.772 45.735 82.9039 44.663 81.9642C43.8189 81.2219 42.9779 80.4781 42.1146 79.7534C41.1589 78.9442 40.2117 78.1181 39.273 77.275C37.8395 75.9785 36.3455 74.7456 34.877 73.4842L31.8411 70.8784C31.4811 70.4419 31.0049 70.1361 30.586 69.7634C29.2735 68.5959 27.9308 67.4634 26.604 66.3086C26.4805 66.1921 26.3196 66.1233 26.1501 66.1143C26.2329 65.9694 26.1055 65.9089 26.0338 65.8276C25.6738 65.4231 25.6531 64.985 25.9765 64.641C26.2998 64.297 26.7155 64.3033 27.1344 64.6171C27.1965 64.6633 27.2475 64.7286 27.3367 64.7238C27.4169 64.826 27.5036 64.9228 27.5963 65.0137C29.041 66.2736 30.4777 67.5431 31.943 68.7759C32.2154 69.0068 32.4097 69.3493 32.784 69.4576C32.8953 69.5859 33.0134 69.7082 33.1376 69.8239C33.8193 70.4149 34.509 70.9962 35.1923 71.5871C35.8756 72.1781 36.5366 72.7961 37.2359 73.3679C38.3699 74.2981 39.4546 75.2792 40.5616 76.246C41.2433 76.8386 41.9171 77.4406 42.602 78.03C43.623 78.9092 44.6567 79.7741 45.6776 80.6533C46.6986 81.5325 47.7483 82.4595 48.79 83.361C48.8573 83.4001 48.9304 83.428 49.0066 83.4439Z" fill="#4D5E68"/>
<path d="M47.6431 67.3978C47.1653 67.3978 46.9487 67.0012 46.6508 66.7528C45.7174 65.9755 44.8271 65.1472 43.9048 64.3556C43.6946 64.174 43.3155 64.1517 43.4828 63.7089C43.5274 63.5911 43.3235 63.6054 43.2343 63.615C43.0113 63.6389 42.8855 63.5178 42.7326 63.3792C42.2261 62.9173 41.7387 62.4236 41.1207 62.105C41.0745 62.0811 41.0076 62.0684 40.9869 62.0301C40.517 61.1493 39.598 60.7336 38.9242 60.0631C38.3524 59.4944 37.6834 59.0246 37.11 58.4496C37.1005 58.44 37.0925 58.4241 37.0829 58.4241C36.6051 58.389 36.5478 57.8714 36.2133 57.6818C35.8422 57.4716 35.616 57.1005 35.2576 56.8759C35.1143 56.7867 34.9916 56.6306 34.8371 56.5956C34.4373 56.5048 34.2876 56.1639 34.0566 55.9011C34.1602 55.933 34.2685 55.9823 34.3402 55.847C34.3473 55.8928 34.3656 55.9362 34.3933 55.9734C34.4211 56.0106 34.4575 56.0405 34.4994 56.0604C36.054 57.118 37.3665 58.4703 38.8 59.6617C39.1185 59.9197 39.418 60.1873 39.7254 60.4581C40.8244 61.4137 41.9266 62.3694 43.0177 63.3362C43.204 63.4955 43.3362 63.3952 43.47 63.3108C44.2937 62.7909 45.0822 62.2173 45.8305 61.5937C47.4438 60.2618 48.9632 58.82 50.3779 57.2789C52.3721 55.1477 54.3328 52.9927 56.0419 50.613C56.4139 50.0871 56.7476 49.5351 57.0406 48.9613C57.0922 48.879 57.118 48.7831 57.1146 48.686C57.1112 48.5889 57.0788 48.4951 57.0215 48.4166C56.2442 47.1424 55.7472 45.7614 55.7982 44.2371C55.8173 43.6796 55.9129 43.1381 56.3413 42.7176C56.4524 42.6011 56.5874 42.5101 56.737 42.4507C56.8866 42.3913 57.0473 42.365 57.208 42.3737C57.3687 42.3823 57.5257 42.4256 57.6681 42.5007C57.8105 42.5757 57.9349 42.6807 58.0329 42.8084C58.4293 43.3058 58.6589 43.9155 58.6891 44.5509C58.7958 45.8028 58.4916 46.9815 58.0026 48.1172C57.8529 48.466 57.8433 48.724 58.0918 49.041C59.1106 50.3872 60.4031 51.5023 61.8842 52.3126C62.1216 52.4384 62.284 52.4416 62.4481 52.2042C62.7157 51.8156 63.004 51.4413 63.2843 51.0606L63.3528 50.9746L63.3608 50.9651C63.6585 50.6552 63.9252 50.317 64.1571 49.9552C64.1855 49.9561 64.2132 49.9472 64.2358 49.9301C64.2584 49.913 64.2745 49.8887 64.2814 49.8613C64.3136 49.8495 64.3422 49.8295 64.3643 49.8032C64.3864 49.7769 64.4012 49.7453 64.4072 49.7115C64.4295 49.686 64.4534 49.6622 64.4773 49.6367C64.5181 49.6325 64.5562 49.6144 64.5853 49.5853C64.6143 49.5563 64.6324 49.5182 64.6366 49.4774L64.7146 49.3914C65.0332 49.2321 65.2896 48.9677 65.5827 48.7654C65.8758 48.5631 66.2533 48.4867 66.6164 48.4325C66.7852 48.4325 66.9573 48.4325 67.1245 48.45C68.4848 48.6205 69.0725 49.0314 69.1298 50.183C69.0152 50.3009 69.0629 50.457 69.039 50.5955L69.0486 50.6194C68.9772 50.6939 68.9353 50.7919 68.9307 50.895C68.9164 50.9348 68.9037 50.9746 68.8909 51.0144L68.8113 51.145V51.1705L68.73 51.2932L68.6313 51.4524C67.2519 53.4864 65.3884 54.1602 62.7842 53.3049C62.4911 53.2093 62.3382 53.2491 62.147 53.4641C60.3239 55.6213 58.6249 57.8803 57.0581 60.2303C54.954 63.3633 53.0267 66.6015 51.1202 69.8571C51.0294 70.0164 50.8892 70.1454 51.1027 70.327C52.6094 71.6086 54.1109 72.8972 55.6071 74.1927C55.6071 74.2198 55.6071 74.2484 55.6182 74.2755C55.2694 74.4236 55.1404 74.1003 54.9508 73.9442C54.2182 73.3198 53.5078 72.67 52.7862 72.0329C52.3371 71.6347 51.8815 71.2365 51.4308 70.8478C51.3416 70.7698 51.2715 70.6392 51.1711 70.6105C50.679 70.4767 50.6296 70.2043 50.9354 69.7711C50.413 70.1056 50.139 69.8014 49.8332 69.4971C49.4127 69.075 48.852 68.8138 48.4539 68.3647C48.1735 68.0461 47.753 67.8534 47.6383 67.3994C47.6991 67.4221 47.7569 67.452 47.8104 67.4886C48.6068 68.1751 49.4032 68.8552 50.19 69.5593C50.4194 69.7647 50.5388 69.795 50.7092 69.5003C52.0647 67.1542 53.4536 64.8287 54.9046 62.5382C56.327 60.294 57.8099 58.0912 59.4186 55.976C60.1433 55.0203 60.8856 54.0853 61.6628 53.1774C61.7727 53.05 61.9241 52.9353 61.6485 52.7968C60.0764 52.0083 58.8404 50.8153 57.7462 49.4678C57.5359 49.2066 57.4563 49.2608 57.3225 49.5092C57.0551 50.0076 56.7605 50.491 56.4401 50.9571C55.572 52.2313 54.5622 53.3925 53.5492 54.5504C52.095 56.2117 50.6264 57.8618 49.0416 59.4068C47.4568 60.9518 45.7796 62.4236 43.9176 63.6532C43.6643 63.822 43.6978 63.951 43.9096 64.131C44.3381 64.4814 44.7602 64.8366 45.1711 65.2062C45.9962 65.9341 46.8754 66.6062 47.6431 67.3978ZM64.643 53.1185C65.4518 53.1364 66.247 52.9074 66.9225 52.4621C67.598 52.0168 68.1218 51.3762 68.4242 50.6258C68.7348 49.8294 68.4672 49.2863 67.6406 49.068C67.235 48.9458 66.8045 48.9323 66.3921 49.0291C65.9797 49.1258 65.6001 49.3293 65.2912 49.6191C64.3467 50.457 63.6522 51.4986 62.902 52.5005C62.7635 52.6884 62.8335 52.7776 63.031 52.8286C63.5997 52.9736 64.1524 53.152 64.6461 53.1185H64.643ZM57.4643 48.0741C58.0106 46.6868 58.3865 45.3505 58.0345 43.9202C57.971 43.5795 57.7831 43.2746 57.5073 43.0648C57.1489 42.8164 56.859 42.8625 56.5962 43.2161C56.4974 43.3559 56.431 43.5158 56.4019 43.6844C56.2251 44.4808 56.3413 45.2772 56.5484 46.0577C56.7398 46.7765 57.0504 47.4581 57.4674 48.0741H57.4643ZM51.9787 67.9346C52.0488 67.6798 52.3148 67.5826 52.4056 67.3485C52.431 67.2848 52.4581 67.2258 52.4056 67.1669C52.353 67.108 52.2781 67.1398 52.2463 67.194C52.1029 67.4138 51.9261 67.6272 51.9787 67.9346ZM51.3416 68.86C51.649 68.6673 51.6968 68.3822 51.8768 68.2118C51.8943 68.1942 51.8768 68.1034 51.8433 68.078C51.8324 68.0709 51.8201 68.0664 51.8073 68.0647C51.7944 68.063 51.7813 68.0642 51.769 68.0681C51.7567 68.0721 51.7453 68.0788 51.7359 68.0876C51.7264 68.0965 51.719 68.1073 51.7143 68.1194C51.6251 68.3376 51.4292 68.5128 51.3479 68.86H51.3416ZM53.5587 65.4164C53.5587 65.3352 53.5125 65.2285 53.4695 65.2571C53.3329 65.371 53.2331 65.5229 53.1828 65.6936C53.1653 65.7366 53.2067 65.8146 53.2657 65.7907C53.4329 65.7175 53.4743 65.5422 53.5587 65.4164ZM51.2619 69.22C51.2619 69.1547 51.254 69.0862 51.1887 69.0973C51.0294 69.1212 51.0119 69.2694 50.972 69.3888C50.9561 69.4366 50.972 69.5099 51.0421 69.5003C51.2046 69.478 51.2078 69.3219 51.2619 69.22Z" fill="#60614E"/>
<path d="M31.8414 70.8779L34.8804 73.4837C36.349 74.7452 37.8414 75.978 39.2765 77.2746C40.2099 78.1177 41.1571 78.9438 42.118 79.7529C42.9782 80.4777 43.8191 81.2215 44.6665 81.9637C45.7385 82.9035 46.8709 83.7715 47.8792 84.7814C47.4013 85.3086 46.9952 85.8852 46.4695 86.3646C46.2609 86.3646 46.1414 86.1942 46.0108 86.0843C45.1412 85.3484 44.289 84.5934 43.4273 83.8544C42.2805 82.8605 41.1326 81.8671 39.9837 80.8743C39.1236 80.1272 38.2715 79.3723 37.4082 78.6284C36.5449 77.8846 35.6561 77.1312 34.7849 76.381C33.9619 75.6717 33.1406 74.9602 32.3208 74.2467C31.7761 73.7752 31.2313 73.3043 30.6866 72.8339C30.6359 72.8034 30.5926 72.7619 30.5598 72.7126C30.527 72.6633 30.5056 72.6074 30.4971 72.5488C30.7328 72.0343 31.2298 71.7014 31.4527 71.1726C31.4836 71.0921 31.5363 71.0219 31.605 70.9698C31.6737 70.9177 31.7556 70.8859 31.8414 70.8779Z" fill="#667982"/>
<path d="M29.7889 74.2725C30.1472 74.3808 30.3432 74.7025 30.6091 74.9255C31.8738 75.9847 33.1003 77.0869 34.349 78.1589C35.5691 79.2101 36.8051 80.2406 38.022 81.2935C39.1608 82.2794 40.2774 83.2892 41.4162 84.2768C42.6315 85.3312 43.8627 86.3681 45.0796 87.4161C45.1754 87.5103 45.2653 87.6103 45.3488 87.7156L43.8564 89.4517L41.8064 87.6853C40.545 86.6022 39.2845 85.5202 38.0252 84.4392C37.3116 83.8228 36.614 83.1905 35.9004 82.5741C34.8507 81.6662 33.7947 80.7678 32.7419 79.8663C32.1175 79.3296 31.4772 78.8071 30.8751 78.2449C30.3097 77.7177 29.714 77.2287 29.1231 76.7317C29.0479 76.6594 28.9786 76.5811 28.916 76.4976C29.1884 76.0341 29.3094 75.5132 29.4735 75.0099C29.5547 74.7487 29.5468 74.4556 29.7889 74.2725Z" fill="#667982"/>
<path d="M51.3496 80.7536C50.9498 80.6118 50.7125 80.2518 50.4146 79.9938C48.8999 78.7068 47.4377 77.3546 45.9086 76.0803C44.7332 75.1008 43.6039 74.067 42.4173 73.0986C41.2609 72.1557 40.1682 71.1363 39.0453 70.1536C37.6978 68.9717 36.3487 67.792 34.998 66.6144C35.3166 66.0537 35.7944 65.6205 36.2723 65.1904C37.3474 66.0473 38.3684 66.968 39.4005 67.8775C40.6094 68.9414 41.8534 69.964 43.0639 71.0168C44.0037 71.8308 44.9227 72.6702 45.8625 73.4841C46.8516 74.341 47.8566 75.1804 48.8521 76.0325C49.5179 76.6043 50.2044 77.1555 50.8335 77.7671C51.3894 78.307 52.0377 78.7307 52.6111 79.2452C52.2623 79.8059 51.7844 80.2662 51.3496 80.7536Z" fill="#667982"/>
<path d="M49.0058 83.4444C48.9308 83.4282 48.8587 83.4003 48.7924 83.3615C47.7523 82.4616 46.7218 81.5537 45.6801 80.6538C44.6384 79.7539 43.6254 78.9097 42.6044 78.0305C41.9195 77.4412 41.2458 76.8391 40.5641 76.2466C39.4491 75.2909 38.3724 74.2986 37.2383 73.3684C36.5391 72.7966 35.8781 72.1802 35.1948 71.5877C34.5115 70.9951 33.8218 70.4154 33.1401 69.8244C33.0158 69.7087 32.8978 69.5864 32.7865 69.4581C32.7068 69.1236 33.0126 68.9803 33.1496 68.7557C33.3519 68.4371 33.5494 68.0883 33.8935 67.8765C34.7743 68.6394 35.6455 69.4103 36.5375 70.1605C37.799 71.2229 39.0095 72.3426 40.2885 73.3859C41.0594 74.0135 41.7762 74.7079 42.528 75.361C43.5059 76.2115 44.4919 77.0509 45.4762 77.8935C46.0831 78.4128 46.7138 78.9049 47.2968 79.4497C48.1489 80.2461 49.0616 80.9708 49.9312 81.7465C50.0348 81.8388 50.1686 81.9233 50.1654 82.0937C49.8231 82.5801 49.4348 83.0324 49.0058 83.4444Z" fill="#667982"/>
<path d="M21.0785 71.9819C21.4162 72.0855 21.6344 72.361 21.8749 72.5824C22.8051 73.4234 23.7863 74.2023 24.7165 75.0465C25.4125 75.6836 26.15 76.2618 26.8428 76.9021C27.2554 77.2827 27.6934 77.6347 28.1282 77.9899C28.307 78.1248 28.4643 78.2859 28.5949 78.4678C28.4865 78.7342 28.4324 79.0196 28.4356 79.3072C28.45 80.145 28.3847 80.986 28.5248 81.8158C28.5917 82.2124 28.7223 82.5979 28.8291 82.9881C28.8884 83.1341 28.916 83.291 28.9103 83.4484C27.9705 82.7587 27.1407 81.9353 26.2328 81.2074C25.5957 80.7009 25.043 80.1067 24.3788 79.6385L20.7074 76.4147C20.2533 76.031 19.9147 75.5286 19.7295 74.9636C19.4953 74.2421 19.5957 73.5938 20.1261 73.0284C20.4494 72.6844 20.7616 72.3308 21.0785 71.9819Z" fill="#5E737B"/>
<path d="M24.389 79.6318C25.0532 80.1001 25.6107 80.6942 26.243 81.2007C27.1509 81.9286 27.9807 82.7521 28.9205 83.4418C29.5448 84.1554 30.3237 84.6953 31.0277 85.3197C31.5056 85.7434 32.0137 86.1416 32.4835 86.5764C32.8185 86.9078 33.1761 87.2154 33.5539 87.497C33.6181 87.5316 33.6702 87.5848 33.7035 87.6496C33.7368 87.7145 33.7496 87.7879 33.7403 87.8602C31.8066 88.115 30.0673 87.5623 28.4841 86.5159C26.4134 85.1461 24.9799 83.2921 24.4798 80.8057C24.3915 80.4211 24.3609 80.0255 24.389 79.6318Z" fill="#4D5E68"/>
<path d="M29.7901 74.2734C29.548 74.4566 29.5559 74.7513 29.4715 75.0029C29.3122 75.5062 29.1864 76.0271 28.914 76.4906C27.8118 75.5668 26.7287 74.6223 25.652 73.6682C24.6836 72.8113 23.6753 71.9973 22.6926 71.1548C22.519 71.0066 22.2992 70.8792 22.2705 70.6116C22.7038 70.0378 23.1735 69.4924 23.6769 68.979C23.978 69.0411 24.1643 69.28 24.3698 69.468C25.5787 70.5686 26.8386 71.6103 28.0587 72.6982C28.6417 73.2222 29.3011 73.6538 29.7901 74.2734Z" fill="#5E737B"/>
<path d="M31.8415 70.8785C31.7563 70.8855 31.6747 70.916 31.6058 70.9667C31.5369 71.0173 31.4834 71.086 31.4512 71.1652C31.2267 71.6941 30.7297 72.0269 30.4956 72.5414C30.0177 72.3949 29.7406 71.9855 29.3886 71.6861C28.0538 70.5536 26.7525 69.3813 25.4066 68.2616C25.1748 68.0923 24.9738 67.8843 24.8125 67.6468L26.1536 66.1113C26.3232 66.1203 26.484 66.1892 26.6076 66.3056C27.9312 67.4604 29.2739 68.5929 30.5895 69.7604C31.0053 70.1363 31.4815 70.4421 31.8415 70.8785Z" fill="#5E737B"/>
<path d="M33.8942 67.8776C33.5501 68.0894 33.3526 68.4318 33.1503 68.7568C33.0134 68.9766 32.7075 69.1247 32.7872 69.4592C32.4129 69.3509 32.2186 69.0084 31.9462 68.7775C30.4808 67.5447 29.0441 66.2752 27.5995 65.0153C27.5068 64.9244 27.42 64.8276 27.3398 64.7254C27.7131 64.2538 28.113 63.8039 28.5376 63.3779C28.9103 63.3779 29.0585 63.714 29.2894 63.9004C30.1559 64.5996 30.9682 65.3641 31.8235 66.0761C32.5276 66.6607 33.2109 67.2675 33.8942 67.8776Z" fill="#5E737B"/>
<path d="M36.2655 65.1909C35.7876 65.6209 35.3241 66.0542 34.9912 66.6148C34.2793 66.0191 33.5577 65.433 32.8553 64.8261C31.9235 64.0218 31.0045 63.2015 30.0823 62.386C29.9469 62.2649 29.821 62.1343 29.6904 62.0085C30.0715 61.5096 30.4889 61.0395 30.9392 60.6021C31.4361 60.8537 31.7658 61.3061 32.1863 61.6501C33.3013 62.5691 34.3923 63.5248 35.4882 64.4709C35.7605 64.7003 36.0154 64.9504 36.2655 65.1909Z" fill="#5E737B"/>
<path d="M69.1183 50.1836C69.061 49.0321 68.4732 48.6211 67.113 48.4507C66.9458 48.43 66.7737 48.4379 66.6049 48.4332C66.7196 48.2819 66.9967 48.4746 67.0445 48.2659C67.0923 48.0573 66.8311 48.0015 66.7052 47.8805C65.7305 46.9449 64.8443 45.9211 64.058 44.8223C63.4344 43.9342 62.8739 43.0033 62.3808 42.0365C62.1754 41.6447 62.0479 41.2115 61.8711 40.8037C61.3263 39.5425 60.9344 38.2207 60.7036 36.8663C60.5619 36.0445 60.3994 35.2194 60.4233 34.3736C60.4408 33.7094 60.3596 33.05 60.4042 32.3763C60.504 31.1125 60.6816 29.856 60.9362 28.6141C61.0904 27.8871 61.3035 27.1738 61.5733 26.4814C62.0174 25.2645 62.5797 24.094 63.2521 22.9868C63.8287 22.0439 64.5263 21.1997 65.2048 20.3412C65.9933 19.3473 66.9426 18.519 67.9349 17.7274C68.5083 17.2687 69.0897 16.8211 69.6997 16.4229C70.6602 15.8226 71.6789 15.321 72.7403 14.9257C73.4013 14.6661 74.056 14.4048 74.7313 14.1819C75.6089 13.892 76.5152 13.7725 77.4136 13.6148C78.0917 13.4706 78.7829 13.397 79.4762 13.395C80.408 13.4269 81.3446 13.3775 82.27 13.4683C83.3643 13.5648 84.4466 13.7675 85.5017 14.0735C86.2042 14.2838 86.8922 14.5323 87.5724 14.7967C88.3233 15.0624 89.0496 15.3928 89.7433 15.7842C90.5573 16.2748 91.3807 16.7399 92.1469 17.3149C93.7044 18.487 95.0973 19.8633 96.2881 21.4067C96.57 21.7651 96.7659 22.2223 97.0176 22.5966C97.3776 23.1301 97.6547 23.7115 97.9988 24.2371C98.3093 24.715 98.4846 25.2533 98.7076 25.7614C99.2058 26.8859 99.5673 28.0661 99.7843 29.2767C99.9459 30.0597 100.056 30.8525 100.114 31.65C100.147 32.3588 100.146 33.066 100.173 33.7747C100.216 34.9088 100.004 36.0158 99.8273 37.1276C99.7664 37.66 99.6468 38.184 99.4705 38.6901C99.1519 39.4865 98.9927 40.3338 98.5881 41.1063C98.2918 41.6654 98.0784 42.277 97.7598 42.8281C97.1925 43.8232 96.566 44.7832 95.8835 45.7031C95.4057 46.3402 94.8036 46.8292 94.3417 47.4727C94.004 47.9426 93.4386 48.2452 92.999 48.6498C92.1676 49.4143 91.2135 49.9925 90.2562 50.5818C89.7417 50.9004 89.189 51.1457 88.6857 51.485C88.3879 51.6856 87.9913 51.6904 87.6425 51.8035C86.6055 52.1603 85.5559 52.4964 84.4951 52.7703C83.815 52.9455 83.103 52.9965 82.407 53.1032C81.7412 53.2068 81.0706 53.1606 80.4016 53.1876C78.8439 53.2498 77.3196 53.0204 75.808 52.6843C73.7738 52.233 71.8293 51.4449 70.0549 50.3525C69.9227 50.2712 69.7586 50.2521 69.6503 50.1183C69.448 49.8731 69.2649 49.8985 69.1183 50.1836ZM98.5945 30.6943C98.5665 29.9542 98.4936 29.2164 98.3762 28.4851C98.037 26.3778 96.9873 24.6385 95.6112 23.0967C94.7033 22.0789 93.5405 21.3446 92.2806 20.7919C92.0876 20.7193 91.8983 20.6369 91.7136 20.545C91.3536 20.3428 90.9443 20.115 90.5509 20.1054C89.4359 20.08 88.3608 19.755 87.2331 19.9063C86.0672 20.0656 84.9013 20.1484 83.8293 20.7027C83.5283 20.862 83.1205 20.8254 82.9708 21.2284C82.9612 21.2506 82.9007 21.2602 82.8641 21.265C81.8813 21.3844 81.2617 22.1299 80.5816 22.6985C79.9015 23.2671 79.3392 24.0651 78.8614 24.8519C78.5142 25.4094 78.1447 25.9669 77.928 26.5753C77.6881 27.1935 77.5094 27.8337 77.3945 28.4867C77.2925 29.2098 77.1492 29.9298 77.1173 30.6592C77.0663 31.7742 77.361 32.8573 77.7019 33.8862C78.0555 34.9518 78.433 36.0508 79.2421 36.9046C79.4412 37.1148 79.6419 37.3219 79.8282 37.5417C80.9193 38.8462 82.2063 39.8751 83.8373 40.4326C84.7229 40.7336 85.5607 41.1812 86.5275 41.229C87.4943 41.2768 88.4994 41.3469 89.4678 41.2131C90.5459 41.0614 91.5906 40.7286 92.5578 40.2287C93.1153 39.9452 93.7428 39.7381 94.1729 39.2922C94.673 38.7745 95.2592 38.3683 95.7577 37.8459C96.93 36.6086 97.7838 35.1048 98.2456 33.4641C98.4939 32.5623 98.6114 31.6295 98.5945 30.6943Z" fill="#96CAFF"/>
<path d="M64.1607 49.9561C63.9287 50.3178 63.662 50.656 63.3643 50.9659C63.4773 50.5088 63.7051 50.1424 64.1607 49.9561Z" fill="#96CAFF"/>
<path d="M65.5712 48.7662C65.2781 48.9685 65.0281 49.2329 64.7031 49.3921C64.8736 49.0194 65.1204 48.7518 65.5712 48.7662Z" fill="#96CAFF"/>
<path d="M69.0312 50.5908C69.0551 50.4522 69.0074 50.2961 69.122 50.1782C69.1157 50.32 69.181 50.4793 69.0312 50.5908Z" fill="#96CAFF"/>
<path d="M64.6262 49.4781C64.622 49.5189 64.6039 49.557 64.5749 49.586C64.5459 49.6151 64.5077 49.6332 64.4669 49.6374C64.4637 49.5291 64.5168 49.476 64.6262 49.4781Z" fill="#96CAFF"/>
<path d="M68.9229 50.8903C68.9274 50.7872 68.9693 50.6893 69.0407 50.6147C69.0375 50.7215 69.0726 50.8457 68.9229 50.8903Z" fill="#96CAFF"/>
<path d="M68.6299 51.4366L68.7286 51.2773C68.7286 51.3554 68.7191 51.4207 68.6299 51.4366Z" fill="#96CAFF"/>
<path d="M64.2795 49.8628C64.2725 49.8905 64.2563 49.915 64.2336 49.9322C64.2108 49.9494 64.1828 49.9583 64.1543 49.9575C64.1703 49.8933 64.2217 49.874 64.2795 49.8628Z" fill="#F5C969"/>
<path d="M64.4744 49.6387C64.4503 49.6643 64.4262 49.6884 64.4038 49.7141L64.3652 49.6579L64.4744 49.6387Z" fill="#96CAFF"/>
<path d="M56.8365 9.12766C56.6517 9.52904 56.3331 9.51152 56.013 9.50355C55.9174 9.50355 55.7804 9.4494 55.7374 9.58001C55.7056 9.67558 55.8123 9.73929 55.8776 9.79822C56.021 9.92246 56.005 10.026 55.8776 10.1566C55.7502 10.2872 55.6498 10.2856 55.5192 10.1566C55.0701 9.69628 54.6097 9.24712 54.159 8.7868C54.0809 8.69871 54.0204 8.59654 53.9806 8.48576C53.9575 8.43749 53.9527 8.38251 53.9671 8.33097C53.9814 8.27944 54.014 8.23485 54.0586 8.20543C54.1685 8.13057 54.2577 8.18473 54.3374 8.26277C54.5524 8.47621 54.7642 8.69123 54.9745 8.89989C55.0191 8.94289 55.0892 8.99864 55.1338 8.99068C55.2341 8.97316 55.2102 8.87122 55.2166 8.79636C55.2341 8.55585 55.1417 8.28826 55.3918 8.10509C55.4555 8.0589 55.5113 7.99678 55.6005 8.02704C55.6897 8.0573 55.6865 8.1465 55.6881 8.22295C55.6953 8.31466 55.6953 8.4068 55.6881 8.49851C55.6196 9.0305 55.618 9.0289 56.1659 9.0305C56.3252 9.0305 56.4845 9.0305 56.6437 9.04802C56.7118 9.06409 56.7769 9.09098 56.8365 9.12766Z" fill="#96CAFF"/>
<path d="M51.818 14.1735C51.6397 14.5701 51.1666 14.8536 50.813 14.7836C50.5902 14.7311 50.3911 14.6061 50.2469 14.4282C50.1028 14.2504 50.0218 14.0297 50.0166 13.8008C50.3925 13.4584 50.7158 13.1637 50.993 12.9312C51.0317 12.9374 51.07 12.9459 51.1077 12.9566L51.1634 12.9758C51.2005 12.9888 51.2366 13.0043 51.2717 13.0219C51.6922 13.2258 51.7018 13.2975 51.3625 13.6431C51.216 13.7928 51.0647 13.9394 50.9181 14.0907C50.8751 14.1353 50.8098 14.1831 50.8464 14.25C50.8831 14.3169 50.9834 14.3185 51.0567 14.3073C51.145 14.2891 51.2271 14.2485 51.2952 14.1893C51.3632 14.1302 51.415 14.0545 51.4453 13.9696C51.5266 13.7992 51.6556 13.7052 51.818 13.7976C51.9805 13.89 51.8754 14.0493 51.818 14.1735Z" fill="#96CAFF"/>
<path d="M50.9876 12.9311C50.7105 13.1701 50.3871 13.4584 50.0112 13.8008C50.0038 13.6752 50.0249 13.5496 50.0729 13.4333C50.121 13.317 50.1948 13.2131 50.2887 13.1294C50.3827 13.0457 50.4944 12.9844 50.6154 12.9501C50.7365 12.9157 50.8637 12.9093 50.9876 12.9311Z" fill="#96CAFF"/>
<path d="M51.3982 12.1201C51.3789 12.1715 51.3655 12.225 51.3584 12.2794C51.3669 12.2251 51.3808 12.1717 51.3998 12.1201H51.3982Z" fill="#F7BD34"/>
<path d="M52.1751 11.5532C51.8565 11.781 51.6049 11.9658 51.3994 12.1187C51.3994 12.1043 51.4106 12.0884 51.4169 12.0741C51.422 12.0597 51.4284 12.0458 51.436 12.0327C51.4489 12.0039 51.4649 11.9766 51.4838 11.9514C51.5014 11.9275 51.5189 11.9036 51.5396 11.8797C51.5799 11.8332 51.6259 11.792 51.6766 11.7571C51.702 11.738 51.7291 11.7205 51.7578 11.7029L51.8247 11.6679L51.8613 11.6504C51.8987 11.6325 51.937 11.6166 51.976 11.6026C52.0411 11.5812 52.1076 11.5647 52.1751 11.5532Z" fill="#96CAFF"/>
<path d="M52.796 11.8049C52.6972 11.7444 52.5539 11.7316 52.1143 12.0327C52.0419 12.0356 51.972 12.0598 51.9133 12.1023C51.8547 12.1448 51.8099 12.2037 51.7846 12.2716C51.6587 12.3687 51.5154 12.485 51.3529 12.6204C51.3459 12.5457 51.3459 12.4705 51.3529 12.3958C51.3529 12.3767 51.3529 12.3592 51.3529 12.3401C51.3529 12.3209 51.3529 12.2986 51.3529 12.2779C51.3614 12.2236 51.3753 12.1703 51.3943 12.1187C51.5998 11.9594 51.8546 11.781 52.17 11.5532C52.3986 11.575 52.616 11.6624 52.796 11.8049Z" fill="#96CAFF"/>
<path d="M53.1724 12.8088C53.0003 13.2086 52.5703 13.4906 52.2167 13.446C51.7787 13.3791 51.3932 13.0271 51.3502 12.6496C51.3494 12.6411 51.3494 12.6326 51.3502 12.6241C51.5095 12.4887 51.656 12.3724 51.7818 12.2753C51.7709 12.3047 51.7629 12.3351 51.758 12.366C51.7436 12.46 51.7978 12.6352 51.8886 12.5922C52.0888 12.4984 52.248 12.3347 52.3361 12.1319C52.376 12.0363 52.2453 12.0411 52.1657 12.0316H52.1116C52.5512 11.7305 52.6945 11.7433 52.7933 11.8038C52.8088 11.8135 52.8237 11.8241 52.8379 11.8356C52.9764 11.9424 52.9287 12.0634 52.8219 12.1717C52.6372 12.3565 52.4508 12.5413 52.2676 12.7292C52.2151 12.7834 52.1323 12.8439 52.188 12.9267C52.2438 13.0095 52.333 12.984 52.4062 12.9697C52.4952 12.9454 52.577 12.8997 52.6444 12.8367C52.7118 12.7738 52.7629 12.6953 52.7933 12.6082C52.8665 12.4489 52.9828 12.3724 53.1373 12.4489C53.3396 12.5365 53.2281 12.6814 53.1724 12.8088Z" fill="#96CAFF"/>
<path d="M49.5258 16.421C49.5167 16.4729 49.495 16.5217 49.4625 16.5631C49.4299 16.6045 49.3877 16.6372 49.3394 16.6583C49.2978 16.6792 49.2501 16.6846 49.2048 16.6735C49.1596 16.6624 49.1197 16.6356 49.0925 16.5978C48.9157 16.4242 48.7421 16.2442 48.5621 16.0722C48.4299 15.9479 48.3407 15.7536 48.0843 15.9272C47.9584 16.0148 47.7657 15.8253 47.8517 15.6995C48.0015 15.4685 47.8517 15.3809 47.7434 15.2391C47.5204 14.962 47.6431 14.4475 47.9616 14.2882C48.0061 14.2602 48.0591 14.2493 48.111 14.2575C48.1628 14.2657 48.21 14.2925 48.2436 14.3328C48.3328 14.4173 48.3662 14.5033 48.2674 14.602C48.1687 14.7008 48.0524 14.8362 48.2053 15.0018C48.3582 15.1675 48.4538 15.0432 48.5621 14.9477C48.5792 14.9273 48.6005 14.9108 48.6246 14.8996C48.6486 14.8883 48.6749 14.8825 48.7015 14.8825C48.7281 14.8825 48.7543 14.8883 48.7784 14.8996C48.8025 14.9108 48.8238 14.9273 48.8409 14.9477C48.8612 14.9651 48.8773 14.987 48.8879 15.0116C48.8984 15.0363 48.9032 15.063 48.9018 15.0898C48.9004 15.1165 48.8929 15.1426 48.8799 15.166C48.8668 15.1894 48.8486 15.2096 48.8265 15.2248C48.6179 15.3984 48.7071 15.5258 48.8632 15.6676C49.0479 15.8364 49.2183 16.018 49.3936 16.1948C49.4541 16.2553 49.5273 16.3159 49.5258 16.421Z" fill="#96CAFF"/>
<path d="M50.3171 15.7051C50.228 15.7959 50.1196 15.8644 50.0113 15.7657C49.6609 15.4312 49.3217 15.0871 48.9792 14.7431C48.9537 14.7176 48.9219 14.6571 48.9314 14.6444C49.1496 14.3768 49.3758 14.1124 49.61 13.832C49.7979 13.9324 49.8967 14.1012 49.7868 14.2398C49.4809 14.6205 49.7007 14.8562 49.962 15.1031C50.0766 15.2114 50.1834 15.3261 50.2964 15.436C50.3825 15.5204 50.4159 15.6048 50.3171 15.7051Z" fill="#96CAFF"/>
<path d="M55.4381 10.5249C55.4023 10.6272 55.3341 10.715 55.2437 10.775C55.153 10.8594 55.0765 10.8132 55.0048 10.7431C54.6863 10.4166 54.355 10.0933 54.0332 9.76515C54.0098 9.7451 53.9912 9.7199 53.9791 9.69153C53.9669 9.66315 53.9615 9.63235 53.9632 9.60153C53.9649 9.57071 53.9737 9.5407 53.9889 9.51382C54.004 9.48695 54.0252 9.46394 54.0507 9.44659C54.1415 9.35261 54.2498 9.28731 54.3582 9.39562C54.7086 9.7317 55.0494 10.0789 55.3919 10.423C55.4132 10.454 55.4288 10.4885 55.4381 10.5249Z" fill="#96CAFF"/>
<path d="M53.9378 9.03157C53.8884 9.17652 53.8454 9.34058 53.6416 9.3342C53.6011 9.33623 53.5607 9.32981 53.5229 9.31536C53.4851 9.30091 53.4507 9.27874 53.422 9.25027C53.3932 9.2218 53.3707 9.18765 53.3558 9.15C53.341 9.11235 53.3341 9.07202 53.3357 9.03157C53.3301 8.99192 53.3332 8.9515 53.345 8.9132C53.3567 8.87491 53.3768 8.83967 53.4037 8.81001C53.4306 8.78035 53.4638 8.75699 53.5007 8.7416C53.5377 8.72621 53.5776 8.71917 53.6177 8.72098C53.7002 8.72324 53.779 8.75641 53.8382 8.81392C53.8975 8.87144 53.9331 8.94911 53.9378 9.03157Z" fill="#96CAFF"/>
<path d="M38.2455 62.2647L35.697 60.0013C35.56 59.8803 35.4119 59.7703 35.2749 59.6493C34.9882 59.3976 34.9564 59.1046 35.2032 58.8179C35.2518 58.7634 35.3109 58.7194 35.3769 58.6886C35.443 58.6577 35.5147 58.6407 35.5875 58.6384C35.6604 58.6362 35.733 58.6488 35.8008 58.6756C35.8687 58.7023 35.9304 58.7426 35.9821 58.794C36.9378 59.6095 37.8935 60.4329 38.8491 61.2532C39.9912 62.2376 41.1189 63.2363 42.2609 64.2222C43.1736 65.0106 44.0751 65.815 44.9893 66.6002C46.0215 67.489 47.06 68.3682 48.0969 69.257C48.7818 69.8479 49.4555 70.4516 50.1388 71.0441C51.2771 72.0316 52.417 73.0181 53.5585 74.0035C53.7274 74.15 53.8851 74.3093 54.0364 74.4702C54.2785 74.7203 54.2179 74.9719 54.0093 75.2029C53.969 75.256 53.9175 75.2998 53.8586 75.3309C53.7996 75.3621 53.7345 75.38 53.6678 75.3833C53.6012 75.3867 53.5346 75.3754 53.4728 75.3503C53.411 75.3251 53.3555 75.2868 53.3101 75.2379C52.5503 74.5928 51.7969 73.9398 51.0419 73.2899C49.7502 72.175 48.4536 71.0744 47.1667 69.9594C46.2445 69.163 45.3397 68.3411 44.4191 67.5416C43.3504 66.613 42.2736 65.6939 41.1985 64.7733C40.8799 64.5025 40.6219 64.1617 40.2189 64.0008C40.0987 63.8338 39.9389 63.6991 39.7538 63.609C39.7538 63.5667 39.7371 63.5262 39.7072 63.4963C39.6773 63.4665 39.6368 63.4497 39.5946 63.4497C39.2346 62.9464 38.6946 62.6581 38.2455 62.2647Z" fill="#748692"/>
<path d="M38.2457 62.2642C38.6916 62.6576 39.2316 62.9459 39.5788 63.4492C39.6266 63.6435 39.4196 63.7518 39.4196 63.927C39.0803 64.1436 38.8557 64.4893 38.5196 64.7139C38.123 64.9815 38.0131 64.9958 37.7232 64.6263C37.4047 64.2313 37.2613 63.7853 37.4461 63.2788C37.5109 63.1354 37.5404 62.9787 37.5321 62.8216C37.8507 62.7436 37.9829 62.4171 38.2457 62.2642Z" fill="#5E737B"/>
<path d="M39.7482 63.6064C39.9332 63.6966 40.093 63.8312 40.2133 63.9983C40.1894 64.3455 39.6813 64.9539 39.307 65.0208C39.0299 65.0734 38.7495 65.1881 38.415 65.0654C38.7575 64.6768 39.3022 64.4793 39.4249 63.9282C39.5085 63.9226 39.5873 63.887 39.6468 63.8279C39.7062 63.7687 39.7422 63.6901 39.7482 63.6064Z" fill="#5E737B"/>
<path d="M54.9888 75.5352C55.2501 75.5352 55.626 75.8872 55.618 76.1357C55.61 76.3842 55.4476 76.4542 55.258 76.4734C55.035 76.4925 54.6735 76.107 54.6655 75.8761C54.6575 75.6451 54.7515 75.5256 54.9888 75.5352Z" fill="#748692"/>
<path d="M37.5288 62.8218C37.4775 62.8596 37.4315 62.9041 37.3919 62.954C37.3457 63.0241 37.3504 63.1643 37.2198 63.1133C37.0892 63.0623 37.1561 62.9381 37.2023 62.8521C37.2756 62.7183 37.2835 62.6227 37.1322 62.5335C37.0398 62.4762 36.9188 62.3742 37.0558 62.2532C37.1928 62.1321 37.2724 62.2118 37.352 62.3185C37.3919 62.3727 37.4285 62.4236 37.5113 62.3902C37.5941 62.3567 37.7136 62.1847 37.7996 62.344C37.8617 62.4587 37.6897 62.5287 37.618 62.6164C37.5651 62.6742 37.5336 62.7484 37.5288 62.8266V62.8218Z" fill="#5E737B"/>
<path d="M47.6431 67.3983C46.8721 66.6019 45.9929 65.9345 45.1742 65.1971C44.7633 64.8275 44.3412 64.4723 43.9127 64.1219C43.7009 63.9483 43.6675 63.8193 43.9207 63.6441C45.7827 62.4145 47.4503 60.9523 49.0447 59.3977C50.6391 57.8432 52.0981 56.2026 53.5523 54.5413C54.5653 53.3833 55.5751 52.2222 56.4432 50.948C56.7636 50.4819 57.0582 49.9985 57.3256 49.5001C57.4594 49.2517 57.539 49.1975 57.7493 49.4587C58.8435 50.8062 60.0795 51.9992 61.6516 52.7876C61.9272 52.9262 61.7759 53.0409 61.666 53.1683C60.8887 54.0762 60.1464 55.0144 59.4217 55.9669C57.813 58.0821 56.3301 60.2849 54.9078 62.5291C53.4567 64.8196 52.0678 67.1482 50.7124 69.4912C50.5419 69.7859 50.4225 69.7556 50.1931 69.5501C49.411 68.8461 48.6099 68.166 47.8135 67.4795C47.76 67.4429 47.7022 67.4129 47.6415 67.3903L47.6431 67.3983Z" fill="#96CAFF"/>
<path d="M64.6467 53.1196C64.153 53.1562 63.6003 52.9746 63.0412 52.8297C62.8437 52.7787 62.7736 52.6895 62.9122 52.5016C63.656 51.4997 64.3457 50.458 65.3014 49.6202C65.6102 49.3304 65.9899 49.1269 66.4023 49.0301C66.8146 48.9334 67.2452 48.9468 67.6507 49.0691C68.4774 49.2873 68.745 49.8241 68.4344 50.6268C68.1316 51.3783 67.6068 52.0196 66.93 52.465C66.2532 52.9104 65.4567 53.1387 64.6467 53.1196Z" fill="#96CAFF"/>
<path d="M57.4682 48.0747C57.0523 47.4585 56.7427 46.7769 56.5524 46.0582C56.3453 45.2794 56.2338 44.4877 56.4058 43.685C56.435 43.5164 56.5014 43.3564 56.6001 43.2167C56.8629 42.8631 57.1528 42.8169 57.5112 43.0654C57.7871 43.2751 57.975 43.58 58.0384 43.9207C58.3904 45.3478 58.0145 46.6874 57.4682 48.0747Z" fill="#96CAFF"/>
<path d="M51.9786 67.9349C51.926 67.6275 52.0948 67.414 52.2398 67.1942C52.2748 67.1401 52.3369 67.0987 52.3991 67.1672C52.4612 67.2356 52.4277 67.285 52.3991 67.3487C52.3146 67.5829 52.0486 67.68 51.9786 67.9349Z" fill="#4D5E68"/>
<path d="M51.3486 68.861C51.4299 68.5138 51.6178 68.3386 51.7213 68.1204C51.7261 68.1083 51.7335 68.0975 51.7429 68.0886C51.7524 68.0797 51.7637 68.0731 51.7761 68.0691C51.7884 68.0652 51.8015 68.064 51.8143 68.0657C51.8272 68.0674 51.8395 68.0719 51.8504 68.079C51.8806 68.1044 51.9013 68.1952 51.8838 68.2128C51.7038 68.388 51.656 68.6683 51.3486 68.861Z" fill="#4D5E68"/>
<path d="M53.5577 65.4166C53.4733 65.5425 53.4319 65.7177 53.2646 65.7893C53.2057 65.8132 53.1643 65.7352 53.1818 65.6922C53.232 65.5215 53.3318 65.3696 53.4685 65.2558C53.5115 65.2287 53.5497 65.3354 53.5577 65.4166Z" fill="#4D5E68"/>
<path d="M51.2622 69.2204C51.208 69.3224 51.2048 69.4785 51.0424 69.5008C50.9739 69.5103 50.9563 69.4371 50.9723 69.3893C51.0121 69.2698 51.0296 69.1217 51.1889 69.0978C51.2542 69.0803 51.2622 69.1551 51.2622 69.2204Z" fill="#4D5E68"/>
<path d="M98.5946 30.6943C98.6083 31.6278 98.4881 32.5584 98.2378 33.4578C97.7756 35.1012 96.92 36.6073 95.7451 37.8459C95.2466 38.3684 94.6604 38.7745 94.1603 39.2922C93.7302 39.7382 93.1027 39.9452 92.5452 40.2287C91.578 40.7286 90.5333 41.0614 89.4552 41.2131C88.4868 41.3469 87.4976 41.2736 86.5149 41.229C85.5321 41.1844 84.7103 40.7384 83.8247 40.4326C82.1937 39.8751 80.9067 38.8398 79.8156 37.5417C79.6293 37.3203 79.4286 37.1132 79.2295 36.9046C78.4204 36.0509 78.0429 34.9518 77.6893 33.8863C77.3484 32.8573 77.0521 31.7758 77.1047 30.6593C77.1366 29.9298 77.2799 29.2098 77.3819 28.4867C77.4968 27.8337 77.6755 27.1935 77.9154 26.5754C78.1321 25.9621 78.5016 25.4094 78.8488 24.852C79.3378 24.0651 79.8809 23.2894 80.577 22.7033C81.273 22.1171 81.8767 21.3877 82.8595 21.2698C82.8961 21.2698 82.9566 21.2554 82.9662 21.2332C83.1159 20.8302 83.5236 20.862 83.8247 20.7075C84.8966 20.1564 86.0625 20.0704 87.2285 19.9111C88.3562 19.7519 89.4377 20.0848 90.5462 20.1102C90.9397 20.1198 91.3426 20.3476 91.709 20.5498C91.8937 20.6417 92.0829 20.7241 92.276 20.7967C93.5311 21.3574 94.6986 22.0837 95.6065 23.1015C96.9827 24.6433 98.0323 26.3826 98.3716 28.4899C98.4904 29.2195 98.5648 29.9557 98.5946 30.6943ZM97.1324 29.96C97.3443 29.0633 96.9891 28.2796 96.5765 27.531C96.3074 27.042 95.9697 26.5467 95.4934 26.2568C94.9137 25.9048 94.3403 25.4939 93.598 25.4779C92.6551 25.4588 91.6978 25.2948 90.8537 25.8873C90.6128 26.0891 90.3614 26.2779 90.1003 26.4527C89.6989 26.6878 89.3518 27.0052 89.082 27.384C88.8121 27.7629 88.6255 28.1946 88.5346 28.6508C88.3628 29.4244 88.3671 30.2268 88.5473 30.9985C88.7687 31.9335 89.3278 32.6773 90.1098 33.2778C90.5685 33.6298 90.9524 34.0503 91.5879 34.0376C91.745 34.0347 91.9014 34.0595 92.0498 34.1108C93.023 34.4549 93.9516 34.122 94.8277 33.8114C95.4727 33.5836 95.9522 32.9847 96.387 32.44C96.9556 31.7344 97.3522 30.9348 97.1324 29.9664V29.96Z" fill="#96CAFF"/>
<path d="M52.3393 12.1286C52.2511 12.3315 52.092 12.4952 51.8917 12.589C51.8009 12.632 51.7467 12.4568 51.7611 12.3628C51.766 12.3318 51.774 12.3014 51.785 12.272C51.8103 12.2049 51.8548 12.1467 51.9128 12.1046C51.9708 12.0624 52.0399 12.0381 52.1115 12.0347H52.1656C52.2485 12.0379 52.3791 12.0331 52.3393 12.1286Z" fill="#EAAC27"/>
<path d="M39.7473 63.6065C39.7407 63.6888 39.705 63.7661 39.6467 63.8245C39.5883 63.8829 39.511 63.9185 39.4287 63.9251C39.4287 63.7483 39.6358 63.64 39.588 63.4473C39.6302 63.4473 39.6707 63.464 39.7006 63.4939C39.7305 63.5238 39.7473 63.5643 39.7473 63.6065Z" fill="#4D5E68"/>
<path d="M97.1327 29.9664C97.3525 30.9349 96.9559 31.7344 96.3873 32.4464C95.9525 32.9911 95.4731 33.59 94.828 33.8178C93.9519 34.1284 93.0233 34.4549 92.0501 34.1172C91.9017 34.0659 91.7453 34.0411 91.5882 34.044C90.9511 34.0567 90.5689 33.6362 90.1101 33.2842C89.3281 32.6837 88.769 31.9399 88.5476 31.0049C88.3674 30.2332 88.3631 29.4308 88.5349 28.6572C88.6259 28.201 88.8124 27.7693 89.0823 27.3904C89.3522 27.0116 89.6992 26.6942 90.1006 26.4591C90.3617 26.2843 90.6132 26.0955 90.854 25.8937C91.6981 25.3012 92.6554 25.4652 93.5983 25.4843C94.3406 25.5003 94.914 25.9112 95.4938 26.2632C95.9716 26.5531 96.3077 27.0484 96.5769 27.5374C96.9894 28.286 97.3382 29.0697 97.1327 29.9664Z" fill="#96CAFF"/>
<path d="M68.5998 49.6778C68.5424 48.5262 67.9547 48.1153 66.5944 47.9448C66.4272 47.9241 66.2552 47.9321 66.0863 47.9273C66.201 47.776 66.4782 47.9687 66.526 47.7601C66.5737 47.5514 66.3125 47.4957 66.1867 47.3746C65.2119 46.439 64.3257 45.4153 63.5395 44.3165C62.9158 43.4283 62.3554 42.4974 61.8623 41.5307C61.6568 41.1388 61.5294 40.7056 61.3526 40.2979C60.8078 39.0367 60.4158 37.7148 60.1851 36.3605C60.0433 35.5386 59.8808 34.7135 59.9047 33.8678C59.9223 33.2036 59.841 32.5442 59.8856 31.8704C59.9854 30.6066 60.1631 29.3502 60.4176 28.1082C60.5718 27.3812 60.7849 26.668 61.0547 25.9755C61.4989 24.7586 62.0612 23.5882 62.7335 22.4809C63.3101 21.538 64.0078 20.6938 64.6863 19.8353C65.4747 18.8414 66.424 18.0132 67.4163 17.2215C67.9897 16.7628 68.5711 16.3152 69.1811 15.9171C70.1416 15.3168 71.1603 14.8151 72.2218 14.4198C72.8828 14.1602 73.5374 13.899 74.2128 13.676C75.0904 13.3861 75.9967 13.2667 76.895 13.109C77.5731 12.9648 78.2644 12.8911 78.9577 12.8892C79.8894 12.921 80.826 12.8716 81.7514 12.9624C82.8457 13.059 83.9281 13.2617 84.9832 13.5677C85.6856 13.7779 86.3737 14.0264 87.0538 14.2908C87.8047 14.5565 88.5311 14.8869 89.2248 15.2783C90.0387 15.7689 90.8622 16.234 91.6283 16.809C93.1859 17.9812 94.5788 19.3575 95.7695 20.9009C96.0515 21.2593 96.2474 21.7164 96.499 22.0907C96.859 22.6243 97.1362 23.2056 97.4802 23.7313C97.7908 24.2091 97.966 24.7475 98.189 25.2556C98.6872 26.38 99.0487 27.5602 99.2657 28.7709C99.4273 29.5539 99.5374 30.3467 99.5954 31.1441C99.6289 31.8529 99.6273 32.5601 99.6544 33.2689C99.6974 34.4029 99.4855 35.5099 99.3087 36.6217C99.2479 37.1541 99.1282 37.6782 98.9519 38.1842C98.6334 38.9806 98.4741 39.828 98.0695 40.6005C97.7733 41.1596 97.5598 41.7712 97.2413 42.3223C96.674 43.3173 96.0474 44.2774 95.365 45.1973C94.8871 45.8344 94.2851 46.3234 93.8232 46.9669C93.4855 47.4367 92.9201 47.7394 92.4804 48.1439C91.649 48.9085 90.6949 49.4866 89.7377 50.076C89.2232 50.3945 88.6705 50.6398 88.1672 50.9791C87.8693 51.1798 87.4727 51.1846 87.1239 51.2976C86.087 51.6544 85.0373 51.9905 83.9765 52.2645C83.2964 52.4397 82.5844 52.4906 81.8884 52.5974C81.2226 52.7009 80.5521 52.6547 79.8831 52.6818C78.3253 52.7439 76.801 52.5145 75.2895 52.1785C73.2552 51.7272 71.3107 50.939 69.5363 49.8466C69.4041 49.7654 69.2401 49.7463 69.1318 49.6125C68.9295 49.3672 68.7463 49.3927 68.5998 49.6778ZM98.0759 30.1884C98.0479 29.4483 97.975 28.7105 97.8577 27.9792C97.5184 25.872 96.4688 24.1327 95.0926 22.5908C94.1847 21.573 93.022 20.8388 91.7621 20.2861C91.569 20.2135 91.3797 20.1311 91.1951 20.0392C90.8351 19.8369 90.4257 19.6091 90.0323 19.5996C88.9174 19.5741 87.8422 19.2492 86.7145 19.4005C85.5486 19.5598 84.3827 19.6426 83.3108 20.1969C83.0097 20.3561 82.602 20.3195 82.4522 20.7225C82.4427 20.7448 82.3822 20.7543 82.3455 20.7591C81.3628 20.8786 80.7432 21.624 80.0631 22.1926C79.3829 22.7613 78.8207 23.5592 78.3429 24.3461C77.9956 24.9036 77.6261 25.461 77.4095 26.0695C77.1696 26.6876 76.9909 27.3278 76.8759 27.9808C76.774 28.704 76.6306 29.4239 76.5987 30.1534C76.5478 31.2683 76.8424 32.3514 77.1833 33.3804C77.5369 34.446 77.9144 35.545 78.7235 36.3987C78.9226 36.609 79.1233 36.816 79.3097 37.0358C80.4007 38.3403 81.6877 39.3693 83.3187 39.9267C84.2043 40.2278 85.0421 40.6753 86.0089 40.7231C86.9758 40.7709 87.9808 40.841 88.9492 40.7072C90.0273 40.5555 91.072 40.2227 92.0392 39.7229C92.5967 39.4393 93.2243 39.2323 93.6543 38.7863C94.1545 38.2686 94.7406 37.8625 95.2391 37.34C96.4114 36.1028 97.2653 34.599 97.7271 32.9583C97.9753 32.0565 98.0928 31.1237 98.0759 30.1884Z" fill="white" fill-opacity="0.3"/>
<path d="M98.0751 30.1885C98.0888 31.1219 97.9686 32.0525 97.7183 32.9519C97.256 34.5954 96.4005 36.1015 95.2256 37.3401C94.727 37.8625 94.1409 38.2687 93.6407 38.7863C93.2107 39.2323 92.5831 39.4394 92.0257 39.7229C91.0585 40.2227 90.0138 40.5555 88.9357 40.7072C87.9672 40.841 86.9781 40.7677 85.9954 40.7231C85.0126 40.6786 84.1907 40.2326 83.3052 39.9268C81.6741 39.3693 80.3872 38.334 79.2961 37.0358C79.1097 36.8144 78.9091 36.6074 78.71 36.3987C77.9008 35.545 77.5233 34.446 77.1697 33.3804C76.8289 32.3515 76.5326 31.27 76.5852 30.1534C76.617 29.4239 76.7604 28.704 76.8623 27.9808C76.9773 27.3278 77.156 26.6876 77.3959 26.0695C77.6125 25.4563 77.9821 24.9036 78.3293 24.3461C78.8183 23.5593 79.3614 22.7836 80.0575 22.1974C80.7535 21.6113 81.3572 20.8818 82.3399 20.7639C82.3766 20.7639 82.4371 20.7496 82.4466 20.7273C82.5964 20.3243 83.0041 20.3562 83.3052 20.2017C84.3771 19.6506 85.543 19.5646 86.7089 19.4053C87.8366 19.246 88.9181 19.5789 90.0267 19.6044C90.4201 19.6139 90.8231 19.8417 91.1895 20.044C91.3741 20.1359 91.5634 20.2183 91.7565 20.2909C93.0116 20.8515 94.1791 21.5778 95.087 22.5956C96.4632 24.1375 97.5128 25.8768 97.8521 27.984C97.9708 28.7137 98.0453 29.4498 98.0751 30.1885ZM96.6129 29.4542C96.8247 28.5574 96.4695 27.7738 96.057 27.0252C95.7878 26.5362 95.4502 26.0408 94.9739 25.7509C94.3941 25.3989 93.8207 24.988 93.0785 24.9721C92.1356 24.953 91.1783 24.7889 90.3341 25.3814C90.0933 25.5833 89.8418 25.772 89.5807 25.9469C89.1794 26.1819 88.8323 26.4993 88.5624 26.8782C88.2926 27.257 88.106 27.6887 88.015 28.1449C87.8432 28.9186 87.8476 29.7209 88.0278 30.4927C88.2492 31.4276 88.8082 32.1715 89.5903 32.772C90.049 33.124 90.4329 33.5445 91.0684 33.5317C91.2255 33.5288 91.3818 33.5536 91.5303 33.605C92.5035 33.949 93.4321 33.6161 94.3081 33.3055C94.9532 33.0778 95.4326 32.4789 95.8675 31.9341C96.4361 31.2285 96.8327 30.429 96.6129 29.4605V29.4542Z" fill="white" fill-opacity="0.5"/>
<path d="M96.6132 29.4606C96.833 30.429 96.4364 31.2286 95.8678 31.9405C95.433 32.4853 94.9535 33.0842 94.3084 33.3119C93.4324 33.6225 92.5038 33.9491 91.5306 33.6114C91.3822 33.56 91.2258 33.5352 91.0687 33.5381C90.4316 33.5509 90.0493 33.1304 89.5906 32.7784C88.8085 32.1779 88.2495 31.434 88.0281 30.4991C87.8479 29.7273 87.8436 28.925 88.0153 28.1513C88.1063 27.6951 88.2929 27.2634 88.5628 26.8846C88.8326 26.5057 89.1797 26.1883 89.581 25.9533C89.8421 25.7784 90.0936 25.5897 90.3344 25.3878C91.1786 24.7953 92.1359 24.9594 93.0788 24.9785C93.821 24.9944 94.3945 25.4053 94.9742 25.7573C95.4521 26.0472 95.7881 26.5426 96.0573 27.0316C96.4699 27.7802 96.8187 28.5638 96.6132 29.4606Z" fill="white" fill-opacity="0.6"/>
<path d="M24.2344 17.9038H15.3452" stroke="#B9D4DB" stroke-width="0.877836" stroke-miterlimit="10" stroke-linecap="round"/>
<path d="M24.2344 20.4614H15.3452" stroke="#B9D4DB" stroke-width="0.877836" stroke-miterlimit="10" stroke-linecap="round"/>
<path d="M24.2344 23.019H15.3452" stroke="#B9D4DB" stroke-width="0.877836" stroke-miterlimit="10" stroke-linecap="round"/>
<path d="M84.0072 82.2028L86.6727 91.2247L109.713 84.4402C109.836 84.4041 109.95 84.3443 110.049 84.2641C110.149 84.1839 110.232 84.085 110.293 83.9729C110.354 83.8608 110.392 83.7378 110.406 83.6109C110.419 83.484 110.408 83.3557 110.371 83.2333L99.5884 46.7359C99.5523 46.6135 99.4923 46.4994 99.412 46.4001C99.3317 46.3009 99.2325 46.2184 99.1203 46.1574C99.008 46.0963 98.8848 46.058 98.7577 46.0445C98.6306 46.031 98.5021 46.0427 98.3795 46.0788L67.1983 55.2603C67.0757 55.2964 66.9614 55.3562 66.862 55.4364C66.7626 55.5166 66.6799 55.6156 66.6188 55.7277C66.5577 55.8397 66.5193 55.9627 66.5058 56.0896C66.4923 56.2165 66.5039 56.3448 66.5401 56.4672L74.9329 84.8748L84.0072 82.2028Z" fill="white"/>
<path d="M86.6709 91.2249L84.0054 82.2031L74.9313 84.8749L86.6709 91.2249Z" fill="#3086A3"/>
<path d="M84.8444 57.6277L96.3271 54.2466L97.8729 59.4789L86.3902 62.8599L84.8444 57.6277Z" fill="#3086A3"/>
<path d="M82.7607 61.0845L73.9666 63.6736" stroke="#3086A3" stroke-width="1.15004" stroke-miterlimit="10"/>
<path d="M102.946 77.0718L94.1518 79.6605" stroke="#3086A3" stroke-width="1.15004" stroke-miterlimit="10"/>
<path d="M99.0762 63.5615L75.9423 70.3736" stroke="#3086A3" stroke-width="1.15004" stroke-miterlimit="10"/>
<path d="M100.405 68.0532L77.2714 74.8653" stroke="#3086A3" stroke-width="1.15004" stroke-miterlimit="10"/>
<path d="M101.733 72.5459L78.5995 79.3579" stroke="#3086A3" stroke-width="1.15004" stroke-miterlimit="10"/>
<path d="M132.138 78.8182C131.592 76.9278 129.621 75.8364 127.734 76.3805C125.846 76.9246 124.758 78.8982 125.303 80.7886C125.848 82.679 127.82 83.7703 129.707 83.2262C131.594 82.6821 132.683 80.7086 132.138 78.8182Z" fill="#B9D4DB"/>
<path d="M126.808 85.5386C126.524 84.554 125.497 83.9854 124.514 84.2688C123.531 84.5521 122.965 85.5801 123.249 86.5647C123.533 87.5494 124.559 88.118 125.542 87.8346C126.525 87.5513 127.092 86.5233 126.808 85.5386Z" fill="#B9D4DB"/>
<path d="M120.156 82.9608C119.992 82.3928 119.4 82.0648 118.833 82.2283C118.266 82.3917 117.939 82.9847 118.103 83.5526C118.267 84.1206 118.859 84.4486 119.426 84.2851C119.993 84.1217 120.32 83.5287 120.156 82.9608Z" fill="#B9D4DB"/>
<path d="M123.378 76.8506C122.985 75.489 121.565 74.7028 120.206 75.0947C118.846 75.4867 118.063 76.9082 118.455 78.2699C118.848 79.6315 120.268 80.4176 121.627 80.0257C122.987 79.6338 123.771 78.2123 123.378 76.8506Z" fill="#B9D4DB"/>
<path d="M121.877 8.52588H113.391" stroke="#C6DCE4" stroke-width="0.838045" stroke-miterlimit="10" stroke-linecap="round"/>
<path d="M121.877 10.9678H113.391" stroke="#C6DCE4" stroke-width="0.838045" stroke-miterlimit="10" stroke-linecap="round"/>
<path d="M121.877 13.4097H113.391" stroke="#C6DCE4" stroke-width="0.838045" stroke-miterlimit="10" stroke-linecap="round"/>
<path d="M0.526062 78.3566C0.922738 76.4296 2.80383 75.1885 4.7276 75.5845C6.65137 75.9805 7.88933 77.8637 7.49266 79.7907C7.09598 81.7177 5.21489 82.9588 3.29111 82.5627C1.36734 82.1667 0.129387 80.2836 0.526062 78.3566Z" fill="#B9D4DB"/>
<path d="M6.3614 84.6438C6.56802 83.64 7.54766 82.9935 8.54949 83.1997C9.55133 83.406 10.196 84.3869 9.98935 85.3906C9.78273 86.3943 8.80308 87.0408 7.80125 86.8346C6.79942 86.6284 6.15477 85.6475 6.3614 84.6438Z" fill="#B9D4DB"/>
<path d="M12.7931 81.5575C12.9122 80.9785 13.4773 80.6056 14.0552 80.7246C14.6331 80.8435 15.0049 81.4093 14.8857 81.9883C14.7665 82.5673 14.2015 82.9402 13.6236 82.8212C13.0457 82.7023 12.6739 82.1365 12.7931 81.5575Z" fill="#B9D4DB"/>
<path d="M9.10675 75.7155C9.39247 74.3275 10.7474 73.4336 12.1331 73.7188C13.5188 74.0041 14.4105 75.3605 14.1248 76.7485C13.839 78.1365 12.4841 79.0305 11.0984 78.7452C9.71272 78.46 8.82102 77.1035 9.10675 75.7155Z" fill="#B9D4DB"/>
</svg>
