<svg width="362" height="305" viewBox="0 0 362 305" fill="none" xmlns="http://www.w3.org/2000/svg">
<defs>
<linearGradient id="paint0_linear_4363_24611" x1="180" y1="0" x2="180" y2="312.221" gradientUnits="userSpaceOnUse">
<stop stop-color="white"/>
<stop offset="1" stop-color="#C0E1FF" stop-opacity="0.5"/>
</linearGradient>
<linearGradient id="paint1_linear_4363_24611" x1="243.835" y1="93.8907" x2="233.939" y2="85.7121" gradientUnits="userSpaceOnUse">
<stop stop-color="#3258F3"/>
<stop offset="1" stop-color="#2DA6FF"/>
</linearGradient>
<linearGradient id="paint2_linear_4363_24611" x1="233.323" y1="111.596" x2="225.522" y2="104.239" gradientUnits="userSpaceOnUse">
<stop stop-color="#FF9900"/>
<stop offset="1" stop-color="#FFCC80"/>
</linearGradient>
<linearGradient id="paint3_linear_4363_24611" x1="256.336" y1="104.239" x2="255.51" y2="102.113" gradientUnits="userSpaceOnUse">
<stop stop-color="#F43B2E"/>
<stop offset="1" stop-color="#FF5A7B"/>
</linearGradient>
<linearGradient id="paint4_linear_4363_24611" x1="250.819" y1="104.239" x2="249.993" y2="102.113" gradientUnits="userSpaceOnUse">
<stop stop-color="#F43B2E"/>
<stop offset="1" stop-color="#FF5A7B"/>
</linearGradient>
<linearGradient id="paint5_linear_4363_24611" x1="252.434" y1="108.281" x2="250.605" y2="107.789" gradientUnits="userSpaceOnUse">
<stop stop-color="#F43B2E"/>
<stop offset="1" stop-color="#FF5A7B"/>
</linearGradient>
<linearGradient id="paint6_linear_4363_24611" x1="252.434" y1="102.256" x2="250.605" y2="101.764" gradientUnits="userSpaceOnUse">
<stop stop-color="#F43B2E"/>
<stop offset="1" stop-color="#FF5A7B"/>
</linearGradient>
<linearGradient id="paint7_linear_4363_24611" x1="104.794" y1="176.802" x2="80.0189" y2="156.92" gradientUnits="userSpaceOnUse">
<stop stop-color="#3258F3"/>
<stop offset="1" stop-color="#2DA6FF"/>
</linearGradient>
<linearGradient id="paint8_linear_4363_24611" x1="108.932" y1="145.839" x2="98.2175" y2="136.026" gradientUnits="userSpaceOnUse">
<stop stop-color="#33A752"/>
<stop offset="1" stop-color="#8DCB9E"/>
</linearGradient>
<clipPath id="clip0_4363_24611">
<rect width="362" height="305" fill="white"/>
</clipPath>
</defs>
<g clip-path="url(#clip0_4363_24611)">
<path d="M0 0H360V304.957H0V0Z" fill="url(#paint0_linear_4363_24611)"/>
<path d="M348.664 208.417C346.969 208.289 345.35 207.823 343.854 207.027L344.182 206.41C345.591 207.159 347.116 207.602 348.715 207.721L348.664 208.42V208.417ZM353.628 207.769L353.397 207.107C354.903 206.581 356.264 205.762 357.439 204.67L357.915 205.184C356.665 206.34 355.224 207.21 353.628 207.769V207.769ZM340.001 203.826C338.942 202.496 338.184 200.991 337.75 199.353L338.428 199.173C338.839 200.718 339.552 202.134 340.55 203.389L340.001 203.826ZM360.817 201.103L360.175 200.824C360.814 199.363 361.138 197.809 361.138 196.2H361.838C361.838 197.905 361.495 199.552 360.817 201.103ZM361.071 194.941C360.901 193.352 360.409 191.843 359.61 190.453L360.217 190.103C361.064 191.576 361.585 193.179 361.764 194.864L361.068 194.938L361.071 194.941ZM338.171 194.46L337.481 194.354C337.734 192.678 338.322 191.098 339.231 189.663L339.821 190.038C338.964 191.393 338.412 192.88 338.171 194.46V194.46ZM356.473 186.927C355.189 185.97 353.747 185.302 352.19 184.946L352.347 184.265C353.997 184.644 355.529 185.351 356.893 186.368L356.476 186.93L356.473 186.927ZM343.103 186.641L342.708 186.063C344.114 185.107 345.672 184.464 347.338 184.156L347.466 184.843C345.896 185.135 344.429 185.739 343.103 186.641V186.641Z" fill="#7BCCBC"/>
<path d="M310.4 99.1998C310.4 101.518 308.518 103.4 306.2 103.4C303.882 103.4 302 101.518 302 99.1998C302 96.8816 303.882 95 306.2 95C308.518 95 310.4 96.8816 310.4 99.1998Z" fill="#7BCCBC"/>
<path d="M60.8578 154.873C60.8578 156.999 59.1336 158.723 57.008 158.723C54.8824 158.723 53.1582 156.999 53.1582 154.873C53.1582 152.748 54.8824 151.024 57.008 151.024C59.1336 151.024 60.8578 152.748 60.8578 154.873Z" fill="#7BCCBC"/>
<path d="M339.639 185.091C341.185 185.091 342.439 183.837 342.439 182.291C342.439 180.745 341.185 179.491 339.639 179.491C338.093 179.491 336.839 180.745 336.839 182.291C336.839 183.837 338.093 185.091 339.639 185.091Z" fill="#7BCCBC"/>
<path d="M136.73 77.8006C136.73 79.1523 135.631 80.2505 134.28 80.2505C132.928 80.2505 131.83 79.1523 131.83 77.8006C131.83 76.4488 132.928 75.3507 134.28 75.3507C135.631 75.3507 136.73 76.4488 136.73 77.8006Z" fill="#7BCCBC"/>
<path opacity="0.2" d="M129.799 143.711C128.448 142.21 126.454 141.201 124.352 141.192C121.865 141.18 119.237 142.345 117.003 141.321C114.01 139.949 113.767 135.536 110.727 134.26C108.608 133.372 106.207 134.45 103.929 134.855C100.056 135.545 95.8342 134.077 93.3761 131.183C92.4256 130.067 91.7246 128.761 90.6492 127.749C88.636 125.864 85.4547 125.281 82.7213 126.023C79.988 126.764 77.722 128.701 76.3522 131.042C75.2928 132.852 74.515 135.101 72.4762 135.875C70.1398 136.764 67.3585 135.185 65.0156 136.056C63.3321 136.683 62.3943 138.454 62.3079 140.15C62.2471 141.357 62.5352 142.543 62.9192 143.705H129.796L129.799 143.711Z" fill="#96CAFF"/>
<path d="M234.924 89.5592C234.924 87.0454 236.969 84.9998 239.483 84.9998C241.997 84.9998 244.043 87.0454 244.043 89.5592C244.043 92.0731 241.997 94.1187 239.483 94.1187C236.969 94.1187 234.924 92.0731 234.924 89.5592ZM242.615 89.5592C242.615 87.8321 241.21 86.4275 239.483 86.4275C237.756 86.4275 236.352 87.8321 236.352 89.5592C236.352 91.2863 237.756 92.691 239.483 92.691C241.21 92.691 242.615 91.2863 242.615 89.5592Z" fill="url(#paint1_linear_4363_24611)"/>
<path d="M224.058 108.28C224.058 105.766 226.103 103.721 228.617 103.721C231.131 103.721 233.177 105.766 233.177 108.28C233.177 110.794 231.131 112.84 228.617 112.84C226.103 112.84 224.058 110.794 224.058 108.28ZM231.749 108.28C231.749 106.553 230.344 105.149 228.617 105.149C226.89 105.149 225.485 106.553 225.485 108.28C225.485 110.007 226.89 111.412 228.617 111.412C230.344 111.412 231.749 110.007 231.749 108.28Z" fill="url(#paint2_linear_4363_24611)"/>
<path d="M252.378 103.72C252.378 103.325 252.697 103.006 253.092 103.006H256.247C256.642 103.006 256.961 103.325 256.961 103.72C256.961 104.115 256.642 104.434 256.247 104.434H253.092C252.697 104.434 252.378 104.115 252.378 103.72Z" fill="url(#paint3_linear_4363_24611)"/>
<path d="M246.861 103.72C246.861 103.325 247.18 103.006 247.575 103.006H250.73C251.125 103.006 251.444 103.325 251.444 103.72C251.444 104.115 251.125 104.434 250.73 104.434H247.575C247.18 104.434 246.861 104.115 246.861 103.72Z" fill="url(#paint4_linear_4363_24611)"/>
<path d="M251.201 108.148V105.316C251.201 104.92 251.52 104.602 251.915 104.602C252.31 104.602 252.629 104.92 252.629 105.316V108.148C252.629 108.543 252.31 108.862 251.915 108.862C251.52 108.862 251.201 108.543 251.201 108.148Z" fill="url(#paint5_linear_4363_24611)"/>
<path d="M251.201 102.123V99.2903C251.201 98.895 251.52 98.5764 251.915 98.5764C252.31 98.5764 252.629 98.895 252.629 99.2903V102.123C252.629 102.518 252.31 102.837 251.915 102.837C251.52 102.837 251.201 102.518 251.201 102.123Z" fill="url(#paint6_linear_4363_24611)"/>
<path opacity="0.2" d="M350.204 169.09C349.742 167.928 348.603 166.991 347.467 166.627C345.803 166.096 343.978 166.221 342.426 165.346C340.689 164.369 339.293 162.167 337.365 162.382C335.82 162.553 334.704 164.277 333.179 164.623C330.026 165.337 327.929 160.064 324.717 160.061C322.802 160.061 321.204 161.986 319.289 162.055C316.807 162.144 315.169 159.278 313.654 157.027C311.409 153.689 307.513 150.906 304.185 152.702C301.973 153.897 300.841 156.67 299.636 159.11C298.431 161.55 296.605 164.082 294.159 164.085C291.587 164.089 288.999 161.256 286.76 162.705C285.707 163.385 285.199 164.861 285.205 166.248C285.208 167.222 285.426 168.166 285.7 169.094H350.201L350.204 169.09Z" fill="#96CAFF"/>
<path d="M104.612 169.932L105.301 166.426L102.017 165.782C102.017 164.919 101.867 164.053 101.583 163.217L104.29 161.399L102.298 158.435L99.7087 160.174C98.9367 159.392 98.0306 158.788 97.0495 158.386L97.6955 155.1L94.1892 154.411L93.5244 157.797C92.806 157.837 92.0902 157.974 91.3906 158.212L89.573 155.505L86.6082 157.496L88.348 160.086C87.5652 160.858 86.9621 161.764 86.56 162.745L83.6889 162.182L83 165.689L85.9729 166.273C86.0238 167.19 86.2302 168.107 86.6055 168.978L84.0133 170.718L86.0051 173.682L88.7125 171.865C89.4899 172.54 90.3773 173.05 91.3235 173.382L90.6748 176.687L94.1812 177.376L94.8835 173.792C95.6555 173.706 96.4195 173.508 97.154 173.194L98.8938 175.787L101.859 173.795L100.041 171.087C100.526 170.533 100.923 169.921 101.231 169.27L104.617 169.935L104.612 169.932ZM95.8056 168.527C94.3071 169.535 92.2671 169.133 91.2619 167.635C90.2539 166.136 90.656 164.096 92.1546 163.091C93.6531 162.083 95.6931 162.485 96.6983 163.984C97.7063 165.482 97.3042 167.522 95.8056 168.527V168.527Z" fill="url(#paint7_linear_4363_24611)"/>
<path d="M108.361 143.484L108.736 141.568L106.94 141.217C106.94 140.745 106.86 140.273 106.702 139.815L108.182 138.82L107.093 137.198L105.678 138.15C105.257 137.721 104.761 137.394 104.225 137.171L104.579 135.375L102.662 135L102.3 136.85C101.906 136.871 101.515 136.946 101.134 137.078L100.139 135.598L98.5177 136.686L99.4693 138.102C99.0404 138.522 98.7134 139.018 98.4909 139.554L96.9227 139.246L96.5474 141.163L98.1719 141.482C98.1987 141.983 98.3113 142.484 98.5177 142.962L97.1023 143.913L98.1906 145.535L99.6704 144.541C100.094 144.911 100.579 145.189 101.096 145.369L100.743 147.176L102.659 147.551L103.043 145.594C103.464 145.549 103.882 145.439 104.284 145.267L105.235 146.682L106.857 145.594L105.863 144.114C106.128 143.811 106.345 143.476 106.514 143.12L108.364 143.484H108.361ZM103.549 142.718C102.729 143.267 101.617 143.05 101.064 142.23C100.515 141.41 100.732 140.297 101.552 139.745C102.373 139.195 103.485 139.412 104.037 140.233C104.587 141.053 104.37 142.165 103.549 142.718Z" fill="url(#paint8_linear_4363_24611)"/>
</g>
</svg>
