<svg width="300" height="300" viewBox="0 0 300 300" fill="none" xmlns="http://www.w3.org/2000/svg">
<circle cx="145.978" cy="172.21" r="109.21" fill="#EEF7FF"/>
<path d="M233.555 253.008C230.337 250.198 226.421 248.955 222.436 249.479C218.451 250.002 214.628 252.262 211.58 255.895C210.728 253.398 209.474 251.199 207.9 249.437C206.326 247.675 204.466 246.391 202.441 245.667C200.416 244.943 198.269 244.795 196.14 245.232C194.01 245.67 191.945 246.683 190.077 248.207C187.297 244.557 183.561 242.397 179.524 242.106C175.488 241.815 171.409 243.412 168.003 246.616C164.598 249.82 162.084 254.427 160.902 259.627C159.721 264.828 159.947 270.29 161.542 275.054L238.047 283.994C240.486 278.789 241.379 272.685 240.544 266.927C239.71 261.169 237.21 256.192 233.555 253.008V253.008Z" fill="white"/>
<path d="M143.627 190.008L131.837 267.154L168.372 264.603L154.468 189.198L143.627 190.008Z" fill="white"/>
<path d="M176.949 274.409C178.177 273.317 179.121 271.942 179.698 270.405C180.275 268.867 180.469 267.212 180.263 265.583C180.057 263.954 179.457 262.399 178.514 261.053C177.572 259.707 176.315 258.61 174.853 257.856C176.294 256.223 177.356 254.293 177.964 252.204C178.573 250.115 178.712 247.918 178.374 245.769C178.035 243.62 177.226 241.572 176.004 239.77C174.782 237.968 173.178 236.457 171.305 235.344C169.431 234.23 167.335 233.543 165.166 233.329C162.996 233.116 160.806 233.381 158.75 234.108C156.695 234.834 154.826 236.004 153.275 237.533C151.724 239.062 150.529 240.913 149.776 242.954C149.471 243.796 149.242 244.663 149.091 245.545C148.433 245.2 147.754 244.897 147.057 244.639C143.414 243.314 139.411 243.368 135.806 244.792C132.201 246.215 129.244 248.908 127.496 252.361C125.748 255.813 125.33 259.786 126.321 263.526C127.312 267.266 129.644 270.513 132.874 272.652C130.894 274.297 129.42 276.468 128.626 278.913C127.831 281.359 127.746 283.979 128.382 286.47H180.142C180.524 284.349 180.436 282.17 179.885 280.087C179.333 278.003 178.331 276.065 176.949 274.409V274.409Z" fill="white"/>
<path d="M144.75 244.79C143.998 244.828 143.253 244.965 142.536 245.196L142.545 244.905C142.25 238.793 136.489 234.121 129.63 234.433C123.362 234.724 118.365 239.085 117.766 244.491C116.645 244.198 115.486 244.076 114.328 244.13C108.609 244.385 104.161 248.715 104.391 253.798C104.598 258.396 108.566 262.031 113.552 262.488C114.795 266.392 118.919 269.153 123.677 268.937C127.561 268.761 130.844 266.661 132.408 263.729C133.164 264.585 134.104 265.257 135.158 265.694C136.211 266.131 137.351 266.321 138.489 266.25C142.472 266.072 145.57 263.056 145.413 259.516C145.396 259.208 145.355 258.902 145.289 258.601C145.317 258.604 145.346 258.605 145.374 258.604C146.38 258.561 147.371 258.342 148.302 257.955L148.655 245.554C147.432 244.993 146.094 244.731 144.75 244.79V244.79Z" fill="white"/>
<path d="M146.823 280.415C146.725 276.927 145.674 273.528 143.778 270.564C141.881 267.601 139.208 265.18 136.031 263.55C132.854 261.92 129.287 261.139 125.697 261.287C122.107 261.435 118.622 262.508 115.599 264.394V264.17C115.48 260.027 113.959 256.037 111.271 252.817C108.584 249.597 104.879 247.325 100.73 246.352C96.58 245.38 92.216 245.76 88.3114 247.435C84.4068 249.11 81.1786 251.987 79.1253 255.62C77.1909 254.673 75.0482 254.196 72.8818 254.232C70.7155 254.268 68.5906 254.814 66.6904 255.825C64.7903 256.836 63.1719 258.281 61.975 260.034C60.778 261.788 60.0383 263.797 59.8198 265.89C56.8562 264.834 53.6732 264.492 50.5434 264.893C47.4137 265.293 44.4307 266.425 41.8502 268.19C39.2697 269.956 37.1686 272.302 35.7272 275.029C34.2857 277.756 33.5469 280.781 33.574 283.846H146.592C146.771 282.711 146.849 281.563 146.823 280.415Z" fill="white"/>
<path d="M155.827 219.395L152.522 249.231C152.731 242.887 148.678 215.141 150.391 211.225C152.752 205.83 156.586 210.647 155.827 219.395ZM147.371 219.95L144.067 249.785C144.275 243.441 140.222 215.696 141.935 211.78C144.296 206.385 148.13 211.201 147.371 219.95ZM138.623 204.245C143.44 203.16 154.36 203.391 158.789 204.57C154.292 208.852 148.618 205.318 147.86 206.039C146.92 206.935 133.973 205.291 138.623 204.245Z" fill="url(#paint0_linear_3584_24246)"/>
<path d="M148.476 130.029C146.842 129.685 141.203 132.247 133.776 145.245C133.592 145.544 133.394 145.888 133.184 146.276H148.476L148.476 130.029Z" fill="url(#paint1_linear_3584_24246)"/>
<path d="M126.555 174.129C121.655 179.63 113.609 193.883 120.623 206.881C121.319 208.17 124.75 206.881 125.523 205.075C126.555 202.84 129.185 197.906 131.455 196.049C127.122 187.384 126.383 177.825 126.555 174.129Z" fill="url(#paint2_linear_3584_24246)"/>
<path d="M126.555 174.129C126.383 177.825 127.122 187.384 131.455 196.049L133.705 200.176H148.476L148.476 146.276H133.184C130.741 150.796 126.745 161.208 126.555 174.129Z" fill="white"/>
<path d="M126.555 174.129C126.383 177.825 127.122 187.384 131.455 196.049L133.705 200.176H148.476L148.476 146.276H133.184C130.741 150.796 126.745 161.208 126.555 174.129Z" fill="url(#paint3_linear_3584_24246)"/>
<path d="M134.549 201.723C135.581 203.528 137.335 205.591 141.255 205.591H143.834H148.476V200.176H133.705L134.549 201.723Z" fill="url(#paint4_linear_3584_24246)"/>
<path d="M148.476 130.029C150.109 129.685 155.232 132.247 162.66 145.245C162.843 145.544 163.041 145.888 163.251 146.276H148.476L148.476 130.029Z" fill="url(#paint5_linear_3584_24246)"/>
<path d="M169.881 174.129C174.78 179.63 182.827 193.883 175.812 206.881C175.116 208.17 171.686 206.881 170.912 205.075C169.881 202.84 167.25 197.906 164.981 196.049C169.313 187.384 170.052 177.825 169.881 174.129Z" fill="url(#paint6_linear_3584_24246)"/>
<path d="M169.881 174.129C170.052 177.825 169.313 187.384 164.981 196.049L162.73 200.176L148.476 200.176L148.476 146.276H163.251C165.695 150.796 169.691 161.208 169.881 174.129Z" fill="white"/>
<path d="M169.881 174.129C170.052 177.825 169.313 187.384 164.981 196.049L162.73 200.176L148.476 200.176L148.476 146.276H163.251C165.695 150.796 169.691 161.208 169.881 174.129Z" fill="url(#paint7_linear_3584_24246)"/>
<path d="M161.886 201.723C160.854 203.528 159.101 205.591 155.181 205.591H152.602L148.476 205.591V200.176L162.73 200.176L161.886 201.723Z" fill="url(#paint8_linear_3584_24246)"/>
<circle cx="148.305" cy="161.979" r="7.47885" fill="#BFDFFF" stroke="#354D6E" stroke-width="2.57891"/>
<path d="M149.66 155.938L143.277 165.587C143.607 166.048 144 166.46 144.442 166.814L151.207 156.51C150.725 156.254 150.206 156.06 149.66 155.938Z" fill="#E7F3FF"/>
<path fill-rule="evenodd" clip-rule="evenodd" d="M154.495 161.978C154.495 165.397 151.724 168.168 148.306 168.168L153.873 159.271C154.271 160.089 154.495 161.007 154.495 161.978ZM151.207 156.51C151.624 156.732 152.014 157 152.367 157.308L145.791 167.636C145.305 167.419 144.852 167.142 144.442 166.814L151.207 156.51ZM149.66 155.938L143.277 165.587C142.546 164.571 142.116 163.325 142.116 161.978C142.116 158.56 144.887 155.789 148.306 155.789C148.771 155.789 149.224 155.84 149.66 155.938Z" fill="#BFDFFF"/>
<path d="M145.791 167.636C146.559 167.978 147.41 168.168 148.306 168.168L153.873 159.271C153.506 158.518 152.992 157.852 152.367 157.308L145.791 167.636Z" fill="#E7F3FF"/>
<path fill-rule="evenodd" clip-rule="evenodd" d="M222.136 155.186C221.544 155.186 220.972 155.275 220.433 155.438C219.45 151.296 215.726 148.214 211.283 148.214C206.867 148.214 203.163 151.258 202.152 155.362C201.696 155.247 201.218 155.186 200.726 155.186C197.488 155.186 194.862 157.811 194.862 161.05C194.862 164.288 197.488 166.913 200.726 166.913H209.849C210.317 166.985 210.795 167.022 211.283 167.022C211.771 167.022 212.25 166.985 212.717 166.913H222.136C225.374 166.913 228 164.288 228 161.05C228 157.811 225.374 155.186 222.136 155.186Z" fill="white"/>
<path fill-rule="evenodd" clip-rule="evenodd" d="M92.2737 201.758C91.6813 201.758 91.1096 201.846 90.5706 202.01C89.5872 197.867 85.8642 194.786 81.4207 194.786C77.005 194.786 73.3007 197.83 72.2898 201.933C71.8332 201.819 71.3558 201.758 70.8639 201.758C67.6254 201.758 65 204.383 65 207.621C65 210.86 67.6254 213.485 70.8639 213.485H79.9866C80.4542 213.556 80.9331 213.594 81.4207 213.594C81.9084 213.594 82.3873 213.556 82.855 213.485H92.2737C95.5121 213.485 98.1374 210.86 98.1374 207.621C98.1374 204.383 95.5121 201.758 92.2737 201.758Z" fill="white"/>
<path fill-rule="evenodd" clip-rule="evenodd" d="M131.68 96.9718C131.088 96.9718 130.516 97.0605 129.977 97.2239C128.993 93.0815 125.27 90 120.827 90C116.411 90 112.707 93.0437 111.696 97.1472C111.239 97.0331 110.762 96.9718 110.27 96.9718C107.032 96.9718 104.406 99.5971 104.406 102.835C104.406 106.074 107.032 108.699 110.27 108.699H119.393C119.86 108.77 120.339 108.808 120.827 108.808C121.315 108.808 121.794 108.77 122.261 108.699H131.68C134.918 108.699 137.544 106.074 137.544 102.835C137.544 99.5971 134.918 96.9718 131.68 96.9718Z" fill="white"/>
<path d="M36.8378 80.811H32.2413C30.5738 80.811 29.2172 79.4544 29.2172 77.7869V73.1903C29.2172 71.5229 30.5738 70.1663 32.2413 70.1663H36.8378C38.5053 70.1663 39.8619 71.5229 39.8619 73.1903V77.7869C39.8619 79.4544 38.5053 80.811 36.8378 80.811Z" fill="url(#paint9_linear_3584_24246)"/>
<path d="M36.8378 93.0584H32.2413C30.5738 93.0584 29.2172 91.7018 29.2172 90.0343V85.4378C29.2172 83.7703 30.5738 82.4137 32.2413 82.4137H36.8378C38.5053 82.4137 39.8619 83.7703 39.8619 85.4378V90.0343C39.8619 91.7018 38.5053 93.0584 36.8378 93.0584Z" fill="url(#paint10_linear_3584_24246)"/>
<path d="M24.6206 93.0584H20.0241C18.3566 93.0584 17 91.7018 17 90.0343V85.4378C17 83.7703 18.3566 82.4137 20.0241 82.4137H24.6206C26.2881 82.4137 27.6447 83.7703 27.6447 85.4378V90.0343C27.6447 91.7018 26.2881 93.0584 24.6206 93.0584Z" fill="url(#paint11_linear_3584_24246)"/>
<path d="M27.3222 73.2512C26.9866 72.4477 26.4582 71.7396 25.7838 71.1896C25.1094 70.6396 24.3099 70.2648 23.4562 70.0983C22.7905 69.9672 22.1058 69.9672 21.4401 70.0983C20.5864 70.2648 19.7869 70.6396 19.1125 71.1896C18.4381 71.7396 17.9097 72.4477 17.5741 73.2512C17.3072 73.8947 17.1698 74.5846 17.1698 75.2814C17.1698 75.9781 17.3072 76.668 17.5741 77.3115C17.9769 78.273 18.6544 79.094 19.5216 79.6714C20.3887 80.2487 21.4068 80.5567 22.4482 80.5567C23.4895 80.5567 24.5076 80.2487 25.3748 79.6714C26.2419 79.094 26.9194 78.273 27.3222 77.3115C27.5891 76.668 27.7265 75.9781 27.7265 75.2814C27.7265 74.5846 27.5891 73.8947 27.3222 73.2512ZM22.8257 79.8293V77.561H24.3736C24.1416 78.3597 23.7569 79.1056 23.241 79.7575C23.0938 79.7802 22.9616 79.7991 22.8257 79.8293ZM21.6704 79.7764C21.1545 79.1245 20.7698 78.3786 20.5378 77.5799H22.0706V79.8293C21.9347 79.7991 21.8026 79.7802 21.6704 79.7575V79.7764ZM17.9177 75.2927C17.9197 74.7773 18.009 74.266 18.1819 73.7805H19.5637C19.3825 74.7805 19.3825 75.8049 19.5637 76.8049H18.1819C18.009 76.3194 17.9197 75.8081 17.9177 75.2927ZM20.1829 75.2927C20.1851 74.785 20.2357 74.2786 20.3339 73.7805H22.0706V76.8049H20.3339C20.2357 76.3068 20.1851 75.8004 20.1829 75.2927ZM22.0706 70.775V73.0433H20.5227C20.7547 72.2447 21.1394 71.4987 21.6553 70.8468C21.8026 70.8052 21.9347 70.7863 22.0706 70.775ZM23.2259 70.8279C23.7418 71.4798 24.1265 72.2257 24.3585 73.0244H22.8257V70.775C22.9616 70.7863 23.0938 70.8052 23.2259 70.8279ZM22.8257 76.8049V73.7805H24.5624C24.6607 74.2786 24.7112 74.785 24.7134 75.2927C24.7112 75.8004 24.6607 76.3068 24.5624 76.8049H22.8257ZM25.3326 73.7805H26.7144C27.0667 74.7578 27.0667 75.8276 26.7144 76.8049H25.3326C25.5138 75.8049 25.5138 74.7805 25.3326 73.7805ZM26.367 73.0244H25.1627C24.989 72.3899 24.7352 71.7801 24.4076 71.2098C25.2266 71.6058 25.9089 72.2377 26.367 73.0244ZM20.4887 71.2098C20.1611 71.7801 19.9073 72.3899 19.7336 73.0244H18.5293C18.9875 72.2377 19.6697 71.6058 20.4887 71.2098ZM18.5293 77.561H19.7336C19.9073 78.1955 20.1611 78.8053 20.4887 79.3756C19.6697 78.9796 18.9875 78.3477 18.5293 77.561ZM24.4076 79.3756C24.7352 78.8053 24.989 78.1955 25.1627 77.561H26.367C25.9089 78.3477 25.2266 78.9796 24.4076 79.3756Z" fill="url(#paint12_linear_3584_24246)"/>
<path d="M266.676 71.5002H249.325C248.164 71.5002 247.052 71.9612 246.231 72.7817C245.411 73.6021 244.95 74.7149 244.95 75.8752V88.1252C244.95 89.2856 245.411 90.3984 246.231 91.2188C247.052 92.0393 248.164 92.5002 249.325 92.5002H266.676C267.836 92.5002 268.949 92.0393 269.77 91.2188C270.59 90.3984 271.051 89.2856 271.051 88.1252V75.8752C271.051 74.7149 270.59 73.6021 269.77 72.7817C268.949 71.9612 267.836 71.5002 266.676 71.5002ZM262.686 83.1552L255.507 87.0052C255.316 87.1083 255.102 87.1624 254.885 87.1627C254.537 87.1627 254.203 87.0245 253.957 86.7783C253.711 86.5322 253.573 86.1983 253.573 85.8502V78.1502C253.573 77.9233 253.632 77.7004 253.744 77.5031C253.856 77.3058 254.018 77.1409 254.212 77.0246C254.407 76.9082 254.629 76.8444 254.856 76.8392C255.082 76.8341 255.307 76.8878 255.507 76.9952L262.686 80.8452C262.894 80.9577 263.068 81.1244 263.19 81.3278C263.311 81.5311 263.375 81.7635 263.375 82.0002C263.375 82.237 263.311 82.4694 263.19 82.6727C263.068 82.8761 262.894 83.0428 262.686 83.1552ZM255.323 78.8809L261.137 82.0002L255.323 85.1196V78.8809Z" fill="url(#paint13_linear_3584_24246)"/>
<g clip-path="url(#clip0_3584_24246)">
<mask id="mask0_3584_24246" style="mask-type:luminance" maskUnits="userSpaceOnUse" x="265" y="221" width="28" height="28">
<path d="M265.003 221H292.89V248.887H265.003V221Z" fill="white"/>
</mask>
<g mask="url(#mask0_3584_24246)">
<path d="M265.738 243.016C265.738 243.795 266.048 244.541 266.598 245.092C267.149 245.642 267.895 245.952 268.674 245.952H286.287C287.065 245.952 287.812 245.642 288.362 245.092C288.913 244.541 289.222 243.795 289.222 243.016V230.54C289.222 229.762 288.913 229.015 288.362 228.465C287.812 227.914 287.065 227.605 286.287 227.605H279.682C277.068 227.605 277.48 223.936 273.49 223.936H268.674C267.895 223.936 267.149 224.245 266.598 224.795C266.048 225.346 265.738 226.093 265.738 226.871V243.016Z" fill="#3F74E0"/>
<path d="M287.754 229.073H282.939C278.948 229.073 279.36 232.742 276.746 232.742H270.142C269.363 232.742 268.616 233.051 268.066 233.602C267.515 234.152 267.206 234.899 267.206 235.678V243.016C267.206 243.211 267.129 243.397 266.991 243.535C266.854 243.673 266.667 243.75 266.472 243.75C266.278 243.75 266.091 243.673 265.953 243.535C265.816 243.397 265.738 243.211 265.738 243.016C265.738 243.795 266.048 244.541 266.598 245.092C267.149 245.642 267.895 245.952 268.674 245.952H287.754C288.533 245.952 289.28 245.642 289.83 245.092C290.381 244.541 290.69 243.795 290.69 243.016V232.008C290.69 231.23 290.381 230.483 289.83 229.932C289.28 229.382 288.533 229.073 287.754 229.073Z" fill="url(#paint14_linear_3584_24246)"/>
</g>
</g>
<g clip-path="url(#clip1_3584_24246)">
<mask id="mask1_3584_24246" style="mask-type:luminance" maskUnits="userSpaceOnUse" x="6" y="227" width="29" height="29">
<path d="M34.4215 228H6.99854V255.423H34.4215V228Z" fill="white"/>
</mask>
<g mask="url(#mask1_3584_24246)">
<path d="M9.8542 246.941H14.0392C14.328 246.941 14.7282 247.107 14.9322 247.311L19.7299 252.109C20.3426 252.721 20.8397 252.515 20.8397 251.649V231.77C20.8397 230.904 20.3426 230.698 19.7299 231.311L14.9322 236.109C14.7282 236.313 14.328 236.478 14.0392 236.478H9.8542C8.98781 236.478 8.28467 237.182 8.28467 238.048V245.372C8.28467 246.238 8.98781 246.941 9.8542 246.941Z" fill="white"/>
<path d="M9.8542 246.941H14.0392C14.328 246.941 14.7282 247.107 14.9322 247.311L19.7299 252.109C20.3426 252.721 20.8397 252.515 20.8397 251.649V231.77C20.8397 230.904 20.3426 230.698 19.7299 231.311L14.9322 236.109C14.7282 236.313 14.328 236.478 14.0392 236.478H9.8542C8.98781 236.478 8.28467 237.182 8.28467 238.048V245.372C8.28467 246.238 8.98781 246.941 9.8542 246.941Z" fill="url(#paint15_linear_3584_24246)"/>
<path fill-rule="evenodd" clip-rule="evenodd" d="M31.0422 241.711C31.0422 239.347 30.294 237.04 28.9027 235.125C27.5372 233.242 25.6278 231.814 23.4361 231.034L22.9404 230.859C22.6683 230.762 22.526 230.463 22.6225 230.191L22.973 229.205C23.0698 228.933 23.3693 228.79 23.641 228.887L24.132 229.062C26.7265 229.983 28.9812 231.667 30.5978 233.896C32.2453 236.166 33.1349 238.902 33.1349 241.711C33.1349 244.515 32.2453 247.251 30.5978 249.522C28.9812 251.75 26.7265 253.44 24.132 254.36L23.641 254.535C23.3693 254.632 23.0698 254.49 22.973 254.218L22.6225 253.231C22.526 252.96 22.6683 252.66 22.9404 252.564L23.4361 252.388C25.6278 251.609 27.5372 250.181 28.9027 248.297C30.294 246.382 31.0422 244.076 31.0422 241.711Z" fill="white"/>
<path fill-rule="evenodd" clip-rule="evenodd" d="M31.0422 241.711C31.0422 239.347 30.294 237.04 28.9027 235.125C27.5372 233.242 25.6278 231.814 23.4361 231.034L22.9404 230.859C22.6683 230.762 22.526 230.463 22.6225 230.191L22.973 229.205C23.0698 228.933 23.3693 228.79 23.641 228.887L24.132 229.062C26.7265 229.983 28.9812 231.667 30.5978 233.896C32.2453 236.166 33.1349 238.902 33.1349 241.711C33.1349 244.515 32.2453 247.251 30.5978 249.522C28.9812 251.75 26.7265 253.44 24.132 254.36L23.641 254.535C23.3693 254.632 23.0698 254.49 22.973 254.218L22.6225 253.231C22.526 252.96 22.6683 252.66 22.9404 252.564L23.4361 252.388C25.6278 251.609 27.5372 250.181 28.9027 248.297C30.294 246.382 31.0422 244.076 31.0422 241.711Z" fill="url(#paint16_linear_3584_24246)"/>
<path d="M23.3147 236.349L22.8455 236.114C22.5875 235.984 22.4834 235.669 22.6133 235.411L23.085 234.473C23.2144 234.215 23.5289 234.111 23.7869 234.242L24.2509 234.476C25.6165 235.162 26.7777 236.182 27.6355 237.443C28.4831 238.703 28.9437 240.189 28.9488 241.711C28.9437 243.234 28.4831 244.714 27.6355 245.975C26.7777 247.235 25.6165 248.256 24.2509 248.941L23.7869 249.175C23.5289 249.306 23.2144 249.202 23.0846 248.945L22.6137 248.011C22.4839 247.753 22.5875 247.439 22.8455 247.309L23.3147 247.073C24.3559 246.55 25.245 245.766 25.904 244.803C26.5163 243.888 26.851 242.815 26.8561 241.711C26.851 240.608 26.5163 239.53 25.904 238.62C25.245 237.652 24.3559 236.872 23.3147 236.349Z" fill="white"/>
<path d="M23.3147 236.349L22.8455 236.114C22.5875 235.984 22.4834 235.669 22.6133 235.411L23.085 234.473C23.2144 234.215 23.5289 234.111 23.7869 234.242L24.2509 234.476C25.6165 235.162 26.7777 236.182 27.6355 237.443C28.4831 238.703 28.9437 240.189 28.9488 241.711C28.9437 243.234 28.4831 244.714 27.6355 245.975C26.7777 247.235 25.6165 248.256 24.2509 248.941L23.7869 249.175C23.5289 249.306 23.2144 249.202 23.0846 248.945L22.6137 248.011C22.4839 247.753 22.5875 247.439 22.8455 247.309L23.3147 247.073C24.3559 246.55 25.245 245.766 25.904 244.803C26.5163 243.888 26.851 242.815 26.8561 241.711C26.851 240.608 26.5163 239.53 25.904 238.62C25.245 237.652 24.3559 236.872 23.3147 236.349Z" fill="url(#paint17_linear_3584_24246)"/>
</g>
</g>
<path d="M159.972 21.0245L156.971 35.4945C156.876 35.9368 156.497 36.2527 156.054 36.2527C155.991 36.2527 155.928 36.2527 155.865 36.2211C155.359 36.1263 155.012 35.6208 155.138 35.1153L157.95 21.5932L139.815 17.8968L139.373 19.9188C139.246 20.4243 138.741 20.7402 138.235 20.6454C137.73 20.519 137.414 20.0135 137.509 19.508L138.172 16.5698C138.299 16.0643 138.773 15.7484 139.278 15.8432L159.245 19.8872C159.498 19.9504 159.719 20.0767 159.846 20.2979C159.972 20.519 160.004 20.7718 159.972 21.0245ZM154.064 38.2747C154.064 38.9698 153.495 39.5385 152.8 39.5385H132.264C131.569 39.5385 131 38.9698 131 38.2747V22.7938C131 22.0987 131.569 21.53 132.264 21.53H152.8C153.495 21.53 154.064 22.0987 154.064 22.7938V38.2747ZM133.528 24.0575V31.8612L138.867 27.5329C139.278 27.1853 139.942 27.1853 140.352 27.5644L146.355 32.8722L148.851 30.7238C149.262 30.3763 149.736 30.3763 150.146 30.7238L151.189 31.798V24.0575H133.528ZM151.22 37.011V34.7046L149.451 33.0302L147.05 35.1785C146.851 35.3469 146.6 35.4392 146.339 35.4392C146.079 35.4392 145.827 35.3469 145.628 35.1785L139.531 29.8392L133.528 34.7362V37.011H151.22ZM145.976 29.2073C147.05 29.2073 147.903 28.3543 147.903 27.2801C147.903 26.2059 147.019 25.3529 145.976 25.3529C144.902 25.3529 144.049 26.2059 144.049 27.2801C144.017 28.3227 144.902 29.2073 145.976 29.2073Z" fill="url(#paint18_linear_3584_24246)"/>
<defs>
<linearGradient id="paint0_linear_3584_24246" x1="152.413" y1="250.277" x2="152.593" y2="200.641" gradientUnits="userSpaceOnUse">
<stop stop-color="#FF7728"/>
<stop offset="1" stop-color="#FF984C"/>
</linearGradient>
<linearGradient id="paint1_linear_3584_24246" x1="177.182" y1="205.468" x2="99.117" y2="154.883" gradientUnits="userSpaceOnUse">
<stop stop-color="#3268F3"/>
<stop offset="1" stop-color="#80B2D7"/>
</linearGradient>
<linearGradient id="paint2_linear_3584_24246" x1="177.182" y1="205.468" x2="99.117" y2="154.883" gradientUnits="userSpaceOnUse">
<stop stop-color="#3268F3"/>
<stop offset="1" stop-color="#80B2D7"/>
</linearGradient>
<linearGradient id="paint3_linear_3584_24246" x1="122" y1="165.589" x2="148.305" y2="166.105" gradientUnits="userSpaceOnUse">
<stop stop-color="#8CB5F9"/>
<stop offset="1" stop-color="white" stop-opacity="0"/>
</linearGradient>
<linearGradient id="paint4_linear_3584_24246" x1="177.182" y1="205.468" x2="99.117" y2="154.883" gradientUnits="userSpaceOnUse">
<stop stop-color="#3268F3"/>
<stop offset="1" stop-color="#80B2D7"/>
</linearGradient>
<linearGradient id="paint5_linear_3584_24246" x1="177.182" y1="205.468" x2="99.117" y2="154.883" gradientUnits="userSpaceOnUse">
<stop stop-color="#3268F3"/>
<stop offset="1" stop-color="#80B2D7"/>
</linearGradient>
<linearGradient id="paint6_linear_3584_24246" x1="177.182" y1="205.468" x2="99.117" y2="154.883" gradientUnits="userSpaceOnUse">
<stop stop-color="#3268F3"/>
<stop offset="1" stop-color="#80B2D7"/>
</linearGradient>
<linearGradient id="paint7_linear_3584_24246" x1="175.641" y1="164.815" x2="150.368" y2="165.847" gradientUnits="userSpaceOnUse">
<stop stop-color="#8CB5F9"/>
<stop offset="1" stop-color="white" stop-opacity="0"/>
</linearGradient>
<linearGradient id="paint8_linear_3584_24246" x1="177.182" y1="205.468" x2="99.117" y2="154.883" gradientUnits="userSpaceOnUse">
<stop stop-color="#3268F3"/>
<stop offset="1" stop-color="#80B2D7"/>
</linearGradient>
<linearGradient id="paint9_linear_3584_24246" x1="39.3423" y1="92.4861" x2="14.5054" y2="71.9869" gradientUnits="userSpaceOnUse">
<stop stop-color="#3258F3"/>
<stop offset="1" stop-color="#2DA6FF"/>
</linearGradient>
<linearGradient id="paint10_linear_3584_24246" x1="39.3423" y1="92.4861" x2="14.5054" y2="71.9869" gradientUnits="userSpaceOnUse">
<stop stop-color="#3258F3"/>
<stop offset="1" stop-color="#2DA6FF"/>
</linearGradient>
<linearGradient id="paint11_linear_3584_24246" x1="39.3423" y1="92.4861" x2="14.5054" y2="71.9869" gradientUnits="userSpaceOnUse">
<stop stop-color="#3258F3"/>
<stop offset="1" stop-color="#2DA6FF"/>
</linearGradient>
<linearGradient id="paint12_linear_3584_24246" x1="27.4866" y1="80.2928" x2="16.0302" y2="70.8247" gradientUnits="userSpaceOnUse">
<stop stop-color="#3258F3"/>
<stop offset="1" stop-color="#2DA6FF"/>
</linearGradient>
<linearGradient id="paint13_linear_3584_24246" x1="267.492" y1="89.6366" x2="249.495" y2="71.7058" gradientUnits="userSpaceOnUse">
<stop stop-color="#F43B2E"/>
<stop offset="1" stop-color="#FF5A7B"/>
</linearGradient>
<linearGradient id="paint14_linear_3584_24246" x1="290.123" y1="229.495" x2="271.839" y2="251.832" gradientUnits="userSpaceOnUse">
<stop stop-color="#3258F3"/>
<stop offset="1" stop-color="#2DA6FF"/>
</linearGradient>
<linearGradient id="paint15_linear_3584_24246" x1="21.0411" y1="249.529" x2="5.46867" y2="240.954" gradientUnits="userSpaceOnUse">
<stop stop-color="#FCD300"/>
<stop offset="1" stop-color="#FFE662"/>
</linearGradient>
<linearGradient id="paint16_linear_3584_24246" x1="33.304" y1="251.06" x2="18.48" y2="245.327" gradientUnits="userSpaceOnUse">
<stop stop-color="#FCD300"/>
<stop offset="1" stop-color="#FFE662"/>
</linearGradient>
<linearGradient id="paint17_linear_3584_24246" x1="29.0513" y1="247.18" x2="20.1489" y2="243.614" gradientUnits="userSpaceOnUse">
<stop stop-color="#FCD300"/>
<stop offset="1" stop-color="#FFE662"/>
</linearGradient>
<linearGradient id="paint18_linear_3584_24246" x1="160.448" y1="36.305" x2="140.331" y2="13.1155" gradientUnits="userSpaceOnUse">
<stop stop-color="#33A752"/>
<stop offset="1" stop-color="#8DCB9E"/>
</linearGradient>
<clipPath id="clip0_3584_24246">
<rect width="27.887" height="27.887" fill="white" transform="translate(265 221)"/>
</clipPath>
<clipPath id="clip1_3584_24246">
<rect width="27.4229" height="27.4229" fill="white" transform="translate(7 228)"/>
</clipPath>
</defs>
</svg>
