<svg width="85" height="110" viewBox="0 0 85 110" fill="none" xmlns="http://www.w3.org/2000/svg">
<path fill-rule="evenodd" clip-rule="evenodd" d="M66 34.5V40H19V34.5C19 21.5213 29.5213 11 42.5 11C55.4787 11 66 21.5213 66 34.5ZM7 40H8V34.5C8 15.4462 23.4462 0 42.5 0C61.5538 0 77 15.4462 77 34.5V40H78C81.866 40 85 43.134 85 47V103C85 106.866 81.866 110 78 110H7C3.13401 110 0 106.866 0 103V47C0 43.134 3.13401 40 7 40ZM51.3158 68.1579C51.3158 71.9123 49.0566 75.139 45.8234 76.5527H45.9742L49.1203 85.9911C49.4498 86.9795 48.7141 88.0001 47.6723 88.0001H36.0181C34.9383 88.0001 34.1999 86.9095 34.6009 85.9069L38.3426 76.5527H38.4924C35.2592 75.139 33 71.9123 33 68.1579C33 63.1001 37.1001 59 42.1579 59C47.2157 59 51.3158 63.1001 51.3158 68.1579Z" fill="url(#paint0_linear_2854_23498)"/>
<defs>
<linearGradient id="paint0_linear_2854_23498" x1="83.0681" y1="107.25" x2="-27.2063" y2="36.8269" gradientUnits="userSpaceOnUse">
<stop stop-color="#3258F3"/>
<stop offset="1" stop-color="#2DA6FF"/>
</linearGradient>
</defs>
</svg>
