<svg width="125" height="125" viewBox="0 0 125 125" fill="none" xmlns="http://www.w3.org/2000/svg">
<rect width="125" height="125" rx="16" fill="#EEEEEE"/>
<path fill-rule="evenodd" clip-rule="evenodd" d="M88.0455 44.9773H37.9545C36.8625 44.9773 35.9773 45.8625 35.9773 46.9545V74.9658L52.7841 58.159L67.6136 72.9885L78.1591 62.443L90.0227 74.3067V46.9545C90.0227 45.8625 89.1375 44.9773 88.0455 44.9773ZM37.9545 79.9091L37.9313 79.909H88.0687L88.0455 79.9091H37.9545ZM37.9545 43C35.7705 43 34 44.7705 34 46.9545V77.9318C34 80.1159 35.7705 81.8864 37.9545 81.8864H88.0455C90.2295 81.8864 92 80.1159 92 77.9318V46.9545C92 44.7705 90.2295 43 88.0455 43H37.9545ZM70.25 60.1362C72.798 60.1362 74.8636 58.0706 74.8636 55.5226C74.8636 52.9746 72.798 50.909 70.25 50.909C67.702 50.909 65.6364 52.9746 65.6364 55.5226C65.6364 58.0706 67.702 60.1362 70.25 60.1362Z" fill="#53A4FF"/>
</svg>
