<svg width="32" height="32" viewBox="0 0 32 32" fill="none" xmlns="http://www.w3.org/2000/svg">
<path d="M2.66626 4.44711C2.66626 3.46398 3.46325 2.66699 4.44638 2.66699H15.1271V13.7927H2.66626V4.44711Z" fill="url(#paint0_linear_2854_23727)"/>
<path d="M16.9072 2.66699H27.1429C28.126 2.66699 28.923 3.46398 28.923 4.44711V11.1225H16.9072V2.66699Z" fill="url(#paint1_linear_2854_23727)"/>
<path d="M2.66626 15.5732H15.1271V28.0341H4.44638C3.46325 28.0341 2.66626 27.2371 2.66626 26.2539V15.5732Z" fill="url(#paint2_linear_2854_23727)"/>
<path d="M16.9072 12.9026H28.923V26.2535C28.923 27.2366 28.126 28.0336 27.1429 28.0336H16.9072V12.9026Z" fill="url(#paint3_linear_2854_23727)"/>
<defs>
<linearGradient id="paint0_linear_2854_23727" x1="14.8439" y1="13.5146" x2="2.58656" y2="2.16899" gradientUnits="userSpaceOnUse">
<stop stop-color="#3258F3"/>
<stop offset="1" stop-color="#2DA6FF"/>
</linearGradient>
<linearGradient id="paint1_linear_2854_23727" x1="28.6499" y1="10.9112" x2="19.426" y2="0.078386" gradientUnits="userSpaceOnUse">
<stop stop-color="#3258F3"/>
<stop offset="1" stop-color="#2DA6FF"/>
</linearGradient>
<linearGradient id="paint2_linear_2854_23727" x1="14.8439" y1="27.7225" x2="1.32109" y2="16.5467" gradientUnits="userSpaceOnUse">
<stop stop-color="#3258F3"/>
<stop offset="1" stop-color="#2DA6FF"/>
</linearGradient>
<linearGradient id="paint3_linear_2854_23727" x1="28.6499" y1="27.6553" x2="13.3107" y2="17.5883" gradientUnits="userSpaceOnUse">
<stop stop-color="#3258F3"/>
<stop offset="1" stop-color="#2DA6FF"/>
</linearGradient>
</defs>
</svg>
