<svg width="32" height="32" viewBox="0 0 32 32" fill="none" xmlns="http://www.w3.org/2000/svg">
<rect x="10.8684" y="23.5735" width="3.77223" height="7.85882" rx="1.25741" fill="url(#paint0_linear_2854_23706)"/>
<rect x="18.4127" y="23.5735" width="3.77223" height="7.85882" rx="1.25741" fill="url(#paint1_linear_2854_23706)"/>
<path fill-rule="evenodd" clip-rule="evenodd" d="M22.6216 0.164708C22.7327 0.00757095 22.9607 -0.0468288 23.1309 0.0432036C23.301 0.133236 23.3488 0.333607 23.2376 0.490744L21.5624 2.8593C22.4776 3.28539 23.3178 3.82551 24.0554 4.4637C25.0478 5.3224 25.8351 6.34183 26.3722 7.46378C26.9093 8.58573 27.1858 9.78823 27.1858 11.0026H16.4978L5.80981 11.0026C5.80981 9.78823 6.08627 8.58573 6.62339 7.46378C7.16051 6.34183 7.94778 5.3224 8.94025 4.4637C9.70898 3.79858 10.5891 3.23999 11.5495 2.80597L9.91194 0.490744C9.8008 0.333607 9.84861 0.133236 10.0187 0.0432036C10.1888 -0.0468288 10.4168 0.00757095 10.528 0.164708L12.204 2.53426C12.2715 2.50862 12.3394 2.48356 12.4077 2.4591C13.7044 1.99438 15.0942 1.75519 16.4978 1.75519C17.9014 1.75519 19.2912 1.99438 20.5879 2.4591C20.697 2.49819 20.8052 2.53882 20.9126 2.58095L22.6216 0.164708Z" fill="url(#paint2_linear_2854_23706)"/>
<circle cx="13.3552" cy="6.25092" r="0.943058" fill="#B0E0D6"/>
<circle cx="20.2706" cy="6.25092" r="0.943058" fill="#B0E0D6"/>
<path d="M5.81079 12.2571H27.1868V24.8312C27.1868 25.5256 26.6238 26.0886 25.9294 26.0886H7.0682C6.37375 26.0886 5.81079 25.5256 5.81079 24.8312V12.2571Z" fill="url(#paint3_linear_2854_23706)"/>
<path d="M27.816 14.7719C27.816 13.383 28.942 12.2571 30.3309 12.2571V21.059C28.942 21.059 27.816 19.933 27.816 18.5441V14.7719Z" fill="url(#paint4_linear_2854_23706)"/>
<path d="M5.18188 14.7719C5.18188 13.383 4.05596 12.2571 2.66706 12.2571V21.059C4.05596 21.059 5.18188 19.933 5.18188 18.5441V14.7719Z" fill="url(#paint5_linear_2854_23706)"/>
<defs>
<linearGradient id="paint0_linear_2854_23706" x1="14.7012" y1="30.3606" x2="9.64069" y2="28.0698" gradientUnits="userSpaceOnUse">
<stop stop-color="#33A752"/>
<stop offset="1" stop-color="#8DCB9E"/>
</linearGradient>
<linearGradient id="paint1_linear_2854_23706" x1="22.2455" y1="30.3606" x2="17.185" y2="28.0698" gradientUnits="userSpaceOnUse">
<stop stop-color="#33A752"/>
<stop offset="1" stop-color="#8DCB9E"/>
</linearGradient>
<linearGradient id="paint2_linear_2854_23706" x1="27.5287" y1="9.50223" x2="19.5984" y2="-5.02779" gradientUnits="userSpaceOnUse">
<stop stop-color="#33A752"/>
<stop offset="1" stop-color="#8DCB9E"/>
</linearGradient>
<linearGradient id="paint3_linear_2854_23706" x1="27.5297" y1="24.2025" x2="16.4706" y2="8.08371" gradientUnits="userSpaceOnUse">
<stop stop-color="#33A752"/>
<stop offset="1" stop-color="#8DCB9E"/>
</linearGradient>
<linearGradient id="paint4_linear_2854_23706" x1="30.3712" y1="19.8587" x2="26.5814" y2="18.8375" gradientUnits="userSpaceOnUse">
<stop stop-color="#33A752"/>
<stop offset="1" stop-color="#8DCB9E"/>
</linearGradient>
<linearGradient id="paint5_linear_2854_23706" x1="2.62672" y1="19.8587" x2="6.41654" y2="18.8375" gradientUnits="userSpaceOnUse">
<stop stop-color="#33A752"/>
<stop offset="1" stop-color="#8DCB9E"/>
</linearGradient>
</defs>
</svg>
