<svg width="32" height="32" viewBox="0 0 32 32" fill="none" xmlns="http://www.w3.org/2000/svg">
<g clip-path="url(#clip0_2993_27267)">
<circle cx="16" cy="16" r="16" fill="#D3E1F6"/>
<path d="M22.9991 7.00006C22.7184 6.68621 22.3748 6.43497 21.9906 6.26268C21.6064 6.09039 21.1902 6.00091 20.7691 6.00006H11.2291C10.8058 5.99749 10.3867 6.08454 9.99943 6.25551C9.61214 6.42647 9.26541 6.67747 8.98205 6.992C8.69869 7.30653 8.48511 7.67747 8.35535 8.08044C8.22558 8.48341 8.18257 8.90928 8.22915 9.33006L9.78915 23.3301C9.87072 24.0672 10.2225 24.748 10.7765 25.2411C11.3305 25.7342 12.0475 26.0046 12.7891 26.0001H19.2091C19.9508 26.0046 20.6678 25.7342 21.2218 25.2411C21.7758 24.748 22.1276 24.0672 22.2091 23.3301L23.7691 9.33006C23.8123 8.90935 23.766 8.48428 23.6333 8.08272C23.5006 7.68117 23.2845 7.31221 22.9991 7.00006ZM20.1992 23.1101C20.172 23.3558 20.0547 23.5827 19.87 23.7471C19.6854 23.9114 19.4464 24.0016 19.1991 24.0001H12.7891C12.5419 24.0016 12.3029 23.9114 12.1183 23.7471C11.9336 23.5827 11.8163 23.3558 11.7891 23.1101L10.7791 14.0001H21.2191L20.1992 23.1101ZM21.4391 12.0001H10.5591L10.2391 9.11006C10.2234 8.96976 10.2375 8.82772 10.2806 8.69328C10.3237 8.55885 10.3948 8.43506 10.4891 8.33006C10.5826 8.22646 10.6968 8.14358 10.8242 8.08675C10.9517 8.02992 11.0896 8.00039 11.2291 8.00006H20.7691C20.9087 8.00039 21.0466 8.02992 21.1741 8.08675C21.3015 8.14358 21.4157 8.22646 21.5091 8.33006C21.6035 8.43506 21.6746 8.55885 21.7177 8.69328C21.7608 8.82772 21.7749 8.96976 21.7591 9.11006L21.4391 12.0001ZM17.9991 22.0001C18.2644 22.0001 18.5187 21.8947 18.7063 21.7072C18.8938 21.5196 18.9991 21.2653 18.9991 21.0001V17.0001C18.9991 16.7348 18.8938 16.4805 18.7063 16.2929C18.5187 16.1054 18.2644 16.0001 17.9991 16.0001C17.7339 16.0001 17.4796 16.1054 17.292 16.2929C17.1045 16.4805 16.9991 16.7348 16.9991 17.0001V21.0001C16.9991 21.2653 17.1045 21.5196 17.292 21.7072C17.4796 21.8947 17.7339 22.0001 17.9991 22.0001ZM13.9991 22.0001C14.2644 22.0001 14.5187 21.8947 14.7063 21.7072C14.8938 21.5196 14.9991 21.2653 14.9991 21.0001V17.0001C14.9991 16.7348 14.8938 16.4805 14.7063 16.2929C14.5187 16.1054 14.2644 16.0001 13.9991 16.0001C13.7339 16.0001 13.4796 16.1054 13.292 16.2929C13.1045 16.4805 12.9991 16.7348 12.9991 17.0001V21.0001C12.9991 21.2653 13.1045 21.5196 13.292 21.7072C13.4796 21.8947 13.7339 22.0001 13.9991 22.0001Z" fill="#4286F4"/>
</g>
<defs>
<clipPath id="clip0_2993_27267">
<rect width="32" height="32" fill="white"/>
</clipPath>
</defs>
</svg>
