<svg width="32" height="32" viewBox="0 0 32 32" fill="none" xmlns="http://www.w3.org/2000/svg">
<g clip-path="url(#clip0_2993_27373)">
<circle cx="16" cy="16" r="16" fill="#F73C46" fill-opacity="0.2"/>
<path d="M16 25C11.0293 25 7 20.9707 7 16C7 11.0293 11.0293 7 16 7C20.9707 7 25 11.0293 25 16C25 20.9707 20.9707 25 16 25ZM16 23.2C17.9096 23.2 19.7409 22.4414 21.0912 21.0912C22.4414 19.7409 23.2 17.9096 23.2 16C23.2 14.0904 22.4414 12.2591 21.0912 10.9088C19.7409 9.55857 17.9096 8.8 16 8.8C14.0904 8.8 12.2591 9.55857 10.9088 10.9088C9.55857 12.2591 8.8 14.0904 8.8 16C8.8 17.9096 9.55857 19.7409 10.9088 21.0912C12.2591 22.4414 14.0904 23.2 16 23.2ZM15.1 18.7H16.9V20.5H15.1V18.7ZM15.1 11.5H16.9V16.9H15.1V11.5Z" fill="url(#paint0_linear_2993_27373)"/>
</g>
<defs>
<linearGradient id="paint0_linear_2993_27373" x1="22.5455" y1="22.5455" x2="7.48949" y2="10.4761" gradientUnits="userSpaceOnUse">
<stop stop-color="#F43B2E"/>
<stop offset="1" stop-color="#FF5A7B"/>
</linearGradient>
<clipPath id="clip0_2993_27373">
<rect width="32" height="32" fill="white"/>
</clipPath>
</defs>
</svg>
