<svg width="24" height="24" viewBox="0 0 24 24" fill="none" xmlns="http://www.w3.org/2000/svg">
<defs>
<linearGradient id="paint0_linear_169_2238" x1="16.9454" y1="18.65" x2="2.71137" y2="9.23906" gradientUnits="userSpaceOnUse">
<stop stop-color="#3258F3"/>
<stop offset="1" stop-color="#56B6FD"/>
</linearGradient>
<clipPath id="clip0_169_2238">
<rect width="24" height="24" fill="white"/>
</clipPath>
</defs>
<g clip-path="url(#clip0_169_2238)">
<circle cx="12" cy="12" r="12" fill="#D3E1F6"/>
<path d="M11.6 13.4C11.4143 13.4 11.2363 13.4738 11.105 13.605C10.9737 13.7363 10.9 13.9143 10.9 14.1V15.5C10.9 15.6857 10.9737 15.8637 11.105 15.995C11.2363 16.1263 11.4143 16.2 11.6 16.2C11.7857 16.2 11.9637 16.1263 12.095 15.995C12.2263 15.8637 12.3 15.6857 12.3 15.5V14.1C12.3 13.9143 12.2263 13.7363 12.095 13.605C11.9637 13.4738 11.7857 13.4 11.6 13.4ZM11.866 11.356C11.7393 11.2972 11.5979 11.2777 11.46 11.3L11.334 11.342L11.208 11.405L11.103 11.489C11.0364 11.5561 10.9841 11.6359 10.9492 11.7237C10.9143 11.8116 10.8976 11.9055 10.9 12C10.8995 12.0921 10.9171 12.1834 10.952 12.2687C10.9868 12.354 11.0381 12.4316 11.103 12.497C11.1696 12.5607 11.2481 12.6107 11.334 12.644C11.4171 12.6832 11.5082 12.7024 11.6 12.7C11.6921 12.7005 11.7834 12.6829 11.8687 12.648C11.954 12.6132 12.0316 12.5619 12.097 12.497C12.1619 12.4316 12.2132 12.354 12.248 12.2687C12.2829 12.1834 12.3005 12.0921 12.3 12C12.3005 11.9079 12.2829 11.8166 12.248 11.7313C12.2132 11.646 12.1619 11.5684 12.097 11.503C12.029 11.4412 11.9508 11.3914 11.866 11.356ZM17.2 9.858C17.1927 9.79369 17.1786 9.73034 17.158 9.669V9.606C17.1243 9.53403 17.0794 9.46787 17.025 9.41L12.825 5.21C12.7671 5.15555 12.701 5.11066 12.629 5.077H12.559C12.4909 5.0406 12.4178 5.01465 12.342 5H8.1C7.54305 5 7.0089 5.22125 6.61508 5.61508C6.22125 6.0089 6 6.54305 6 7.1V16.9C6 17.457 6.22125 17.9911 6.61508 18.3849C7.0089 18.7788 7.54305 19 8.1 19H15.1C15.657 19 16.1911 18.7788 16.5849 18.3849C16.9788 17.9911 17.2 17.457 17.2 16.9V9.9C17.2 9.9 17.2 9.9 17.2 9.858ZM13 7.387L14.813 9.2H13.7C13.5143 9.2 13.3363 9.12625 13.205 8.99497C13.0738 8.8637 13 8.68565 13 8.5V7.387ZM15.8 16.9C15.8 17.0857 15.7263 17.2637 15.595 17.395C15.4637 17.5263 15.2857 17.6 15.1 17.6H8.1C7.91435 17.6 7.7363 17.5263 7.60503 17.395C7.47375 17.2637 7.4 17.0857 7.4 16.9V7.1C7.4 6.91435 7.47375 6.7363 7.60503 6.60503C7.7363 6.47375 7.91435 6.4 8.1 6.4H11.6V8.5C11.6 9.05695 11.8212 9.5911 12.2151 9.98492C12.6089 10.3788 13.143 10.6 13.7 10.6H15.8V16.9Z" fill="url(#paint0_linear_169_2238)"/>
</g>
</svg>
