<svg width="24" height="24" viewBox="0 0 24 24" fill="none" xmlns="http://www.w3.org/2000/svg">
<defs>
<linearGradient id="paint0_linear_937_394" x1="18.3415" y1="20.0353" x2="0.743329" y2="8.09115" gradientUnits="userSpaceOnUse">
<stop stop-color="#F43B2E"/>
<stop offset="1" stop-color="#FF5A7B"/>
</linearGradient>
</defs>
<path d="M20.8927 22.4017C20.8927 22.7579 20.544 23.0485 20.1165 23.0485H2.96021C2.53271 23.0485 2.18396 22.7579 2.18396 22.4017V1.59854C2.18396 1.24229 2.53271 0.95166 2.96021 0.95166H15.9033V5.10947H20.8927V22.4017Z" fill="url(#paint0_linear_937_394)"/>
<path d="M15.9052 0.281372H2.96209C2.09022 0.281372 1.38147 0.871997 1.38147 1.59856V22.4017C1.38147 23.1282 2.09022 23.7189 2.90584 23.7189H20.0621C20.9902 23.7189 21.699 23.1282 21.699 22.4017V5.11418L15.9052 0.281372ZM20.8946 22.4017C20.8946 22.7579 20.5458 23.0486 20.1183 23.0486H2.96209C2.53459 23.0486 2.18584 22.7579 2.18584 22.4017V1.59856C2.18584 1.24231 2.53459 0.951685 2.96209 0.951685H15.9052V5.1095H20.8946V22.4017Z" fill="#FFD3CF"/>
<path d="M6.45833 15.3183C6.39931 15.2293 6.35012 15.1225 6.31077 15.0068C6.27142 14.8911 6.24191 14.7665 6.22224 14.6419C6.09435 14.8733 5.92712 15.0602 5.74021 15.2026C5.54347 15.3449 5.29754 15.4072 4.98274 15.4072C4.47121 15.4072 4.07772 15.2916 3.80227 15.0513C3.51699 14.811 3.37927 14.4907 3.37927 14.0813C3.37927 13.6453 3.55634 13.3071 3.92032 13.0758C4.2843 12.8355 4.82535 12.7198 5.56314 12.7198H6.18289V12.4084C6.18289 12.2215 6.1337 12.0791 6.03533 11.9812C5.93696 11.8833 5.7894 11.8299 5.58282 11.8299C5.40575 11.8299 5.27786 11.8655 5.18933 11.9456C5.10079 12.0168 5.06144 12.1325 5.06144 12.2927H3.59569L3.58585 12.266C3.56618 11.8655 3.75309 11.5274 4.13674 11.2604C4.53023 10.9934 5.04177 10.86 5.68119 10.86C6.28126 10.86 6.76329 10.9934 7.1371 11.2693C7.51092 11.5363 7.69783 11.9278 7.69783 12.4262V14.0813C7.69783 14.3127 7.7175 14.5263 7.76669 14.7309C7.80604 14.9267 7.8749 15.1314 7.96343 15.3272L6.45833 15.3183ZM5.39591 14.4284C5.58282 14.4284 5.74021 14.3928 5.88777 14.3127C6.02549 14.2326 6.1337 14.1436 6.18289 14.0368V13.4584H5.57298C5.32705 13.4584 5.15982 13.5118 5.05161 13.6186C4.9434 13.7254 4.89421 13.8589 4.89421 14.019C4.89421 14.1436 4.94339 14.2415 5.03193 14.3216C5.12046 14.3928 5.23851 14.4284 5.39591 14.4284ZM13.6592 13.227C13.6592 13.8856 13.492 14.4195 13.1673 14.811C12.8427 15.2115 12.3804 15.4072 11.7803 15.4072C11.5442 15.4072 11.3376 15.3627 11.1605 15.2827C10.9835 15.2026 10.8261 15.0869 10.6883 14.9267V17.0001H9.17341V10.9312H10.5998L10.649 11.4117C10.7867 11.2337 10.9441 11.0913 11.131 11.0023C11.3179 10.9045 11.5344 10.86 11.7704 10.86C12.3705 10.86 12.8329 11.0735 13.1673 11.4918C13.5018 11.91 13.6592 12.4617 13.6592 13.147V13.227ZM12.1443 13.1381C12.1443 12.7643 12.0852 12.4706 11.9672 12.2482C11.8491 12.0257 11.6524 11.91 11.3966 11.91C11.2294 11.91 11.0818 11.9367 10.9638 11.999C10.8457 12.0524 10.7572 12.1414 10.6883 12.2482V14.0813C10.7572 14.1792 10.8556 14.2504 10.9736 14.2949C11.0917 14.3394 11.2392 14.3661 11.4065 14.3661C11.6721 14.3661 11.859 14.2682 11.977 14.0724C12.0951 13.8767 12.1541 13.5919 12.1541 13.2359V13.1381H12.1443ZM16.7579 13.583H16.4825V15.3272H14.9676V9.00012H16.4825V12.5507H16.6989L17.722 10.9401H19.4533L17.9581 12.9156L19.6993 15.3272H17.9778L16.7579 13.583Z" fill="white"/>
</svg>
