<svg width="24" height="24" viewBox="0 0 24 24" fill="none" xmlns="http://www.w3.org/2000/svg">
<defs>
<linearGradient id="paint0_linear_937_115" x1="22.6681" y1="19.8023" x2="4.24453" y2="2.4501" gradientUnits="userSpaceOnUse">
<stop stop-color="#FF7728"/>
<stop offset="1" stop-color="#FF984C"/>
</linearGradient>
<linearGradient id="paint1_linear_937_115" x1="22.6681" y1="19.8023" x2="4.24453" y2="2.4501" gradientUnits="userSpaceOnUse">
<stop stop-color="#FF7728"/>
<stop offset="1" stop-color="#FF984C"/>
</linearGradient>
<linearGradient id="paint2_linear_937_115" x1="22.6681" y1="19.8023" x2="4.24453" y2="2.4501" gradientUnits="userSpaceOnUse">
<stop stop-color="#FF7728"/>
<stop offset="1" stop-color="#FF984C"/>
</linearGradient>
</defs>
<path d="M19.478 11.2167H15.1535C13.5848 11.2167 12.3085 9.94044 12.3085 8.37168V4.0472C12.3085 2.47844 13.5848 1.20215 15.1535 1.20215H19.478C21.0468 1.20215 22.323 2.47844 22.323 4.0472V8.37168C22.323 9.94044 21.0468 11.2167 19.478 11.2167Z" fill="url(#paint0_linear_937_115)"/>
<path d="M19.478 22.7392H15.1535C13.5848 22.7392 12.3085 21.4629 12.3085 19.8941V15.5697C12.3085 14.0009 13.5848 12.7246 15.1535 12.7246H19.478C21.0468 12.7246 22.323 14.0009 22.323 15.5697V19.8941C22.323 21.4629 21.0468 22.7392 19.478 22.7392Z" fill="url(#paint1_linear_937_115)"/>
<path d="M7.98398 22.7392H3.6595C2.09074 22.7392 0.814453 21.4629 0.814453 19.8941V15.5697C0.814453 14.0009 2.09074 12.7246 3.6595 12.7246H7.98398C9.55274 12.7246 10.829 14.0009 10.829 15.5697V19.8941C10.829 21.4629 9.55274 22.7392 7.98398 22.7392Z" fill="url(#paint2_linear_937_115)"/>
<path d="M10.5262 4.10443C10.2105 3.3485 9.71332 2.68228 9.07885 2.16484C8.44438 1.6474 7.6922 1.29474 6.88901 1.13813C6.26276 1.01483 5.61852 1.01483 4.99227 1.13813C4.18908 1.29474 3.4369 1.6474 2.80243 2.16484C2.16796 2.68228 1.67082 3.3485 1.35509 4.10443C1.10399 4.70981 0.974731 5.35887 0.974731 6.01439C0.974731 6.6699 1.10399 7.31897 1.35509 7.92435C1.73408 8.82897 2.37148 9.60135 3.18729 10.1445C4.00309 10.6877 4.96095 10.9775 5.94064 10.9775C6.92033 10.9775 7.87819 10.6877 8.69399 10.1445C9.5098 9.60135 10.1472 8.82897 10.5262 7.92435C10.7773 7.31897 10.9065 6.6699 10.9065 6.01439C10.9065 5.35887 10.7773 4.70981 10.5262 4.10443ZM6.29583 10.2931V8.15909H7.75213C7.53382 8.91046 7.17194 9.61226 6.68655 10.2255C6.54802 10.2469 6.4237 10.2647 6.29583 10.2931ZM5.20894 10.2433C4.72355 9.63005 4.36167 8.92825 4.14336 8.17687H5.58545V10.2931C5.45758 10.2647 5.33326 10.2469 5.20894 10.2255V10.2433ZM1.67831 6.02506C1.68022 5.54016 1.76429 5.0591 1.92695 4.60237H3.22696C3.05645 5.54314 3.05645 6.50697 3.22696 7.44775H1.92695C1.76429 6.99101 1.68022 6.50996 1.67831 6.02506ZM3.80948 6.02506C3.81153 5.54738 3.85911 5.07099 3.95155 4.60237H5.58545V7.44775H3.95155C3.85911 6.97912 3.81153 6.50273 3.80948 6.02506ZM5.58545 1.77478V3.90881H4.12915C4.34746 3.15743 4.70935 2.45564 5.19473 1.84236C5.33326 1.80323 5.45758 1.78545 5.58545 1.77478ZM6.67234 1.82457C7.15773 2.43785 7.51961 3.13965 7.73792 3.89103H6.29583V1.77478C6.4237 1.78545 6.54802 1.80323 6.67234 1.82457ZM6.29583 7.44775V4.60237H7.92973C8.02217 5.07099 8.06975 5.54738 8.0718 6.02506C8.06975 6.50273 8.02217 6.97912 7.92973 7.44775H6.29583ZM8.65432 4.60237H9.95433C10.2858 5.52179 10.2858 6.52833 9.95433 7.44775H8.65432C8.82483 6.50697 8.82483 5.54314 8.65432 4.60237ZM9.62755 3.89103H8.49448C8.33106 3.29405 8.09234 2.72036 7.7841 2.1838C8.5546 2.55643 9.19648 3.15088 9.62755 3.89103ZM4.09718 2.1838C3.78894 2.72036 3.55023 3.29405 3.3868 3.89103H2.25373C2.6848 3.15088 3.32668 2.55643 4.09718 2.1838ZM2.25373 8.15909H3.3868C3.55023 8.75606 3.78894 9.32976 4.09718 9.86631C3.32668 9.49368 2.6848 8.89923 2.25373 8.15909ZM7.7841 9.86631C8.09234 9.32976 8.33106 8.75606 8.49448 8.15909H9.62755C9.19648 8.89923 8.5546 9.49368 7.7841 9.86631Z" fill="#FF9A30"/>
</svg>
