<svg width="211" height="162" viewBox="0 0 211 162" fill="none" xmlns="http://www.w3.org/2000/svg">
<path d="M162.382 10.442C136.382 -9.15802 93.549 20.6086 75.3823 37.942C68.3812 42.9419 32.8818 37.942 36.8822 72.9419C40.1101 101.183 59.7156 101.442 57.3823 104.442C54.3823 145.442 60.8823 165.442 90.3823 155.942C113.982 148.342 126.216 146.775 129.382 146.942C203.882 155.942 205.882 109.942 191.882 63.4419C180.682 26.2419 167.549 12.6086 162.382 10.442Z" fill="#EDF5F8"/>
<path d="M51.0981 26.2732C51.0981 21.7041 54.8022 18 59.3714 18H109.011V69.7076H51.0981V26.2732Z" fill="#CCE3EB"/>
<path d="M117.285 18H164.856C169.425 18 173.129 21.704 173.129 26.2732V57.2978H117.285V18Z" fill="#CCE3EB"/>
<path d="M51.0981 77.9824H109.011V135.895H59.3714C54.8022 135.895 51.0981 132.191 51.0981 127.622V77.9824Z" fill="#CCE3EB"/>
<path d="M117.285 65.5713H173.129V127.62C173.129 132.19 169.425 135.894 164.856 135.894H117.285V65.5713Z" fill="#CCE3EB"/>
<circle cx="173.569" cy="134" r="13" fill="#FF6462"/>
<path d="M169.556 128.263C169.08 127.787 168.308 127.787 167.832 128.263C167.356 128.739 167.356 129.511 167.832 129.987L169.556 128.263ZM177.582 139.737C178.058 140.213 178.83 140.213 179.306 139.737C179.782 139.261 179.782 138.489 179.306 138.013L177.582 139.737ZM179.306 129.987C179.782 129.511 179.782 128.739 179.306 128.263C178.83 127.787 178.058 127.787 177.582 128.263L179.306 129.987ZM167.832 138.013C167.356 138.489 167.356 139.261 167.832 139.737C168.308 140.213 169.08 140.213 169.556 139.737L167.832 138.013ZM167.832 129.987L172.707 134.862L174.431 133.138L169.556 128.263L167.832 129.987ZM172.707 134.862L177.582 139.737L179.306 138.013L174.431 133.138L172.707 134.862ZM174.431 134.862L179.306 129.987L177.582 128.263L172.707 133.138L174.431 134.862ZM177.582 128.263L167.832 138.013L169.556 139.737L179.306 129.987L177.582 128.263Z" fill="white"/>
<path fill-rule="evenodd" clip-rule="evenodd" d="M77.5688 4V7H78.5688V4H81.5688V3H78.5688V0H77.5688V3H74.5688V4H77.5688Z" fill="#BAD5DC"/>
<path fill-rule="evenodd" clip-rule="evenodd" d="M177.569 4V7H178.569V4H181.569V3H178.569V0H177.569V3H174.569V4H177.569Z" fill="#BAD5DC"/>
<path fill-rule="evenodd" clip-rule="evenodd" d="M32.5688 104V107H33.5688V104H36.5688V103H33.5688V100H32.5688V103H29.5688V104H32.5688Z" fill="#BAD5DC"/>
<circle cx="28.5688" cy="37" r="2.5" stroke="#BAD5DC"/>
<circle cx="207.569" cy="110" r="2.5" stroke="#BAD5DC"/>
<rect x="50.9082" y="100.652" width="43" height="9" transform="rotate(-30.5218 50.9082 100.652)" fill="url(#paint0_linear_4713_26680)"/>
<path d="M15.7438 123.705L18.2831 128.012C19.1246 129.439 20.9638 129.914 22.3911 129.073L55.5677 109.513C55.8454 109.35 56.095 109.142 56.3067 108.899L58.0635 106.881L53.4927 99.1281L50.8766 99.6883C50.5613 99.7558 50.2589 99.8737 49.9811 100.037L16.8045 119.597C15.3772 120.438 14.9024 122.278 15.7438 123.705Z" fill="#556369"/>
<circle cx="115.648" cy="67.7079" r="31.5" transform="rotate(-30.5218 115.648 67.7079)" fill="#59B9CD" fill-opacity="0.1" stroke="#525E64" stroke-width="4"/>
<path opacity="0.5" d="M95.2362 58.9821C96.927 55.0805 99.7369 51.7678 103.31 49.4631C106.884 47.1583 111.061 45.965 115.312 46.0341C119.564 46.1031 123.7 47.4314 127.197 49.851C130.694 52.2705 133.394 55.6726 134.958 59.6272" stroke="white" stroke-width="3" stroke-linecap="round" stroke-linejoin="round"/>
<defs>
<linearGradient id="paint0_linear_4713_26680" x1="50.9082" y1="105.652" x2="95.1729" y2="105.652" gradientUnits="userSpaceOnUse">
<stop stop-color="#5C656C"/>
<stop offset="0.560967" stop-color="#5C656C"/>
<stop offset="0.615322" stop-color="#69747A"/>
<stop offset="1" stop-color="#69747A"/>
</linearGradient>
</defs>
</svg>
