<svg width="200" height="200" viewBox="0 0 200 200" fill="none" xmlns="http://www.w3.org/2000/svg">
<rect x="33" y="96" width="13" height="67" rx="2.72873" fill="#53A4FF"/>
<rect x="55.7432" y="89.4795" width="13.6437" height="73.6758" rx="2.72873" fill="#53A4FF"/>
<rect x="80.3057" y="77.2007" width="13.6437" height="85.9551" rx="2.72873" fill="#53A4FF"/>
<rect x="104.86" y="101.759" width="13.6437" height="61.3965" rx="2.72873" fill="#53A4FF"/>
<rect x="128.057" y="82.6587" width="13.6437" height="80.4976" rx="2.72873" fill="#53A4FF"/>
<rect x="152.611" y="59.4653" width="13.6437" height="103.692" rx="2.72873" fill="#53A4FF"/>
<path d="M89.1773 54.6895L90.2377 53.8311L89.4175 52.8178L88.3679 53.5911L89.1773 54.6895ZM112.372 83.3412L111.311 84.1997L112.205 85.3037L113.272 84.3662L112.372 83.3412ZM166.264 36L150.815 39.0863L161.212 50.9224L166.264 36ZM63.2543 73.7906L63.9087 74.9879L63.9895 74.9437L64.0637 74.889L63.2543 73.7906ZM88.1168 55.548L111.311 84.1997L113.432 82.4827L90.2377 53.8311L88.1168 55.548ZM113.272 84.3662L157.939 45.129L156.138 43.0789L111.471 82.3162L113.272 84.3662ZM40.6543 87.6972L63.9087 74.9879L62.6 72.5934L39.3457 85.3028L40.6543 87.6972ZM64.0637 74.889L89.9866 55.7879L88.3679 53.5911L62.445 72.6922L64.0637 74.889Z" fill="url(#paint0_linear_5285_43196)" fill-opacity="0.5"/>
<circle cx="63.2512" cy="73.7903" r="3.41091" fill="url(#paint1_linear_5285_43196)"/>
<circle cx="39.3118" cy="87.3118" r="3.31178" fill="url(#paint2_linear_5285_43196)"/>
<circle cx="88.1663" cy="55.0447" r="3.76545" fill="url(#paint3_linear_5285_43196)"/>
<circle cx="112.575" cy="82.1797" r="3.61422" fill="url(#paint4_linear_5285_43196)"/>
<circle cx="134.401" cy="63.0796" r="3.61422" fill="url(#paint5_linear_5285_43196)"/>
<defs>
<linearGradient id="paint0_linear_5285_43196" x1="168.679" y1="91.6145" x2="127.154" y2="0.0824442" gradientUnits="userSpaceOnUse">
<stop stop-color="#FF7728"/>
<stop offset="1" stop-color="#FF984C"/>
</linearGradient>
<linearGradient id="paint1_linear_5285_43196" x1="66.7716" y1="76.271" x2="60.9355" y2="70.767" gradientUnits="userSpaceOnUse">
<stop stop-color="#FF7728"/>
<stop offset="1" stop-color="#FF984C"/>
</linearGradient>
<linearGradient id="paint2_linear_5285_43196" x1="42.7298" y1="89.7203" x2="37.0633" y2="84.3763" gradientUnits="userSpaceOnUse">
<stop stop-color="#FF7728"/>
<stop offset="1" stop-color="#FF984C"/>
</linearGradient>
<linearGradient id="paint3_linear_5285_43196" x1="92.0526" y1="57.7833" x2="85.6099" y2="51.7072" gradientUnits="userSpaceOnUse">
<stop stop-color="#FF7728"/>
<stop offset="1" stop-color="#FF984C"/>
</linearGradient>
<linearGradient id="paint4_linear_5285_43196" x1="116.305" y1="84.8082" x2="110.121" y2="78.9761" gradientUnits="userSpaceOnUse">
<stop stop-color="#FF7728"/>
<stop offset="1" stop-color="#FF984C"/>
</linearGradient>
<linearGradient id="paint5_linear_5285_43196" x1="138.132" y1="65.7081" x2="131.948" y2="59.876" gradientUnits="userSpaceOnUse">
<stop stop-color="#FF7728"/>
<stop offset="1" stop-color="#FF984C"/>
</linearGradient>
</defs>
</svg>
