<svg width="24" height="24" viewBox="0 0 24 24" fill="none" xmlns="http://www.w3.org/2000/svg">
<g clip-path="url(#clip0_854_11958)">
<path d="M21.5 11.0041H3.40501L6.70501 7.71409C6.89332 7.52579 6.9991 7.27039 6.9991 7.00409C6.9991 6.73779 6.89332 6.4824 6.70501 6.29409C6.51671 6.10579 6.26132 6 5.99501 6C5.72871 6 5.47332 6.10579 5.28501 6.29409L0.285014 11.2941C0.193973 11.3892 0.122608 11.5013 0.0750135 11.6241C-0.0250045 11.8676 -0.0250045 12.1406 0.0750135 12.3841C0.122608 12.5068 0.193973 12.619 0.285014 12.7141L5.28501 17.7141C5.37798 17.8078 5.48858 17.8822 5.61044 17.933C5.7323 17.9838 5.863 18.0099 5.99501 18.0099C6.12703 18.0099 6.25773 17.9838 6.37959 17.933C6.50145 17.8822 6.61205 17.8078 6.70501 17.7141C6.79874 17.6211 6.87314 17.5105 6.9239 17.3887C6.97467 17.2668 7.00081 17.1361 7.00081 17.0041C7.00081 16.8721 6.97467 16.7414 6.9239 16.6195C6.87314 16.4977 6.79874 16.3871 6.70501 16.2941L3.40501 13.0041H21.5C21.7652 13.0041 22.0196 12.8987 22.2071 12.7112C22.3946 12.5237 22.5 12.2693 22.5 12.0041C22.5 11.7389 22.3946 11.4845 22.2071 11.297C22.0196 11.1094 21.7652 11.0041 21.5 11.0041Z" fill="#00987C"/>
</g>
<defs>
<clipPath id="clip0_854_11958">
<rect width="24" height="24" fill="white"/>
</clipPath>
</defs>
</svg>
