<svg width="200" height="200" viewBox="0 0 200 200" fill="none" xmlns="http://www.w3.org/2000/svg">
<path d="M128.203 122.717C128.203 122.402 127.979 122.258 127.824 122.071C126.466 120.454 125.122 118.829 123.734 117.235C123.355 116.798 123.309 116.537 123.752 116.103C126.019 113.873 128.272 111.619 130.513 109.342C130.955 108.889 131.222 108.98 131.661 109.342C133.281 110.698 134.953 111.99 136.561 113.363C137.084 113.808 137.469 113.826 138.057 113.49C139.101 112.86 140.235 112.396 141.421 112.114C142.098 111.967 142.331 111.577 142.38 110.933C142.529 108.972 142.747 107.016 142.859 105.054C142.903 104.296 143.081 103.989 143.908 104C147.067 104.046 150.209 104.041 153.36 104C154.075 104 154.247 104.242 154.293 104.919C154.431 106.99 154.675 109.049 154.833 111.117C154.822 111.345 154.897 111.568 155.044 111.742C155.19 111.916 155.397 112.028 155.623 112.056C156.905 112.391 158.135 112.899 159.279 113.567C159.761 113.854 160.075 113.797 160.494 113.429C162.085 112.042 163.731 110.715 165.319 109.325C165.778 108.926 166.034 108.966 166.45 109.377C168.717 111.617 171.005 113.835 173.312 116.031C173.823 116.517 173.812 116.81 173.361 117.324C171.988 118.88 170.69 120.5 169.323 122.063C169.153 122.213 169.048 122.422 169.027 122.648C169.006 122.874 169.072 123.099 169.211 123.278C169.867 124.386 170.359 125.585 170.67 126.836C170.819 127.479 171.161 127.677 171.778 127.723C173.809 127.876 175.836 128.111 177.87 128.24C178.568 128.286 178.769 128.51 178.763 129.2C178.729 132.385 178.734 135.573 178.763 138.758C178.763 139.384 178.599 139.619 177.939 139.68C175.908 139.855 173.886 140.134 171.859 140.323C171.011 140.404 170.552 140.725 170.356 141.613C170.081 142.728 169.634 143.793 169.032 144.772C168.719 145.315 168.745 145.674 169.182 146.159C170.592 147.681 171.91 149.287 173.329 150.803C173.852 151.378 173.783 151.665 173.269 152.167C171.014 154.367 168.777 156.588 166.588 158.854C166.014 159.428 165.701 159.399 165.129 158.891C163.607 157.532 162.013 156.257 160.471 154.925C160.1 154.603 159.81 154.485 159.351 154.764C158.148 155.473 156.851 156.012 155.499 156.364C155.014 156.496 154.89 156.734 154.853 157.176C154.672 159.241 154.437 161.303 154.299 163.371C154.25 164.066 154.124 164.379 153.331 164.368C150.146 164.325 146.958 164.336 143.773 164.368C143.129 164.368 142.911 164.178 142.874 163.526C142.753 161.516 142.546 159.537 142.4 157.538C142.345 156.814 142.078 156.389 141.309 156.226C140.126 155.936 138.993 155.469 137.951 154.838C137.431 154.551 137.09 154.568 136.647 154.971C135.088 156.341 133.462 157.636 131.905 159.009C131.414 159.442 131.144 159.419 130.691 158.957C128.414 156.631 126.111 154.327 123.78 152.047C123.358 151.63 123.341 151.372 123.729 150.912C125.13 149.241 126.474 147.518 127.873 145.843C128.028 145.703 128.122 145.509 128.138 145.301C128.153 145.093 128.088 144.887 127.956 144.726C127.283 143.585 126.785 142.35 126.48 141.061C126.451 140.817 126.33 140.593 126.143 140.433C125.956 140.273 125.715 140.19 125.469 140.2C123.439 140.047 121.411 139.818 119.378 139.694C118.645 139.648 118.392 139.43 118.401 138.68C118.438 135.521 118.444 132.379 118.401 129.228C118.401 128.439 118.708 128.312 119.401 128.263C121.468 128.123 123.531 127.893 125.596 127.703C125.963 127.669 126.265 127.64 126.385 127.169C126.77 125.753 127.329 124.39 128.048 123.111C128.097 122.959 128.152 122.827 128.203 122.717ZM136.63 134.079C136.277 140.346 141.986 145.941 148.405 145.964C154.896 145.984 160.347 140.452 160.367 134.088C160.388 127.577 154.733 122.146 148.463 122.146C141.92 122.143 136.225 127.893 136.63 134.079Z" fill="#6DB5FF"/>
<path d="M136.63 134.079C136.234 127.893 141.929 122.143 148.466 122.146C154.735 122.146 160.39 127.577 160.37 134.088C160.35 140.452 154.913 145.984 148.408 145.964C141.978 145.941 136.268 140.346 136.63 134.079ZM155.784 134.079C155.798 132.137 155.04 130.268 153.677 128.885C152.314 127.501 150.457 126.716 148.514 126.701C146.572 126.687 144.703 127.444 143.32 128.808C141.936 130.171 141.151 132.028 141.136 133.97C141.11 138.146 144.261 141.354 148.4 141.372C149.367 141.396 150.33 141.224 151.229 140.868C152.129 140.511 152.948 139.977 153.636 139.296C154.325 138.616 154.869 137.804 155.237 136.909C155.604 136.013 155.787 135.053 155.775 134.085L155.784 134.079Z" fill="#BFDEFF"/>
<path d="M155.775 134.085C155.788 135.053 155.606 136.013 155.239 136.909C154.873 137.805 154.329 138.617 153.641 139.298C152.953 139.979 152.135 140.514 151.235 140.871C150.336 141.228 149.373 141.4 148.406 141.377C144.267 141.36 141.116 138.152 141.142 133.976C141.157 132.034 141.942 130.176 143.326 128.813C144.71 127.45 146.578 126.692 148.521 126.707C150.463 126.721 152.32 127.507 153.683 128.89C155.046 130.274 155.804 132.143 155.79 134.085H155.775Z" fill="#FDFDFD"/>
<path d="M119.682 77.1745C119.682 77.0366 119.584 76.9739 119.516 76.8923C118.923 76.1861 118.336 75.4762 117.73 74.78C117.565 74.5894 117.545 74.4752 117.738 74.2858C118.728 73.3117 119.712 72.3274 120.69 71.3332C120.884 71.135 121 71.1751 121.192 71.3332C121.9 71.9252 122.63 72.4897 123.332 73.0892C123.56 73.2836 123.728 73.2912 123.986 73.1444C124.441 72.8697 124.937 72.667 125.454 72.5436C125.75 72.4796 125.852 72.309 125.873 72.0281C125.939 71.1714 126.034 70.3172 126.083 69.4605C126.102 69.1293 126.179 68.9951 126.541 69.0001C127.92 69.0202 129.293 69.0177 130.669 69.0001C130.981 69.0001 131.056 69.1055 131.076 69.4015C131.136 70.3059 131.243 71.2052 131.312 72.1083C131.307 72.2076 131.34 72.3051 131.404 72.3811C131.468 72.4572 131.558 72.5063 131.657 72.5185C132.217 72.6646 132.754 72.8866 133.254 73.1783C133.464 73.3037 133.601 73.2786 133.784 73.1181C134.479 72.5122 135.198 71.9327 135.892 71.3256C136.092 71.1513 136.204 71.1689 136.386 71.3482C137.376 72.3266 138.375 73.2953 139.382 74.2545C139.606 74.4665 139.601 74.5944 139.404 74.8189C138.804 75.4988 138.237 76.2062 137.64 76.8886C137.566 76.9543 137.52 77.0457 137.511 77.1442C137.502 77.2427 137.531 77.341 137.591 77.4191C137.878 77.9035 138.093 78.427 138.228 78.9732C138.294 79.2542 138.443 79.3408 138.713 79.3608C139.599 79.4273 140.485 79.5302 141.373 79.5866C141.678 79.6067 141.766 79.7045 141.763 80.0055C141.748 81.3966 141.75 82.7889 141.763 84.1799C141.763 84.4534 141.692 84.5562 141.403 84.5826C140.516 84.6591 139.633 84.7807 138.748 84.8635C138.378 84.8987 138.177 85.0391 138.092 85.4267C137.971 85.9137 137.776 86.3791 137.513 86.8065C137.377 87.0435 137.388 87.2003 137.579 87.4123C138.194 88.0771 138.77 88.7783 139.39 89.4406C139.618 89.6914 139.588 89.8168 139.364 90.0364C138.379 90.9972 137.402 91.9668 136.446 92.9564C136.195 93.2073 136.058 93.1947 135.809 92.9727C135.144 92.3794 134.448 91.8225 133.774 91.2405C133.612 91.1 133.486 91.0486 133.285 91.1703C132.76 91.4802 132.193 91.7153 131.603 91.8689C131.391 91.9266 131.337 92.0307 131.321 92.2239C131.242 93.1257 131.139 94.0263 131.079 94.9295C131.057 95.233 131.002 95.3697 130.656 95.3647C129.265 95.3459 127.873 95.3509 126.482 95.3647C126.201 95.3647 126.105 95.2819 126.089 94.9972C126.036 94.1192 125.946 93.2549 125.882 92.3819C125.858 92.0658 125.742 91.8802 125.405 91.8087C124.889 91.6823 124.394 91.478 123.939 91.2029C123.712 91.0774 123.563 91.085 123.37 91.2606C122.689 91.8589 121.979 92.4246 121.299 93.0241C121.084 93.2135 120.966 93.2035 120.768 93.0016C119.774 91.9856 118.768 90.9796 117.75 89.9837C117.566 89.8018 117.558 89.6889 117.728 89.4882C118.34 88.7582 118.927 88.0056 119.538 87.2743C119.605 87.2132 119.647 87.1285 119.653 87.0376C119.66 86.9468 119.632 86.8569 119.574 86.7864C119.28 86.2883 119.063 85.7487 118.929 85.1859C118.917 85.0792 118.864 84.9812 118.782 84.9115C118.7 84.8417 118.595 84.8054 118.488 84.8096C117.601 84.7431 116.716 84.6428 115.827 84.5888C115.508 84.5688 115.397 84.4734 115.401 84.1461C115.417 82.7663 115.42 81.3941 115.401 80.0181C115.401 79.6732 115.535 79.618 115.837 79.5966C116.741 79.5352 117.641 79.4348 118.543 79.352C118.704 79.337 118.835 79.3245 118.888 79.1187C119.056 78.5002 119.3 77.9049 119.614 77.3464C119.636 77.2799 119.659 77.2222 119.682 77.1745ZM123.362 82.1366C123.208 84.8736 125.701 87.317 128.505 87.327C131.34 87.3358 133.72 84.92 133.729 82.1404C133.738 79.2969 131.268 76.9249 128.53 76.9249C125.673 76.9237 123.185 79.4348 123.362 82.1366Z" fill="#BFDEFF"/>
<path d="M123.362 82.1365C123.189 79.4347 125.676 76.9236 128.531 76.9248C131.269 76.9248 133.739 79.2967 133.73 82.1403C133.721 84.9198 131.347 87.3357 128.506 87.3269C125.698 87.3169 123.204 84.8734 123.362 82.1365ZM131.727 82.1365C131.733 81.2882 131.403 80.4721 130.807 79.8678C130.212 79.2635 129.401 78.9205 128.552 78.9142C127.704 78.9078 126.888 79.2388 126.284 79.8341C125.679 80.4295 125.336 81.2405 125.33 82.0888C125.319 83.9126 126.695 85.3137 128.502 85.3212C128.925 85.3317 129.345 85.2569 129.738 85.1012C130.131 84.9455 130.489 84.7121 130.789 84.415C131.09 84.1179 131.328 83.7632 131.488 83.3722C131.649 82.9811 131.729 82.5617 131.723 82.139L131.727 82.1365Z" fill="#E4F2FF"/>
<path d="M131.723 82.1389C131.729 82.5616 131.649 82.9811 131.489 83.3723C131.329 83.7635 131.092 84.1183 130.791 84.4156C130.491 84.713 130.133 84.9466 129.741 85.1026C129.348 85.2586 128.927 85.3338 128.505 85.3237C126.697 85.3161 125.321 83.9151 125.333 82.0913C125.339 81.243 125.682 80.4319 126.286 79.8366C126.891 79.2412 127.707 78.9103 128.555 78.9166C129.403 78.9229 130.214 79.266 130.81 79.8703C131.405 80.4746 131.736 81.2906 131.73 82.1389H131.723Z" fill="#FDFDFD"/>
<g opacity="0.8">
<path fill-rule="evenodd" clip-rule="evenodd" d="M50.6553 35.8612C50.6553 34.414 51.8285 33.2407 53.2758 33.2407H73.4535C74.9007 33.2407 76.074 34.414 76.074 35.8612V46.149C76.074 46.2271 76.0705 46.3043 76.0639 46.3807H100.488C103.382 46.3807 105.729 48.7271 105.729 51.6216V167.759C105.729 170.654 103.382 173 100.488 173H26.241C23.3465 173 21 170.654 21 167.759V51.6216C21 48.7271 23.3465 46.3807 26.241 46.3807H50.6654C50.6587 46.3043 50.6553 46.2271 50.6553 46.149V35.8612ZM100.488 49.0011H26.241C24.7937 49.0011 23.6205 50.1744 23.6205 51.6216V167.759C23.6205 169.206 24.7937 170.379 26.241 170.379H100.488C101.935 170.379 103.108 169.206 103.108 167.759V51.6216C103.108 50.1744 101.935 49.0011 100.488 49.0011ZM29.7347 77.7892C28.7699 77.7892 27.9878 78.5713 27.9878 79.5361V95.259C27.9878 96.2239 28.7699 97.006 29.7347 97.006H98.7408C99.7056 97.006 100.488 96.2239 100.488 95.259V79.5361C100.488 78.5713 99.7056 77.7892 98.7408 77.7892H29.7347ZM27.9878 56.8253C27.9878 55.8605 28.7699 55.0783 29.7347 55.0783H98.7408C99.7056 55.0783 100.488 55.8605 100.488 56.8253V72.5482C100.488 73.513 99.7056 74.2952 98.7408 74.2952H29.7347C28.7699 74.2952 27.9878 73.513 27.9878 72.5482V56.8253ZM29.7347 100.5C28.7699 100.5 27.9878 101.282 27.9878 102.247V117.97C27.9878 118.935 28.7699 119.717 29.7347 119.717H98.7408C99.7056 119.717 100.488 118.935 100.488 117.97V102.247C100.488 101.282 99.7056 100.5 98.7408 100.5H29.7347ZM27.9878 124.958C27.9878 123.993 28.7699 123.211 29.7347 123.211H98.7408C99.7056 123.211 100.488 123.993 100.488 124.958V140.681C100.488 141.646 99.7056 142.428 98.7408 142.428H29.7347C28.7699 142.428 27.9878 141.646 27.9878 140.681V124.958ZM29.7347 145.922C28.7699 145.922 27.9878 146.704 27.9878 147.669V163.392C27.9878 164.356 28.7699 165.139 29.7347 165.139H98.7408C99.7056 165.139 100.488 164.356 100.488 163.392V147.669C100.488 146.704 99.7056 145.922 98.7408 145.922H29.7347Z" fill="#53A4FF"/>
<path d="M49.6578 109.317L70.1421 74.9237L63.27 103.325L79.2792 102.777L54.6743 142.86L64.7793 110.161L49.6578 109.317Z" fill="white"/>
</g>
</svg>
