<svg width="24" height="24" viewBox="0 0 24 24" fill="none" xmlns="http://www.w3.org/2000/svg">
<path d="M6.69 16.3887H4.22222V8.61089H6.31C6.57522 8.61089 6.82957 8.48217 7.01711 8.25304C7.20464 8.0239 7.31 7.93451 7.31 7.61047C7.31 7.28643 7.20464 6.97566 7.01711 6.74653C6.82957 6.5174 6.57522 6.38867 6.31 6.38867H4C3.46957 6.38867 2.96086 6.64612 2.58579 7.10439C2.21071 7.56265 2 8.18419 2 8.83227V16.1631C2 16.8112 2.21071 17.4327 2.58579 17.891C2.96086 18.3492 3.46957 18.6067 4 18.6067H6.69C6.95522 18.6067 7.20957 18.478 7.39711 18.2488C7.58464 18.0197 7.69 17.9345 7.69 17.6105C7.69 17.2864 7.58464 16.9757 7.39711 16.7465C7.20957 16.5174 6.95522 16.3887 6.69 16.3887ZM13.89 13.0353C13.9145 12.9639 13.9345 12.8904 13.95 12.8153C13.9547 12.734 13.9547 12.6523 13.95 12.571C13.95 12.571 13.95 12.571 13.95 12.4977C13.95 12.4244 13.95 12.3999 13.95 12.3511C13.9441 12.2669 13.9272 12.1844 13.9 12.1067C13.8794 12.0342 13.8526 11.9646 13.82 11.899C13.7926 11.8295 13.7591 11.764 13.72 11.7035L13.56 11.5447L13.47 11.4347H13.41L13.23 11.3614H13.03H9.73L11.18 8.3069C11.3126 8.02498 11.3481 7.69025 11.2787 7.37634C11.2093 7.06243 11.0407 6.79505 10.81 6.63303C10.5793 6.47101 10.3053 6.42762 10.0484 6.5124C9.79145 6.59717 9.57261 6.80318 9.44 7.0851L7.13 11.9723V12.0456L7.07 12.2655C7.07 12.2655 6.9953 12.4184 7 12.4998V12.4977C7 12.4977 7 12.5954 7 12.6443C7.00592 12.7285 7.0228 12.811 7.05 12.8887C7.07059 12.9611 7.09741 13.0308 7.13 13.0964C7.15736 13.1658 7.1909 13.2314 7.23 13.2918L7.55556 13.6109C7.58299 13.6506 7.44754 13.5271 7.48 13.5606L7.55556 13.6109C7.66607 13.6917 7.87275 13.6953 8 13.7195H11.27L9.82 16.774C9.68739 17.0559 9.65188 17.3906 9.72126 17.7045C9.79065 18.0185 9.95926 18.2858 10.19 18.4478C10.4207 18.6099 10.6947 18.6533 10.9516 18.5685C11.2086 18.4837 11.4274 18.2777 11.56 17.9958L13.87 13.1086C13.87 13.1086 13.88 13.0597 13.89 13.0353ZM21 10.0541C20.7348 10.0541 20.4804 10.1828 20.2929 10.4119C20.1054 10.6411 20 10.9518 20 11.2759V13.7195C20 14.0435 20.1054 14.3543 20.2929 14.5834C20.4804 14.8126 20.7348 14.9413 21 14.9413C21.2652 14.9413 21.5196 14.8126 21.7071 14.5834C21.8946 14.3543 22 14.0435 22 13.7195V11.2759C22 10.9518 21.8946 10.6411 21.7071 10.4119C21.5196 10.1828 21.2652 10.0541 21 10.0541ZM17 6.38867H14.31C14.0448 6.38867 13.7904 6.5174 13.6029 6.74653C13.4154 6.97566 13.31 7.28643 13.31 7.61047C13.31 7.93451 13.4154 8.0239 13.6029 8.25304C13.7904 8.48217 14.0448 8.61089 14.31 8.61089H16.8159V16.3887H14.69C14.4248 16.3887 14.1704 16.5174 13.9829 16.7465C13.7954 16.9757 13.69 17.2864 13.69 17.6105C13.69 17.9345 13.7954 18.0197 13.9829 18.2488C14.1704 18.478 14.4248 18.6067 14.69 18.6067H17C17.5304 18.6067 18.0391 18.3492 18.4142 17.891C18.7893 17.4327 19 16.8112 19 16.1631V8.83227C19 8.18419 18.7893 7.56265 18.4142 7.10439C18.0391 6.64612 17.5304 6.38867 17 6.38867Z" fill="url(#paint0_linear_4349_23888)"/>
<defs>
<linearGradient id="paint0_linear_4349_23888" x1="22.3209" y1="16.9442" x2="12.7608" y2="2.19077" gradientUnits="userSpaceOnUse">
<stop stop-color="#FF7728"/>
<stop offset="1" stop-color="#FF984C"/>
</linearGradient>
</defs>
</svg>
