<svg width="68" height="117" viewBox="0 0 68 117" fill="none" xmlns="http://www.w3.org/2000/svg">
<defs>
<linearGradient id="paint0_linear_223_5560" x1="60.929" y1="96.343" x2="-2.55844" y2="59.6381" gradientUnits="userSpaceOnUse">
<stop stop-color="#33A752"/>
<stop offset="1" stop-color="#33A752" stop-opacity="0.5"/>
</linearGradient>
<linearGradient id="paint1_linear_223_5560" x1="60.929" y1="96.343" x2="-2.55844" y2="59.6381" gradientUnits="userSpaceOnUse">
<stop stop-color="#33A752"/>
<stop offset="1" stop-color="#33A752" stop-opacity="0.5"/>
</linearGradient>
<linearGradient id="paint2_linear_223_5560" x1="60.929" y1="96.343" x2="-2.55844" y2="59.6381" gradientUnits="userSpaceOnUse">
<stop stop-color="#33A752"/>
<stop offset="1" stop-color="#33A752" stop-opacity="0.5"/>
</linearGradient>
<linearGradient id="paint3_linear_223_5560" x1="60.929" y1="96.343" x2="-2.55844" y2="59.6381" gradientUnits="userSpaceOnUse">
<stop stop-color="#33A752"/>
<stop offset="1" stop-color="#33A752" stop-opacity="0.5"/>
</linearGradient>
<linearGradient id="paint4_linear_223_5560" x1="69.0909" y1="101.045" x2="-15.4313" y2="54.7168" gradientUnits="userSpaceOnUse">
<stop stop-color="#33A752"/>
<stop offset="1" stop-color="#33A752" stop-opacity="0.5"/>
</linearGradient>
</defs>
<g opacity="0.8">
<path d="M32.9619 26.896C29.7039 26.2943 25.9275 25.508 21.5335 24.4999C17.1891 23.4999 8.38687 23.5999 7.93354 31.9999C10.9304 33.0283 19.7388 33.176 32.9619 26.896Z" fill="url(#paint0_linear_223_5560)"/>
<path d="M53.8335 27.5001C54.6969 27.0557 55.4481 26.7817 56.1 26.6447C50.66 20.7605 42.1222 22.4297 38.5334 23.9998C36.5986 25.0905 34.7403 26.0514 32.9619 26.896C46.5104 29.3985 51.0925 28.7092 53.8335 27.5001Z" fill="url(#paint1_linear_223_5560)"/>
<path fill-rule="evenodd" clip-rule="evenodd" d="M60.0669 104C60.0669 106.209 58.276 108 56.0669 108H11.8991C9.70344 108 7.9182 106.239 7.90064 104.044C7.71683 81.0693 7.50605 39.921 7.93354 31.9999C10.9304 33.0283 19.7388 33.176 32.9619 26.896C46.5104 29.3985 51.0925 28.7092 53.8335 27.5001C54.6969 27.0557 55.4481 26.7817 56.1 26.6447L60.0669 31.0001V104Z" fill="url(#paint2_linear_223_5560)"/>
<path d="M60.0669 31.0001C60.2258 29.0371 59.5558 25.9181 56.1 26.6447L60.0669 31.0001Z" fill="url(#paint3_linear_223_5560)"/>
<path fill-rule="evenodd" clip-rule="evenodd" d="M26.8 0C25.1431 0 23.8 1.34315 23.8 3V10C23.8 10.3506 23.8602 10.6872 23.9707 11H6C2.68629 11 0 13.6863 0 17V111C0 114.314 2.68629 117 6 117H62C65.3137 117 68 114.314 68 111V17C68 13.6863 65.3137 11 62 11H44.0293C44.1398 10.6872 44.2 10.3506 44.2 10V3C44.2 1.34315 42.8569 0 41.2 0H26.8ZM6 14H62C63.6569 14 65 15.3431 65 17V111C65 112.657 63.6569 114 62 114H6C4.34315 114 3 112.657 3 111V17C3 15.3431 4.34315 14 6 14Z" fill="url(#paint4_linear_223_5560)"/>
<path d="M37.8261 73.7791H30.0952V100.001H37.8261V73.7791Z" fill="#DFF2EF"/>
<path d="M30.0952 93.0864C32.8332 92.4153 35.4102 91.2176 37.8261 89.9265V100.001H30.0952V93.0864Z" fill="#DFF2EF"/>
<path d="M25.1791 81.0669H17.4482V100.001H25.1791V81.0669Z" fill="#DFF2EF"/>
<path d="M23.751 93.528C24.2342 93.5874 24.7067 93.6214 25.1791 93.6299V100.001H17.4482V93.6893C18.8118 93.3326 20.8197 93.1882 23.751 93.528Z" fill="#DFF2EF"/>
<path d="M50.4645 65.9473H42.7336V100.001H50.4645V65.9473Z" fill="#DFF2EF"/>
<path d="M50.475 84.6092V100.001H42.744V87.2254C45.4928 85.7474 48.0591 84.6007 50.475 84.6092Z" fill="#DFF2EF"/>
<path d="M50.1639 56.017L43.1846 57.1977L45.0636 58.6502L34.3799 67.2719L30.6326 64.3583L17.3719 75.0526C16.8672 75.4603 16.878 76.1144 17.3934 76.5136C17.9088 76.9128 18.7355 76.9043 19.2402 76.4966L30.6755 67.2804L34.4229 70.1939L46.9427 60.0942L48.8217 61.5467L50.1854 56L50.1639 56.017Z" fill="#DFF2EF"/>
</g>
</svg>
