<svg width="11" height="20" viewBox="0 0 11 20" fill="none" xmlns="http://www.w3.org/2000/svg">
<defs>
<linearGradient id="paint0_linear_1263_9017" x1="10.75" y1="19.5" x2="-5.90068" y2="11.9315" gradientUnits="userSpaceOnUse">
<stop stop-color="#3258F3"/>
<stop offset="1" stop-color="#56B6FD"/>
</linearGradient>
</defs>
<path d="M10.8629 5.26442C11.0102 5.42468 11.0388 5.60096 10.9488 5.79327L4.32124 19.6995C4.21488 19.8998 4.04305 20 3.80577 20C3.77304 20 3.71577 19.992 3.63394 19.976C3.49485 19.9359 3.39052 19.8598 3.32098 19.7476C3.25143 19.6354 3.23302 19.5152 3.26575 19.387L5.68357 9.67548L0.700641 10.8894C0.667913 10.8974 0.61882 10.9014 0.553363 10.9014C0.406084 10.9014 0.279261 10.8574 0.172892 10.7692C0.0256137 10.649 -0.0275703 10.4928 0.0133405 10.3005L2.48026 0.384615C2.51299 0.272436 2.57845 0.180288 2.67663 0.108173C2.77482 0.0360577 2.88937 0 3.02028 0H7.0459C7.20136 0 7.33228 0.0500801 7.43865 0.15024C7.54501 0.250401 7.5982 0.36859 7.5982 0.504808C7.5982 0.56891 7.57774 0.641026 7.53683 0.721154L5.43811 6.28606L10.2983 5.10817C10.3638 5.09215 10.4129 5.08413 10.4456 5.08413C10.601 5.08413 10.7401 5.14423 10.8629 5.26442Z" fill="url(#paint0_linear_1263_9017)"/>
</svg>
