<svg width="24" height="24" viewBox="0 0 24 24" fill="none" xmlns="http://www.w3.org/2000/svg">
<defs>
<linearGradient id="paint0_linear_937_381" x1="24.0833" y1="20.5945" x2="4.67189" y2="2.26298" gradientUnits="userSpaceOnUse">
<stop stop-color="#33A752"/>
<stop offset="1" stop-color="#8DCB9E"/>
</linearGradient>
</defs>
<path d="M22.8488 7.98749C22.1266 6.26065 20.9894 4.73872 19.538 3.55667C18.0867 2.37463 16.3661 1.569 14.5288 1.21124C13.0963 0.929586 11.6226 0.929586 10.1901 1.21124C8.35278 1.569 6.63217 2.37463 5.18084 3.55667C3.7295 4.73872 2.59229 6.26065 1.87006 7.98749C1.29567 9.37042 1 10.8531 1 12.3506C1 13.8481 1.29567 15.3308 1.87006 16.7137C2.737 18.7803 4.19504 20.5447 6.06118 21.7855C7.92733 23.0264 10.1184 23.6883 12.3594 23.6883C14.6005 23.6883 16.7915 23.0264 18.6577 21.7855C20.5238 20.5447 21.9819 18.7803 22.8488 16.7137C23.4232 15.3308 23.7189 13.8481 23.7189 12.3506C23.7189 10.8531 23.4232 9.37042 22.8488 7.98749ZM13.1719 22.125V17.25H16.5032C16.0038 18.9664 15.176 20.5696 14.0657 21.9706C13.7488 22.0194 13.4644 22.06 13.1719 22.125ZM10.6857 22.0112C9.57537 20.6103 8.74756 19.0071 8.24818 17.2906H11.5469V22.125C11.2544 22.06 10.9701 22.0194 10.6857 21.9706V22.0112ZM2.60943 12.375C2.6138 11.2673 2.80611 10.1683 3.17818 9.12499H6.15193C5.76189 11.2741 5.76189 13.4759 6.15193 15.625H3.17818C2.80611 14.5816 2.6138 13.4827 2.60943 12.375ZM7.48443 12.375C7.48914 11.2838 7.59796 10.1955 7.80943 9.12499H11.5469V15.625H7.80943C7.59796 14.5545 7.48914 13.4662 7.48443 12.375ZM11.5469 2.66562V7.54062H8.21568C8.71506 5.82417 9.54287 4.22098 10.6532 2.81999C10.9701 2.73062 11.2544 2.68999 11.5469 2.66562ZM14.0332 2.77937C15.1435 4.18035 15.9713 5.78354 16.4707 7.49999H13.1719V2.66562C13.4644 2.68999 13.7488 2.73062 14.0332 2.77937ZM13.1719 15.625V9.12499H16.9094C17.1209 10.1955 17.2297 11.2838 17.2344 12.375C17.2297 13.4662 17.1209 14.5545 16.9094 15.625H13.1719ZM18.5669 9.12499H21.5407C22.2989 11.2253 22.2989 13.5247 21.5407 15.625H18.5669C18.957 13.4759 18.957 11.2741 18.5669 9.12499ZM20.7932 7.49999H18.2013C17.8275 6.13625 17.2814 4.8257 16.5763 3.59999C18.3388 4.45124 19.8071 5.80921 20.7932 7.49999ZM8.14256 3.59999C7.43746 4.8257 6.8914 6.13625 6.51756 7.49999H3.92568C4.91174 5.80921 6.38005 4.45124 8.14256 3.59999ZM3.92568 17.25H6.51756C6.8914 18.6137 7.43746 19.9243 8.14256 21.15C6.38005 20.2987 4.91174 18.9408 3.92568 17.25ZM16.5763 21.15C17.2814 19.9243 17.8275 18.6137 18.2013 17.25H20.7932C19.8071 18.9408 18.3388 20.2987 16.5763 21.15Z" fill="url(#paint0_linear_937_381)"/>
</svg>
