<svg width="31" height="31" viewBox="0 0 31 31" fill="none" xmlns="http://www.w3.org/2000/svg">
<defs>
<filter id="filter0_d_1263_9058" x="0" y="-1" width="32" height="32" filterUnits="userSpaceOnUse" color-interpolation-filters="sRGB">
<feFlood flood-opacity="0" result="BackgroundImageFix"/>
<feColorMatrix in="SourceAlpha" type="matrix" values="0 0 0 0 0 0 0 0 0 0 0 0 0 0 0 0 0 0 127 0" result="hardAlpha"/>
<feOffset dx="1" dy="1"/>
<feGaussianBlur stdDeviation="1"/>
<feComposite in2="hardAlpha" operator="out"/>
<feColorMatrix type="matrix" values="0 0 0 0 0 0 0 0 0 0 0 0 0 0 0 0 0 0 0.25 0"/>
<feBlend mode="normal" in2="BackgroundImageFix" result="effect1_dropShadow_1263_9058"/>
<feBlend mode="normal" in="SourceGraphic" in2="effect1_dropShadow_1263_9058" result="shape"/>
</filter>
<linearGradient id="paint0_linear_1263_9058" x1="14.5543" y1="1.76648" x2="14.5543" y2="27.125" gradientUnits="userSpaceOnUse">
<stop stop-color="#FFB168" stop-opacity="0.5"/>
<stop offset="1" stop-color="#FFEAAD"/>
</linearGradient>
<linearGradient id="paint1_linear_1263_9058" x1="14.5543" y1="1.76648" x2="14.5543" y2="27.125" gradientUnits="userSpaceOnUse">
<stop stop-color="#FFB168" stop-opacity="0.5"/>
<stop offset="1" stop-color="#FFEAAD"/>
</linearGradient>
<linearGradient id="paint2_linear_1263_9058" x1="14.5543" y1="1.76648" x2="14.5543" y2="27.125" gradientUnits="userSpaceOnUse">
<stop stop-color="#FFB168" stop-opacity="0.5"/>
<stop offset="1" stop-color="#FFEAAD"/>
</linearGradient>
</defs>
<g filter="url(#filter0_d_1263_9058)">
<path d="M3.19606 1.76746C2.84956 1.75434 2.50393 1.87246 2.24231 2.13496C1.71906 2.65734 1.76981 3.51746 2.29481 4.04334L12.5883 14.3368L11.9697 14.9555C11.9173 15.0082 11.8793 15.0734 11.8591 15.1449C11.8389 15.2164 11.8373 15.2919 11.8544 15.3642C11.8715 15.4365 11.9067 15.5033 11.9567 15.5582C12.0067 15.6132 12.0699 15.6545 12.1403 15.6782L13.4633 16.121C13.3303 16.5628 13.4738 17.0765 13.8256 17.4282C14.1948 17.7966 14.7417 17.9392 15.1967 17.7721C15.2037 17.9095 15.2019 17.9191 15.2142 18.1151C15.2877 19.3348 15.4583 21.784 15.8424 26.7216C15.851 26.831 15.9004 26.9332 15.9808 27.0079C16.0611 27.0826 16.1667 27.1244 16.2764 27.125C17.3575 27.1263 18.4329 26.9691 19.4684 26.6586C19.5656 26.6294 19.6497 26.5674 19.7062 26.4831C19.7627 26.3989 19.7881 26.2976 19.7782 26.1966C19.6907 25.3155 19.6679 25.0267 19.6329 24.6365C19.9479 24.913 20.2026 25.1343 20.9524 25.7871C21.0193 25.8447 21.1021 25.8807 21.1899 25.8904C21.2777 25.9001 21.3663 25.883 21.4442 25.8413C21.7592 25.6733 22.0654 25.4905 22.3638 25.2927C22.3644 25.2927 22.365 25.2927 22.3656 25.2927C23.8668 24.2915 25.097 22.9344 25.9465 21.3423C26.796 19.7502 27.2383 17.9727 27.2341 16.1682C27.2336 16.0593 27.1926 15.9545 27.119 15.8742C27.0453 15.7939 26.9444 15.744 26.8359 15.7342C21.9902 15.2967 19.5673 15.0998 18.3511 15.0115C18.1008 14.994 18.0676 14.994 17.9083 14.9843C18.0221 14.5512 17.8794 14.0577 17.5373 13.7156C17.1856 13.3647 16.6711 13.2203 16.2283 13.3542L15.7873 12.0312C15.7569 11.9407 15.6976 11.8626 15.6186 11.8088C15.5396 11.7551 15.4452 11.7287 15.3498 11.7337C15.2417 11.7391 15.1395 11.7843 15.0628 11.8606L14.4442 12.4792L4.15156 2.18746C3.88906 1.92496 3.54256 1.77971 3.19606 1.76746ZM3.17506 2.63546C3.29581 2.64159 3.42268 2.69671 3.53293 2.80609L13.8256 13.0978L13.5167 13.4085L13.2069 13.7182L2.91343 3.42471C2.69468 3.20596 2.69818 2.91546 2.86093 2.75271C2.90222 2.71209 2.95162 2.68064 3.00591 2.66044C3.06019 2.64023 3.11726 2.63172 3.17506 2.63546ZM10.1978 2.65034C10.0818 2.65034 9.97049 2.69643 9.88845 2.77848C9.8064 2.86053 9.76031 2.9718 9.76031 3.08784C9.76031 3.20387 9.8064 3.31515 9.88845 3.3972C9.97049 3.47924 10.0818 3.52534 10.1978 3.52534C10.3138 3.52534 10.4251 3.47924 10.5072 3.3972C10.5892 3.31515 10.6353 3.20387 10.6353 3.08784C10.6353 2.9718 10.5892 2.86053 10.5072 2.77848C10.4251 2.69643 10.3138 2.65034 10.1978 2.65034ZM6.65843 2.65209C6.5424 2.65789 6.43342 2.70955 6.35548 2.7957C6.27754 2.88185 6.23701 2.99543 6.24281 3.11146C6.24861 3.22749 6.30027 3.33647 6.38642 3.41441C6.47257 3.49236 6.58615 3.53289 6.70218 3.52709H8.45218C8.56821 3.52709 8.67949 3.48099 8.76154 3.39895C8.84359 3.3169 8.88968 3.20562 8.88968 3.08959C8.88968 2.97355 8.84359 2.86228 8.76154 2.78023C8.67949 2.69818 8.56821 2.65209 8.45218 2.65209H6.70218C6.68761 2.65136 6.67301 2.65136 6.65843 2.65209ZM8.41018 4.40209C8.29415 4.40777 8.18513 4.45932 8.1071 4.54539C8.02908 4.63145 7.98843 4.74499 7.99412 4.86102C7.99981 4.97706 8.05135 5.08608 8.13742 5.1641C8.22349 5.24213 8.33702 5.28277 8.45306 5.27709H11.9531C12.0691 5.27709 12.1804 5.23099 12.2624 5.14895C12.3445 5.0669 12.3906 4.95562 12.3906 4.83959C12.3906 4.72356 12.3445 4.61228 12.2624 4.53023C12.1804 4.44818 12.0691 4.40209 11.9531 4.40209H8.45306C8.43848 4.40136 8.42476 4.40136 8.41018 4.40209ZM15.1809 12.9797L15.4907 13.9072L14.0154 15.3825L13.0888 15.0736L13.4939 14.6667C13.4999 14.661 13.5058 14.6552 13.5114 14.6492L14.1353 14.028L14.7539 13.4067L15.1809 12.9797ZM16.6159 14.1758C16.7104 14.1863 16.8172 14.2336 16.9187 14.3351C17.1208 14.5363 17.1068 14.7638 17.0132 14.8575L14.9674 16.905C14.8729 16.9995 14.6463 17.0117 14.4442 16.8087C14.2429 16.6075 14.2543 16.38 14.3479 16.2863L14.4101 16.2233C14.4324 16.205 14.453 16.1845 14.4713 16.1621L16.2738 14.3605C16.2928 14.3445 16.3103 14.3269 16.3263 14.308L16.3946 14.2388C16.4409 14.1925 16.5214 14.1662 16.6159 14.1758ZM17.2879 15.8217C17.4367 15.8305 17.7106 15.841 18.2881 15.883C19.4256 15.9652 21.9631 16.1761 26.2812 16.5637C26.1832 19.0933 25.2084 21.5118 23.4147 23.3056C22.9458 23.7742 22.4317 24.1954 21.8799 24.563C21.6874 24.6907 21.4862 24.8027 21.2876 24.9173L19.6671 23.5033L19.4308 23.2968L19.4177 23.2828C19.4142 23.2796 19.4107 23.2764 19.4072 23.2732H19.4037C19.3493 23.2224 19.2828 23.1864 19.2106 23.1685C19.1383 23.1506 19.0627 23.1514 18.9909 23.1708C18.9191 23.1903 18.8534 23.2277 18.8001 23.2796C18.7468 23.3315 18.7076 23.3962 18.6862 23.4675L18.6704 23.534L18.6687 23.5655L18.6669 23.5996C18.6738 23.7269 18.6826 23.8541 18.6932 23.9811C18.7159 24.2672 18.7833 24.9873 18.8726 25.9043C18.6687 25.9577 18.4666 26.0155 18.2592 26.0566C17.7429 26.159 17.2127 26.1878 16.6816 26.2088C16.3377 21.77 16.1566 19.208 16.0866 18.0608C16.0667 17.7595 16.0513 17.4579 16.0402 17.1561C16.0651 17.1133 16.0826 17.0665 16.0918 17.0178L17.2879 15.8217ZM17.8471 16.6827C17.735 16.6847 17.628 16.7296 17.5481 16.8081C17.4682 16.8866 17.4215 16.9928 17.4175 17.1048C17.4136 17.2168 17.4528 17.326 17.527 17.4099C17.6012 17.4939 17.7048 17.5461 17.8164 17.556L24.6449 18.1378C24.7606 18.1478 24.8755 18.1114 24.9644 18.0367C25.0532 17.9619 25.1088 17.855 25.1187 17.7393C25.1287 17.6236 25.0923 17.5087 25.0176 17.4198C24.9428 17.331 24.8359 17.2754 24.7202 17.2655L17.8899 16.6845C17.8754 16.6837 17.8608 16.6837 17.8462 16.6845L17.8471 16.6827Z" fill="white"/>
<path d="M3.19606 1.76746C2.84956 1.75434 2.50393 1.87246 2.24231 2.13496C1.71906 2.65734 1.76981 3.51746 2.29481 4.04334L12.5883 14.3368L11.9697 14.9555C11.9173 15.0082 11.8793 15.0734 11.8591 15.1449C11.8389 15.2164 11.8373 15.2919 11.8544 15.3642C11.8715 15.4365 11.9067 15.5033 11.9567 15.5582C12.0067 15.6132 12.0699 15.6545 12.1403 15.6782L13.4633 16.121C13.3303 16.5628 13.4738 17.0765 13.8256 17.4282C14.1948 17.7966 14.7417 17.9392 15.1967 17.7721C15.2037 17.9095 15.2019 17.9191 15.2142 18.1151C15.2877 19.3348 15.4583 21.784 15.8424 26.7216C15.851 26.831 15.9004 26.9332 15.9808 27.0079C16.0611 27.0826 16.1667 27.1244 16.2764 27.125C17.3575 27.1263 18.4329 26.9691 19.4684 26.6586C19.5656 26.6294 19.6497 26.5674 19.7062 26.4831C19.7627 26.3989 19.7881 26.2976 19.7782 26.1966C19.6907 25.3155 19.6679 25.0267 19.6329 24.6365C19.9479 24.913 20.2026 25.1343 20.9524 25.7871C21.0193 25.8447 21.1021 25.8807 21.1899 25.8904C21.2777 25.9001 21.3663 25.883 21.4442 25.8413C21.7592 25.6733 22.0654 25.4905 22.3638 25.2927C22.3644 25.2927 22.365 25.2927 22.3656 25.2927C23.8668 24.2915 25.097 22.9344 25.9465 21.3423C26.796 19.7502 27.2383 17.9727 27.2341 16.1682C27.2336 16.0593 27.1926 15.9545 27.119 15.8742C27.0453 15.7939 26.9444 15.744 26.8359 15.7342C21.9902 15.2967 19.5673 15.0998 18.3511 15.0115C18.1008 14.994 18.0676 14.994 17.9083 14.9843C18.0221 14.5512 17.8794 14.0577 17.5373 13.7156C17.1856 13.3647 16.6711 13.2203 16.2283 13.3542L15.7873 12.0312C15.7569 11.9407 15.6976 11.8626 15.6186 11.8088C15.5396 11.7551 15.4452 11.7287 15.3498 11.7337C15.2417 11.7391 15.1395 11.7843 15.0628 11.8606L14.4442 12.4792L4.15156 2.18746C3.88906 1.92496 3.54256 1.77971 3.19606 1.76746ZM3.17506 2.63546C3.29581 2.64159 3.42268 2.69671 3.53293 2.80609L13.8256 13.0978L13.5167 13.4085L13.2069 13.7182L2.91343 3.42471C2.69468 3.20596 2.69818 2.91546 2.86093 2.75271C2.90222 2.71209 2.95162 2.68064 3.00591 2.66044C3.06019 2.64023 3.11726 2.63172 3.17506 2.63546ZM10.1978 2.65034C10.0818 2.65034 9.97049 2.69643 9.88845 2.77848C9.8064 2.86053 9.76031 2.9718 9.76031 3.08784C9.76031 3.20387 9.8064 3.31515 9.88845 3.3972C9.97049 3.47924 10.0818 3.52534 10.1978 3.52534C10.3138 3.52534 10.4251 3.47924 10.5072 3.3972C10.5892 3.31515 10.6353 3.20387 10.6353 3.08784C10.6353 2.9718 10.5892 2.86053 10.5072 2.77848C10.4251 2.69643 10.3138 2.65034 10.1978 2.65034ZM6.65843 2.65209C6.5424 2.65789 6.43342 2.70955 6.35548 2.7957C6.27754 2.88185 6.23701 2.99543 6.24281 3.11146C6.24861 3.22749 6.30027 3.33647 6.38642 3.41441C6.47257 3.49236 6.58615 3.53289 6.70218 3.52709H8.45218C8.56821 3.52709 8.67949 3.48099 8.76154 3.39895C8.84359 3.3169 8.88968 3.20562 8.88968 3.08959C8.88968 2.97355 8.84359 2.86228 8.76154 2.78023C8.67949 2.69818 8.56821 2.65209 8.45218 2.65209H6.70218C6.68761 2.65136 6.67301 2.65136 6.65843 2.65209ZM8.41018 4.40209C8.29415 4.40777 8.18513 4.45932 8.1071 4.54539C8.02908 4.63145 7.98843 4.74499 7.99412 4.86102C7.99981 4.97706 8.05135 5.08608 8.13742 5.1641C8.22349 5.24213 8.33702 5.28277 8.45306 5.27709H11.9531C12.0691 5.27709 12.1804 5.23099 12.2624 5.14895C12.3445 5.0669 12.3906 4.95562 12.3906 4.83959C12.3906 4.72356 12.3445 4.61228 12.2624 4.53023C12.1804 4.44818 12.0691 4.40209 11.9531 4.40209H8.45306C8.43848 4.40136 8.42476 4.40136 8.41018 4.40209ZM15.1809 12.9797L15.4907 13.9072L14.0154 15.3825L13.0888 15.0736L13.4939 14.6667C13.4999 14.661 13.5058 14.6552 13.5114 14.6492L14.1353 14.028L14.7539 13.4067L15.1809 12.9797ZM16.6159 14.1758C16.7104 14.1863 16.8172 14.2336 16.9187 14.3351C17.1208 14.5363 17.1068 14.7638 17.0132 14.8575L14.9674 16.905C14.8729 16.9995 14.6463 17.0117 14.4442 16.8087C14.2429 16.6075 14.2543 16.38 14.3479 16.2863L14.4101 16.2233C14.4324 16.205 14.453 16.1845 14.4713 16.1621L16.2738 14.3605C16.2928 14.3445 16.3103 14.3269 16.3263 14.308L16.3946 14.2388C16.4409 14.1925 16.5214 14.1662 16.6159 14.1758ZM17.2879 15.8217C17.4367 15.8305 17.7106 15.841 18.2881 15.883C19.4256 15.9652 21.9631 16.1761 26.2812 16.5637C26.1832 19.0933 25.2084 21.5118 23.4147 23.3056C22.9458 23.7742 22.4317 24.1954 21.8799 24.563C21.6874 24.6907 21.4862 24.8027 21.2876 24.9173L19.6671 23.5033L19.4308 23.2968L19.4177 23.2828C19.4142 23.2796 19.4107 23.2764 19.4072 23.2732H19.4037C19.3493 23.2224 19.2828 23.1864 19.2106 23.1685C19.1383 23.1506 19.0627 23.1514 18.9909 23.1708C18.9191 23.1903 18.8534 23.2277 18.8001 23.2796C18.7468 23.3315 18.7076 23.3962 18.6862 23.4675L18.6704 23.534L18.6687 23.5655L18.6669 23.5996C18.6738 23.7269 18.6826 23.8541 18.6932 23.9811C18.7159 24.2672 18.7833 24.9873 18.8726 25.9043C18.6687 25.9577 18.4666 26.0155 18.2592 26.0566C17.7429 26.159 17.2127 26.1878 16.6816 26.2088C16.3377 21.77 16.1566 19.208 16.0866 18.0608C16.0667 17.7595 16.0513 17.4579 16.0402 17.1561C16.0651 17.1133 16.0826 17.0665 16.0918 17.0178L17.2879 15.8217ZM17.8471 16.6827C17.735 16.6847 17.628 16.7296 17.5481 16.8081C17.4682 16.8866 17.4215 16.9928 17.4175 17.1048C17.4136 17.2168 17.4528 17.326 17.527 17.4099C17.6012 17.4939 17.7048 17.5461 17.8164 17.556L24.6449 18.1378C24.7606 18.1478 24.8755 18.1114 24.9644 18.0367C25.0532 17.9619 25.1088 17.855 25.1187 17.7393C25.1287 17.6236 25.0923 17.5087 25.0176 17.4198C24.9428 17.331 24.8359 17.2754 24.7202 17.2655L17.8899 16.6845C17.8754 16.6837 17.8608 16.6837 17.8462 16.6845L17.8471 16.6827Z" fill="url(#paint0_linear_1263_9058)"/>
<path fill-rule="evenodd" clip-rule="evenodd" d="M17.2879 15.8217C17.4367 15.8305 17.7106 15.841 18.2881 15.883C19.4256 15.9652 21.9631 16.1761 26.2812 16.5637C26.1832 19.0933 25.2084 21.5118 23.4147 23.3056C22.9458 23.7742 22.4317 24.1954 21.8799 24.563C21.6874 24.6907 21.4862 24.8027 21.2876 24.9173L19.6671 23.5033L19.4308 23.2968L19.4177 23.2828L19.4072 23.2732H19.4037C19.3493 23.2224 19.2828 23.1864 19.2106 23.1685C19.1383 23.1506 19.0627 23.1514 18.9909 23.1708C18.9191 23.1903 18.8534 23.2277 18.8001 23.2796C18.7468 23.3315 18.7076 23.3962 18.6862 23.4675L18.6704 23.534L18.6687 23.5655L18.6669 23.5996C18.6738 23.7269 18.6826 23.8541 18.6932 23.9811C18.7159 24.2672 18.7833 24.9873 18.8726 25.9043C18.6687 25.9577 18.4666 26.0155 18.2592 26.0566C17.7429 26.159 17.2127 26.1878 16.6816 26.2088C16.3377 21.77 16.1566 19.208 16.0866 18.0608C16.0667 17.7595 16.0513 17.4579 16.0402 17.1561C16.0651 17.1133 16.0826 17.0665 16.0918 17.0178L17.2879 15.8217ZM17.8471 16.6827C17.8473 16.6827 17.8468 16.6827 17.8471 16.6827L17.8462 16.6845C17.8608 16.6837 17.8754 16.6837 17.8899 16.6845L24.7202 17.2655C24.8359 17.2754 24.9428 17.331 25.0176 17.4198C25.0923 17.5087 25.1287 17.6236 25.1187 17.7393C25.1088 17.855 25.0532 17.9619 24.9644 18.0367C24.8755 18.1114 24.7606 18.1478 24.6449 18.1378L17.8164 17.556C17.7048 17.5461 17.6012 17.4939 17.527 17.4099C17.4528 17.326 17.4136 17.2168 17.4175 17.1048C17.4215 16.9928 17.4682 16.8866 17.5481 16.8081C17.628 16.7296 17.735 16.6847 17.8471 16.6827Z" fill="white"/>
<path fill-rule="evenodd" clip-rule="evenodd" d="M17.2879 15.8217C17.4367 15.8305 17.7106 15.841 18.2881 15.883C19.4256 15.9652 21.9631 16.1761 26.2812 16.5637C26.1832 19.0933 25.2084 21.5118 23.4147 23.3056C22.9458 23.7742 22.4317 24.1954 21.8799 24.563C21.6874 24.6907 21.4862 24.8027 21.2876 24.9173L19.6671 23.5033L19.4308 23.2968L19.4177 23.2828L19.4072 23.2732H19.4037C19.3493 23.2224 19.2828 23.1864 19.2106 23.1685C19.1383 23.1506 19.0627 23.1514 18.9909 23.1708C18.9191 23.1903 18.8534 23.2277 18.8001 23.2796C18.7468 23.3315 18.7076 23.3962 18.6862 23.4675L18.6704 23.534L18.6687 23.5655L18.6669 23.5996C18.6738 23.7269 18.6826 23.8541 18.6932 23.9811C18.7159 24.2672 18.7833 24.9873 18.8726 25.9043C18.6687 25.9577 18.4666 26.0155 18.2592 26.0566C17.7429 26.159 17.2127 26.1878 16.6816 26.2088C16.3377 21.77 16.1566 19.208 16.0866 18.0608C16.0667 17.7595 16.0513 17.4579 16.0402 17.1561C16.0651 17.1133 16.0826 17.0665 16.0918 17.0178L17.2879 15.8217ZM17.8471 16.6827C17.8473 16.6827 17.8468 16.6827 17.8471 16.6827L17.8462 16.6845C17.8608 16.6837 17.8754 16.6837 17.8899 16.6845L24.7202 17.2655C24.8359 17.2754 24.9428 17.331 25.0176 17.4198C25.0923 17.5087 25.1287 17.6236 25.1187 17.7393C25.1088 17.855 25.0532 17.9619 24.9644 18.0367C24.8755 18.1114 24.7606 18.1478 24.6449 18.1378L17.8164 17.556C17.7048 17.5461 17.6012 17.4939 17.527 17.4099C17.4528 17.326 17.4136 17.2168 17.4175 17.1048C17.4215 16.9928 17.4682 16.8866 17.5481 16.8081C17.628 16.7296 17.735 16.6847 17.8471 16.6827Z" fill="url(#paint1_linear_1263_9058)"/>
<path d="M3.17506 2.63546C3.29581 2.64159 3.42268 2.69671 3.53293 2.80609L13.8256 13.0978L13.5167 13.4085L13.2069 13.7182L2.91343 3.42471C2.69468 3.20596 2.69818 2.91546 2.86093 2.75271C2.90222 2.71209 2.95162 2.68064 3.00591 2.66044C3.06019 2.64023 3.11726 2.63172 3.17506 2.63546Z" fill="white"/>
<path d="M3.17506 2.63546C3.29581 2.64159 3.42268 2.69671 3.53293 2.80609L13.8256 13.0978L13.5167 13.4085L13.2069 13.7182L2.91343 3.42471C2.69468 3.20596 2.69818 2.91546 2.86093 2.75271C2.90222 2.71209 2.95162 2.68064 3.00591 2.66044C3.06019 2.64023 3.11726 2.63172 3.17506 2.63546Z" fill="url(#paint2_linear_1263_9058)"/>
</g>
</svg>
