<svg width="24" height="24" viewBox="0 0 24 24" fill="none" xmlns="http://www.w3.org/2000/svg">
<defs>
<linearGradient id="paint0_linear_169_2213" x1="18.6818" y1="16.725" x2="6.54231" y2="3.9562" gradientUnits="userSpaceOnUse">
<stop stop-color="#3258F3"/>
<stop offset="1" stop-color="#56B6FD"/>
</linearGradient>
<clipPath id="clip0_169_2213">
<rect width="24" height="24" fill="white"/>
</clipPath>
</defs>
<g clip-path="url(#clip0_169_2213)">
<circle cx="12" cy="12" r="12" fill="#D3E1F6"/>
<path d="M16.5108 8.89452C16.0827 7.92847 15.3438 7.12692 14.4075 6.61269C13.4711 6.09846 12.3888 5.89992 11.3266 6.04749C10.2643 6.19507 9.28061 6.68062 8.52622 7.42973C7.77184 8.17885 7.28838 9.15022 7.14994 10.195C6.48192 10.3521 5.89591 10.7446 5.5032 11.2981C5.11049 11.8515 4.93843 12.5273 5.01969 13.1972C5.10095 13.867 5.42988 14.4842 5.94401 14.9316C6.45813 15.3789 7.12166 15.6253 7.80857 15.6239C7.99439 15.6239 8.17261 15.5514 8.30401 15.4223C8.43541 15.2933 8.50923 15.1183 8.50923 14.9358C8.50923 14.7533 8.43541 14.5783 8.30401 14.4492C8.17261 14.3202 7.99439 14.2477 7.80857 14.2477C7.43691 14.2477 7.08048 14.1027 6.81768 13.8447C6.55488 13.5866 6.40724 13.2365 6.40724 12.8716C6.40724 12.5066 6.55488 12.1566 6.81768 11.8985C7.08048 11.6404 7.43691 11.4954 7.80857 11.4954C7.99439 11.4954 8.17261 11.4229 8.30401 11.2939C8.43541 11.1649 8.50923 10.9898 8.50923 10.8074C8.51102 9.99356 8.80651 9.20673 9.34321 8.58666C9.87991 7.96659 10.6231 7.55343 11.4406 7.42058C12.2582 7.28773 13.0973 7.44379 13.8087 7.86104C14.5202 8.27829 15.0581 8.92971 15.3267 9.69956C15.3667 9.8178 15.4387 9.92314 15.535 10.0043C15.6312 10.0855 15.7481 10.1395 15.8732 10.1606C16.3399 10.2472 16.763 10.4864 17.0735 10.8394C17.384 11.1923 17.5636 11.6381 17.5831 12.1041C17.6026 12.5701 17.4608 13.0289 17.1809 13.4057C16.9009 13.7824 16.4992 14.055 16.0414 14.1789C15.8611 14.2245 15.7067 14.3386 15.6121 14.496C15.5175 14.6535 15.4904 14.8413 15.5369 15.0184C15.5833 15.1954 15.6995 15.347 15.8598 15.4399C16.0201 15.5328 16.2114 15.5594 16.3917 15.5138C17.1291 15.3224 17.7827 14.9 18.2534 14.3106C18.724 13.7213 18.986 12.9972 18.9995 12.2484C19.0129 11.4995 18.7772 10.7668 18.328 10.1615C17.8789 9.55617 17.2408 9.11133 16.5108 8.89452ZM12.51 10.3188C12.4434 10.2562 12.3648 10.2071 12.2788 10.1743C12.1082 10.1055 11.9169 10.1055 11.7463 10.1743C11.6603 10.2071 11.5817 10.2562 11.5151 10.3188L9.41309 12.383C9.28115 12.5126 9.20703 12.6883 9.20703 12.8716C9.20703 13.0548 9.28115 13.2305 9.41309 13.3601C9.54502 13.4897 9.72397 13.5625 9.91056 13.5625C10.0971 13.5625 10.2761 13.4897 10.408 13.3601L11.3119 12.4656V16.3119C11.3119 16.4944 11.3857 16.6694 11.5171 16.7985C11.6485 16.9275 11.8267 17 12.0125 17C12.1984 17 12.3766 16.9275 12.508 16.7985C12.6394 16.6694 12.7132 16.4944 12.7132 16.3119V12.4656L13.6171 13.3601C13.6822 13.4246 13.7597 13.4758 13.8451 13.5107C13.9305 13.5456 14.022 13.5636 14.1145 13.5636C14.207 13.5636 14.2986 13.5456 14.384 13.5107C14.4694 13.4758 14.5469 13.4246 14.612 13.3601C14.6777 13.2961 14.7298 13.22 14.7654 13.1362C14.801 13.0523 14.8193 12.9624 14.8193 12.8716C14.8193 12.7807 14.801 12.6908 14.7654 12.607C14.7298 12.5231 14.6777 12.447 14.612 12.383L12.51 10.3188Z" fill="url(#paint0_linear_169_2213)"/>
</g>
</svg>
