<svg width="61" height="28" viewBox="0 0 61 28" fill="none" xmlns="http://www.w3.org/2000/svg">
<path d="M51.0687 6.46404C49.6713 6.46294 48.2899 6.68377 47.0175 7.11165C46.2726 5.75663 45.0003 4.59647 43.3625 3.77886C41.7247 2.96126 39.7955 2.5232 37.8206 2.52046C35.528 2.5225 33.3083 3.11747 31.5448 4.20267C30.2583 2.70074 28.403 1.51285 26.2106 0.787316C24.0183 0.0617858 21.586 -0.169232 19.2174 0.123109C16.8489 0.41545 14.6491 1.2182 12.8927 2.43111C11.1363 3.64403 9.90117 5.21336 9.34149 6.94316C9.02076 6.91447 8.69796 6.90041 8.3749 6.90104C6.38789 6.92459 4.47465 7.46249 2.96686 8.42147C1.45908 9.38046 0.451818 10.7001 0.119709 12.1515C-0.2124 13.603 0.151582 15.0948 1.14855 16.3683C2.14552 17.6418 3.71262 18.6167 5.57816 19.124C6.09731 20.6297 7.36328 21.9351 9.12376 22.7802C10.8842 23.6252 13.0099 23.9478 15.0771 23.6836C16.0451 25.0098 17.4862 26.1135 19.2431 26.8745C21 27.6354 23.0052 28.0244 25.04 27.9988C27.0749 27.9733 29.0612 27.5343 30.7823 26.7297C32.5033 25.9251 33.8931 24.7858 34.8 23.4361C35.574 24.021 36.4981 24.4853 37.5178 24.8018C38.5376 25.1182 39.6325 25.2805 40.7381 25.2789C42.4564 25.2743 44.1314 24.879 45.5366 24.1464C46.9418 23.4139 48.0095 22.3793 48.5953 21.1827C49.4076 21.3388 50.2437 21.4166 51.0829 21.4143C53.73 21.3776 56.252 20.5727 58.1065 19.1729C59.961 17.7731 61 15.89 61 13.9287C61 11.9673 59.961 10.0843 58.1065 8.68442C56.252 7.28459 53.73 6.47975 51.0829 6.44298L51.0687 6.46404Z" fill="white"/>
</svg>
