<svg width="85" height="53" viewBox="0 0 85 53" fill="none" xmlns="http://www.w3.org/2000/svg">
<defs>
<clipPath id="clip0_620_11739">
<rect width="85" height="38" fill="white" transform="translate(0 15)"/>
</clipPath>
</defs>
<g clip-path="url(#clip0_620_11739)">
<path d="M80.8965 34.6111C80.9945 34.1665 81.0446 33.7186 81.0466 33.2701C81.0477 31.59 80.3575 29.935 79.0359 28.4486C77.7144 26.9621 75.8012 25.689 73.4622 24.7394C71.1231 23.7898 68.4287 23.1925 65.6123 22.999C62.7958 22.8056 59.9423 23.0219 57.2987 23.6293C56.4033 21.1092 54.0274 18.8592 50.5942 17.2801C47.1611 15.7011 42.8935 14.8953 38.5515 15.0065C34.2096 15.1176 30.0752 16.1384 26.8846 17.8871C23.694 19.6357 21.6544 21.9987 21.1291 24.5551C17.3812 24.8922 13.9611 26.0138 11.4885 27.7165C9.01597 29.4192 7.65454 31.5905 7.65095 33.8368C7.65095 33.9818 7.65095 34.1268 7.65095 34.2718C3.09708 35.6359 0 38.2586 0 41.2668C0 45.6853 6.67234 49.2668 14.8904 49.2668C17.6257 49.2724 20.3176 48.8617 22.7082 48.0741C25.8386 50.9769 32.9391 53.0164 41.2017 53.0164C48.3578 53.0164 54.6464 51.4942 58.2328 49.2009C61.1186 50.6101 64.7411 51.3812 68.4804 51.3821C77.6048 51.3821 85 46.8616 85 41.2833C85.0185 38.8405 83.5631 36.4741 80.8965 34.6111Z" fill="white"/>
</g>
<path d="M84.9446 43.1691C84.9446 42.7964 85 42.4332 85 42.0605C84.9978 37.4584 83.2685 33.0368 80.1765 29.7278C77.0845 26.4188 72.8714 24.4808 68.4251 24.3223C68.9682 22.3323 68.9571 20.224 68.3931 18.2402C67.8291 16.2564 66.735 14.4777 65.2369 13.1087C63.7387 11.7397 61.8973 10.8361 59.9246 10.5018C57.9519 10.1676 55.9281 10.4163 54.086 11.2193C53.3041 7.76056 51.3243 4.71795 48.5208 2.6668C45.7173 0.615646 42.2845 -0.301895 38.8713 0.0876555C35.4582 0.477206 32.3013 2.14685 29.9975 4.7809C27.6938 7.41496 26.4028 10.8309 26.3687 14.3828C26.0915 14.3828 25.8144 14.3828 25.5372 14.3828C22.8004 14.376 20.151 15.3787 18.0647 17.211C15.9784 19.0433 14.5921 21.585 14.1546 24.3796C13.6886 24.3221 13.2196 24.2934 12.7503 24.2936C10.5953 24.2903 8.4748 24.8529 6.58737 25.9287C4.69995 27.0045 3.10739 28.5582 1.95887 30.4444C0.810351 32.3306 0.143467 34.4875 0.0206843 36.7131C-0.102098 38.9386 0.323241 41.16 1.25686 43.1691H84.9446Z" fill="white"/>
</svg>
