<svg width="24" height="24" viewBox="0 0 24 24" fill="none" xmlns="http://www.w3.org/2000/svg">
<defs>
<linearGradient id="paint0_linear_191_2403" x1="18.2086" y1="15.6364" x2="9.81373" y2="5.34412" gradientUnits="userSpaceOnUse">
<stop stop-color="#33A752"/>
<stop offset="1" stop-color="#33A752" stop-opacity="0.5"/>
</linearGradient>
<clipPath id="clip0_191_2403">
<rect width="24" height="24" fill="white"/>
</clipPath>
</defs>
<g clip-path="url(#clip0_191_2403)">
<circle cx="12" cy="12" r="12" fill="#D3E9D9"/>
<path d="M15.6886 9.63138C15.2911 8.75315 14.605 8.02447 13.7355 7.55699C12.866 7.0895 11.8611 6.90901 10.8747 7.04317C9.88828 7.17733 8.97485 7.61874 8.27435 8.29976C7.57385 8.98078 7.12493 9.86383 6.99637 10.8136C6.37607 10.9564 5.83192 11.3133 5.46726 11.8164C5.1026 12.3196 4.94282 12.934 5.01828 13.5429C5.09374 14.1518 5.39917 14.7129 5.87658 15.1196C6.35398 15.5263 6.97011 15.7503 7.60795 15.749C7.78051 15.749 7.94599 15.6831 8.06801 15.5658C8.19002 15.4484 8.25857 15.2893 8.25857 15.1234C8.25857 14.9575 8.19002 14.7984 8.06801 14.6811C7.94599 14.5638 7.78051 14.4979 7.60795 14.4979C7.26285 14.4979 6.93187 14.3661 6.68784 14.1315C6.44381 13.8969 6.30672 13.5787 6.30672 13.2469C6.30672 12.9151 6.44381 12.5969 6.68784 12.3623C6.93187 12.1276 7.26285 11.9958 7.60795 11.9958C7.78051 11.9958 7.94599 11.9299 8.06801 11.8126C8.19002 11.6953 8.25857 11.5362 8.25857 11.3703C8.26023 10.6305 8.53462 9.91521 9.03298 9.35151C9.53134 8.78781 10.2214 8.41221 10.9806 8.29144C11.7398 8.17066 12.5189 8.31254 13.1796 8.69186C13.8402 9.07117 14.3396 9.66337 14.5891 10.3632C14.6263 10.4707 14.6931 10.5665 14.7825 10.6403C14.8719 10.7141 14.9804 10.7632 15.0965 10.7823C15.5299 10.8611 15.9227 11.0786 16.2111 11.3994C16.4994 11.7203 16.6662 12.1256 16.6843 12.5492C16.7024 12.9729 16.5708 13.3899 16.3108 13.7324C16.0508 14.0749 15.6779 14.3227 15.2527 14.4354C15.0853 14.4768 14.9419 14.5805 14.8541 14.7237C14.7662 14.8668 14.7411 15.0376 14.7843 15.1985C14.8274 15.3594 14.9353 15.4973 15.0841 15.5817C15.233 15.6662 15.4106 15.6904 15.578 15.6489C16.2627 15.4749 16.8697 15.0909 17.3067 14.5551C17.7437 14.0194 17.987 13.3611 17.9995 12.6803C18.012 11.9996 17.7931 11.3334 17.376 10.7832C16.959 10.2329 16.3665 9.82848 15.6886 9.63138ZM11.9736 10.9262C11.9117 10.8693 11.8388 10.8246 11.7589 10.7948C11.6005 10.7323 11.4228 10.7323 11.2644 10.7948C11.1846 10.8246 11.1116 10.8693 11.0497 10.9262L9.09787 12.8028C8.97535 12.9206 8.90652 13.0803 8.90652 13.2469C8.90652 13.4135 8.97535 13.5732 9.09787 13.691C9.22038 13.8088 9.38654 13.875 9.5598 13.875C9.73306 13.875 9.89923 13.8088 10.0217 13.691L10.861 12.8778V16.3745C10.861 16.5404 10.9296 16.6995 11.0516 16.8168C11.1736 16.9341 11.3391 17 11.5117 17C11.6842 17 11.8497 16.9341 11.9717 16.8168C12.0937 16.6995 12.1623 16.5404 12.1623 16.3745V12.8778L13.0016 13.691C13.062 13.7496 13.134 13.7962 13.2133 13.8279C13.2926 13.8597 13.3776 13.876 13.4635 13.876C13.5494 13.876 13.6344 13.8597 13.7137 13.8279C13.793 13.7962 13.865 13.7496 13.9254 13.691C13.9864 13.6329 14.0348 13.5637 14.0679 13.4874C14.1009 13.4112 14.1179 13.3295 14.1179 13.2469C14.1179 13.1643 14.1009 13.0825 14.0679 13.0063C14.0348 12.9301 13.9864 12.8609 13.9254 12.8028L11.9736 10.9262Z" fill="url(#paint0_linear_191_2403)"/>
</g>
</svg>
