<svg width="105" height="48" viewBox="0 0 105 48" fill="none" xmlns="http://www.w3.org/2000/svg">
<path d="M100.451 47.7453C102.943 43.9099 104.194 39.4006 104.034 34.8297C103.874 30.2589 102.312 25.8479 99.5583 22.1958C96.805 18.5437 92.9945 15.8275 88.6442 14.4158C84.2938 13.0042 79.6144 12.9656 75.2414 14.3053C73.0329 9.92011 69.6279 6.24988 65.4204 3.71931C61.2129 1.18875 56.3748 -0.0987155 51.466 0.0059049C46.5572 0.110525 41.7784 1.60295 37.6825 4.31049C33.5866 7.01802 30.341 10.83 28.3214 15.3053C24.0573 13.8478 19.4419 13.7736 15.1331 15.0933C10.8244 16.4129 7.04213 19.0591 4.32558 22.6545C1.60904 26.25 0.0968232 30.6113 0.00449438 35.1166C-0.0878344 39.622 1.24444 44.0416 3.8114 47.7453H100.451Z" fill="white"/>
</svg>
