<svg width="24" height="24" viewBox="0 0 24 24" fill="none" xmlns="http://www.w3.org/2000/svg">
<path fill-rule="evenodd" clip-rule="evenodd" d="M14.7071 4.29289C14.3166 3.90237 13.6834 3.90237 13.2929 4.29289C12.9024 4.68342 12.9024 5.31658 13.2929 5.70711L16.5858 9H4.00003C3.44775 9 3.00003 9.44772 3.00003 10C3.00003 10.5523 3.44775 11 4.00003 11H19C19.4045 11 19.7691 10.7564 19.9239 10.3827C20.0787 10.009 19.9931 9.57889 19.7071 9.29289L14.7071 4.29289ZM8.29292 19.7071C8.68345 20.0976 9.31661 20.0976 9.70714 19.7071C10.0977 19.3166 10.0977 18.6834 9.70714 18.2929L6.41424 15H19C19.5523 15 20 14.5523 20 14C20 13.4477 19.5523 13 19 13H4.00003C3.59557 13 3.23093 13.2436 3.07615 13.6173C2.92137 13.991 3.00692 14.4211 3.29292 14.7071L8.29292 19.7071Z" fill="url(#paint0_linear_4349_23859)"/>
<defs>
<linearGradient id="paint0_linear_4349_23859" x1="19.6137" y1="19.6" x2="2.08201" y2="4.20543" gradientUnits="userSpaceOnUse">
<stop stop-color="#3258F3"/>
<stop offset="1" stop-color="#2DA6FF"/>
</linearGradient>
</defs>
</svg>
