<svg width="24" height="24" viewBox="0 0 24 24" fill="none" xmlns="http://www.w3.org/2000/svg">
<defs>
<linearGradient id="paint0_linear_937_428" x1="23.3529" y1="19.273" x2="6.22505" y2="1.50442" gradientUnits="userSpaceOnUse">
<stop stop-color="#33A752"/>
<stop offset="1" stop-color="#8DCB9E"/>
</linearGradient>
<linearGradient id="paint1_linear_937_428" x1="23.3529" y1="19.273" x2="6.22505" y2="1.50442" gradientUnits="userSpaceOnUse">
<stop stop-color="#33A752"/>
<stop offset="1" stop-color="#8DCB9E"/>
</linearGradient>
</defs>
<path d="M19.3333 2.00024H13.2222V10.5941L14.8026 8.60486C15.0331 8.32462 15.3418 8.16955 15.6623 8.17305C15.9827 8.17656 16.2893 8.33836 16.5159 8.6236C16.7425 8.90884 16.871 9.29471 16.8738 9.69809C16.8766 10.1015 16.7534 10.4901 16.5308 10.7802L12.8641 15.3956C12.6349 15.684 12.3241 15.8461 12 15.8461C11.6759 15.8461 11.3651 15.684 11.1359 15.3956L7.46922 10.7802C7.24659 10.4901 7.12339 10.1015 7.12618 9.69809C7.12896 9.29471 7.2575 8.90884 7.48411 8.6236C7.71072 8.33836 8.01727 8.17656 8.33773 8.17305C8.6582 8.16955 8.96693 8.32462 9.19744 8.60486L10.7778 10.5941V2.00024H4.66667C3.6945 2.00147 2.76244 2.48812 2.07501 3.35341C1.38759 4.2187 1.00097 5.39193 1 6.61563V17.3849C1.00097 18.6086 1.38759 19.7818 2.07501 20.6471C2.76244 21.5124 3.6945 21.999 4.66667 22.0002H19.3333C20.3055 21.999 21.2376 21.5124 21.925 20.6471C22.6124 19.7818 22.999 18.6086 23 17.3849V6.61563C22.999 5.39193 22.6124 4.2187 21.925 3.35341C21.2376 2.48812 20.3055 2.00147 19.3333 2.00024Z" fill="url(#paint0_linear_937_428)"/>
<path d="M13.2222 10.5941V2.00024H10.7778V10.5941L9.19744 8.60486C8.96693 8.32462 8.6582 8.16955 8.33773 8.17305C8.01727 8.17656 7.71072 8.33836 7.48411 8.6236C7.2575 8.90884 7.12896 9.29471 7.12618 9.69809C7.12339 10.1015 7.24659 10.4901 7.46922 10.7802L11.1359 15.3956C11.3651 15.684 11.6759 15.8461 12 15.8461C12.3241 15.8461 12.6349 15.684 12.8641 15.3956L16.5308 10.7802C16.7534 10.4901 16.8766 10.1015 16.8738 9.69809C16.871 9.29471 16.7425 8.90884 16.5159 8.6236C16.2893 8.33836 15.9827 8.17656 15.6623 8.17305C15.3418 8.16955 15.0331 8.32462 14.8026 8.60486L13.2222 10.5941Z" fill="url(#paint1_linear_937_428)"/>
<path d="M17.2596 11.7242C17.0096 11.4743 16.6705 11.3339 16.3169 11.3339C15.9634 11.3339 15.6243 11.4743 15.3743 11.7242L13.6503 13.4482V6.33358C13.6503 5.97996 13.5098 5.64082 13.2598 5.39077C13.0097 5.14072 12.6706 5.00024 12.3169 5.00024C11.9633 5.00024 11.6242 5.14072 11.3741 5.39077C11.1241 5.64082 10.9836 5.97996 10.9836 6.33358V13.4482L9.25961 11.7242C9.00815 11.4814 8.67134 11.347 8.32175 11.35C7.97215 11.353 7.63773 11.4933 7.39052 11.7405C7.14331 11.9877 7.00309 12.3221 7.00005 12.6717C6.99701 13.0213 7.1314 13.3581 7.37428 13.6096L11.3743 17.6096C11.6243 17.8595 11.9634 17.9999 12.3169 17.9999C12.6705 17.9999 13.0096 17.8595 13.2596 17.6096L17.2596 13.6096C17.5096 13.3595 17.65 13.0205 17.65 12.6669C17.65 12.3133 17.5096 11.9743 17.2596 11.7242Z" fill="white"/>
</svg>
