<svg width="40" height="40" viewBox="0 0 40 40" fill="none" xmlns="http://www.w3.org/2000/svg">
<circle cx="20" cy="20" r="20" fill="#354D6E" fill-opacity="0.5"/>
<path d="M17.29 21.29L12 26.59V25C12 24.7348 11.8946 24.4804 11.7071 24.2929C11.5196 24.1054 11.2652 24 11 24C10.7348 24 10.4804 24.1054 10.2929 24.2929C10.1054 24.4804 10 24.7348 10 25V29C10.0016 29.1307 10.0288 29.2598 10.08 29.38C10.1815 29.6243 10.3757 29.8185 10.62 29.92C10.7402 29.9712 10.8693 29.9984 11 30H15C15.2652 30 15.5196 29.8946 15.7071 29.7071C15.8946 29.5196 16 29.2652 16 29C16 28.7348 15.8946 28.4804 15.7071 28.2929C15.5196 28.1054 15.2652 28 15 28H13.41L18.71 22.71C18.8983 22.5217 19.0041 22.2663 19.0041 22C19.0041 21.7337 18.8983 21.4783 18.71 21.29C18.5217 21.1017 18.2663 20.9959 18 20.9959C17.7337 20.9959 17.4783 21.1017 17.29 21.29ZM13.41 12H15C15.2652 12 15.5196 11.8946 15.7071 11.7071C15.8946 11.5196 16 11.2652 16 11C16 10.7348 15.8946 10.4804 15.7071 10.2929C15.5196 10.1054 15.2652 10 15 10H11C10.8693 10.0016 10.7402 10.0288 10.62 10.08C10.3757 10.1815 10.1815 10.3757 10.08 10.62C10.0288 10.7402 10.0016 10.8693 10 11V15C10 15.2652 10.1054 15.5196 10.2929 15.7071C10.4804 15.8946 10.7348 16 11 16C11.2652 16 11.5196 15.8946 11.7071 15.7071C11.8946 15.5196 12 15.2652 12 15V13.41L17.29 18.71C17.383 18.8037 17.4936 18.8781 17.6154 18.9289C17.7373 18.9797 17.868 19.0058 18 19.0058C18.132 19.0058 18.2627 18.9797 18.3846 18.9289C18.5064 18.8781 18.617 18.8037 18.71 18.71C18.8037 18.617 18.8781 18.5064 18.9289 18.3846C18.9797 18.2627 19.0058 18.132 19.0058 18C19.0058 17.868 18.9797 17.7373 18.9289 17.6154C18.8781 17.4936 18.8037 17.383 18.71 17.29L13.41 12ZM29 24C28.7348 24 28.4804 24.1054 28.2929 24.2929C28.1054 24.4804 28 24.7348 28 25V26.59L22.71 21.29C22.5217 21.1017 22.2663 20.9959 22 20.9959C21.7337 20.9959 21.4783 21.1017 21.29 21.29C21.1017 21.4783 20.9959 21.7337 20.9959 22C20.9959 22.2663 21.1017 22.5217 21.29 22.71L26.59 28H25C24.7348 28 24.4804 28.1054 24.2929 28.2929C24.1054 28.4804 24 28.7348 24 29C24 29.2652 24.1054 29.5196 24.2929 29.7071C24.4804 29.8946 24.7348 30 25 30H29C29.1307 29.9984 29.2598 29.9712 29.38 29.92C29.6243 29.8185 29.8185 29.6243 29.92 29.38C29.9712 29.2598 29.9984 29.1307 30 29V25C30 24.7348 29.8946 24.4804 29.7071 24.2929C29.5196 24.1054 29.2652 24 29 24ZM29.92 10.62C29.8185 10.3757 29.6243 10.1815 29.38 10.08C29.2598 10.0288 29.1307 10.0016 29 10H25C24.7348 10 24.4804 10.1054 24.2929 10.2929C24.1054 10.4804 24 10.7348 24 11C24 11.2652 24.1054 11.5196 24.2929 11.7071C24.4804 11.8946 24.7348 12 25 12H26.59L21.29 17.29C21.1963 17.383 21.1219 17.4936 21.0711 17.6154C21.0203 17.7373 20.9942 17.868 20.9942 18C20.9942 18.132 21.0203 18.2627 21.0711 18.3846C21.1219 18.5064 21.1963 18.617 21.29 18.71C21.383 18.8037 21.4936 18.8781 21.6154 18.9289C21.7373 18.9797 21.868 19.0058 22 19.0058C22.132 19.0058 22.2627 18.9797 22.3846 18.9289C22.5064 18.8781 22.617 18.8037 22.71 18.71L28 13.41V15C28 15.2652 28.1054 15.5196 28.2929 15.7071C28.4804 15.8946 28.7348 16 29 16C29.2652 16 29.5196 15.8946 29.7071 15.7071C29.8946 15.5196 30 15.2652 30 15V11C29.9984 10.8693 29.9712 10.7402 29.92 10.62Z" fill="white"/>
</svg>
