<svg width="24" height="24" viewBox="0 0 24 24" fill="none" xmlns="http://www.w3.org/2000/svg">
<defs>
<linearGradient id="paint0_linear_169_2231" x1="15.5" y1="17.0909" x2="4.67928" y2="10.2755" gradientUnits="userSpaceOnUse">
<stop stop-color="#F43B2E"/>
<stop offset="1" stop-color="#FF5A7B"/>
</linearGradient>
<clipPath id="clip0_169_2231">
<rect width="24" height="24" fill="white"/>
</clipPath>
</defs>
<g clip-path="url(#clip0_169_2231)">
<circle cx="12" cy="12" r="12" fill="#F73C46" fill-opacity="0.2"/>
<path d="M11.0119 13.8611C10.8849 13.9915 10.8133 14.1677 10.8125 14.3515C10.8127 14.4454 10.8314 14.5383 10.8675 14.6247C10.9296 14.7731 11.04 14.8952 11.1802 14.9703C11.3204 15.0453 11.4817 15.0688 11.6369 15.0367C11.792 15.0045 11.9316 14.9188 12.0319 14.794C12.1322 14.6691 12.1872 14.5128 12.1875 14.3515C12.1867 14.1677 12.1151 13.9915 11.9881 13.8611C11.9242 13.7954 11.8482 13.7433 11.7644 13.7077C11.6806 13.6721 11.5908 13.6538 11.5 13.6538C11.4092 13.6538 11.3194 13.6721 11.2356 13.7077C11.1518 13.7433 11.0758 13.7954 11.0119 13.8611ZM16.7456 6.15479C16.6658 6.08895 16.5724 6.04219 16.4725 6.01794C16.3725 5.99369 16.2685 5.99258 16.1681 6.01467C15.4335 6.17156 14.6751 6.17356 13.9397 6.02055C13.2043 5.86753 12.5074 5.56275 11.8919 5.12495C11.7768 5.0436 11.6401 5 11.5 5C11.3599 5 11.2232 5.0436 11.1081 5.12495C10.4921 5.56155 9.79498 5.86508 9.05957 6.01689C8.32417 6.1687 7.56605 6.16556 6.83188 6.00767C6.73146 5.98557 6.62746 5.98669 6.52752 6.01093C6.42758 6.03518 6.33425 6.08194 6.25438 6.14778C6.17461 6.21372 6.11036 6.29703 6.06634 6.39159C6.02232 6.48615 5.99965 6.58956 6 6.69423V11.9135C5.99939 12.9179 6.23429 13.908 6.68512 14.8012C7.13596 15.6944 7.78969 16.465 8.59188 17.0486L11.1013 18.8701C11.2177 18.9546 11.3571 19 11.5 19C11.6429 19 11.7823 18.9546 11.8987 18.8701L14.4081 17.0486C15.2103 16.465 15.864 15.6944 16.3149 14.8012C16.7657 13.908 17.0006 12.9179 17 11.9135V6.69423C17.0003 6.58956 16.9777 6.48615 16.9337 6.39159C16.8896 6.29703 16.8254 6.21372 16.7456 6.14778V6.15479ZM15.625 11.9135C15.6255 12.6944 15.443 13.4642 15.0926 14.1588C14.7423 14.8534 14.2342 15.4526 13.6106 15.9067L11.5 17.441L9.38938 15.9067C8.76584 15.4526 8.25774 14.8534 7.90737 14.1588C7.55699 13.4642 7.37448 12.6944 7.375 11.9135V7.49988C8.8163 7.62559 10.2598 7.28482 11.5 6.52609C12.7402 7.28482 14.1837 7.62559 15.625 7.49988V11.9135ZM11.5 8.7469C11.1377 8.74666 10.7818 8.84366 10.468 9.02813C10.1542 9.21261 9.89364 9.47805 9.7125 9.79775C9.63031 9.95786 9.612 10.1441 9.66141 10.3177C9.71081 10.4912 9.82411 10.6386 9.97763 10.729C10.1311 10.8194 10.313 10.8459 10.4852 10.8029C10.6575 10.7599 10.8067 10.6508 10.9019 10.4983C10.9622 10.3919 11.0488 10.3036 11.1532 10.2421C11.2576 10.1806 11.376 10.1482 11.4966 10.148C11.6172 10.1479 11.7356 10.1801 11.8401 10.2414C11.9446 10.3026 12.0315 10.3908 12.092 10.4971C12.1525 10.6034 12.1845 10.724 12.1848 10.8469C12.1851 10.9697 12.1536 11.0905 12.0937 11.1971C12.0337 11.3037 11.9473 11.3923 11.8431 11.4541C11.7389 11.5159 11.6206 11.5487 11.5 11.5492C11.3177 11.5492 11.1428 11.623 11.0139 11.7544C10.8849 11.8857 10.8125 12.0639 10.8125 12.2497C10.8125 12.4355 10.8849 12.6137 11.0139 12.7451C11.1428 12.8765 11.3177 12.9503 11.5 12.9503C12.047 12.9503 12.5716 12.7289 12.9584 12.3347C13.3452 11.9406 13.5625 11.406 13.5625 10.8486C13.5625 10.2912 13.3452 9.75662 12.9584 9.36247C12.5716 8.96832 12.047 8.7469 11.5 8.7469Z" fill="url(#paint0_linear_169_2231)"/>
</g>
</svg>
