<svg width="209" height="162" viewBox="0 0 209 162" fill="none" xmlns="http://www.w3.org/2000/svg">
<path d="M160.382 10.442C134.382 -9.15802 91.549 20.6086 73.3823 37.942C66.3812 42.9419 30.8818 37.942 34.8822 72.9419C38.1101 101.183 57.7156 101.442 55.3823 104.442C52.3823 145.442 58.8823 165.442 88.3823 155.942C111.982 148.342 124.216 146.775 127.382 146.942C201.882 155.942 203.882 109.942 189.882 63.4419C178.682 26.2419 165.549 12.6086 160.382 10.442Z" fill="#EDF5F8"/>
<path d="M52.5688 23.8859V57.5H176.569V35.5C176.569 29.9772 172.092 25.5 166.569 25.5H154.569V23.5C154.569 22.9477 154.121 22.5 153.569 22.5H137.069C136.517 22.5 136.069 22.9477 136.069 23.5V25H87.0883C83.0326 25 79.263 22.9107 77.1136 19.4715C76.1526 17.934 74.4674 17 72.6543 17H59.4548C55.6518 17 52.5688 20.0829 52.5688 23.8859Z" fill="#BCD7DE"/>
<rect x="59.5688" y="36" width="110" height="48" rx="6" fill="white"/>
<path d="M59.5688 42.5L169.569 42.5" stroke="#4295FF" stroke-width="0.1"/>
<path d="M59.5688 48.5L169.569 48.5" stroke="#4295FF" stroke-width="0.1"/>
<path d="M59.5688 54.5L169.569 54.5" stroke="#4295FF" stroke-width="0.1"/>
<path d="M59.5688 60.5L169.569 60.5" stroke="#4295FF" stroke-width="0.1"/>
<path d="M59.5688 66.5L169.569 66.5" stroke="#4295FF" stroke-width="0.1"/>
<path d="M59.5688 72.5L169.569 72.5" stroke="#4295FF" stroke-width="0.1"/>
<path d="M59.5688 78.5L169.569 78.5" stroke="#4295FF" stroke-width="0.1"/>
<path d="M53.1868 54.5H175.182C181.798 54.5 186.765 60.5454 185.482 67.0362L172.831 131.036C171.859 135.955 167.544 139.5 162.53 139.5H66.9542C62.0062 139.5 57.7296 136.046 56.689 131.208L42.9216 67.2082C41.515 60.6696 46.4986 54.5 53.1868 54.5Z" fill="#CCE3EB" stroke="#CCE3EB"/>
<rect x="132.569" y="122" width="32" height="9" rx="4.5" fill="#B9D4DB"/>
<circle cx="171.569" cy="134" r="13" fill="#FF6462"/>
<path d="M167.556 128.263C167.08 127.787 166.308 127.787 165.832 128.263C165.356 128.739 165.356 129.511 165.832 129.987L167.556 128.263ZM175.582 139.737C176.058 140.213 176.83 140.213 177.306 139.737C177.782 139.261 177.782 138.489 177.306 138.013L175.582 139.737ZM177.306 129.987C177.782 129.511 177.782 128.739 177.306 128.263C176.83 127.787 176.058 127.787 175.582 128.263L177.306 129.987ZM165.832 138.013C165.356 138.489 165.356 139.261 165.832 139.737C166.308 140.213 167.08 140.213 167.556 139.737L165.832 138.013ZM165.832 129.987L170.707 134.862L172.431 133.138L167.556 128.263L165.832 129.987ZM170.707 134.862L175.582 139.737L177.306 138.013L172.431 133.138L170.707 134.862ZM172.431 134.862L177.306 129.987L175.582 128.263L170.707 133.138L172.431 134.862ZM175.582 128.263L165.832 138.013L167.556 139.737L177.306 129.987L175.582 128.263Z" fill="white"/>
<path fill-rule="evenodd" clip-rule="evenodd" d="M75.5688 4V7H76.5688V4H79.5688V3H76.5688V0H75.5688V3H72.5688V4H75.5688Z" fill="#BAD5DC"/>
<path fill-rule="evenodd" clip-rule="evenodd" d="M175.569 4V7H176.569V4H179.569V3H176.569V0H175.569V3H172.569V4H175.569Z" fill="#BAD5DC"/>
<path fill-rule="evenodd" clip-rule="evenodd" d="M30.5688 104V107H31.5688V104H34.5688V103H31.5688V100H30.5688V103H27.5688V104H30.5688Z" fill="#BAD5DC"/>
<circle cx="26.5688" cy="37" r="2.5" stroke="#BAD5DC"/>
<circle cx="205.569" cy="110" r="2.5" stroke="#BAD5DC"/>
<rect x="50.9082" y="100.652" width="43" height="9" transform="rotate(-30.5218 50.9082 100.652)" fill="url(#paint0_linear_4713_26548)"/>
<path d="M15.7438 123.705L18.2831 128.012C19.1246 129.439 20.9638 129.914 22.3911 129.073L55.5677 109.513C55.8454 109.35 56.095 109.142 56.3067 108.899L58.0635 106.881L53.4927 99.1281L50.8766 99.6883C50.5613 99.7558 50.2589 99.8737 49.9811 100.037L16.8045 119.597C15.3772 120.438 14.9024 122.278 15.7438 123.705Z" fill="#556369"/>
<circle cx="115.648" cy="67.7079" r="31.5" transform="rotate(-30.5218 115.648 67.7079)" fill="#59B9CD" fill-opacity="0.2" stroke="#525E64" stroke-width="4"/>
<path opacity="0.5" d="M95.2362 58.9821C96.927 55.0805 99.7369 51.7678 103.31 49.4631C106.884 47.1583 111.061 45.965 115.312 46.0341C119.564 46.1031 123.7 47.4314 127.197 49.851C130.694 52.2705 133.394 55.6726 134.958 59.6272" stroke="white" stroke-width="3" stroke-linecap="round" stroke-linejoin="round"/>
<defs>
<linearGradient id="paint0_linear_4713_26548" x1="50.9082" y1="105.652" x2="95.1729" y2="105.652" gradientUnits="userSpaceOnUse">
<stop stop-color="#5C656C"/>
<stop offset="0.560967" stop-color="#5C656C"/>
<stop offset="0.615322" stop-color="#69747A"/>
<stop offset="1" stop-color="#69747A"/>
</linearGradient>
</defs>
</svg>
