<svg width="24" height="24" viewBox="0 0 24 24" fill="none" xmlns="http://www.w3.org/2000/svg">
<path d="M1 11.0041H19.095L15.795 7.71409C15.6067 7.52579 15.5009 7.27039 15.5009 7.00409C15.5009 6.73779 15.6067 6.4824 15.795 6.29409C15.9833 6.10579 16.2387 6 16.505 6C16.7713 6 17.0267 6.10579 17.215 6.29409L22.215 11.2941C22.306 11.3892 22.3774 11.5013 22.425 11.6241C22.525 11.8676 22.525 12.1406 22.425 12.3841C22.3774 12.5068 22.306 12.619 22.215 12.7141L17.215 17.7141C17.122 17.8078 17.0114 17.8822 16.8896 17.933C16.7677 17.9838 16.637 18.0099 16.505 18.0099C16.373 18.0099 16.2423 17.9838 16.1204 17.933C15.9986 17.8822 15.8879 17.8078 15.795 17.7141C15.7013 17.6211 15.6269 17.5105 15.5761 17.3887C15.5253 17.2668 15.4992 17.1361 15.4992 17.0041C15.4992 16.8721 15.5253 16.7414 15.5761 16.6195C15.6269 16.4977 15.7013 16.3871 15.795 16.2941L19.095 13.0041H1C0.734784 13.0041 0.480429 12.8987 0.292892 12.7112C0.105356 12.5237 0 12.2693 0 12.0041C0 11.7389 0.105356 11.4845 0.292892 11.297C0.480429 11.1094 0.734784 11.0041 1 11.0041Z" fill="#354D6E"/>
</svg>
