<svg width="24" height="24" viewBox="0 0 24 24" fill="none" xmlns="http://www.w3.org/2000/svg">
<path d="M19.2 4H4.8C4.58783 4 4.38434 4.08429 4.23431 4.23431C4.08429 4.38434 4 4.58783 4 4.8V19.2C4 19.4122 4.08429 19.6157 4.23431 19.7657C4.38434 19.9157 4.58783 20 4.8 20H19.2C19.4122 20 19.6157 19.9157 19.7657 19.7657C19.9157 19.6157 20 19.4122 20 19.2V4.8C20 4.58783 19.9157 4.38434 19.7657 4.23431C19.6157 4.08429 19.4122 4 19.2 4ZM11.2 18.4H5.6V12.8H11.2V18.4ZM11.2 11.2H5.6V5.6H11.2V11.2ZM18.4 18.4H12.8V12.8H18.4V18.4ZM18.4 11.2H12.8V5.6H18.4V11.2Z" fill="#4286F4"/>
</svg>
