<svg width="24" height="24" viewBox="0 0 24 24" fill="none" xmlns="http://www.w3.org/2000/svg">
<defs>
<linearGradient id="paint0_linear_937_362" x1="22.3221" y1="20.6745" x2="6.28893" y2="4.51083" gradientUnits="userSpaceOnUse">
<stop stop-color="#FF5656"/>
<stop offset="1" stop-color="#FF9D55"/>
</linearGradient>
<linearGradient id="paint1_linear_937_362" x1="2" y1="5.16499" x2="21.627" y2="5.16499" gradientUnits="userSpaceOnUse">
<stop stop-color="#FFED8D"/>
<stop offset="1" stop-color="#FFD28E"/>
</linearGradient>
<linearGradient id="paint2_linear_937_362" x1="2" y1="14.462" x2="22.66" y2="15.495" gradientUnits="userSpaceOnUse">
<stop stop-color="white" stop-opacity="0.9"/>
<stop offset="1" stop-color="white" stop-opacity="0"/>
</linearGradient>
<clipPath id="clip0_937_362">
<rect width="20" height="23.2258" fill="white" transform="translate(2)"/>
</clipPath>
</defs>
<g clip-path="url(#clip0_937_362)">
<path fill-rule="evenodd" clip-rule="evenodd" d="M22.0012 4.51611H2.00122V18.3698C2.00118 18.3755 2.00116 18.3813 2.00116 18.3871C2.00116 18.3928 2.00118 18.3986 2.00122 18.4044V18.7097H2.02303C2.3661 21.2316 6.70234 23.2258 12.0012 23.2258C17.3 23.2258 21.6362 21.2316 21.9793 18.7097H22.0012V4.51611Z" fill="url(#paint0_linear_937_362)"/>
<ellipse cx="12" cy="4.83871" rx="10" ry="4.83871" fill="white"/>
<ellipse cx="12" cy="4.83871" rx="10" ry="4.83871" fill="url(#paint1_linear_937_362)" fill-opacity="0.8"/>
<path d="M2 11.7742C4.51366 13.4408 12.0328 15.7742 22 11.7742V14.5161C12.0328 18.5161 4.51366 16.1828 2 14.5161V11.7742Z" fill="url(#paint2_linear_937_362)"/>
</g>
</svg>
