<svg width="24" height="24" viewBox="0 0 24 24" fill="none" xmlns="http://www.w3.org/2000/svg">
<g clip-path="url(#clip0_2854_23507)">
<circle cx="12" cy="12" r="12" fill="#F73C46" fill-opacity="0.2"/>
<path d="M11.503 14.303C11.4729 14.3363 11.4448 14.3713 11.419 14.408C11.3925 14.447 11.3713 14.4894 11.356 14.534C11.3358 14.5737 11.3217 14.6161 11.314 14.66C11.3106 14.7066 11.3106 14.7534 11.314 14.8C11.3116 14.8918 11.3308 14.9829 11.37 15.066C11.4014 15.1529 11.4516 15.2318 11.5169 15.2971C11.5822 15.3624 11.6611 15.4126 11.748 15.444C11.8318 15.481 11.9224 15.5002 12.014 15.5002C12.1056 15.5002 12.1962 15.481 12.28 15.444C12.3669 15.4126 12.4458 15.3624 12.5111 15.2971C12.5764 15.2318 12.6266 15.1529 12.658 15.066C12.6891 14.9809 12.7034 14.8905 12.7 14.8C12.7005 14.7079 12.6829 14.6165 12.648 14.5313C12.6132 14.446 12.5619 14.3684 12.497 14.303C12.4319 14.2374 12.3545 14.1853 12.2692 14.1498C12.1839 14.1142 12.0924 14.0959 12 14.0959C11.9076 14.0959 11.8161 14.1142 11.7308 14.1498C11.6455 14.1853 11.5681 14.2374 11.503 14.303ZM12 5C10.6155 5 9.26215 5.41054 8.11101 6.17971C6.95987 6.94888 6.06266 8.04213 5.53285 9.32121C5.00303 10.6003 4.86441 12.0078 5.13451 13.3656C5.4046 14.7235 6.07129 15.9708 7.05026 16.9497C8.02922 17.9287 9.2765 18.5954 10.6344 18.8655C11.9922 19.1356 13.3997 18.997 14.6788 18.4672C15.9579 17.9373 17.0511 17.0401 17.8203 15.889C18.5895 14.7378 19 13.3845 19 12C19 11.0807 18.8189 10.1705 18.4672 9.32121C18.1154 8.47194 17.5998 7.70026 16.9497 7.05025C16.2997 6.40024 15.5281 5.88463 14.6788 5.53284C13.8295 5.18106 12.9193 5 12 5ZM12 17.6C10.8924 17.6 9.80972 17.2716 8.88881 16.6562C7.96789 16.0409 7.25013 15.1663 6.82628 14.143C6.40243 13.1198 6.29153 11.9938 6.50761 10.9075C6.72368 9.8212 7.25703 8.82337 8.0402 8.0402C8.82338 7.25703 9.8212 6.72368 10.9075 6.5076C11.9938 6.29153 13.1198 6.40242 14.143 6.82627C15.1663 7.25012 16.0409 7.96789 16.6562 8.88881C17.2716 9.80972 17.6 10.8924 17.6 12C17.6 13.4852 17.01 14.9096 15.9598 15.9598C14.9096 17.01 13.4852 17.6 12 17.6ZM12 8.5C11.6311 8.49976 11.2687 8.59668 10.9492 8.78101C10.6297 8.96533 10.3644 9.23056 10.18 9.55C10.1294 9.62967 10.0953 9.71877 10.08 9.81192C10.0647 9.90508 10.0684 10.0004 10.0908 10.0921C10.1133 10.1838 10.1541 10.27 10.2107 10.3455C10.2674 10.421 10.3387 10.4843 10.4204 10.5316C10.5022 10.5788 10.5926 10.609 10.6863 10.6204C10.7801 10.6318 10.8751 10.6241 10.9658 10.5978C11.0564 10.5715 11.1409 10.5271 11.2139 10.4674C11.287 10.4076 11.3472 10.3337 11.391 10.25C11.4527 10.1432 11.5415 10.0545 11.6484 9.99308C11.7554 9.93162 11.8767 9.89951 12 9.9C12.1857 9.9 12.3637 9.97375 12.495 10.105C12.6263 10.2363 12.7 10.4143 12.7 10.6C12.7 10.7856 12.6263 10.9637 12.495 11.095C12.3637 11.2262 12.1857 11.3 12 11.3C11.8144 11.3 11.6363 11.3737 11.505 11.505C11.3738 11.6363 11.3 11.8143 11.3 12V12.7C11.3 12.8856 11.3738 13.0637 11.505 13.195C11.6363 13.3262 11.8144 13.4 12 13.4C12.1857 13.4 12.3637 13.3262 12.495 13.195C12.6263 13.0637 12.7 12.8856 12.7 12.7V12.574C13.163 12.406 13.5522 12.0807 13.7995 11.6548C14.0469 11.229 14.1368 10.7297 14.0534 10.2443C13.97 9.75894 13.7186 9.31831 13.3433 8.99946C12.968 8.68061 12.4925 8.50382 12 8.5Z" fill="url(#paint0_linear_2854_23507)"/>
</g>
<defs>
<linearGradient id="paint0_linear_2854_23507" x1="19.2246" y1="17.0909" x2="7.24755" y2="5.79542" gradientUnits="userSpaceOnUse">
<stop stop-color="#FF7728"/>
<stop offset="1" stop-color="#FF984C"/>
</linearGradient>
<clipPath id="clip0_2854_23507">
<rect width="24" height="24" fill="white"/>
</clipPath>
</defs>
</svg>
