<svg width="24" height="24" viewBox="0 0 24 24" fill="none" xmlns="http://www.w3.org/2000/svg">
<path d="M17.5684 2.22765C16.5624 1.44904 15.3844 0.891584 14.1203 0.59597C12.8561 0.300355 11.5378 0.274034 10.2615 0.518929C8.56209 0.841962 7.00293 1.63276 5.78186 2.791C4.56078 3.94923 3.73284 5.4227 3.40308 7.02444C3.16226 8.22541 3.20602 9.46159 3.53123 10.6448C3.85645 11.828 4.4551 12.9292 5.2845 13.8696C6.05423 14.687 6.49543 15.7323 6.53149 16.8239V19.9119C6.53149 20.7309 6.87722 21.5164 7.49263 22.0955C8.10805 22.6747 8.94272 23 9.81304 23H14.1884C15.0588 23 15.8934 22.6747 16.5089 22.0955C17.1243 21.5164 17.47 20.7309 17.47 19.9119V17.0195C17.5067 15.8143 17.9772 14.6565 18.8045 13.7358C20.254 12.0485 20.9373 9.891 20.7058 7.73225C20.4744 5.5735 19.3469 3.58793 17.5684 2.20707V2.22765ZM15.2823 19.9119C15.2823 20.1849 15.1671 20.4468 14.9619 20.6398C14.7568 20.8328 14.4786 20.9413 14.1884 20.9413H9.81304C9.52294 20.9413 9.24471 20.8328 9.03957 20.6398C8.83444 20.4468 8.71919 20.1849 8.71919 19.9119V18.8826H15.2823V19.9119ZM17.109 12.4594C16.0092 13.687 15.3675 15.2202 15.2823 16.8239H13.0946V13.7358C13.0946 13.4628 12.9794 13.201 12.7742 13.008C12.5691 12.8149 12.2909 12.7065 12.0007 12.7065C11.7106 12.7065 11.4324 12.8149 11.2273 13.008C11.0221 13.201 10.9069 13.4628 10.9069 13.7358V16.8239H8.71919C8.69033 15.247 8.07048 13.7304 6.96903 12.5418C6.24232 11.7224 5.75364 10.7398 5.55065 9.68979C5.34765 8.63978 5.43726 7.55818 5.81074 6.55045C6.18422 5.54273 6.82882 4.64328 7.6817 3.9398C8.53457 3.23633 9.56661 2.75283 10.6772 2.53646C11.6316 2.35153 12.6179 2.36893 13.5643 2.58738C14.5107 2.80584 15.3935 3.21987 16.1487 3.79943C16.9039 4.37898 17.5124 5.10951 17.9302 5.93798C18.3479 6.76644 18.5644 7.67205 18.5639 8.58906C18.5719 9.99913 18.0575 11.3678 17.109 12.4594Z" fill="url(#paint0_linear_4349_23854)"/>
<defs>
<linearGradient id="paint0_linear_4349_23854" x1="18.3637" y1="19.9118" x2="0.987043" y2="9.14795" gradientUnits="userSpaceOnUse">
<stop stop-color="#33A752"/>
<stop offset="1" stop-color="#20BB5E"/>
</linearGradient>
</defs>
</svg>
