<svg width="24" height="24" viewBox="0 0 24 24" fill="none" xmlns="http://www.w3.org/2000/svg">
<g clip-path="url(#clip0_2854_23552)">
<circle cx="12" cy="12" r="12" fill="#DBF1E1"/>
<path fill-rule="evenodd" clip-rule="evenodd" d="M12 5C10.6155 5 9.26215 5.41054 8.11101 6.17971C6.95987 6.94888 6.06266 8.04213 5.53285 9.32121C5.00303 10.6003 4.86441 12.0078 5.13451 13.3656C5.4046 14.7235 6.07129 15.9708 7.05026 16.9497C8.02922 17.9287 9.2765 18.5954 10.6344 18.8655C11.9922 19.1356 13.3997 18.997 14.6788 18.4672C15.9579 17.9373 17.0511 17.0401 17.8203 15.889C18.5895 14.7378 19 13.3845 19 12C19 11.0807 18.8189 10.1705 18.4672 9.32121C18.1154 8.47194 17.5998 7.70026 16.9497 7.05025C16.2997 6.40024 15.5281 5.88463 14.6788 5.53284C13.8295 5.18106 12.9193 5 12 5ZM12 17.6C10.8924 17.6 9.80972 17.2716 8.88881 16.6562C7.96789 16.0409 7.25013 15.1663 6.82628 14.143C6.40243 13.1198 6.29153 11.9938 6.50761 10.9075C6.72368 9.8212 7.25703 8.82337 8.0402 8.0402C8.82338 7.25703 9.8212 6.72368 10.9075 6.5076C11.9938 6.29153 13.1198 6.40242 14.143 6.82627C15.1663 7.25012 16.0409 7.96789 16.6562 8.88881C17.2716 9.80972 17.6 10.8924 17.6 12C17.6 13.4852 17.01 14.9096 15.9598 15.9598C14.9096 17.01 13.4852 17.6 12 17.6Z" fill="url(#paint0_linear_2854_23552)"/>
<path d="M9 12.5L11.5 15L15 10" stroke="url(#paint1_linear_2854_23552)" stroke-width="1.5" stroke-linecap="round" stroke-linejoin="round"/>
</g>
<defs>
<linearGradient id="paint0_linear_2854_23552" x1="19.2246" y1="17.0909" x2="7.24755" y2="5.79542" gradientUnits="userSpaceOnUse">
<stop stop-color="#33A752"/>
<stop offset="1" stop-color="#8DCB9E"/>
</linearGradient>
<linearGradient id="paint1_linear_2854_23552" x1="15.0963" y1="14.3182" x2="10.844" y2="9.50583" gradientUnits="userSpaceOnUse">
<stop stop-color="#33A752"/>
<stop offset="1" stop-color="#8DCB9E"/>
</linearGradient>
<clipPath id="clip0_2854_23552">
<rect width="24" height="24" fill="white"/>
</clipPath>
</defs>
</svg>
