<svg width="24" height="24" viewBox="0 0 24 24" fill="none" xmlns="http://www.w3.org/2000/svg">
<defs>
<linearGradient id="paint0_linear_169_2219" x1="19.2246" y1="17.0909" x2="7.24755" y2="5.79542" gradientUnits="userSpaceOnUse">
<stop stop-color="#FF7728"/>
<stop offset="1" stop-color="#FF984C"/>
</linearGradient>
<clipPath id="clip0_169_2219">
<rect width="24" height="24" fill="white"/>
</clipPath>
</defs>
<g clip-path="url(#clip0_169_2219)">
<circle cx="12" cy="12" r="12" fill="#F7DDCC"/>
<path d="M12 11.3C11.8144 11.3 11.6363 11.3737 11.505 11.505C11.3738 11.6363 11.3 11.8143 11.3 12V14.8C11.3 14.9856 11.3738 15.1637 11.505 15.295C11.6363 15.4262 11.8144 15.5 12 15.5C12.1857 15.5 12.3637 15.4262 12.495 15.295C12.6263 15.1637 12.7 14.9856 12.7 14.8V12C12.7 11.8143 12.6263 11.6363 12.495 11.505C12.3637 11.3737 12.1857 11.3 12 11.3ZM12.266 8.556C12.0956 8.48599 11.9044 8.48599 11.734 8.556C11.6481 8.58932 11.5696 8.63927 11.503 8.703C11.4412 8.77104 11.3915 8.84917 11.356 8.934C11.3168 9.01707 11.2976 9.10818 11.3 9.2C11.2995 9.29212 11.3171 9.38345 11.352 9.46873C11.3868 9.55402 11.4381 9.63159 11.503 9.697C11.571 9.75883 11.6492 9.80855 11.734 9.844C11.8401 9.88757 11.9552 9.90442 12.0693 9.89308C12.1834 9.88173 12.2929 9.84254 12.3883 9.77895C12.4837 9.71535 12.562 9.6293 12.6164 9.52835C12.6707 9.4274 12.6994 9.31465 12.7 9.2C12.6974 9.01466 12.6249 8.83714 12.497 8.703C12.4304 8.63927 12.3519 8.58932 12.266 8.556ZM12 5C10.6155 5 9.26215 5.41054 8.11101 6.17971C6.95987 6.94888 6.06266 8.04213 5.53285 9.32121C5.00303 10.6003 4.86441 12.0078 5.13451 13.3656C5.4046 14.7235 6.07129 15.9708 7.05026 16.9497C8.02922 17.9287 9.2765 18.5954 10.6344 18.8655C11.9922 19.1356 13.3997 18.997 14.6788 18.4672C15.9579 17.9373 17.0511 17.0401 17.8203 15.889C18.5895 14.7378 19 13.3845 19 12C19 11.0807 18.8189 10.1705 18.4672 9.32121C18.1154 8.47194 17.5998 7.70026 16.9497 7.05025C16.2997 6.40024 15.5281 5.88463 14.6788 5.53284C13.8295 5.18106 12.9193 5 12 5V5ZM12 17.6C10.8924 17.6 9.80972 17.2716 8.88881 16.6562C7.96789 16.0409 7.25013 15.1663 6.82628 14.143C6.40243 13.1198 6.29153 11.9938 6.50761 10.9075C6.72368 9.8212 7.25703 8.82338 8.0402 8.0402C8.82338 7.25703 9.8212 6.72368 10.9075 6.5076C11.9938 6.29153 13.1198 6.40242 14.143 6.82627C15.1663 7.25013 16.0409 7.96789 16.6562 8.88881C17.2716 9.80972 17.6 10.8924 17.6 12C17.6 13.4852 17.01 14.9096 15.9598 15.9598C14.9096 17.01 13.4852 17.6 12 17.6V17.6Z" fill="url(#paint0_linear_169_2219)"/>
</g>
</svg>
