<svg width="16" height="16" viewBox="0 0 16 16" fill="none" xmlns="http://www.w3.org/2000/svg">
<path d="M15.0574 5.47997C15.0574 5.47997 15.0574 5.47997 15.0574 5.44247C14.529 3.99964 13.5701 2.75393 12.3105 1.87387C11.051 0.993805 9.55147 0.521851 8.0149 0.521851C6.47834 0.521851 4.97885 0.993805 3.71929 1.87387C2.45972 2.75393 1.50085 3.99964 0.972402 5.44247C0.972402 5.44247 0.972402 5.44247 0.972402 5.47997C0.382246 7.10814 0.382246 8.8918 0.972402 10.52C0.972402 10.52 0.972402 10.52 0.972402 10.5575C1.50085 12.0003 2.45972 13.246 3.71929 14.1261C4.97885 15.0061 6.47834 15.4781 8.0149 15.4781C9.55147 15.4781 11.051 15.0061 12.3105 14.1261C13.5701 13.246 14.529 12.0003 15.0574 10.5575C15.0574 10.5575 15.0574 10.5575 15.0574 10.52C15.6476 8.8918 15.6476 7.10814 15.0574 5.47997ZM2.1949 9.49997C1.93482 8.51688 1.93482 7.48306 2.1949 6.49997H3.5899C3.46993 7.49637 3.46993 8.50357 3.5899 9.49997H2.1949ZM2.8099 11H3.8599C4.03594 11.6689 4.28756 12.3155 4.6099 12.9275C3.87438 12.4264 3.25952 11.768 2.8099 11ZM3.8599 4.99997H2.8099C3.25305 4.23429 3.86005 3.57607 4.5874 3.07247C4.27282 3.68541 4.02876 4.33204 3.8599 4.99997ZM7.2499 13.775C6.32873 13.099 5.68176 12.1139 5.4274 11H7.2499V13.775ZM7.2499 9.49997H5.1049C4.96494 8.50487 4.96494 7.49508 5.1049 6.49997H7.2499V9.49997ZM7.2499 4.99997H5.4274C5.68176 3.88605 6.32873 2.90096 7.2499 2.22497V4.99997ZM13.1899 4.99997H12.1399C11.9639 4.33109 11.7122 3.68443 11.3899 3.07247C12.1254 3.57352 12.7403 4.23193 13.1899 4.99997ZM8.7499 2.22497C9.67108 2.90096 10.318 3.88605 10.5724 4.99997H8.7499V2.22497ZM8.7499 13.775V11H10.5724C10.318 12.1139 9.67108 13.099 8.7499 13.775ZM10.8949 9.49997H8.7499V6.49997H10.8949C11.0349 7.49508 11.0349 8.50487 10.8949 9.49997ZM11.4124 12.9275C11.7347 12.3155 11.9864 11.6689 12.1624 11H13.2124C12.7628 11.768 12.1479 12.4264 11.4124 12.9275ZM13.8049 9.49997H12.4099C12.4709 9.00232 12.501 8.50135 12.4999 7.99997C12.5007 7.4986 12.4707 6.99765 12.4099 6.49997H13.8049C14.065 7.48306 14.065 8.51688 13.8049 9.49997Z" fill="black"/>
</svg>
