<svg width="24" height="24" viewBox="0 0 24 24" fill="none" xmlns="http://www.w3.org/2000/svg">
<defs>
<filter id="filter0_d_1066_11925" x="1.46988" y="3.33735" width="20.965" height="10.4888" filterUnits="userSpaceOnUse" color-interpolation-filters="sRGB">
<feFlood flood-opacity="0" result="BackgroundImageFix"/>
<feColorMatrix in="SourceAlpha" type="matrix" values="0 0 0 0 0 0 0 0 0 0 0 0 0 0 0 0 0 0 127 0" result="hardAlpha"/>
<feOffset dy="-0.13253"/>
<feGaussianBlur stdDeviation="0.26506"/>
<feComposite in2="hardAlpha" operator="out"/>
<feColorMatrix type="matrix" values="0 0 0 0 0 0 0 0 0 0 0 0 0 0 0 0 0 0 0.15 0"/>
<feBlend mode="normal" in2="BackgroundImageFix" result="effect1_dropShadow_1066_11925"/>
<feBlend mode="normal" in="SourceGraphic" in2="effect1_dropShadow_1066_11925" result="shape"/>
</filter>
<filter id="filter1_d_1066_11925" x="-2.66667" y="2.75004" width="29.3333" height="22" filterUnits="userSpaceOnUse" color-interpolation-filters="sRGB">
<feFlood flood-opacity="0" result="BackgroundImageFix"/>
<feColorMatrix in="SourceAlpha" type="matrix" values="0 0 0 0 0 0 0 0 0 0 0 0 0 0 0 0 0 0 127 0" result="hardAlpha"/>
<feOffset dy="-0.916667"/>
<feGaussianBlur stdDeviation="1.83333"/>
<feComposite in2="hardAlpha" operator="out"/>
<feColorMatrix type="matrix" values="0 0 0 0 0 0 0 0 0 0 0 0 0 0 0 0 0 0 0.15 0"/>
<feBlend mode="normal" in2="BackgroundImageFix" result="effect1_dropShadow_1066_11925"/>
<feBlend mode="normal" in="SourceGraphic" in2="effect1_dropShadow_1066_11925" result="shape"/>
</filter>
<linearGradient id="paint0_linear_1066_11925" x1="22.5" y1="21.5" x2="0.499975" y2="1.50003" gradientUnits="userSpaceOnUse">
<stop stop-color="#3258F3"/>
<stop offset="1" stop-color="#2DA6FF"/>
</linearGradient>
<linearGradient id="paint1_linear_1066_11925" x1="22.5" y1="21.6334" x2="6.66027" y2="1.99741" gradientUnits="userSpaceOnUse">
<stop stop-color="#3258F3"/>
<stop offset="1" stop-color="#2DA6FF"/>
</linearGradient>
<clipPath id="clip0_1066_11925">
<rect width="24" height="24" fill="white"/>
</clipPath>
</defs>
<g clip-path="url(#clip0_1066_11925)">
<rect x="1" y="2" width="22" height="20" rx="3.66667" fill="url(#paint0_linear_1066_11925)"/>
<g filter="url(#filter0_d_1066_11925)">
<rect x="2" y="4" width="19.9048" height="9.42857" rx="1.83333" fill="#F8F8F8"/>
</g>
<g filter="url(#filter1_d_1066_11925)">
<path fill-rule="evenodd" clip-rule="evenodd" d="M2.83333 7.33337C1.82081 7.33337 1 8.15419 1 9.16671V12.8333V13.75V18.3333C1 20.3584 2.64162 22 4.66667 22H19.3333C21.3584 22 23 20.3584 23 18.3333V12.8333C23 10.8083 21.3584 9.16667 19.3333 9.16667H10.1667C10.1666 8.15416 9.34584 7.33337 8.33333 7.33337H2.83333Z" fill="url(#paint1_linear_1066_11925)"/>
</g>
</g>
</svg>
