<svg width="100" height="116" viewBox="0 0 100 116" fill="none" xmlns="http://www.w3.org/2000/svg">
<defs>
<linearGradient id="paint0_linear_4043_23564" x1="90.0681" y1="110.25" x2="-20.2063" y2="39.8269" gradientUnits="userSpaceOnUse">
<stop stop-color="#3258F3"/>
<stop offset="1" stop-color="#2DA6FF"/>
</linearGradient>
</defs>
<path fill-rule="evenodd" clip-rule="evenodd" d="M73 37.5V43H26V37.5C26 24.5213 36.5213 14 49.5 14C62.4787 14 73 24.5213 73 37.5ZM14 43H15V37.5C15 18.4462 30.4462 3 49.5 3C68.5538 3 84 18.4462 84 37.5V43H85C88.866 43 92 46.134 92 50V106C92 109.866 88.866 113 85 113H14C10.134 113 7 109.866 7 106V50C7 46.134 10.134 43 14 43ZM58.3158 71.1579C58.3158 74.9123 56.0566 78.139 52.8234 79.5527H52.9742L56.1203 88.9911C56.4498 89.9795 55.7141 91.0001 54.6723 91.0001H43.0181C41.9383 91.0001 41.1999 89.9095 41.6009 88.9069L45.3426 79.5527H45.4924C42.2592 78.139 40 74.9123 40 71.1579C40 66.1001 44.1001 62 49.1579 62C54.2157 62 58.3158 66.1001 58.3158 71.1579Z" fill="url(#paint0_linear_4043_23564)"/>
</svg>
