<svg width="80" height="82" viewBox="0 0 80 82" fill="none" xmlns="http://www.w3.org/2000/svg">
<circle cx="40.1399" cy="39.8599" r="39.8599" fill="#EEF7FF"/>
<mask id="mask0_4144_23980" style="mask-type:alpha" maskUnits="userSpaceOnUse" x="0" y="0" width="80" height="80">
<circle cx="40.1399" cy="39.8599" r="39.8599" fill="#EEF7FF"/>
</mask>
<defs>
<linearGradient id="paint0_linear_4144_23980" x1="43.2099" y1="65.8347" x2="43.2863" y2="44.8525" gradientUnits="userSpaceOnUse">
<stop stop-color="#FF7728"/>
<stop offset="1" stop-color="#FF984C"/>
</linearGradient>
<linearGradient id="paint1_linear_4144_23980" x1="54.2887" y1="46.659" x2="19.4711" y2="24.0978" gradientUnits="userSpaceOnUse">
<stop stop-color="#3268F3"/>
<stop offset="1" stop-color="#80B2D7"/>
</linearGradient>
<linearGradient id="paint2_linear_4144_23980" x1="54.2887" y1="46.659" x2="19.4711" y2="24.0978" gradientUnits="userSpaceOnUse">
<stop stop-color="#3268F3"/>
<stop offset="1" stop-color="#80B2D7"/>
</linearGradient>
<linearGradient id="paint3_linear_4144_23980" x1="54.2887" y1="46.659" x2="19.4711" y2="24.0978" gradientUnits="userSpaceOnUse">
<stop stop-color="#3268F3"/>
<stop offset="1" stop-color="#80B2D7"/>
</linearGradient>
<linearGradient id="paint4_linear_4144_23980" x1="54.2887" y1="46.659" x2="19.4711" y2="24.0978" gradientUnits="userSpaceOnUse">
<stop stop-color="#3268F3"/>
<stop offset="1" stop-color="#80B2D7"/>
</linearGradient>
<linearGradient id="paint5_linear_4144_23980" x1="54.2887" y1="46.659" x2="19.4711" y2="24.0978" gradientUnits="userSpaceOnUse">
<stop stop-color="#3268F3"/>
<stop offset="1" stop-color="#80B2D7"/>
</linearGradient>
<linearGradient id="paint6_linear_4144_23980" x1="54.2887" y1="46.659" x2="19.4711" y2="24.0978" gradientUnits="userSpaceOnUse">
<stop stop-color="#3268F3"/>
<stop offset="1" stop-color="#80B2D7"/>
</linearGradient>
</defs>
<g mask="url(#mask0_4144_23980)">
<path d="M79.1409 73.6093C77.8529 72.3105 76.1739 71.5235 74.3736 71.3747C72.5732 71.2259 70.756 71.724 69.2137 72.7889C68.9622 71.8059 68.5171 70.8969 67.907 70.1204C67.2968 69.344 66.5352 68.7172 65.671 68.2805C64.8068 67.8438 63.8592 67.6068 62.8891 67.5848C61.9191 67.5628 60.9481 67.7562 60.0386 68.1526C58.9886 66.5848 57.4367 65.4788 55.6552 65.0286C53.8738 64.5785 51.9767 64.813 50.2969 65.691C48.6172 66.569 47.2621 68.0344 46.4697 69.8299C45.6773 71.6254 45.498 73.6363 45.9635 75.5096L79.551 85.2905C80.9032 83.6002 81.6135 81.4508 81.5373 79.2803C81.4611 77.1097 80.6041 75.0816 79.1409 73.6093Z" fill="white"/>
<path d="M39.4957 40.3579L34.5117 72.9688L49.956 71.8905L44.0784 40.0154L39.4957 40.3579Z" fill="white"/>
<path d="M52.206 76.2113C52.6433 75.8222 52.9793 75.3329 53.1849 74.7854C53.3904 74.2379 53.4595 73.6487 53.3861 73.0687C53.3127 72.4886 53.099 71.9351 52.7634 71.4558C52.4278 70.9765 51.9805 70.5858 51.4599 70.3175C51.9727 69.7359 52.3509 69.0489 52.5675 68.3051C52.7842 67.5612 52.8339 66.7789 52.7133 66.0138C52.5927 65.2486 52.3046 64.5193 51.8696 63.8778C51.4346 63.2362 50.8633 62.6982 50.1963 62.3018C49.5294 61.9055 48.7831 61.6606 48.0105 61.5846C47.238 61.5085 46.4581 61.6032 45.7264 61.8619C44.9947 62.1205 44.329 62.5369 43.7768 63.0812C43.2245 63.6256 42.7992 64.2847 42.5311 65.0116C42.4225 65.3113 42.3408 65.62 42.287 65.9342C42.0528 65.8111 41.8109 65.7033 41.5628 65.6115C40.2658 65.1397 38.8406 65.1591 37.557 65.6658C36.2734 66.1725 35.2206 67.1314 34.5982 68.3608C33.9758 69.5902 33.8269 71.0047 34.1798 72.3363C34.5327 73.6678 35.3629 74.824 36.513 75.5857C35.8078 76.1713 35.2834 76.9441 35.0003 77.8149C34.7173 78.6856 34.6873 79.6185 34.9137 80.5055H53.3429C53.479 79.7504 53.4477 78.9746 53.2513 78.2327C53.0549 77.4909 52.6981 76.8009 52.206 76.2113Z" fill="white"/>
<path d="M20.8345 73.3605C21.082 73.1514 21.3553 72.9751 21.6475 72.8362L21.561 72.7487C19.8895 70.7709 20.3517 67.6336 22.5972 65.7158C24.6509 63.9652 27.4797 63.8469 29.2282 65.3437C29.4959 64.9236 29.825 64.5456 30.2045 64.2224C32.0753 62.6219 34.7225 62.6552 36.1169 64.2953C37.379 65.7786 37.1809 68.0685 35.7457 69.6741C36.4819 71.2472 35.9827 73.3126 34.4252 74.6425C33.1537 75.7289 31.5161 76.0436 30.1783 75.5956C30.188 76.0823 30.0865 76.5663 29.8815 77.0109C29.6764 77.4555 29.3733 77.8489 28.9951 78.1611C27.6921 79.2758 25.8481 79.2527 24.8758 78.1113C24.7923 78.0112 24.717 77.9044 24.6508 77.792C24.6429 77.8012 24.6343 77.8097 24.625 77.8175C24.2965 78.0999 23.9216 78.323 23.5175 78.4765L19.8279 74.7435C20.0505 74.211 20.3955 73.737 20.8345 73.3605Z" fill="white"/>
<path d="M37.7418 80.143C37.7039 78.7587 37.298 77.4093 36.5655 76.233C35.8331 75.0567 34.8004 74.0958 33.5733 73.4488C32.3462 72.8017 30.9688 72.4918 29.5821 72.5506C28.1955 72.6095 26.8494 73.0351 25.6819 73.7839V73.6948C25.6356 72.0503 25.0481 70.4667 24.0101 69.1885C22.9721 67.9103 21.5413 67.0086 19.9386 66.6225C18.3358 66.2365 16.6503 66.3875 15.1422 67.0524C13.634 67.7173 12.3872 68.8591 11.5941 70.3014C10.847 69.9252 10.0193 69.7361 9.18261 69.7502C8.34587 69.7644 7.52515 69.9815 6.79123 70.3827C6.05732 70.7839 5.43224 71.3572 4.96992 72.0533C4.5076 72.7493 4.22192 73.5471 4.13751 74.3778C2.99286 73.9587 1.76342 73.8228 0.554588 73.9818C-0.654244 74.1408 -1.8064 74.5899 -2.80311 75.2907C-3.79981 75.9914 -4.61132 76.9229 -5.16807 78.0053C-5.72482 79.0876 -6.01019 80.2886 -5.99972 81.5051H37.6525C37.7218 81.0545 37.7517 80.5988 37.7418 80.143Z" fill="white"/>
<path d="M44.6531 52.7804L43.2562 65.3923C43.3444 62.7106 41.6311 50.9822 42.3554 49.3267C43.3532 47.0462 44.974 49.0821 44.6531 52.7804ZM41.0786 53.0147L39.6819 65.6268C39.7698 62.9448 38.0566 51.2166 38.7809 49.5611C39.7788 47.2806 41.3996 49.3165 41.0786 53.0147ZM37.3805 46.3758C39.417 45.9174 44.0331 46.0149 45.9052 46.5136C44.0043 48.3234 41.6057 46.8297 41.2855 47.1346C40.8879 47.5131 35.4152 46.8182 37.3805 46.3758Z" fill="url(#paint0_linear_4144_23980)"/>
<path d="M41.4853 13.013C40.7568 12.8596 38.2417 14.0022 34.9291 19.7992C34.8473 19.9326 34.7588 20.0863 34.6653 20.2593H41.4853L41.4853 13.013Z" fill="url(#paint1_linear_4144_23980)"/>
<path d="M31.7085 32.6816C29.5231 35.1354 25.9345 41.4922 29.063 47.2893C29.3734 47.8644 30.9034 47.2893 31.2484 46.4841C31.7085 45.4873 32.8817 43.2865 33.8939 42.4584C31.9616 38.5937 31.6318 34.3302 31.7085 32.6816Z" fill="url(#paint2_linear_4144_23980)"/>
<path d="M31.7085 32.6816C31.6318 34.3302 31.9616 38.5937 33.8939 42.4584L34.8977 44.2987H41.4853L41.4853 20.2593H34.6653C33.5755 22.2752 31.7933 26.9191 31.7085 32.6816Z" fill="white"/>
<path d="M31.7085 32.6816C31.6318 34.3302 31.9616 38.5937 33.8939 42.4584L34.8977 44.2987H41.4853L41.4853 20.2593H34.6653C33.5755 22.2752 31.7933 26.9191 31.7085 32.6816Z" fill="white"/>
<path d="M35.2742 44.9888C35.7343 45.794 36.5164 46.7142 38.2647 46.7142H39.4149H41.4853V44.2987H34.8977L35.2742 44.9888Z" fill="url(#paint3_linear_4144_23980)"/>
<path d="M41.4853 13.013C42.2138 12.8596 44.4989 14.0022 47.8115 19.7992C47.8933 19.9326 47.9818 20.0863 48.0753 20.2593H41.4853L41.4853 13.013Z" fill="url(#paint4_linear_4144_23980)"/>
<path d="M51.0321 32.6816C53.2175 35.1354 56.8061 41.4922 53.6775 47.2893C53.3672 47.8644 51.8372 47.2893 51.4921 46.4841C51.0321 45.4873 49.8588 43.2865 48.8467 42.4584C50.779 38.5937 51.1087 34.3302 51.0321 32.6816Z" fill="url(#paint5_linear_4144_23980)"/>
<path d="M51.0321 32.6816C51.1087 34.3302 50.779 38.5937 48.8467 42.4584L47.8428 44.2987L41.4853 44.2987L41.4853 20.2593H48.0753C49.1651 22.2752 50.9473 26.9191 51.0321 32.6816Z" fill="white"/>
<path d="M51.0321 32.6816C51.1087 34.3302 50.779 38.5937 48.8467 42.4584L47.8428 44.2987L41.4853 44.2987L41.4853 20.2593H48.0753C49.1651 22.2752 50.9473 26.9191 51.0321 32.6816Z" fill="white"/>
<path d="M47.4664 44.9888C47.0063 45.794 46.2242 46.7141 44.4759 46.7141H43.3257L41.4853 46.7142V44.2987L47.8428 44.2987L47.4664 44.9888Z" fill="url(#paint6_linear_4144_23980)"/>
<circle cx="41.409" cy="27.2628" r="3.33561" fill="#BFDFFF" stroke="#354D6E" stroke-width="1.15021"/>
<path d="M42.013 24.5687L39.1663 28.8726C39.3138 29.0778 39.4888 29.2619 39.6859 29.4196L42.7032 24.8239C42.4884 24.7097 42.2568 24.6231 42.013 24.5687Z" fill="#E7F3FF"/>
<path fill-rule="evenodd" clip-rule="evenodd" d="M44.1697 27.2629C44.1697 28.7875 42.9338 30.0235 41.4092 30.0235L43.8922 26.0552C44.0699 26.42 44.1697 26.8298 44.1697 27.2629ZM42.7032 24.8239C42.8894 24.9229 43.063 25.0426 43.2208 25.18L40.2877 29.7861C40.0709 29.6896 39.8689 29.566 39.6859 29.4196L42.7032 24.8239ZM42.013 24.5687L39.1663 28.8726C38.8405 28.4195 38.6487 27.8636 38.6487 27.2629C38.6487 25.7384 39.8846 24.5024 41.4092 24.5024C41.6166 24.5024 41.8187 24.5253 42.013 24.5687Z" fill="#BFDFFF"/>
<path d="M40.2877 29.7861C40.6304 29.9387 41.0099 30.0235 41.4092 30.0235L43.8922 26.0552C43.7287 25.7198 43.4993 25.4224 43.2208 25.18L40.2877 29.7861Z" fill="#E7F3FF"/>
</g>
</svg>
