<svg width="24" height="24" viewBox="0 0 24 24" fill="none" xmlns="http://www.w3.org/2000/svg">
<path fill-rule="evenodd" clip-rule="evenodd" d="M12 10.8333H3.11106C2.81637 10.8333 2.53376 10.9562 2.32539 11.175C2.11701 11.3938 1.99995 11.6906 1.99995 12C1.99995 12.3094 2.11701 12.6062 2.32539 12.825C2.53376 13.0437 2.81637 13.1667 3.11106 13.1667H12C12.2946 13.1667 12.5773 13.0437 12.7856 12.825C12.994 12.6062 13.1111 12.3094 13.1111 12C13.1111 11.6906 12.994 11.3938 12.7856 11.175C12.5773 10.9562 12.2946 10.8333 12 10.8333ZM5.88885 16.6667H3.11106C2.81637 16.6667 2.53376 16.7896 2.32539 17.0084C2.11701 17.2272 1.99995 17.5239 1.99995 17.8333C1.99995 18.1428 2.11701 18.4395 2.32539 18.6583C2.53376 18.8771 2.81637 19 3.11106 19H5.88885C6.18353 19 6.46615 18.8771 6.67452 18.6583C6.8829 18.4395 6.99996 18.1428 6.99996 17.8333C6.99996 17.5239 6.8829 17.2272 6.67452 17.0084C6.46615 16.7896 6.18353 16.6667 5.88885 16.6667Z" fill="#4285F4"/>
<path d="M21.8889 7.33333H3.11106C2.81637 7.33333 2.53376 7.21042 2.32539 6.99162C2.11701 6.77283 1.99995 6.47609 1.99995 6.16667C1.99995 5.85725 2.11701 5.5605 2.32539 5.34171C2.53376 5.12292 2.81637 5 3.11106 5H21.8889C22.1836 5 22.4662 5.12292 22.6746 5.34171C22.8829 5.5605 23 5.85725 23 6.16667C23 6.47609 22.8829 6.77283 22.6746 6.99162C22.4662 7.21042 22.1836 7.33333 21.8889 7.33333Z" fill="#4285F4"/>
</svg>
