<svg width="24" height="24" viewBox="0 0 24 24" fill="none" xmlns="http://www.w3.org/2000/svg">
<defs>
<linearGradient id="paint0_linear_169_2399" x1="17.1765" y1="16.2273" x2="6.31355" y2="7.55862" gradientUnits="userSpaceOnUse">
<stop stop-color="#FF7728"/>
<stop offset="1" stop-color="#FF984C"/>
</linearGradient>
<clipPath id="clip0_169_2399">
<rect width="24" height="24" fill="white"/>
</clipPath>
</defs>
<g clip-path="url(#clip0_169_2399)">
<circle cx="12" cy="12" r="12" fill="#F7DDCC"/>
<path d="M16.3889 5C16.3086 4.99995 16.2291 5.01673 16.155 5.04938C16.0808 5.08203 16.0134 5.1299 15.9567 5.19027C15.8999 5.25064 15.8549 5.32231 15.8242 5.4012C15.7935 5.48008 15.7777 5.56463 15.7778 5.65V6.06387C15.2624 6.74357 14.611 7.29249 13.871 7.67067C13.131 8.04884 12.321 8.24675 11.5 8.25H7.83333C7.34727 8.25056 6.88126 8.45619 6.53756 8.82176C6.19386 9.18734 6.00053 9.683 6 10.2V11.5C6.00053 12.017 6.19386 12.5127 6.53756 12.8782C6.88126 13.2438 7.34727 13.4494 7.83333 13.45H8.12898L6.66065 17.0942C6.62075 17.193 6.60454 17.3008 6.6135 17.408C6.62246 17.5151 6.65629 17.6182 6.71196 17.708C6.76764 17.7978 6.8434 17.8715 6.93246 17.9225C7.02153 17.9734 7.12109 18.0001 7.22222 18H9.66667C9.78629 18.0001 9.9033 17.9627 10.0031 17.8927C10.103 17.8226 10.1813 17.7228 10.2282 17.6058L11.8928 13.4747C12.6448 13.5334 13.3776 13.7555 14.0458 14.1273C14.714 14.499 15.3034 15.0125 15.7778 15.636V16.05C15.7778 16.2224 15.8422 16.3877 15.9568 16.5096C16.0714 16.6315 16.2268 16.7 16.3889 16.7C16.551 16.7 16.7064 16.6315 16.821 16.5096C16.9356 16.3877 17 16.2224 17 16.05V5.65C17 5.56463 16.9843 5.48008 16.9536 5.4012C16.9229 5.32231 16.8779 5.25064 16.8211 5.19027C16.7644 5.1299 16.697 5.08203 16.6228 5.04938C16.5486 5.01673 16.4692 4.99995 16.3889 5ZM7.83333 12.15C7.67129 12.1499 7.51591 12.0814 7.40133 11.9595C7.28675 11.8376 7.22233 11.6724 7.22222 11.5V10.2C7.22233 10.0276 7.28675 9.86238 7.40133 9.74051C7.51592 9.61864 7.67129 9.55012 7.83333 9.55H8.44444V12.15H7.83333ZM9.26383 16.7H8.14903L9.45839 13.45H10.5732L9.26383 16.7ZM15.7778 13.7892C14.5728 12.7333 13.0612 12.1541 11.5 12.15H9.66667V9.54997H11.5C13.0612 9.54572 14.5728 8.96637 15.7778 7.91045V13.7892Z" fill="url(#paint0_linear_169_2399)"/>
</g>
</svg>
