<svg width="24" height="24" viewBox="0 0 24 24" fill="none" xmlns="http://www.w3.org/2000/svg">
<defs>
<linearGradient id="paint0_linear_169_2411" x1="15.5" y1="15.5" x2="6.29913" y2="8.1243" gradientUnits="userSpaceOnUse">
<stop stop-color="#F43B2E"/>
<stop offset="1" stop-color="#FF5A7B"/>
</linearGradient>
<clipPath id="clip0_169_2411">
<rect width="24" height="24" fill="white"/>
</clipPath>
</defs>
<g clip-path="url(#clip0_169_2411)">
<circle cx="12" cy="12" r="12" fill="#F5D0D2"/>
<path d="M13.0917 11.6424C13.428 11.3435 13.6978 10.9739 13.8827 10.5585C14.0676 10.1432 14.1633 9.69193 14.1633 9.23529C14.1633 8.37724 13.8313 7.55433 13.2402 6.9476C12.6491 6.34086 11.8474 6 11.0115 6C10.1755 6 9.37385 6.34086 8.78276 6.9476C8.19167 7.55433 7.8596 8.37724 7.8596 9.23529C7.86349 9.69444 7.96409 10.1473 8.15451 10.5628C8.34492 10.9782 8.62064 11.3465 8.96275 11.6424C8.08032 12.0525 7.33164 12.7149 6.80623 13.5502C6.28083 14.3856 6.00093 15.3586 6 16.3529C6 16.5246 6.06641 16.6891 6.18463 16.8105C6.30285 16.9318 6.46319 17 6.63037 17C6.79756 17 6.9579 16.9318 7.07611 16.8105C7.19433 16.6891 7.26075 16.5246 7.26075 16.3529C7.26075 15.3233 7.65923 14.3358 8.36854 13.6077C9.07784 12.8796 10.0399 12.4706 11.043 12.4706C12.0461 12.4706 13.0081 12.8796 13.7174 13.6077C14.4267 14.3358 14.8252 15.3233 14.8252 16.3529C14.8252 16.5246 14.8916 16.6891 15.0098 16.8105C15.1281 16.9318 15.2884 17 15.4556 17C15.6228 17 15.7831 16.9318 15.9013 16.8105C16.0195 16.6891 16.086 16.5246 16.086 16.3529C16.0823 15.3551 15.7977 14.3795 15.2665 13.5438C14.7353 12.708 13.98 12.0477 13.0917 11.6424ZM11.0115 11.1765C10.6374 11.1765 10.2718 11.0626 9.96081 10.8493C9.64982 10.636 9.40743 10.3329 9.2643 9.97815C9.12116 9.62345 9.08371 9.23314 9.15668 8.85659C9.22965 8.48004 9.40976 8.13415 9.67424 7.86268C9.93872 7.5912 10.2757 7.40632 10.6425 7.33142C11.0094 7.25652 11.3896 7.29496 11.7352 7.44188C12.0807 7.5888 12.3761 7.83761 12.5839 8.15683C12.7917 8.47606 12.9026 8.85137 12.9026 9.23529C12.9026 9.75013 12.7033 10.2439 12.3487 10.6079C11.994 10.972 11.513 11.1765 11.0115 11.1765ZM16.3696 7.94118C16.2024 7.94118 16.0421 8.00935 15.9239 8.1307C15.8057 8.25204 15.7393 8.41662 15.7393 8.58824V9.88235C15.7393 10.054 15.8057 10.2185 15.9239 10.3399C16.0421 10.4612 16.2024 10.5294 16.3696 10.5294C16.5368 10.5294 16.6972 10.4612 16.8154 10.3399C16.9336 10.2185 17 10.054 17 9.88235V8.58824C17 8.41662 16.9336 8.25204 16.8154 8.1307C16.6972 8.00935 16.5368 7.94118 16.3696 7.94118ZM15.8968 11.3641C15.7817 11.4881 15.7164 11.6522 15.714 11.8235C15.7136 11.9087 15.7295 11.9931 15.7608 12.0719C15.7922 12.1508 15.8384 12.2225 15.8968 12.2829C15.9581 12.3401 16.0285 12.3861 16.1049 12.4188C16.1803 12.4531 16.2619 12.4707 16.3444 12.4707C16.4269 12.4707 16.5085 12.4531 16.584 12.4188C16.6622 12.3898 16.7332 12.3434 16.792 12.283C16.8509 12.2226 16.896 12.1497 16.9244 12.0694C16.9596 11.9926 16.9769 11.9084 16.9748 11.8235C16.9755 11.695 16.9389 11.5692 16.8697 11.4621C16.8005 11.355 16.7018 11.2715 16.5861 11.2222C16.4705 11.1729 16.3432 11.1601 16.2204 11.1853C16.0977 11.2106 15.985 11.2729 15.8968 11.3641Z" fill="url(#paint0_linear_169_2411)"/>
</g>
</svg>
