<svg width="24" height="24" viewBox="0 0 24 24" fill="none" xmlns="http://www.w3.org/2000/svg">
<defs>
<linearGradient id="paint0_linear_169_2393" x1="18.6591" y1="18.625" x2="2.38072" y2="5.17183" gradientUnits="userSpaceOnUse">
<stop stop-color="#3258F3"/>
<stop offset="1" stop-color="#56B6FD"/>
</linearGradient>
<clipPath id="clip0_169_2393">
<rect width="24" height="24" fill="white"/>
</clipPath>
</defs>
<g clip-path="url(#clip0_169_2393)">
<circle cx="12" cy="12" r="12" fill="#D3E1F6"/>
<path d="M18.7487 4.7315C18.7179 4.61487 18.6565 4.50848 18.5708 4.4232C18.4852 4.33792 18.3784 4.27679 18.2612 4.24607C16.8584 3.88325 15.3812 3.92233 13.9997 4.3588C12.6183 4.79527 11.3887 5.61138 10.4525 6.71316L9.69009 7.61461L7.90883 7.18665C7.47578 7.03632 7.00273 7.04709 6.57704 7.21698C6.15135 7.38688 5.80177 7.70441 5.59286 8.11094L4.08828 10.7665C4.03557 10.8596 4.00556 10.9636 4.0007 11.0703C3.99584 11.177 4.01626 11.2834 4.0603 11.3808C4.10434 11.4781 4.17078 11.5638 4.25424 11.6309C4.3377 11.698 4.43584 11.7446 4.54073 11.767L6.64199 12.2155C6.46399 12.7551 6.33689 13.3099 6.26234 13.873C6.24883 13.9764 6.25935 14.0816 6.2931 14.1803C6.32685 14.2791 6.38293 14.3688 6.457 14.4425L8.57697 16.5535C8.64044 16.6168 8.71581 16.667 8.79877 16.7012C8.88173 16.7354 8.97065 16.753 9.06045 16.753C9.08015 16.753 9.09985 16.752 9.11989 16.7504C9.69796 16.6986 10.269 16.5868 10.8237 16.4167L11.2639 18.4617C11.2864 18.5661 11.3332 18.6638 11.4006 18.7469C11.468 18.83 11.5541 18.8961 11.6519 18.9399C11.7496 18.9838 11.8564 19.0041 11.9636 18.9993C12.0707 18.9945 12.1752 18.9647 12.2686 18.9122L14.9392 17.4124C15.3151 17.1849 15.6087 16.8445 15.7777 16.4402C15.9467 16.0359 15.9823 15.5885 15.8795 15.1627L15.4222 13.284L16.2681 12.5094C17.3787 11.5799 18.2015 10.3554 18.6406 8.9785C19.0797 7.60158 19.1172 6.12881 18.7487 4.7315ZM5.73611 10.6292L6.80026 8.74999C6.86636 8.62242 6.97897 8.52485 7.115 8.47731C7.25103 8.42977 7.40018 8.43585 7.53185 8.49431L8.70628 8.77772L8.26178 9.30326C7.84037 9.80619 7.4759 10.3538 7.17495 10.9362L5.73611 10.6292ZM14.2637 16.228L12.4065 17.271L12.1128 15.906C12.7082 15.6103 13.2629 15.2396 13.7632 14.803L14.2717 14.3374L14.5475 15.4709C14.5833 15.6109 14.5753 15.7584 14.5246 15.8937C14.4739 16.029 14.3828 16.1457 14.2637 16.228ZM15.3676 11.4851L12.848 13.7909C11.8506 14.6498 10.6204 15.1957 9.31223 15.3599L7.66808 13.7227C7.88891 12.4167 8.45567 11.1929 9.3099 10.1778L10.4576 8.82086C10.4767 8.80094 10.4946 8.77984 10.511 8.75769L11.4923 7.59758C12.2178 6.74429 13.1578 6.09802 14.2162 5.72475C15.2746 5.35149 16.4135 5.2646 17.5166 5.47297C17.7309 6.57488 17.6446 7.71385 17.2666 8.77125C16.8887 9.82866 16.2329 10.7658 15.3676 11.4851ZM14.7364 7.28792C14.5336 7.28792 14.3352 7.34782 14.1665 7.46006C13.9979 7.57229 13.8664 7.73181 13.7888 7.91845C13.7111 8.10509 13.6908 8.31046 13.7304 8.5086C13.77 8.70673 13.8677 8.88873 14.0111 9.03158C14.1546 9.17442 14.3373 9.2717 14.5363 9.31112C14.7353 9.35053 14.9415 9.3303 15.129 9.25299C15.3164 9.17568 15.4766 9.04477 15.5893 8.8768C15.702 8.70883 15.7622 8.51135 15.7622 8.30933C15.7622 8.17519 15.7357 8.04236 15.6841 7.91843C15.6326 7.7945 15.557 7.6819 15.4618 7.58705C15.3665 7.4922 15.2534 7.41696 15.129 7.36563C15.0045 7.31431 14.8711 7.28789 14.7364 7.2879L14.7364 7.28792Z" fill="url(#paint0_linear_169_2393)"/>
</g>
</svg>
