<svg width="309" height="298" viewBox="0 0 309 298" fill="none" xmlns="http://www.w3.org/2000/svg">
<defs>
<linearGradient id="paint0_linear_1370_12809" x1="215.818" y1="261.773" x2="39.2811" y2="159.239" gradientUnits="userSpaceOnUse">
<stop stop-color="#3258F3"/>
<stop offset="1" stop-color="#2DA6FF"/>
</linearGradient>
<linearGradient id="paint1_linear_1370_12809" x1="228.721" y1="46.0261" x2="202.935" y2="21.6267" gradientUnits="userSpaceOnUse">
<stop stop-color="#FF9900"/>
<stop offset="1" stop-color="#FFCC80"/>
</linearGradient>
<linearGradient id="paint2_linear_1370_12809" x1="129.682" y1="52.6818" x2="115.462" y2="41.283" gradientUnits="userSpaceOnUse">
<stop stop-color="#F43B2E"/>
<stop offset="1" stop-color="#FF5A7B"/>
</linearGradient>
<linearGradient id="paint3_linear_1370_12809" x1="253.321" y1="122.727" x2="233.336" y2="107.021" gradientUnits="userSpaceOnUse">
<stop stop-color="#FF7728"/>
<stop offset="1" stop-color="#FF984C"/>
</linearGradient>
<linearGradient id="paint4_linear_1370_12809" x1="75.7495" y1="166.701" x2="73.3473" y2="159.405" gradientUnits="userSpaceOnUse">
<stop stop-color="#33A752"/>
<stop offset="1" stop-color="#8DCB9E"/>
</linearGradient>
<linearGradient id="paint5_linear_1370_12809" x1="57.4379" y1="166.701" x2="55.0357" y2="159.405" gradientUnits="userSpaceOnUse">
<stop stop-color="#33A752"/>
<stop offset="1" stop-color="#8DCB9E"/>
</linearGradient>
<linearGradient id="paint6_linear_1370_12809" x1="61.1888" y1="180.059" x2="54.2361" y2="177.854" gradientUnits="userSpaceOnUse">
<stop stop-color="#33A752"/>
<stop offset="1" stop-color="#8DCB9E"/>
</linearGradient>
<linearGradient id="paint7_linear_1370_12809" x1="61.1888" y1="160.159" x2="54.2361" y2="157.954" gradientUnits="userSpaceOnUse">
<stop stop-color="#33A752"/>
<stop offset="1" stop-color="#8DCB9E"/>
</linearGradient>
<linearGradient id="paint8_linear_1370_12809" x1="124.307" y1="203.231" x2="106.811" y2="189.072" gradientUnits="userSpaceOnUse">
<stop stop-color="#FF9900"/>
<stop offset="1" stop-color="#FFCC80"/>
</linearGradient>
<linearGradient id="paint9_linear_1370_12809" x1="119.371" y1="194.386" x2="110.915" y2="187.209" gradientUnits="userSpaceOnUse">
<stop stop-color="#FF9900"/>
<stop offset="1" stop-color="#FFCC80"/>
</linearGradient>
<linearGradient id="paint10_linear_1370_12809" x1="182.799" y1="202.009" x2="200.296" y2="187.85" gradientUnits="userSpaceOnUse">
<stop stop-color="#FF9900"/>
<stop offset="1" stop-color="#FFCC80"/>
</linearGradient>
<linearGradient id="paint11_linear_1370_12809" x1="189.071" y1="237.587" x2="119.084" y2="184.269" gradientUnits="userSpaceOnUse">
<stop stop-color="#FF9900"/>
<stop offset="1" stop-color="#FFCC80"/>
</linearGradient>
<linearGradient id="paint12_linear_1370_12809" x1="222.965" y1="175.924" x2="219.336" y2="167.359" gradientUnits="userSpaceOnUse">
<stop stop-color="#3258F3"/>
<stop offset="1" stop-color="#2DA6FF"/>
</linearGradient>
<linearGradient id="paint13_linear_1370_12809" x1="229.249" y1="164.577" x2="228.027" y2="157.891" gradientUnits="userSpaceOnUse">
<stop stop-color="#3258F3"/>
<stop offset="1" stop-color="#2DA6FF"/>
</linearGradient>
<linearGradient id="paint14_linear_1370_12809" x1="214.943" y1="157.486" x2="207.649" y2="151.048" gradientUnits="userSpaceOnUse">
<stop stop-color="#3258F3"/>
<stop offset="1" stop-color="#2DA6FF"/>
</linearGradient>
</defs>
<path d="M242.622 74.6511C242.622 76.9694 240.74 78.8509 238.422 78.8509C236.104 78.8509 234.222 76.9694 234.222 74.6511C234.222 72.3329 236.104 70.4514 238.422 70.4514C240.74 70.4514 242.622 72.3329 242.622 74.6511Z" fill="#7BCCBC"/>
<path d="M7.85781 177.873C7.85781 179.999 6.13358 181.723 4.00801 181.723C1.88243 181.723 0.158203 179.999 0.158203 177.873C0.158203 175.748 1.88243 174.024 4.00801 174.024C6.13358 174.024 7.85781 175.748 7.85781 177.873Z" fill="#7BCCBC"/>
<path d="M83.7296 77.8006C83.7296 79.1524 82.6315 80.2505 81.2797 80.2505C79.9279 80.2505 78.8298 79.1524 78.8298 77.8006C78.8298 76.4489 79.9279 75.3508 81.2797 75.3508C82.6315 75.3508 83.7296 76.4489 83.7296 77.8006Z" fill="#7BCCBC"/>
<path d="M95 71H213C218 71 221.793 74.5 221.793 80V275C221.793 279.5 218.5 284.492 212 284.492H96C91 284.492 86 282.5 86 277.388V80C86 74 90 71 95 71Z" fill="#354D6E"/>
<path d="M168.706 75.8843H139.542C138.897 75.8843 138.375 76.4068 138.375 77.0514C138.375 77.696 138.897 78.2186 139.542 78.2186H168.706C169.35 78.2186 169.873 77.696 169.873 77.0514C169.873 76.4068 169.35 75.8843 168.706 75.8843Z" fill="#283857"/>
<path d="M166.02 272.343H142.221C140.546 272.343 139.188 273.701 139.188 275.376C139.188 277.051 140.546 278.409 142.221 278.409H166.02C167.695 278.409 169.053 277.051 169.053 275.376C169.053 273.701 167.695 272.343 166.02 272.343Z" fill="#283857"/>
<path d="M94.3345 82.6143H213.916C216.494 82.6143 218.583 84.704 218.583 87.2818V261.531C218.583 264.109 216.494 266.199 213.916 266.199H94.3345C91.7567 266.199 89.667 264.109 89.667 261.531V87.2818C89.667 84.704 91.7567 82.6143 94.3345 82.6143Z" fill="#FFFBFA" stroke="url(#paint0_linear_1370_12809)" stroke-width="0.34574"/>
<path d="M100.985 243.671C103.853 243.671 106.177 241.346 106.177 238.479C106.177 235.611 103.853 233.287 100.985 233.287C98.1177 233.287 95.7932 235.611 95.7932 238.479C95.7932 241.346 98.1177 243.671 100.985 243.671Z" fill="#F6E7E0"/>
<path d="M115.334 243.671C118.201 243.671 120.526 241.346 120.526 238.479C120.526 235.611 118.201 233.287 115.334 233.287C112.466 233.287 110.142 235.611 110.142 238.479C110.142 241.346 112.466 243.671 115.334 243.671Z" fill="#F6E7E0"/>
<path d="M151.09 234.452H123.441V237.137H151.09V234.452Z" fill="#FFB390"/>
<path d="M212 244H97V250H212V244Z" fill="#F6E7E0"/>
<path d="M211.521 252.536H96.7272V255.22H211.521V252.536Z" fill="#F6E7E0"/>
<path d="M124.376 258.02H96.7272V260.704H124.376V258.02Z" fill="#F6E7E0"/>
<path d="M168.005 239.471H123.441V242.155H168.005V239.471Z" fill="#FFB390"/>
<path d="M188.338 223.959H126.205C125.942 223.959 125.727 223.57 125.727 223.095C125.727 222.62 125.942 222.231 126.205 222.231H188.338C188.601 222.231 188.816 222.62 188.816 223.095C188.816 223.57 188.601 223.959 188.338 223.959Z" fill="white"/>
<path d="M128.686 223.095C128.686 224.113 127.861 224.938 126.843 224.938C125.825 224.938 125 224.113 125 223.095C125 222.077 125.825 221.252 126.843 221.252C127.861 221.252 128.686 222.077 128.686 223.095Z" fill="#FFFEFE"/>
<path d="M198 35.0677C198 26.7602 204.783 20 213.118 20C221.453 20 228.236 26.7602 228.236 35.0677C228.236 43.3753 221.453 50.1354 213.118 50.1354C204.783 50.1354 198 43.3753 198 35.0677ZM223.502 35.0677C223.502 29.3602 218.844 24.7182 213.118 24.7182C207.391 24.7182 202.734 29.3602 202.734 35.0677C202.734 40.7752 207.391 45.4173 213.118 45.4173C218.844 45.4173 223.502 40.7752 223.502 35.0677Z" fill="url(#paint1_linear_1370_12809)"/>
<path d="M115 46.5C115 41.8135 118.814 38 123.5 38C128.186 38 132 41.8135 132 46.5C132 51.1864 128.186 55 123.5 55C118.814 55 115 51.1864 115 46.5ZM129.338 46.5C129.338 43.2803 126.72 40.6616 123.5 40.6616C120.28 40.6616 117.662 43.2803 117.662 46.5C117.662 49.7197 120.28 52.3384 123.5 52.3384C126.72 52.3384 129.338 49.7197 129.338 46.5Z" fill="url(#paint2_linear_1370_12809)"/>
<path d="M104.192 102.384C107.059 102.384 109.384 100.059 109.384 97.1919C109.384 94.3245 107.059 92 104.192 92C101.325 92 99 94.3245 99 97.1919C99 100.059 101.325 102.384 104.192 102.384Z" fill="#F6E7E0"/>
<path d="M139.948 93.1655H112.299V95.8498H139.948V93.1655Z" fill="#F6E7E0"/>
<path d="M156.863 98.1841H112.299V100.868H156.863V98.1841Z" fill="#F6E7E0"/>
<path d="M243 102C242.69 106.279 240.258 112.047 233 114C237.7 115.674 243 118.186 243 126C243.543 122 247.003 114.279 253 114C250.258 112.605 244.444 111.209 243 102Z" stroke="url(#paint3_linear_1370_12809)" stroke-width="2" stroke-linejoin="round"/>
<path d="M60.3115 164.985C60.3115 163.679 61.3677 162.626 62.6785 162.626H73.1388C74.4495 162.626 75.5057 163.679 75.5057 164.985C75.5057 166.291 74.4495 167.344 73.1388 167.344H62.6785C61.3677 167.344 60.3115 166.291 60.3115 164.985Z" fill="url(#paint4_linear_1370_12809)"/>
<path d="M42 164.985C42 163.679 43.0562 162.626 44.3669 162.626H54.8273C56.138 162.626 57.1942 163.679 57.1942 164.985C57.1942 166.292 56.138 167.344 54.8273 167.344H44.3669C43.0562 167.344 42 166.292 42 164.985Z" fill="url(#paint5_linear_1370_12809)"/>
<path d="M56.379 179.62V170.259C56.379 168.953 57.4352 167.9 58.7459 167.9C60.0566 167.9 61.1128 168.953 61.1128 170.259V179.62C61.1128 180.926 60.0566 181.979 58.7459 181.979C57.4352 181.979 56.379 180.926 56.379 179.62Z" fill="url(#paint6_linear_1370_12809)"/>
<path d="M56.379 159.719V150.359C56.379 149.053 57.4352 148 58.7459 148C60.0566 148 61.1128 149.053 61.1128 150.359V159.719C61.1128 161.026 60.0566 162.078 58.7459 162.078C57.4352 162.078 56.379 161.026 56.379 159.719Z" fill="url(#paint7_linear_1370_12809)"/>
<path d="M124.02 196.913C122.187 195.692 118.277 192.27 117.3 188.36C116.078 183.473 104.47 184.083 106.302 191.415C107.117 195.284 112.168 203.634 120.965 206.078L124.02 196.913Z" fill="url(#paint8_linear_1370_12809)"/>
<rect x="95.9066" y="227.969" width="8.94523" height="91.5166" rx="4.47262" transform="rotate(-140.545 95.9066 227.969)" fill="#5BA8A3"/>
<path d="M141.399 130.076L177.078 159.441C178.463 160.58 178.661 162.626 177.522 164.011L177.28 164.305C176.797 164.891 176.124 165.29 175.378 165.431L161.962 167.976C161.015 168.155 160.038 167.905 159.294 167.293L137.115 149.039C136.371 148.427 135.937 147.516 135.931 146.552L135.847 132.897C135.843 132.137 136.104 131.4 136.587 130.814L136.829 130.52C137.968 129.135 140.014 128.937 141.399 130.076Z" fill="#5BA8A3"/>
<path d="M137.392 131.309L177.096 163.986C177.963 164.7 179.232 164.632 180.018 163.829L196.547 146.946C197.435 146.04 197.356 144.568 196.376 143.761L153.531 108.499C152.551 107.693 151.091 107.899 150.372 108.944L136.984 128.412C136.348 129.337 136.525 130.596 137.392 131.309Z" fill="#FFCC80"/>
<path d="M181.981 156.414L193.787 142.069L192.243 140.798L180.437 155.143L181.981 156.414Z" fill="white"/>
<path d="M176.141 151.604L187.947 137.259L186.403 135.988L174.597 150.333L176.141 151.604Z" fill="white"/>
<path d="M170.297 146.794L182.103 132.449L180.559 131.178L168.753 145.523L170.297 146.794Z" fill="white"/>
<path d="M164.45 141.984L176.256 127.639L174.712 126.368L162.905 140.713L164.45 141.984Z" fill="white"/>
<path d="M158.602 137.174L170.408 122.829L168.864 121.558L157.058 135.903L158.602 137.174Z" fill="white"/>
<path d="M152.762 132.364L164.568 118.019L163.024 116.748L151.218 131.093L152.762 132.364Z" fill="white"/>
<path d="M146.766 127.365L158.572 113.02L157.028 111.749L145.222 126.094L146.766 127.365Z" fill="white"/>
<path d="M119.227 190.365C119.227 193.339 117.057 195.75 114.38 195.75C111.704 195.75 110.227 194.878 110.227 191.904C110.227 188.93 111.704 185.75 114.38 185.75C117.057 185.75 119.227 187.392 119.227 190.365Z" fill="url(#paint9_linear_1370_12809)"/>
<path d="M183.087 195.692C184.919 194.47 188.83 191.048 189.807 187.138C191.029 182.251 202.637 182.862 200.804 190.193C199.99 194.063 194.939 202.412 186.141 204.856L183.087 195.692Z" fill="url(#paint10_linear_1370_12809)"/>
<path fill-rule="evenodd" clip-rule="evenodd" d="M153.76 164.429C134.865 164.429 119.547 185.765 119.547 212.083C119.547 225.749 123.676 238.071 130.292 246.76C131.191 245.588 133.477 243.853 135.432 246.297C136.45 245.279 139.097 243.853 141.541 246.297C142.284 245.482 144.281 244.342 146.322 246.297C146.764 245.069 147.314 243.156 147.651 240.798H159.87C160.036 242.46 160.5 245.557 161.196 246.908L161.319 246.76C162.217 245.588 164.503 243.853 166.458 246.297C167.476 245.279 170.124 243.853 172.567 246.297C173.311 245.482 175.308 244.342 177.348 246.297L177.46 246.452C183.94 237.781 187.974 225.588 187.974 212.083C187.974 185.765 172.656 164.429 153.76 164.429Z" fill="url(#paint11_linear_1370_12809)"/>
<path d="M131.766 247.519C134.21 248.741 140.441 250.451 145.818 247.519C145.944 247.265 146.122 246.851 146.322 246.297C144.281 244.342 142.284 245.482 141.541 246.297C139.097 243.853 136.45 245.279 135.432 246.297C133.477 243.853 131.191 245.588 130.292 246.76L131.766 247.519Z" fill="white"/>
<path d="M131.766 247.519C134.21 248.741 140.441 250.451 145.818 247.519C145.944 247.265 146.122 246.851 146.322 246.297C144.281 244.342 142.284 245.482 141.541 246.297C139.097 243.853 136.45 245.279 135.432 246.297C133.477 243.853 131.191 245.588 130.292 246.76L131.766 247.519Z" fill="white"/>
<path d="M161.703 247.519C163.739 248.741 169.401 250.451 175.755 247.519L177.348 246.602L177.359 246.588L177.407 246.524L177.46 246.452L177.348 246.297C175.308 244.342 173.311 245.482 172.567 246.297C170.124 243.853 167.476 245.279 166.458 246.297C164.503 243.853 162.217 245.588 161.319 246.76L161.196 246.908C161.353 247.213 161.522 247.429 161.703 247.519Z" fill="white"/>
<path d="M161.703 247.519C163.739 248.741 169.401 250.451 175.755 247.519L177.348 246.602L177.359 246.588L177.407 246.524L177.46 246.452L177.348 246.297C175.308 244.342 173.311 245.482 172.567 246.297C170.124 243.853 167.476 245.279 166.458 246.297C164.503 243.853 162.217 245.588 161.319 246.76L161.196 246.908C161.353 247.213 161.522 247.429 161.703 247.519Z" fill="white"/>
<circle cx="153.761" cy="188.202" r="10.9971" fill="white"/>
<circle cx="153.761" cy="188.202" r="7.33143" fill="#62524E"/>
<circle cx="153.761" cy="188.202" r="3.66571" fill="#4B4240"/>
<circle cx="150.706" cy="185.147" r="1.83286" fill="white"/>
<path d="M145.227 202.75C148.393 206.454 155.993 210.938 164.227 202.75C161.584 206.655 155.413 211.537 149.027 206.792C148.605 206.479 148.182 206.124 147.76 205.724C146.913 204.921 146.066 203.938 145.227 202.75Z" fill="#C97800"/>
<path d="M210.206 171.47C210.187 171.531 213.093 172.6 216.695 173.862C220.301 175.124 223.239 176.097 223.261 176.036C223.281 175.975 220.378 174.906 216.772 173.644C213.167 172.382 210.229 171.409 210.209 171.47H210.206Z" stroke="url(#paint12_linear_1370_12809)" stroke-width="1.03722" stroke-miterlimit="10"/>
<path d="M209.035 164.65C209.045 164.715 213.681 164.066 219.394 163.206C225.106 162.345 229.726 161.597 229.72 161.533C229.71 161.468 225.074 162.117 219.361 162.978C213.653 163.838 209.029 164.586 209.039 164.65H209.035Z" stroke="url(#paint13_linear_1370_12809)" stroke-width="1.03722" stroke-miterlimit="10"/>
<path d="M208.001 157.651C208.043 157.699 209.667 156.248 211.629 154.411C213.591 152.574 215.145 151.049 215.103 151.001C215.061 150.953 213.437 152.404 211.475 154.241C209.513 156.078 207.959 157.603 208.001 157.651Z" stroke="url(#paint14_linear_1370_12809)" stroke-width="1.03722" stroke-miterlimit="10"/>
</svg>
