<svg width="309" height="292" viewBox="0 0 309 292" fill="none" xmlns="http://www.w3.org/2000/svg">
<defs>
<filter id="filter0_d_1117_11899" x="132.981" y="175.78" width="51.7516" height="95.5275" filterUnits="userSpaceOnUse" color-interpolation-filters="sRGB">
<feFlood flood-opacity="0" result="BackgroundImageFix"/>
<feColorMatrix in="SourceAlpha" type="matrix" values="0 0 0 0 0 0 0 0 0 0 0 0 0 0 0 0 0 0 127 0" result="hardAlpha"/>
<feOffset dx="2.42018" dy="1.38296"/>
<feGaussianBlur stdDeviation="3.28453"/>
<feComposite in2="hardAlpha" operator="out"/>
<feColorMatrix type="matrix" values="0 0 0 0 0 0 0 0 0 0 0 0 0 0 0 0 0 0 0.25 0"/>
<feBlend mode="normal" in2="BackgroundImageFix" result="effect1_dropShadow_1117_11899"/>
<feBlend mode="normal" in="SourceGraphic" in2="effect1_dropShadow_1117_11899" result="shape"/>
</filter>
<linearGradient id="paint0_linear_1117_11899" x1="159.625" y1="241.669" x2="159.806" y2="191.941" gradientUnits="userSpaceOnUse">
<stop stop-color="#FF7728"/>
<stop offset="1" stop-color="#FF984C"/>
</linearGradient>
<linearGradient id="paint1_linear_1117_11899" x1="155.213" y1="207.624" x2="150.735" y2="87.6505" gradientUnits="userSpaceOnUse">
<stop stop-color="#1D9393"/>
<stop offset="1" stop-color="#1D9393"/>
</linearGradient>
<linearGradient id="paint2_linear_1117_11899" x1="104.658" y1="72.2727" x2="68.7876" y2="39.2492" gradientUnits="userSpaceOnUse">
<stop stop-color="#33A752"/>
<stop offset="1" stop-color="#8DCB9E"/>
</linearGradient>
<linearGradient id="paint3_linear_1117_11899" x1="155.369" y1="57.8636" x2="135.692" y2="39.3068" gradientUnits="userSpaceOnUse">
<stop stop-color="#33A752"/>
<stop offset="1" stop-color="#8DCB9E"/>
</linearGradient>
<linearGradient id="paint4_linear_1117_11899" x1="221.559" y1="10.0325" x2="212.127" y2="1.13715" gradientUnits="userSpaceOnUse">
<stop stop-color="#FF9900"/>
<stop offset="1" stop-color="#FFCC80"/>
</linearGradient>
<linearGradient id="paint5_linear_1117_11899" x1="206.741" y1="32.667" x2="197.519" y2="25.2744" gradientUnits="userSpaceOnUse">
<stop stop-color="#F43B2E"/>
<stop offset="1" stop-color="#FF5A7B"/>
</linearGradient>
<linearGradient id="paint6_linear_1117_11899" x1="185.275" y1="38.7042" x2="184.394" y2="36.0367" gradientUnits="userSpaceOnUse">
<stop stop-color="#33A752"/>
<stop offset="1" stop-color="#8DCB9E"/>
</linearGradient>
<linearGradient id="paint7_linear_1117_11899" x1="178.598" y1="38.7044" x2="177.717" y2="36.037" gradientUnits="userSpaceOnUse">
<stop stop-color="#33A752"/>
<stop offset="1" stop-color="#8DCB9E"/>
</linearGradient>
<linearGradient id="paint8_linear_1117_11899" x1="179.966" y1="43.5913" x2="177.429" y2="42.7896" gradientUnits="userSpaceOnUse">
<stop stop-color="#33A752"/>
<stop offset="1" stop-color="#8DCB9E"/>
</linearGradient>
<linearGradient id="paint9_linear_1117_11899" x1="179.966" y1="36.3108" x2="177.429" y2="35.5091" gradientUnits="userSpaceOnUse">
<stop stop-color="#33A752"/>
<stop offset="1" stop-color="#8DCB9E"/>
</linearGradient>
<clipPath id="clip0_1117_11899">
<rect width="309" height="292" fill="white"/>
</clipPath>
<clipPath id="clip1_1117_11899">
<rect width="268.986" height="110.291" fill="white" transform="translate(17.8457 180.966)"/>
</clipPath>
<clipPath id="clip2_1117_11899">
<rect width="26.3891" height="14.8149" fill="white" transform="translate(188.875 93.1851)"/>
</clipPath>
</defs>
<g clip-path="url(#clip0_1117_11899)">
<path d="M295.664 224.417C293.969 224.289 292.35 223.823 290.854 223.027L291.182 222.411C292.591 223.159 294.116 223.602 295.715 223.721L295.664 224.421V224.417ZM300.628 223.769L300.397 223.107C301.903 222.581 303.264 221.762 304.439 220.67L304.915 221.184C303.665 222.34 302.224 223.21 300.628 223.769ZM287.001 219.826C285.942 218.497 285.184 216.991 284.75 215.353L285.428 215.173C285.839 216.718 286.552 218.134 287.55 219.389L287.001 219.826ZM307.817 217.103L307.175 216.824C307.814 215.363 308.138 213.809 308.138 212.2H308.838C308.838 213.905 308.495 215.552 307.817 217.103ZM308.071 210.941C307.901 209.352 307.409 207.843 306.61 206.453L307.217 206.103C308.064 207.577 308.585 209.179 308.764 210.864L308.068 210.938L308.071 210.941ZM285.171 210.46L284.481 210.354C284.734 208.678 285.322 207.098 286.231 205.663L286.821 206.039C285.964 207.393 285.412 208.88 285.171 210.46ZM303.473 202.927C302.189 201.97 300.747 201.303 299.19 200.946L299.347 200.265C300.997 200.644 302.529 201.351 303.893 202.369L303.476 202.93L303.473 202.927ZM290.103 202.641L289.708 202.063C291.114 201.107 292.672 200.464 294.338 200.156L294.466 200.843C292.896 201.136 291.429 201.739 290.103 202.641Z" fill="#7BCCBC"/>
<path d="M242.622 67.6512C242.622 69.9694 240.74 71.851 238.422 71.851C236.104 71.851 234.222 69.9694 234.222 67.6512C234.222 65.333 236.104 63.4514 238.422 63.4514C240.74 63.4514 242.622 65.333 242.622 67.6512Z" fill="#7BCCBC"/>
<path d="M7.85781 170.873C7.85781 172.999 6.13358 174.723 4.00801 174.723C1.88243 174.723 0.158203 172.999 0.158203 170.873C0.158203 168.748 1.88243 167.024 4.00801 167.024C6.13358 167.024 7.85781 168.748 7.85781 170.873Z" fill="#7BCCBC"/>
<path d="M286.639 201.091C288.185 201.091 289.439 199.837 289.439 198.291C289.439 196.745 288.185 195.491 286.639 195.491C285.093 195.491 283.839 196.745 283.839 198.291C283.839 199.837 285.093 201.091 286.639 201.091Z" fill="#7BCCBC"/>
<path d="M83.7296 70.8007C83.7296 72.1525 82.6315 73.2506 81.2797 73.2506C79.9279 73.2506 78.8298 72.1525 78.8298 70.8007C78.8298 69.4489 79.9279 68.3508 81.2797 68.3508C82.6315 68.3508 83.7296 69.4489 83.7296 70.8007Z" fill="#7BCCBC"/>
<path d="M93.7715 76.75H216.471C220.083 76.75 223.018 79.6847 223.018 83.2969V283.695C223.018 287.308 220.083 290.242 216.471 290.242H93.7715C90.1593 290.242 87.2246 287.308 87.2246 283.695V83.2969C87.2246 79.6847 90.1593 76.75 93.7715 76.75Z" fill="#06204C"/>
<path d="M169.704 81.884H140.54C139.896 81.884 139.373 82.4066 139.373 83.0512C139.373 83.6958 139.896 84.2183 140.54 84.2183H169.704C170.349 84.2183 170.871 83.6958 170.871 83.0512C170.871 82.4066 170.349 81.884 169.704 81.884Z" fill="#283857"/>
<path d="M170.051 278.343H140.187V284.408H170.051V278.343Z" fill="#283857"/>
<path d="M214.914 88.4412H95.3329C92.6596 88.4412 90.4925 90.6083 90.4925 93.2815V267.531C90.4925 270.204 92.6596 272.371 95.3329 272.371H214.914C217.588 272.371 219.755 270.204 219.755 267.531V93.2815C219.755 90.6083 217.588 88.4412 214.914 88.4412Z" fill="#F6E7E0"/>
<path d="M101.983 249.67C104.851 249.67 107.175 247.346 107.175 244.479C107.175 241.611 104.851 239.287 101.983 239.287C99.116 239.287 96.7915 241.611 96.7915 244.479C96.7915 247.346 99.116 249.67 101.983 249.67Z" fill="#FFB390"/>
<path d="M116.332 249.67C119.2 249.67 121.524 247.346 121.524 244.479C121.524 241.611 119.2 239.287 116.332 239.287C113.465 239.287 111.14 241.611 111.14 244.479C111.14 247.346 113.465 249.67 116.332 249.67Z" fill="#FFB390"/>
<path d="M152.088 240.452H124.44V243.136H152.088V240.452Z" fill="#FFB390"/>
<path d="M212.52 253.052H97.7256V255.736H212.52V253.052Z" fill="#FFB390"/>
<path d="M212.52 258.536H97.7256V261.22H212.52V258.536Z" fill="#FFB390"/>
<path d="M125.374 264.02H97.7256V266.704H125.374V264.02Z" fill="#FCB32B"/>
<path d="M107.029 123.44C107.69 120.65 105.964 117.852 103.174 117.191C100.384 116.529 97.5862 118.255 96.9251 121.046C96.264 123.836 97.9899 126.634 100.78 127.295C103.57 127.956 106.368 126.23 107.029 123.44Z" fill="#F6E7E0"/>
<path d="M136.924 117.991H109.275V120.675H136.924V117.991Z" fill="#F6E7E0"/>
<path d="M169.003 245.471H124.44V248.155H169.003V245.471Z" fill="#FFB390"/>
<path d="M219.757 129.248H90.4951V213.243H219.757V129.248Z" fill="#F6E7E0"/>
<path d="M297.204 185.09C296.742 183.928 295.603 182.991 294.467 182.627C292.803 182.096 290.978 182.221 289.426 181.346C287.689 180.369 286.293 178.167 284.365 178.382C282.82 178.553 281.704 180.277 280.179 180.623C277.026 181.337 274.929 176.064 271.717 176.061C269.802 176.061 268.204 177.986 266.289 178.055C263.807 178.144 262.169 175.278 260.654 173.027C258.409 169.689 254.513 166.906 251.185 168.702C248.973 169.897 247.841 172.67 246.636 175.11C245.431 177.55 243.605 180.082 241.159 180.085C238.587 180.089 235.998 177.256 233.76 178.705C232.707 179.385 232.198 180.861 232.205 182.248C232.208 183.222 232.426 184.166 232.7 185.094H297.201L297.204 185.09Z" fill="#FDFEFE"/>
<path d="M76.7988 159.711C75.4482 158.21 73.4542 157.201 71.3514 157.192C68.8645 157.18 66.2368 158.345 64.0028 157.321C61.0103 155.949 60.767 151.536 57.7265 150.26C55.6077 149.372 53.2072 150.45 50.9284 150.855C47.0557 151.545 42.8341 150.077 40.376 147.183C39.4254 146.067 38.7245 144.761 37.6491 143.749C35.6359 141.864 32.4545 141.281 29.7212 142.023C26.9879 142.764 24.7219 144.701 23.352 147.042C22.2926 148.852 21.5149 151.101 19.4761 151.875C17.1397 152.764 14.3584 151.185 12.0155 152.056C10.332 152.683 9.39422 154.454 9.30781 156.15C9.247 157.357 9.53505 158.543 9.91912 159.705H76.7956L76.7988 159.711Z" fill="#FDFEFE"/>
<path d="M90.4955 212.659V221.544C90.4955 222.761 91.5969 223.75 92.9583 223.75H217.298C218.656 223.75 219.761 222.761 219.761 221.544V212.659H90.4955Z" fill="#FFB390"/>
<path d="M215.338 216.959H153.205C152.942 216.959 152.727 216.57 152.727 216.095C152.727 215.62 152.942 215.231 153.205 215.231H215.338C215.601 215.231 215.816 215.62 215.816 216.095C215.816 216.57 215.601 216.959 215.338 216.959Z" fill="white"/>
<path d="M153.589 216.959H93.8096C93.3312 216.959 92.9459 216.57 92.9459 216.095C92.9459 215.62 93.3344 215.231 93.8096 215.231H153.589C154.068 215.231 154.453 215.62 154.453 216.095C154.453 216.57 154.064 216.959 153.589 216.959Z" fill="#E18F00"/>
<path d="M155.126 216.095C155.126 217.113 154.301 217.938 153.283 217.938C152.265 217.938 151.44 217.113 151.44 216.095C151.44 215.077 152.265 214.252 153.283 214.252C154.301 214.252 155.126 215.077 155.126 216.095Z" fill="#FFFEFE"/>
<path d="M101.291 219.303H102.135V222.186H101.291V219.303ZM99.666 222.186H100.51V219.303H99.666V222.186ZM107.68 219.303V220.468L105.901 219.303V222.186L107.68 221.021V222.186H108.525V219.303H107.68ZM93.2764 219.303V222.186H94.1208V221.021L95.8996 222.186V219.303L94.1208 220.468V219.303H93.2764Z" fill="#FFFEFE"/>
<path d="M53.8048 152.281C53.7856 152.342 56.6914 153.411 60.2939 154.673C63.8997 155.935 66.8377 156.908 66.8601 156.847C66.8794 156.786 63.9768 155.717 60.371 154.455C56.7652 153.193 53.8273 152.22 53.808 152.281H53.8048Z" stroke="#00987C" stroke-width="1.03722" stroke-miterlimit="10"/>
<path d="M52.634 145.461C52.6437 145.526 57.2801 144.877 62.9922 144.017C68.7043 143.156 73.3247 142.408 73.3183 142.344C73.3087 142.28 68.6722 142.928 62.9601 143.789C57.2512 144.649 52.6276 145.397 52.6372 145.461H52.634Z" stroke="#00987C" stroke-width="1.03722" stroke-miterlimit="10"/>
<path d="M51.5995 138.462C51.6413 138.51 53.2659 137.059 55.2278 135.222C57.1896 133.386 58.7436 131.86 58.7019 131.812C58.6602 131.764 57.0355 133.215 55.0736 135.052C53.1118 136.889 51.5578 138.414 51.5995 138.462Z" stroke="#00987C" stroke-width="1.03722" stroke-miterlimit="10"/>
<g clip-path="url(#clip1_1117_11899)">
<path d="M276.36 319.471C276.298 318.678 276.131 317.895 275.864 317.145H276.172C282.621 316.65 287.383 310.423 286.848 303.186C286.352 296.573 281.594 291.425 275.864 290.955C276.141 289.762 276.234 288.533 276.142 287.312C275.701 281.278 270.993 276.709 265.63 277.105C260.779 277.462 257.058 281.763 256.726 287.045C252.638 288.475 249.845 292.915 250.217 297.934C250.52 302.033 252.836 305.438 255.981 307.003C255.1 307.826 254.418 308.84 253.988 309.966C253.558 311.092 253.392 312.302 253.501 313.502C253.809 317.704 257.088 320.887 260.823 320.615C261.148 320.588 261.47 320.535 261.786 320.456C261.783 320.486 261.783 320.516 261.786 320.545C261.861 321.607 262.123 322.648 262.559 323.619H275.671C276.226 322.311 276.462 320.889 276.36 319.471Z" fill="white"/>
<path d="M255.961 311.519C255.898 310.726 255.732 309.944 255.465 309.193H255.773C262.222 308.698 266.984 302.471 266.448 295.234C265.952 288.621 261.195 283.474 255.465 283.003C255.742 281.81 255.835 280.582 255.743 279.36C255.301 273.326 250.594 268.758 245.231 269.154C240.379 269.51 236.659 273.811 236.326 279.093C232.239 280.523 229.446 284.963 229.818 289.983C230.12 294.081 232.437 297.487 235.582 299.051C234.7 299.874 234.019 300.888 233.589 302.014C233.159 303.14 232.992 304.35 233.102 305.55C233.409 309.752 236.688 312.935 240.424 312.663C240.749 312.636 241.07 312.583 241.386 312.504C241.384 312.534 241.384 312.564 241.386 312.594C241.461 313.656 241.723 314.696 242.16 315.667H255.272C255.827 314.359 256.063 312.937 255.961 311.519Z" fill="white"/>
<path d="M230.394 267.845C226.671 265.781 222.407 265.115 218.288 265.954C214.169 266.793 210.433 269.088 207.68 272.471C206.479 270.438 204.893 268.697 203.024 267.359C201.156 266.021 199.046 265.117 196.831 264.703C194.616 264.29 192.345 264.377 190.164 264.959C187.982 265.541 185.938 266.605 184.164 268.082C180.798 265.262 176.611 263.801 172.338 263.954C168.065 264.108 163.979 265.866 160.797 268.92C157.616 271.975 155.542 276.131 154.939 280.658C154.337 285.185 155.245 289.794 157.504 293.677H238.91C240.831 289.021 241.02 283.756 239.437 278.956C237.855 274.156 234.621 270.183 230.394 267.845Z" fill="white"/>
<g filter="url(#filter0_d_1117_11899)">
<path d="M149.591 181.822L137.13 263.355L175.743 260.659L161.048 180.966L149.591 181.822Z" fill="white"/>
</g>
<path d="M181.282 284.673C182.375 283.7 183.215 282.476 183.729 281.108C184.243 279.739 184.416 278.266 184.232 276.816C184.049 275.365 183.514 273.981 182.675 272.783C181.836 271.585 180.718 270.608 179.416 269.937C180.698 268.483 181.644 266.765 182.186 264.906C182.727 263.046 182.852 261.09 182.55 259.177C182.248 257.264 181.528 255.441 180.441 253.837C179.353 252.233 177.925 250.887 176.257 249.897C174.59 248.906 172.724 248.293 170.792 248.103C168.861 247.913 166.911 248.15 165.082 248.797C163.252 249.443 161.588 250.484 160.207 251.845C158.826 253.206 157.763 254.854 157.093 256.671C156.821 257.421 156.617 258.193 156.482 258.978C155.897 258.67 155.292 258.401 154.672 258.171C151.429 256.992 147.866 257.04 144.657 258.307C141.447 259.574 138.815 261.971 137.259 265.045C135.703 268.119 135.331 271.655 136.213 274.984C137.095 278.314 139.171 281.204 142.046 283.109C140.283 284.573 138.972 286.505 138.264 288.682C137.557 290.859 137.482 293.191 138.048 295.409H184.124C184.464 293.521 184.386 291.581 183.895 289.727C183.404 287.872 182.512 286.147 181.282 284.673Z" fill="white"/>
<path d="M141.176 291.466C141.113 290.673 140.946 289.891 140.68 289.14H140.987C147.436 288.645 152.199 282.418 151.663 275.181C151.167 268.568 146.409 263.421 140.68 262.95C140.956 261.757 141.05 260.529 140.958 259.307C140.516 253.273 135.808 248.705 130.446 249.101C125.594 249.457 121.873 253.758 121.541 259.04C117.453 260.47 114.66 264.91 115.032 269.93C115.335 274.028 117.652 277.434 120.797 278.998C119.915 279.821 119.233 280.835 118.803 281.961C118.374 283.087 118.207 284.297 118.316 285.497C118.624 289.699 121.903 292.882 125.639 292.61C125.963 292.583 126.285 292.53 126.601 292.451C126.598 292.481 126.598 292.511 126.601 292.541C126.676 293.603 126.938 294.643 127.375 295.614H140.486C141.042 294.306 141.278 292.884 141.176 291.466Z" fill="white"/>
<path d="M148.644 292.047C148.55 288.586 147.535 285.212 145.704 282.271C143.872 279.33 141.29 276.928 138.222 275.31C135.155 273.692 131.711 272.917 128.244 273.065C124.777 273.212 121.412 274.276 118.492 276.148V275.925C118.377 271.814 116.908 267.854 114.313 264.659C111.718 261.463 108.14 259.208 104.133 258.243C100.126 257.278 95.9119 257.656 92.1414 259.318C88.3708 260.98 85.2535 263.835 83.2706 267.441C81.4027 266.501 79.3334 266.028 77.2415 266.063C75.1495 266.098 73.0975 266.641 71.2626 267.644C69.4277 268.647 67.8649 270.081 66.709 271.821C65.5531 273.561 64.8389 275.556 64.6278 277.633C61.766 276.585 58.6922 276.245 55.6699 276.643C52.6476 277.04 49.767 278.163 47.2751 279.915C44.7832 281.667 42.7542 283.996 41.3623 286.702C39.9703 289.408 39.2568 292.411 39.283 295.452H148.421C148.594 294.326 148.669 293.186 148.644 292.047Z" fill="white"/>
<path d="M20.5085 285.935C21.7027 283.722 24.0233 282.164 26.9607 281.603C29.8982 281.041 33.2124 281.522 36.1756 282.94C37.0428 283.352 37.8658 283.84 38.6273 284.394C38.7694 284.002 38.9387 283.62 39.1346 283.25C40.1862 281.299 42.0123 279.779 44.3674 278.893C46.7225 278.007 49.4934 277.799 52.3073 278.296C55.1211 278.793 57.8428 279.972 60.1061 281.674C62.3694 283.376 64.0656 285.519 64.9665 287.815C66.8199 287.061 68.9901 286.789 71.2404 287.026C73.4907 287.263 75.7345 288.002 77.7269 289.161C79.7193 290.32 81.3838 291.855 82.5387 293.599C83.6936 295.342 84.2944 297.228 84.2757 299.048L84.4628 299.091L77.6951 315.985L20.4396 293.048C19.3445 290.584 19.3692 288.041 20.5085 285.935ZM60.9391 299.819C60.8398 299.645 60.7527 299.476 60.6716 299.309C60.3611 299.469 60.0435 299.594 59.7008 299.747C60.1325 299.759 60.5428 299.789 60.9391 299.819Z" fill="white"/>
</g>
<path d="M163.045 210.73L159.735 240.621C159.944 234.265 155.883 206.469 157.6 202.545C159.965 197.14 163.806 201.965 163.045 210.73ZM154.574 211.286L151.264 241.177C151.472 234.82 147.412 207.024 149.128 203.101C151.493 197.696 155.335 202.521 154.574 211.286ZM145.809 195.551C150.636 194.465 161.576 194.696 166.013 195.878C161.508 200.167 155.823 196.627 155.064 197.35C154.122 198.247 141.152 196.6 145.809 195.551Z" fill="url(#paint0_linear_1117_11899)"/>
<path d="M128.398 191.413L138.83 180.219L133.421 155.037L125.307 163.743L128.398 191.413Z" fill="#062665"/>
<path d="M182.828 191.764L172.541 180.437L178.274 155.326L186.275 164.136L182.828 191.764Z" fill="#062665"/>
<path d="M128.398 191.413L138.83 180.219L133.421 155.037L125.307 163.743L128.398 191.413Z" stroke="#062665" stroke-width="1.14645"/>
<path d="M182.828 191.764L172.541 180.437L178.274 155.326L186.275 164.136L182.828 191.764Z" stroke="#062665" stroke-width="1.14645"/>
<path d="M177.336 148.628C177.785 166.336 173.201 188.305 169.044 197.209C161.747 193.817 149.585 194.241 142.229 196.962C131.796 170.204 133.383 143.205 133.404 139.944C133.543 118.283 144.564 99.4157 153.907 90.5202C163.748 98.4311 176.731 124.796 177.336 148.628Z" fill="url(#paint1_linear_1117_11899)" stroke="#1D9393" stroke-width="0.81046"/>
<path d="M145.184 140.67C140.059 135.287 140.119 126.912 145.317 121.963C150.515 117.014 158.884 117.365 164.008 122.748C169.133 128.131 169.074 136.506 163.876 141.455C158.677 146.404 150.309 146.053 145.184 140.67Z" fill="white"/>
<path d="M149.093 164.888C145.305 160.909 145.349 154.718 149.191 151.06C153.034 147.402 159.22 147.661 163.008 151.64C166.796 155.619 166.752 161.81 162.91 165.469C159.067 169.127 152.882 168.867 149.093 164.888Z" fill="white"/>
<path d="M151.131 185.567C148.53 182.835 148.561 178.585 151.199 176.073C153.837 173.561 158.084 173.74 160.684 176.472C163.285 179.203 163.255 183.454 160.617 185.966C157.979 188.477 153.732 188.299 151.131 185.567Z" fill="white"/>
<path d="M148.464 137.55C145.122 134.04 145.161 128.578 148.551 125.35C151.942 122.122 157.399 122.351 160.741 125.861C164.084 129.372 164.045 134.834 160.654 138.062C157.264 141.29 151.806 141.061 148.464 137.55Z" fill="black"/>
<path d="M151.518 162.582C149.047 159.987 149.076 155.949 151.582 153.563C154.088 151.177 158.122 151.347 160.593 153.941C163.063 156.536 163.034 160.574 160.528 162.96C158.022 165.346 153.988 165.176 151.518 162.582Z" fill="black"/>
<path d="M152.795 183.984C151.098 182.202 151.118 179.43 152.839 177.792C154.559 176.154 157.329 176.27 159.025 178.051C160.721 179.833 160.702 182.605 158.981 184.243C157.26 185.881 154.491 185.765 152.795 183.984Z" fill="black"/>
<path d="M138.259 113.483C145.331 109.194 162.989 108.701 169.462 113.077C166.942 104.309 162.413 94.1289 155.244 88.0448C154.867 87.7242 154.316 87.7173 153.936 88.0354C147.049 93.7999 139.838 108.034 138.259 113.483Z" fill="white"/>
<path d="M102.733 64.3857L104 57.9732L97.9626 56.7965C97.9626 55.2179 97.6866 53.6344 97.1642 52.1048L102.142 48.7809L98.4801 43.3587L93.7192 46.5404C92.2998 45.1089 90.634 44.0058 88.8301 43.2705L90.0179 37.26L83.5715 36L82.3492 42.1919C81.0284 42.2654 79.7125 42.5155 78.4261 42.9518L75.0846 38.0002L69.6337 41.6428L72.8323 46.3787C71.3932 47.7906 70.2843 49.4476 69.545 51.242L64.2666 50.2124L63 56.625L68.4657 57.6937C68.5593 59.3704 68.9388 61.047 69.6288 62.6404L64.863 65.8221L68.5248 71.2443L73.5026 67.9204C74.9318 69.1558 76.5632 70.0873 78.3029 70.6952L77.1102 76.7401L83.5567 78L84.8479 71.4453C86.2673 71.2884 87.672 70.9257 89.0224 70.3521L92.2209 75.0928L97.6718 71.4502L94.3303 66.4987C95.2224 65.4838 95.9518 64.3661 96.5186 63.1747L102.743 64.3906L102.733 64.3857ZM86.5433 61.8167C83.7883 63.6601 80.0377 62.9247 78.1896 60.1842C76.3365 57.4437 77.0757 53.7129 79.8307 51.8744C82.5858 50.0311 86.3363 50.7664 88.1845 53.5069C90.0376 56.2475 89.2984 59.9783 86.5433 61.8167Z" fill="url(#paint2_linear_1117_11899)"/>
<path d="M154.292 53.5478L155 50.0355L151.611 49.3919C151.611 48.5273 151.459 47.6628 151.161 46.8227L153.953 45.0002L151.899 42.0282L149.229 43.7721C148.434 42.9861 147.499 42.3868 146.487 41.9791L147.155 38.6877L143.538 38L142.855 41.3896C142.112 41.4289 141.373 41.5664 140.655 41.8071L138.778 39.0955L135.718 41.0899L137.514 43.6837C136.704 44.4549 136.087 45.3637 135.667 46.3462L132.708 45.7813L132 49.2937L135.065 49.8783C135.116 50.7969 135.328 51.7155 135.718 52.5899L133.047 54.3338L135.101 57.3058L137.893 55.4833C138.692 56.1613 139.608 56.6721 140.584 57.0013L139.916 60.3123L143.533 61L144.256 57.4139C145.05 57.3304 145.839 57.129 146.598 56.8146L148.394 59.4084L151.454 57.4139L149.578 54.7023C150.078 54.1472 150.488 53.5331 150.807 52.8798L154.297 53.5478H154.292ZM145.212 52.1429C143.664 53.1499 141.565 52.752 140.523 51.2488C139.486 49.7456 139.896 47.707 141.444 46.695C142.992 45.688 145.091 46.0859 146.133 47.5891C147.17 49.0923 146.76 51.1309 145.212 52.1429Z" fill="url(#paint3_linear_1117_11899)"/>
<path d="M210.357 6.02332C210.357 2.98398 212.83 0.510742 215.87 0.510742C218.909 0.510742 221.382 2.98398 221.382 6.02332C221.382 9.06267 218.909 11.5359 215.87 11.5359C212.83 11.5359 210.357 9.06267 210.357 6.02332ZM219.656 6.02332C219.656 3.93522 217.958 2.2369 215.87 2.2369C213.782 2.2369 212.083 3.93522 212.083 6.02332C212.083 8.11142 213.782 9.80974 215.87 9.80974C217.958 9.80974 219.656 8.11142 219.656 6.02332Z" fill="url(#paint4_linear_1117_11899)"/>
<path d="M197.219 28.6578C197.219 25.6185 199.693 23.1453 202.732 23.1453C205.771 23.1453 208.245 25.6185 208.245 28.6578C208.245 31.6972 205.771 34.1704 202.732 34.1704C199.693 34.1704 197.219 31.6972 197.219 28.6578ZM206.518 28.6578C206.518 26.5697 204.82 24.8714 202.732 24.8714C200.644 24.8714 198.946 26.5697 198.946 28.6578C198.946 30.7459 200.644 32.4443 202.732 32.4443C204.82 32.4443 206.518 30.7459 206.518 28.6578Z" fill="url(#paint5_linear_1117_11899)"/>
<path d="M179.646 38.0765C179.646 37.5985 180.031 37.2134 180.509 37.2134H184.323C184.801 37.2134 185.186 37.5985 185.186 38.0765C185.186 38.5544 184.801 38.9395 184.323 38.9395H180.509C180.031 38.9395 179.646 38.5544 179.646 38.0765Z" fill="url(#paint6_linear_1117_11899)"/>
<path d="M172.969 38.0767C172.969 37.5988 173.354 37.2136 173.832 37.2136H177.646C178.124 37.2136 178.509 37.5988 178.509 38.0767C178.509 38.5546 178.124 38.9398 177.646 38.9398H173.832C173.354 38.9398 172.969 38.5546 172.969 38.0767Z" fill="url(#paint7_linear_1117_11899)"/>
<path d="M178.212 43.4306V40.0061C178.212 39.5282 178.597 39.1431 179.075 39.1431C179.553 39.1431 179.938 39.5282 179.938 40.0061V43.4306C179.938 43.9086 179.553 44.2937 179.075 44.2937C178.597 44.2937 178.212 43.9086 178.212 43.4306Z" fill="url(#paint8_linear_1117_11899)"/>
<path d="M178.212 36.1501V32.7256C178.212 32.2477 178.597 31.8625 179.075 31.8625C179.553 31.8625 179.938 32.2477 179.938 32.7256V36.1501C179.938 36.6281 179.553 37.0132 179.075 37.0132C178.597 37.0132 178.212 36.6281 178.212 36.1501Z" fill="url(#paint9_linear_1117_11899)"/>
<path d="M231.462 23.1434C231.462 22.6654 231.847 22.2803 232.325 22.2803H236.14C236.617 22.2803 237.003 22.6654 237.003 23.1434C237.003 23.6213 236.617 24.0064 236.14 24.0064H232.325C231.847 24.0064 231.462 23.6213 231.462 23.1434Z" fill="#FAB317"/>
<path d="M224.792 23.1434C224.792 22.6654 225.177 22.2803 225.655 22.2803H229.469C229.947 22.2803 230.332 22.6654 230.332 23.1434C230.332 23.6213 229.947 24.0064 229.469 24.0064H225.655C225.177 24.0064 224.792 23.6213 224.792 23.1434Z" fill="#FAB317"/>
<path d="M230.038 28.4965V25.0721C230.038 24.5941 230.423 24.209 230.901 24.209C231.379 24.209 231.764 24.5941 231.764 25.0721V28.4965C231.764 28.9745 231.379 29.3596 230.901 29.3596C230.423 29.3596 230.038 28.9745 230.038 28.4965Z" fill="#FAB317"/>
<path d="M230.038 21.2119V17.7874C230.038 17.3095 230.423 16.9243 230.901 16.9243C231.379 16.9243 231.764 17.3095 231.764 17.7874V21.2119C231.764 21.6898 231.379 22.075 230.901 22.075C230.423 22.075 230.038 21.6898 230.038 21.2119Z" fill="#FAB317"/>
<g clip-path="url(#clip2_1117_11899)">
<path d="M191.016 93.8794C190.086 93.8794 189.337 94.6279 189.337 95.5576V105.627C189.337 106.557 190.086 107.305 191.016 107.305H209.476C210.406 107.305 211.155 106.557 211.155 105.627V103.949H212.833C213.763 103.949 214.511 103.2 214.511 102.271V98.9142C214.511 97.9844 213.763 97.2359 212.833 97.2359H211.155V95.5576C211.155 94.6279 210.406 93.8794 209.476 93.8794H191.016Z" fill="#B0E0D6"/>
<path d="M191.016 93.8794L209.476 93.8794V107.305H191.016C190.086 107.305 189.337 106.557 189.337 105.627V95.5576C189.337 94.6279 190.086 93.8794 191.016 93.8794Z" fill="#00A88F"/>
</g>
</g>
</svg>
