<svg width="255" height="234" viewBox="0 0 255 234" fill="none" xmlns="http://www.w3.org/2000/svg">
<defs>
<linearGradient id="paint0_linear_756_11093" x1="131.069" y1="97.7711" x2="104.466" y2="97.1222" gradientUnits="userSpaceOnUse">
<stop stop-opacity="0.5"/>
<stop offset="1" stop-color="white" stop-opacity="0"/>
</linearGradient>
<linearGradient id="paint1_linear_756_11093" x1="184.276" y1="178.879" x2="164.81" y2="178.879" gradientUnits="userSpaceOnUse">
<stop/>
<stop offset="1" stop-opacity="0"/>
</linearGradient>
<linearGradient id="paint2_linear_756_11093" x1="211.524" y1="178.879" x2="192.059" y2="178.879" gradientUnits="userSpaceOnUse">
<stop/>
<stop offset="1" stop-opacity="0"/>
</linearGradient>
</defs>
<rect x="90.8397" y="117.885" width="18.1679" height="10.3817" fill="#A17C89"/>
<rect x="96.0293" y="63.3818" width="10.3817" height="7.78626" rx="1.29771" fill="#CF4848"/>
<rect x="99.9226" y="58.1907" width="2.59542" height="5.19084" fill="#E07F7F"/>
<path d="M18.818 121.13V79.6032V78.9543H3.89936C4.11565 90.2012 3.88951 114.252 3.89437 120.481C3.89944 126.97 3.89437 119.832 3.89437 123.076C3.89437 142.542 23.3651 149.68 30.4974 149.68H51.9096V134.756H49.9631H36.991C20.1208 134.756 18.818 122.428 18.818 121.13Z" fill="#FF9797"/>
<rect x="20.7887" y="54.4316" width="12.9771" height="3.89313" rx="1.94656" transform="rotate(110.425 20.7887 54.4316)" fill="#FF9797"/>
<rect width="12.9771" height="3.89313" rx="1.94657" transform="matrix(0.386305 0.922371 0.922371 -0.386305 0.721069 54.8337)" fill="#FF9797"/>
<path d="M0.000526428 73.7633C0.000526428 68.0296 4.64856 63.3816 10.3822 63.3816H11.6799C17.4136 63.3816 22.0616 68.0296 22.0616 73.7633V80.2518C22.0616 80.9685 21.4806 81.5495 20.7639 81.5495H1.29824C0.58153 81.5495 0.000526428 80.9685 0.000526428 80.2518V73.7633Z" fill="#CF4848"/>
<path d="M4.25954 84.145H18.4959" stroke="white" stroke-width="0.648855" stroke-linecap="square" stroke-linejoin="round"/>
<path d="M4.25954 91.9316H18.4959" stroke="white" stroke-width="0.648855" stroke-linecap="square" stroke-linejoin="round"/>
<path d="M4.25954 99.7175H18.4959" stroke="white" stroke-width="0.648855" stroke-linecap="square" stroke-linejoin="round"/>
<path d="M4.25954 107.504H18.4959" stroke="white" stroke-width="0.648855" stroke-linecap="square" stroke-linejoin="round"/>
<path d="M4.25954 115.29H18.4959" stroke="white" stroke-width="0.648855" stroke-linecap="square" stroke-linejoin="round"/>
<path d="M3.89557 123.077L18.8234 121.13" stroke="white" stroke-width="0.648855" stroke-linecap="square" stroke-linejoin="round"/>
<path d="M5.19206 130.863L19.4669 125.672" stroke="white" stroke-width="0.648855" stroke-linecap="square" stroke-linejoin="round"/>
<path d="M9.08537 138.649L22.0625 129.565" stroke="white" stroke-width="0.648855" stroke-linecap="square" stroke-linejoin="round"/>
<path d="M16.872 145.137L24.6582 132.16" stroke="white" stroke-width="0.648855" stroke-linecap="square" stroke-linejoin="round"/>
<path d="M24.6576 149.03L28.5507 133.458" stroke="white" stroke-width="0.648855" stroke-linecap="square" stroke-linejoin="round"/>
<path d="M35.0397 149.679L35.0397 134.756M42.826 149.679L42.826 134.756M50.6122 149.679L50.6122 134.756" stroke="white" stroke-width="0.648855" stroke-linecap="square" stroke-linejoin="round"/>
<rect x="48.0154" y="132.16" width="7.78626" height="20.7634" rx="2.59542" fill="#952A2A"/>
<path d="M61.6416 206.778L59.0462 207.427V208.076L61.6416 208.725H69.4278L70.7256 208.076V207.427L68.1301 206.778H61.6416Z" fill="#952A2A"/>
<path fill-rule="evenodd" clip-rule="evenodd" d="M53.2065 208.076L57.7485 210.023H72.0233L77.2141 208.076L72.6721 206.13H58.3973L53.2065 208.076ZM59.0462 207.427L61.6416 206.778H68.1301L70.7256 207.427V208.076L69.4278 208.725H61.6416L59.0462 208.076V207.427Z" fill="#D56F6F"/>
<path d="M57.7485 210.023V215.862H72.0233V210.023H57.7485Z" fill="#CF4848"/>
<path d="M57.7485 210.023L53.2065 208.076V213.916L57.7485 215.862V210.023Z" fill="#944C4C"/>
<path d="M77.2141 208.076L72.0233 210.023V215.862L77.2141 213.916V208.076Z" fill="#E67F7F"/>
<path d="M39.5805 215.863L36.9851 216.512V217.16L39.5805 217.809H47.3668L48.6645 217.16V216.512L46.0691 215.863H39.5805Z" fill="#270B15"/>
<path fill-rule="evenodd" clip-rule="evenodd" d="M31.1454 217.16L35.6874 219.107H49.9622L55.1531 217.16L50.6111 215.214H36.3363L31.1454 217.16ZM36.9851 216.512L39.5805 215.863H46.0691L48.6645 216.512V217.16L47.3668 217.809H39.5805L36.9851 217.16V216.512Z" fill="#8D6472"/>
<path d="M35.6874 219.107V224.947H49.9622V219.107H35.6874Z" fill="#A17C89"/>
<path d="M35.6874 219.107L31.1454 217.16V223L35.6874 224.947V219.107Z" fill="#8D6B77"/>
<path d="M55.1531 217.16L49.9622 219.107V224.947L55.1531 223V217.16Z" fill="#BBA1AA"/>
<path d="M71.3742 97.1222C71.3742 80.638 84.7373 67.2749 101.222 67.2749V67.2749C117.706 67.2749 131.069 80.638 131.069 97.1222V113.992C131.069 116.859 128.745 119.183 125.878 119.183H76.5651C73.6982 119.183 71.3742 116.859 71.3742 113.992V97.1222Z" fill="#FF9797"/>
<path d="M71.3742 97.1222C71.3742 80.638 84.7373 67.2749 101.222 67.2749V67.2749C117.706 67.2749 131.069 80.638 131.069 97.1222V113.992C131.069 116.859 128.745 119.183 125.878 119.183H76.5651C73.6982 119.183 71.3742 116.859 71.3742 113.992V97.1222Z" fill="url(#paint0_linear_756_11093)"/>
<path d="M88.2442 102.313V110.099M93.435 102.313V110.099M98.6259 102.313V110.099M103.168 102.313V110.099" stroke="#541212" stroke-width="2.59542" stroke-linecap="round"/>
<path d="M106.681 88.4183C106.175 87.9115 105.353 87.9115 104.846 88.4183C104.339 88.9251 104.339 89.7468 104.846 90.2536L106.681 88.4183ZM112.632 98.0398C113.139 98.5466 113.961 98.5466 114.468 98.0398C114.974 97.533 114.974 96.7114 114.468 96.2046L112.632 98.0398ZM114.468 90.2536C114.974 89.7468 114.974 88.9251 114.468 88.4183C113.961 87.9115 113.139 87.9115 112.632 88.4183L114.468 90.2536ZM104.846 96.2046C104.339 96.7114 104.339 97.533 104.846 98.0398C105.353 98.5466 106.175 98.5466 106.681 98.0398L104.846 96.2046ZM78.7807 88.4183C78.2739 87.9115 77.4522 87.9115 76.9454 88.4183C76.4386 88.9251 76.4386 89.7468 76.9454 90.2536L78.7807 88.4183ZM84.7317 98.0398C85.2385 98.5466 86.0601 98.5466 86.5669 98.0398C87.0737 97.533 87.0737 96.7114 86.5669 96.2046L84.7317 98.0398ZM86.5669 90.2536C87.0737 89.7468 87.0737 88.9251 86.5669 88.4183C86.0601 87.9115 85.2385 87.9115 84.7317 88.4183L86.5669 90.2536ZM76.9454 96.2046C76.4386 96.7114 76.4386 97.533 76.9454 98.0398C77.4522 98.5466 78.2739 98.5466 78.7807 98.0398L76.9454 96.2046ZM104.846 90.2536L108.739 94.1467L110.575 92.3114L106.681 88.4183L104.846 90.2536ZM108.739 94.1467L112.632 98.0398L114.468 96.2046L110.575 92.3114L108.739 94.1467ZM110.575 94.1467L114.468 90.2536L112.632 88.4183L108.739 92.3114L110.575 94.1467ZM112.632 88.4183L104.846 96.2046L106.681 98.0398L114.468 90.2536L112.632 88.4183ZM76.9454 90.2536L80.8386 94.1467L82.6738 92.3114L78.7807 88.4183L76.9454 90.2536ZM80.8386 94.1467L84.7317 98.0398L86.5669 96.2046L82.6738 92.3114L80.8386 94.1467ZM82.6738 94.1467L86.5669 90.2536L84.7317 88.4183L80.8386 92.3114L82.6738 94.1467ZM80.8386 92.3114L76.9454 96.2046L78.7807 98.0398L82.6738 94.1467L80.8386 92.3114Z" fill="#541212"/>
<path d="M53.2065 132.16C53.2065 129.293 55.5305 126.969 58.3973 126.969H149.237C152.104 126.969 154.428 129.293 154.428 132.16V194.45H53.2065V132.16Z" fill="#FF9797"/>
<path d="M137.557 126.969H149.237C152.104 126.969 154.428 129.293 154.428 132.16V194.45H137.557V126.969Z" fill="#617FE0"/>
<path d="M137.557 126.969H149.237C152.104 126.969 154.428 129.293 154.428 132.16V194.45H137.557V126.969Z" fill="#CF4848"/>
<circle cx="128.473" cy="137.351" r="2.59542" fill="#2C2C2C"/>
<path d="M128.473 136.053V138.649M127.176 137.351H129.771" stroke="#CFDAFF" stroke-width="0.648855" stroke-linecap="round" stroke-linejoin="round"/>
<circle cx="146.641" cy="142.541" r="5.19084" fill="#952A2A"/>
<path d="M146.641 139.946V145.137M144.046 142.541H149.237" stroke="#CFDAFF" stroke-width="1.29771" stroke-linecap="round" stroke-linejoin="round"/>
<circle cx="63.5885" cy="137.351" r="2.59542" fill="#2C2C2C"/>
<path d="M63.5885 136.053V138.649M62.2907 137.351H64.8862" stroke="#CFDAFF" stroke-width="0.648855" stroke-linecap="round" stroke-linejoin="round"/>
<rect x="63.5873" y="146.436" width="50.6107" height="33.7405" rx="5.19084" fill="#CF4848"/>
<path d="M63.5873 151.626C63.5873 148.76 65.9113 146.436 68.7782 146.436H72.6713V180.176H68.7782C65.9113 180.176 63.5873 177.852 63.5873 174.985V151.626Z" fill="#952A2A"/>
<rect x="75.2672" y="150.328" width="2.59542" height="7.78626" rx="1.29771" fill="#D9D9D9"/>
<rect x="79.1595" y="150.328" width="2.59542" height="7.78626" rx="1.29771" fill="#FEDB48"/>
<rect x="83.0528" y="150.328" width="2.59542" height="7.78626" rx="1.29771" fill="#F46264"/>
<rect width="123.282" height="15.5725" transform="matrix(-1 0 0 1 229.044 215.215)" fill="#FF9797"/>
<path d="M247.213 223.001C247.213 217.268 242.565 212.62 236.831 212.62H229.045V233.383H236.831C242.565 233.383 247.213 228.735 247.213 223.001V223.001Z" fill="#CF4848"/>
<rect width="12.9771" height="3.89313" rx="1.94656" transform="matrix(-0.929938 0.367717 0.367717 0.929938 253.567 212.62)" fill="#FF9797"/>
<rect x="253.567" y="232.691" width="12.9771" height="3.89313" rx="1.94656" transform="rotate(-158.425 253.567 232.691)" fill="#FF9797"/>
<ellipse rx="7.1374" ry="7.78626" transform="matrix(-1 0 0 1 106.412 223)" fill="#CF4848"/>
<path d="M105.762 221.054H98.2824C97.2994 221.054 96.4007 220.498 95.961 219.619L95.4492 218.595C95.0095 217.716 94.1108 217.16 93.1278 217.16H89.541" stroke="#FFDC4A" stroke-width="1.29771" stroke-linecap="round" stroke-linejoin="round"/>
<path d="M105.762 224.298H102.609C101.742 224.298 100.931 224.732 100.45 225.454L99.3954 227.035C98.9141 227.758 98.1037 228.191 97.2359 228.191H90.1898" stroke="#F66464" stroke-width="1.29771" stroke-linecap="round" stroke-linejoin="round"/>
<path d="M225.151 215.215V230.788" stroke="white" stroke-width="0.648855" stroke-linecap="square" stroke-linejoin="round"/>
<path d="M162.861 215.214V230.787" stroke="white" stroke-width="0.648855" stroke-linecap="square" stroke-linejoin="round"/>
<path d="M194.008 215.214V230.787" stroke="white" stroke-width="0.648855" stroke-linecap="square" stroke-linejoin="round"/>
<path d="M131.717 215.214V230.787" stroke="white" stroke-width="0.648855" stroke-linecap="square" stroke-linejoin="round"/>
<path d="M217.365 215.214V230.787" stroke="white" stroke-width="0.648855" stroke-linecap="square" stroke-linejoin="round"/>
<path d="M155.077 215.214V230.787" stroke="white" stroke-width="0.648855" stroke-linecap="square" stroke-linejoin="round"/>
<path d="M186.221 215.214V230.787" stroke="white" stroke-width="0.648855" stroke-linecap="square" stroke-linejoin="round"/>
<path d="M123.93 215.214V230.787" stroke="white" stroke-width="0.648855" stroke-linecap="square" stroke-linejoin="round"/>
<path d="M209.579 215.214V230.787" stroke="white" stroke-width="0.648855" stroke-linecap="square" stroke-linejoin="round"/>
<path d="M147.29 215.214V230.787" stroke="white" stroke-width="0.648855" stroke-linecap="square" stroke-linejoin="round"/>
<path d="M178.434 215.214V230.787" stroke="white" stroke-width="0.648855" stroke-linecap="square" stroke-linejoin="round"/>
<path d="M116.145 215.214V230.787" stroke="white" stroke-width="0.648855" stroke-linecap="square" stroke-linejoin="round"/>
<path d="M201.794 215.214V230.787" stroke="white" stroke-width="0.648855" stroke-linecap="square" stroke-linejoin="round"/>
<path d="M139.503 215.214V230.787" stroke="white" stroke-width="0.648855" stroke-linecap="square" stroke-linejoin="round"/>
<path d="M170.648 215.214V230.787" stroke="white" stroke-width="0.648855" stroke-linecap="square" stroke-linejoin="round"/>
<path d="M164.81 167.199C164.81 165.766 165.972 164.604 167.406 164.604H181.681C183.114 164.604 184.276 165.766 184.276 167.199V194.451H164.81V167.199Z" fill="#FFDC48"/>
<path d="M164.81 167.199C164.81 165.766 165.972 164.604 167.406 164.604H181.681C183.114 164.604 184.276 165.766 184.276 167.199V194.451H164.81V167.199Z" fill="url(#paint1_linear_756_11093)" fill-opacity="0.2"/>
<path d="M167.406 162.008C167.406 161.291 167.987 160.71 168.704 160.71H180.383C181.1 160.71 181.681 161.291 181.681 162.008V164.604H167.406V162.008Z" fill="#3A2AAE"/>
<path d="M192.059 167.199C192.059 165.766 193.221 164.604 194.654 164.604H208.929C210.362 164.604 211.524 165.766 211.524 167.199V194.451H192.059V167.199Z" fill="#F76363"/>
<path d="M192.059 167.199C192.059 165.766 193.221 164.604 194.654 164.604H208.929C210.362 164.604 211.524 165.766 211.524 167.199V194.451H192.059V167.199Z" fill="url(#paint2_linear_756_11093)" fill-opacity="0.2"/>
<path d="M194.654 162.008C194.654 161.291 195.235 160.71 195.952 160.71H207.631C208.348 160.71 208.929 161.291 208.929 162.008V164.604H194.654V162.008Z" fill="#3A2AAE"/>
<path d="M52.4228 90.6208L53.4245 85.5227L48.6499 84.5873C48.6499 83.3322 48.4316 82.0733 48.0184 80.8572L51.9551 78.2146L49.0591 73.9038L45.294 76.4334C44.1715 75.2953 42.8541 74.4183 41.4275 73.8337L42.3669 69.0552L37.2688 68.0535L36.3021 72.9762C35.2576 73.0347 34.2169 73.2334 33.1996 73.5803L30.557 69.6437L26.2462 72.5397L28.7758 76.3048C27.6377 77.4273 26.7607 78.7447 26.1761 80.1712L22.0017 79.3527L21 84.4508L25.3225 85.3005C25.3965 86.6335 25.6967 87.9665 26.2423 89.2332L22.4733 91.7628L25.3693 96.0736L29.3059 93.431C30.4362 94.4132 31.7263 95.1538 33.1022 95.6371L32.1589 100.443L37.2571 101.445L38.2782 96.2334C39.4008 96.1087 40.5116 95.8203 41.5795 95.3642L44.1091 99.1332L48.4199 96.2373L45.7773 92.3007C46.4828 91.4939 47.0596 90.6052 47.5079 89.6581L52.4306 90.6247L52.4228 90.6208ZM39.619 88.5784C37.4402 90.044 34.4741 89.4593 33.0125 87.2805C31.547 85.1017 32.1317 82.1356 34.3104 80.674C36.4892 79.2085 39.4553 79.7932 40.9169 81.9719C42.3825 84.1507 41.7978 87.1168 39.619 88.5784V88.5784Z" fill="#C76C6C"/>
<path d="M57.8737 52.1671L58.4193 49.3803L55.8079 48.8697C55.8079 48.1837 55.691 47.4977 55.461 46.8312L57.6125 45.3852L56.0301 43.0271L53.9721 44.4108C53.3602 43.7872 52.6391 43.3117 51.8596 42.9881L52.3741 40.3767L49.5873 39.8311L49.0611 42.5204C48.4881 42.5516 47.9191 42.6607 47.3656 42.8517L45.9196 40.7002L43.5615 42.2827L44.9452 44.3406C44.3216 44.9526 43.846 45.6736 43.5225 46.4531L41.2424 46.0049L40.6968 48.7917L43.0587 49.2556C43.0977 49.9844 43.2614 50.7133 43.5615 51.407L41.5036 52.7907L43.086 55.1488L45.2375 53.7028C45.8533 54.2406 46.5588 54.646 47.311 54.9071L46.7966 57.5341L49.5834 58.0798L50.1407 55.2345C50.7527 55.1683 51.3607 55.0085 51.9453 54.759L53.329 56.817L55.6871 55.2345L54.2411 53.083C54.6269 52.6426 54.9426 52.1554 55.1882 51.637L57.8776 52.1671H57.8737ZM50.8774 51.0524C49.6847 51.8514 48.0672 51.5357 47.2643 50.343C46.4653 49.1503 46.781 47.5328 47.9736 46.7299C49.1663 45.9309 50.7838 46.2466 51.5868 47.4393C52.3858 48.6319 52.0701 50.2495 50.8774 51.0524Z" fill="#C76C6C"/>
<path d="M138.357 6.02332C138.357 2.98398 140.83 0.510742 143.87 0.510742C146.909 0.510742 149.382 2.98398 149.382 6.02332C149.382 9.06267 146.909 11.5359 143.87 11.5359C140.83 11.5359 138.357 9.06267 138.357 6.02332ZM147.656 6.02332C147.656 3.93522 145.958 2.2369 143.87 2.2369C141.782 2.2369 140.083 3.93522 140.083 6.02332C140.083 8.11142 141.782 9.80974 143.87 9.80974C145.958 9.80974 147.656 8.11142 147.656 6.02332Z" fill="#CB7575"/>
<path d="M125.219 28.6578C125.219 25.6185 127.693 23.1453 130.732 23.1453C133.771 23.1453 136.245 25.6185 136.245 28.6578C136.245 31.6972 133.771 34.1704 130.732 34.1704C127.693 34.1704 125.219 31.6972 125.219 28.6578ZM134.518 28.6578C134.518 26.5697 132.82 24.8714 130.732 24.8714C128.644 24.8714 126.946 26.5697 126.946 28.6578C126.946 30.7459 128.644 32.4443 130.732 32.4443C132.82 32.4443 134.518 30.7459 134.518 28.6578Z" fill="#FAB317"/>
<path d="M107.646 38.0765C107.646 37.5985 108.031 37.2134 108.509 37.2134H112.323C112.801 37.2134 113.186 37.5985 113.186 38.0765C113.186 38.5544 112.801 38.9395 112.323 38.9395H108.509C108.031 38.9395 107.646 38.5544 107.646 38.0765Z" fill="#CB7575"/>
<path d="M100.969 38.0767C100.969 37.5988 101.354 37.2136 101.832 37.2136H105.646C106.124 37.2136 106.509 37.5988 106.509 38.0767C106.509 38.5546 106.124 38.9398 105.646 38.9398H101.832C101.354 38.9398 100.969 38.5546 100.969 38.0767Z" fill="#CB7575"/>
<path d="M106.212 43.4306V40.0061C106.212 39.5282 106.597 39.1431 107.075 39.1431C107.553 39.1431 107.938 39.5282 107.938 40.0061V43.4306C107.938 43.9086 107.553 44.2937 107.075 44.2937C106.597 44.2937 106.212 43.9086 106.212 43.4306Z" fill="#CB7575"/>
<path d="M106.212 36.1501V32.7256C106.212 32.2477 106.597 31.8625 107.075 31.8625C107.553 31.8625 107.938 32.2477 107.938 32.7256V36.1501C107.938 36.6281 107.553 37.0132 107.075 37.0132C106.597 37.0132 106.212 36.6281 106.212 36.1501Z" fill="#CB7575"/>
<path d="M159.462 23.1434C159.462 22.6654 159.847 22.2803 160.325 22.2803H164.14C164.617 22.2803 165.003 22.6654 165.003 23.1434C165.003 23.6213 164.617 24.0064 164.14 24.0064H160.325C159.847 24.0064 159.462 23.6213 159.462 23.1434Z" fill="#FAB317"/>
<path d="M152.792 23.1434C152.792 22.6654 153.177 22.2803 153.655 22.2803H157.469C157.947 22.2803 158.332 22.6654 158.332 23.1434C158.332 23.6213 157.947 24.0064 157.469 24.0064H153.655C153.177 24.0064 152.792 23.6213 152.792 23.1434Z" fill="#FAB317"/>
<path d="M158.038 28.4965V25.0721C158.038 24.5941 158.423 24.209 158.901 24.209C159.379 24.209 159.764 24.5941 159.764 25.0721V28.4965C159.764 28.9745 159.379 29.3596 158.901 29.3596C158.423 29.3596 158.038 28.9745 158.038 28.4965Z" fill="#FAB317"/>
<path d="M158.038 21.2119V17.7874C158.038 17.3095 158.423 16.9243 158.901 16.9243C159.379 16.9243 159.764 17.3095 159.764 17.7874V21.2119C159.764 21.6898 159.379 22.075 158.901 22.075C158.423 22.075 158.038 21.6898 158.038 21.2119Z" fill="#FAB317"/>
</svg>
