<svg width="101" height="129" viewBox="0 0 101 129" fill="none" xmlns="http://www.w3.org/2000/svg">
<defs>
<linearGradient id="paint0_linear_3554_24758" x1="95.5743" y1="121.614" x2="-30.2258" y2="40.0978" gradientUnits="userSpaceOnUse">
<stop stop-color="#3268F3"/>
<stop offset="1" stop-color="#80B2D7"/>
</linearGradient>
<linearGradient id="paint1_linear_3554_24758" x1="95.5743" y1="121.614" x2="-30.2258" y2="40.0978" gradientUnits="userSpaceOnUse">
<stop stop-color="#3268F3"/>
<stop offset="1" stop-color="#80B2D7"/>
</linearGradient>
<linearGradient id="paint2_linear_3554_24758" x1="6.64935" y1="57.3506" x2="49.039" y2="58.1818" gradientUnits="userSpaceOnUse">
<stop stop-color="#8CB5F9"/>
<stop offset="1" stop-color="white" stop-opacity="0"/>
</linearGradient>
<linearGradient id="paint3_linear_3554_24758" x1="95.5743" y1="121.614" x2="-30.2258" y2="40.0978" gradientUnits="userSpaceOnUse">
<stop stop-color="#3268F3"/>
<stop offset="1" stop-color="#80B2D7"/>
</linearGradient>
<linearGradient id="paint4_linear_3554_24758" x1="95.5743" y1="121.614" x2="-30.2258" y2="40.0978" gradientUnits="userSpaceOnUse">
<stop stop-color="#3268F3"/>
<stop offset="1" stop-color="#80B2D7"/>
</linearGradient>
<linearGradient id="paint5_linear_3554_24758" x1="95.5743" y1="121.614" x2="-30.2258" y2="40.0978" gradientUnits="userSpaceOnUse">
<stop stop-color="#3268F3"/>
<stop offset="1" stop-color="#80B2D7"/>
</linearGradient>
<linearGradient id="paint6_linear_3554_24758" x1="93.0909" y1="56.1039" x2="52.3636" y2="57.7662" gradientUnits="userSpaceOnUse">
<stop stop-color="#8CB5F9"/>
<stop offset="1" stop-color="white" stop-opacity="0"/>
</linearGradient>
<linearGradient id="paint7_linear_3554_24758" x1="95.5743" y1="121.614" x2="-30.2258" y2="40.0978" gradientUnits="userSpaceOnUse">
<stop stop-color="#3268F3"/>
<stop offset="1" stop-color="#80B2D7"/>
</linearGradient>
</defs>
<path d="M49.3141 0.0469189C46.6821 -0.507194 37.5947 3.62095 25.6258 24.5664C25.3301 25.0483 25.0106 25.6035 24.6726 26.2288H49.3141L49.3141 0.0469189Z" fill="url(#paint0_linear_3554_24758)"/>
<path d="M13.9895 71.1119C6.09336 79.9777 -6.87287 102.946 4.43102 123.891C5.55244 125.969 11.0804 123.891 12.3271 120.982C13.9894 117.38 18.2284 109.429 21.8856 106.437C14.9037 92.4729 13.7124 77.0686 13.9895 71.1119Z" fill="url(#paint1_linear_3554_24758)"/>
<path d="M13.9895 71.1119C13.7124 77.0686 14.9037 92.4729 21.8856 106.437L25.5125 113.086H49.3141L49.3141 26.2288H24.6726C20.7349 33.5124 14.2957 50.2913 13.9895 71.1119Z" fill="white"/>
<path d="M13.9895 71.1119C13.7124 77.0686 14.9037 92.4729 21.8856 106.437L25.5125 113.086H49.3141L49.3141 26.2288H24.6726C20.7349 33.5124 14.2957 50.2913 13.9895 71.1119Z" fill="url(#paint2_linear_3554_24758)"/>
<path d="M26.8726 115.579C28.5349 118.488 31.3609 121.813 37.6778 121.813H41.8336H49.3141V113.086H25.5125L26.8726 115.579Z" fill="url(#paint3_linear_3554_24758)"/>
<path d="M49.3141 0.0469189C51.9462 -0.507194 60.2024 3.62095 72.1713 24.5664C72.467 25.0483 72.7865 25.6035 73.1245 26.2288H49.3141L49.3141 0.0469189Z" fill="url(#paint4_linear_3554_24758)"/>
<path d="M83.8076 71.1119C91.7037 79.9777 104.67 102.946 93.3661 123.891C92.2447 125.969 86.7167 123.891 85.47 120.982C83.8077 117.38 79.5687 109.429 75.9116 106.437C82.8934 92.4729 84.0847 77.0686 83.8076 71.1119Z" fill="url(#paint5_linear_3554_24758)"/>
<path d="M83.8076 71.1119C84.0847 77.0686 82.8934 92.4729 75.9116 106.437L72.2846 113.086L49.3141 113.086L49.3141 26.2288H73.1245C77.0622 33.5124 83.5015 50.2913 83.8076 71.1119Z" fill="white"/>
<path d="M83.8076 71.1119C84.0847 77.0686 82.8934 92.4729 75.9116 106.437L72.2846 113.086L49.3141 113.086L49.3141 26.2288H73.1245C77.0622 33.5124 83.5015 50.2913 83.8076 71.1119Z" fill="url(#paint6_linear_3554_24758)"/>
<path d="M70.9245 115.579C69.2622 118.488 66.4362 121.813 60.1193 121.813H55.9635L49.3141 121.813V113.086L72.2846 113.086L70.9245 115.579Z" fill="url(#paint7_linear_3554_24758)"/>
<circle cx="49.0391" cy="51.5325" r="12.0519" fill="#BFDFFF" stroke="#354D6E" stroke-width="4.15584"/>
<path d="M51.2209 41.7978L40.9352 57.3483C41.4682 58.0897 42.1004 58.755 42.8125 59.3247L53.7144 42.7199C52.9385 42.3074 52.1016 41.9944 51.2209 41.7978Z" fill="#E7F3FF"/>
<path fill-rule="evenodd" clip-rule="evenodd" d="M59.0131 51.5325C59.0131 57.041 54.5476 61.5065 49.0391 61.5065L58.0104 47.1689C58.6527 48.4869 59.0131 49.9676 59.0131 51.5325ZM53.7144 42.7199C54.3873 43.0776 55.0144 43.5102 55.5845 44.0065L44.9871 60.6491C44.2038 60.3004 43.4737 59.8538 42.8125 59.3247L53.7144 42.7199ZM51.2209 41.7978L40.9352 57.3483C39.7582 55.7111 39.065 53.7027 39.065 51.5325C39.065 46.024 43.5306 41.5585 49.0391 41.5585C49.7885 41.5585 50.5187 41.6411 51.2209 41.7978Z" fill="#BFDFFF"/>
<path d="M44.9871 60.6491C46.2252 61.2002 47.5964 61.5065 49.0391 61.5065L58.0104 47.1689C57.4198 45.9569 56.5908 44.8824 55.5845 44.0065L44.9871 60.6491Z" fill="#E7F3FF"/>
</svg>
