<svg width="269" height="111" viewBox="0 0 269 111" fill="none" xmlns="http://www.w3.org/2000/svg">
<defs>
<clipPath id="clip0_558_10965">
<rect width="268.986" height="110.291" fill="white" transform="translate(0 0.237793)"/>
</clipPath>
</defs>
<g clip-path="url(#clip0_558_10965)">
<path d="M153.366 43.785C159.634 37.6523 168.098 57.7105 171.026 65.3683L176.889 58.6384C172.786 53.7451 157.98 34.8204 170.127 30.0266C178.488 26.7258 178.299 49.6769 178.006 57.3541L185.924 48.2674C183.879 43.5474 174.096 19.3762 187.616 18.3262C196.674 17.6231 189.492 39.9962 187.026 46.9991L195.451 37.3312C198.578 29.7761 207.604 9.90741 213.708 16.2199C222.3 25.1011 203.684 35.5332 196.78 38.9656L188.74 48.1903C195.823 43.9777 214.816 33.5585 215.93 42.2374C217.635 55.5335 192.59 51.1347 187.141 50.0269L178.562 59.8714C184.524 58.3334 209.649 52.3869 208.034 61.7433C205.706 75.2256 182.174 62.8992 177.952 60.5681L171.842 67.5806C171.877 67.6801 171.912 67.7733 171.938 67.8503C178.668 68.8649 202.987 73.1225 197.975 80.9538C190.805 92.15 174.638 73.1161 170.991 68.5599L157.454 84.094L155.89 82.7294L169.623 66.9705C162.79 63.3327 144.54 52.4126 153.36 43.785H153.366Z" fill="#00987C"/>
<path d="M180.396 95.8176C173.499 95.8176 166.779 93.9232 164.29 88.2432C158.816 75.7466 173.493 64.7494 183.029 60.2221C186.635 58.5107 190.414 57.0627 194.064 55.6627C197.397 54.3848 200.846 53.0651 204.134 51.5496C212.874 47.5297 220.734 42.007 227.493 35.139C227.913 34.7088 228.542 34.5899 229.098 34.8276C229.657 35.0716 230 35.6174 229.974 36.2243C229.576 45.8215 228.905 55.1426 225.107 63.6577C222.227 70.1115 217.465 76.2539 210.128 82.9902C206.349 86.4612 201.225 90.7541 195.134 93.1654C191.476 94.6135 185.88 95.8144 180.396 95.8144V95.8176ZM204.696 52.7666C201.366 54.2981 197.898 55.6274 194.546 56.9117C190.918 58.302 187.164 59.7405 183.603 61.4326C174.504 65.7544 160.456 76.1511 165.517 87.707C169.704 97.2689 187.8 94.6328 194.639 91.926C200.528 89.5949 205.524 85.4016 209.22 82.0077C216.418 75.3998 221.077 69.3987 223.88 63.1151C227.582 54.8183 228.244 45.6353 228.636 36.1729C228.636 36.1504 228.639 36.0926 228.565 36.0605C228.498 36.0284 228.462 36.0669 228.446 36.083C221.572 43.0666 213.58 48.6824 204.692 52.7698L204.696 52.7666Z" fill="#00987C"/>
<path d="M99.362 50.8103C92.2166 45.7274 86.9766 66.8581 85.2755 74.8783L78.4368 69.1425C81.7289 63.6703 93.4095 42.6726 80.6649 39.827C71.8921 37.8673 75.6501 60.5095 77.1332 68.0477L67.8979 60.3035C69.184 55.3228 75.0876 29.9238 61.568 30.9903C52.5111 31.7049 63.0872 52.6881 66.6127 59.222L56.7858 50.9828C52.5211 44.0062 40.5141 25.7837 35.4667 32.969C28.3609 43.0789 48.3737 50.4875 55.727 52.804L65.1043 60.6655C57.452 57.6062 37.0701 50.2688 37.3198 59.0154C37.7043 72.4148 61.7595 64.173 66.9696 62.231L76.9761 70.6207C70.8469 70.0291 45.1028 68.0641 48.1539 77.0553C52.5511 90.0113 73.879 74.1737 77.6872 71.2141L84.814 77.1905C84.7946 77.2943 84.7742 77.3918 84.7608 77.4719C78.2707 79.5213 54.9103 87.5107 61.0798 94.4667C69.9043 104.411 82.9122 83.0906 85.8069 78.0255L101.596 91.2643L102.928 89.673L86.9108 76.2427C93.0943 71.586 109.423 57.9595 99.3684 50.8093L99.362 50.8103Z" fill="#007B60"/>
<path d="M75.5142 44.5487C72.3772 35.4248 67.5632 26.8802 61.3957 19.4623C60.9387 18.9134 61.4074 18.092 62.1154 18.1918C71.3153 19.4991 80.6477 21.0912 88.6885 25.6885C95.7367 29.7206 101.362 35.8425 106.228 42.3408C109.821 47.1381 113.109 52.2922 114.752 58.0565C117.044 66.1076 117.289 84.1739 107.213 87.4349C94.5878 91.5198 85.4385 75.9222 82.0352 66.4079C79.473 59.2412 77.9869 51.7457 75.5142 44.5487Z" fill="#00987C"/>
<path d="M258.515 138.743C258.452 137.95 258.285 137.167 258.019 136.417H258.326C264.775 135.922 269.538 129.695 269.002 122.458C268.506 115.845 263.748 110.697 258.019 110.227C258.295 109.034 258.389 107.805 258.296 106.584C257.855 100.55 253.147 95.9814 247.784 96.3774C242.933 96.7338 239.212 101.035 238.88 106.317C234.792 107.747 231.999 112.187 232.371 117.206C232.674 121.305 234.991 124.71 238.136 126.275C237.254 127.098 236.572 128.112 236.142 129.238C235.712 130.364 235.546 131.574 235.655 132.774C235.963 136.976 239.242 140.159 242.977 139.887C243.302 139.86 243.624 139.807 243.94 139.728C243.937 139.758 243.937 139.788 243.94 139.817C244.015 140.879 244.277 141.92 244.714 142.891H257.825C258.38 141.582 258.617 140.161 258.515 138.743Z" fill="white"/>
<path d="M238.116 130.791C238.053 129.998 237.886 129.216 237.619 128.465H237.927C244.376 127.97 249.139 121.743 248.603 114.506C248.107 107.893 243.349 102.745 237.619 102.275C237.896 101.082 237.989 99.8535 237.897 98.6321C237.456 92.5983 232.748 88.0295 227.385 88.4255C222.534 88.7819 218.813 93.0834 218.481 98.3649C214.393 99.7954 211.6 104.235 211.972 109.255C212.275 113.353 214.591 116.759 217.737 118.323C216.855 119.146 216.173 120.16 215.743 121.286C215.313 122.412 215.147 123.622 215.256 124.822C215.564 129.024 218.843 132.207 222.578 131.935C222.903 131.908 223.225 131.855 223.541 131.776C223.538 131.806 223.538 131.836 223.541 131.866C223.616 132.928 223.878 133.968 224.315 134.939H237.426C237.981 133.631 238.218 132.209 238.116 130.791Z" fill="white"/>
<path d="M215.584 84.3047C212.092 81.8714 207.919 80.7735 203.735 81.1875C199.552 81.6014 195.601 83.503 192.517 86.5871C191.529 84.4423 190.13 82.5481 188.408 81.0265C186.686 79.5049 184.679 78.3895 182.518 77.7521C180.357 77.1147 178.089 76.9693 175.859 77.3254C173.629 77.6815 171.488 78.5311 169.572 79.8197C166.512 76.6711 162.496 74.7898 158.229 74.506C153.963 74.2222 149.719 75.554 146.242 78.2677C142.765 80.9814 140.277 84.9035 139.216 89.3456C138.154 93.7876 138.587 98.4657 140.438 102.559L221.418 110.871C223.805 106.435 224.53 101.217 223.446 96.2811C222.362 91.3447 219.55 87.0615 215.584 84.3047Z" fill="white"/>
<path d="M131.745 1.09418L119.284 82.6272L157.897 79.9312L143.202 0.237793L131.745 1.09418Z" fill="white"/>
<path d="M163.436 103.945C164.529 102.972 165.369 101.748 165.883 100.38C166.397 99.0107 166.57 97.5377 166.386 96.0875C166.203 94.6373 165.669 93.2533 164.83 92.055C163.991 90.8567 162.872 89.88 161.571 89.209C162.853 87.7551 163.798 86.0373 164.34 84.1776C164.881 82.318 165.006 80.3621 164.704 78.449C164.403 76.536 163.683 74.7126 162.595 73.1087C161.507 71.5047 160.079 70.1595 158.411 69.1685C156.744 68.1776 154.878 67.5653 152.947 67.3752C151.015 67.1851 149.065 67.4218 147.236 68.0686C145.406 68.7153 143.742 69.7561 142.361 71.1172C140.981 72.4782 139.917 74.1259 139.247 75.9433C138.975 76.6927 138.771 77.4646 138.637 78.25C138.051 77.9423 137.446 77.6728 136.826 77.4432C133.583 76.2638 130.02 76.3121 126.811 77.579C123.602 78.8459 120.97 81.2433 119.413 84.317C117.857 87.3907 117.485 90.9272 118.367 94.2564C119.25 97.5856 121.325 100.476 124.201 102.381C122.438 103.845 121.126 105.777 120.419 107.954C119.711 110.131 119.636 112.463 120.202 114.681H166.278C166.619 112.793 166.541 110.853 166.049 108.999C165.558 107.144 164.666 105.419 163.436 103.945Z" fill="white"/>
<path d="M107.009 107.778C107.402 107.086 107.702 106.344 107.901 105.573L108.156 105.746C113.776 108.948 121.209 106.456 124.818 100.161C128.111 94.4051 127.053 87.4758 122.57 83.877C123.468 83.0431 124.233 82.0781 124.841 81.0146C127.855 75.7687 126.514 69.347 121.849 66.6714C117.63 64.2492 112.139 65.7287 108.905 69.9179C104.718 68.8134 99.9171 70.9273 97.4141 75.2937C95.3692 78.8584 95.381 82.9772 97.1105 86.0346C95.9187 86.223 94.7862 86.6808 93.7993 87.3731C92.8124 88.0653 91.997 88.9739 91.4154 90.0294C89.3164 93.6831 90.2502 98.1564 93.4973 100.023C93.7813 100.182 94.0776 100.319 94.3833 100.431C94.3647 100.454 94.348 100.479 94.3334 100.505C93.8007 101.427 93.4349 102.435 93.2528 103.485L104.115 110.828C105.308 110.055 106.3 109.01 107.009 107.778Z" fill="white"/>
<path d="M130.799 111.319C130.704 107.858 129.689 104.484 127.858 101.543C126.027 98.6021 123.445 96.1997 120.377 94.582C117.309 92.9642 113.865 92.1893 110.398 92.3365C106.931 92.4838 103.566 93.5479 100.647 95.4198V95.1971C100.531 91.0856 99.0624 87.1264 96.4672 83.9306C93.872 80.7349 90.2947 78.4804 86.2876 77.5152C82.2804 76.55 78.0663 76.9277 74.2957 78.5901C70.5251 80.2524 67.4078 83.107 65.425 86.713C63.557 85.7726 61.4878 85.2996 59.3958 85.335C57.3038 85.3704 55.2519 85.9131 53.417 86.9163C51.5821 87.9194 50.0192 89.3528 48.8634 91.093C47.7075 92.8332 46.9932 94.8278 46.7822 96.9048C43.9204 95.8569 40.8466 95.5171 37.8243 95.9146C34.802 96.3121 31.9214 97.435 29.4294 99.1871C26.9375 100.939 24.9086 103.268 23.5166 105.974C22.1246 108.68 21.4112 111.683 21.4373 114.724H130.575C130.749 113.598 130.823 112.458 130.799 111.319Z" fill="white"/>
</g>
</svg>
