<svg width="24" height="24" viewBox="0 0 24 24" fill="none" xmlns="http://www.w3.org/2000/svg">
<g clip-path="url(#clip0_1263_9081)">
<path d="M10.9969 1.87022C11.9267 1.33192 13.0733 1.33193 14.0031 1.87022L20.5031 5.63338C21.4296 6.16975 22 7.15914 22 8.22966V15.7703C22 16.8409 21.4296 17.8303 20.5031 18.3666L14.0031 22.1298C13.0733 22.6681 11.9267 22.6681 10.9969 22.1298L4.49689 18.3666C3.57044 17.8303 3 16.8409 3 15.7703V8.22966C3 7.15914 3.57044 6.16974 4.49689 5.63338L10.9969 1.87022ZM14.0031 4.18118C13.0733 3.64291 11.9267 3.64291 10.9969 4.18118L6.49692 6.78638C5.57045 7.32275 5 8.31215 5 9.38268V14.6173C5 15.6878 5.57045 16.6773 6.49692 17.2136L10.9969 19.8188C11.9267 20.3571 13.0733 20.3571 14.0031 19.8188L18.5031 17.2136C19.4295 16.6773 20 15.6878 20 14.6173V9.38268C20 8.31215 19.4295 7.32275 18.5031 6.78638L14.0031 4.18118ZM12.5 16C11.4391 16 10.4217 15.5786 9.67157 14.8284C8.92143 14.0783 8.5 13.0609 8.5 12C8.5 10.9391 8.92143 9.92172 9.67157 9.17157C10.4217 8.42143 11.4391 8 12.5 8C13.5609 8 14.5783 8.42143 15.3284 9.17157C16.0786 9.92172 16.5 10.9391 16.5 12C16.5 13.0609 16.0786 14.0783 15.3284 14.8284C14.5783 15.5786 13.5609 16 12.5 16ZM12.5 14C13.0304 14 13.5391 13.7893 13.9142 13.4142C14.2893 13.0391 14.5 12.5304 14.5 12C14.5 11.4696 14.2893 10.9609 13.9142 10.5858C13.5391 10.2107 13.0304 10 12.5 10C11.9696 10 11.4609 10.2107 11.0858 10.5858C10.7107 10.9609 10.5 11.4696 10.5 12C10.5 12.5304 10.7107 13.0391 11.0858 13.4142C11.4609 13.7893 11.9696 14 12.5 14Z" fill="#4285F4"/>
</g>
<defs>
<clipPath id="clip0_1263_9081">
<rect width="24" height="24" fill="white"/>
</clipPath>
</defs>
</svg>
