<svg width="37" height="37" viewBox="0 0 37 37" fill="none" xmlns="http://www.w3.org/2000/svg">
<path d="M35.489 0.982137C35.2952 0.815836 35.0679 0.693235 34.8225 0.622677C34.577 0.552119 34.3193 0.53526 34.0668 0.573248L10.9557 4.1288C10.5348 4.19266 10.1508 4.40541 9.87351 4.72838C9.5962 5.05136 9.444 5.46312 9.44456 5.8888V24.2888C8.61392 23.8831 7.70231 23.6704 6.77789 23.6666C5.54725 23.6666 4.34425 24.0315 3.32101 24.7152C2.29777 25.3989 1.50025 26.3707 1.02931 27.5077C0.55836 28.6446 0.435139 29.8957 0.675225 31.1027C0.915311 32.3097 1.50792 33.4184 2.37811 34.2886C3.24831 35.1588 4.357 35.7514 5.56399 35.9915C6.77099 36.2316 8.02207 36.1083 9.15903 35.6374C10.296 35.1664 11.2678 34.3689 11.9515 33.3457C12.6352 32.3224 13.0001 31.1194 13.0001 29.8888V16.3066L32.5557 13.3021V20.7332C31.725 20.3275 30.8134 20.1148 29.889 20.111C28.6584 20.111 27.4554 20.476 26.4321 21.1597C25.4089 21.8434 24.6114 22.8151 24.1404 23.9521C23.6695 25.0891 23.5463 26.3402 23.7863 27.5471C24.0264 28.7541 24.619 29.8628 25.4892 30.733C26.3594 31.6032 27.4681 32.1958 28.6751 32.4359C29.8821 32.676 31.1332 32.5528 32.2701 32.0818C33.4071 31.6109 34.3789 30.8134 35.0626 29.7901C35.7463 28.7669 36.1112 27.5639 36.1112 26.3332V2.33325C36.1112 2.07646 36.0556 1.82273 35.9482 1.58949C35.8408 1.35625 35.6841 1.14905 35.489 0.982137ZM6.77789 32.5555C6.25047 32.5555 5.7349 32.3991 5.29637 32.1061C4.85784 31.813 4.51604 31.3966 4.31421 30.9093C4.11238 30.422 4.05957 29.8858 4.16246 29.3686C4.26536 28.8513 4.51933 28.3761 4.89227 28.0032C5.26521 27.6302 5.74037 27.3763 6.25765 27.2734C6.77493 27.1705 7.31111 27.2233 7.79838 27.4251C8.28565 27.627 8.70212 27.9688 8.99514 28.4073C9.28816 28.8458 9.44456 29.3614 9.44456 29.8888C9.44456 30.596 9.1636 31.2743 8.66351 31.7744C8.16341 32.2745 7.48513 32.5555 6.77789 32.5555ZM29.889 28.9999C29.3616 28.9999 28.846 28.8435 28.4075 28.5505C27.969 28.2575 27.6272 27.841 27.4253 27.3537C27.2235 26.8665 27.1707 26.3303 27.2736 25.813C27.3765 25.2957 27.6304 24.8206 28.0034 24.4476C28.3763 24.0747 28.8515 23.8207 29.3688 23.7178C29.886 23.6149 30.4222 23.6677 30.9095 23.8696C31.3968 24.0714 31.8132 24.4132 32.1063 24.8517C32.3993 25.2903 32.5557 25.8058 32.5557 26.3332C32.5557 27.0405 32.2747 27.7188 31.7746 28.2189C31.2745 28.719 30.5962 28.9999 29.889 28.9999ZM32.5557 9.69325L13.0001 12.6977V7.36436L32.5557 4.41325V9.69325Z" fill="url(#paint0_linear_4589_6582)"/>
<defs>
<linearGradient id="paint0_linear_4589_6582" x1="35.3031" y1="35.2221" x2="-3.2844" y2="3.33344" gradientUnits="userSpaceOnUse">
<stop stop-color="#3258F3"/>
<stop offset="1" stop-color="#2DA6FF"/>
</linearGradient>
</defs>
</svg>
