<svg width="24" height="24" viewBox="0 0 24 24" fill="none" xmlns="http://www.w3.org/2000/svg">
<defs>
<linearGradient id="paint0_linear_937_412" x1="16.0483" y1="21.622" x2="-3.42196" y2="10.1284" gradientUnits="userSpaceOnUse">
<stop stop-color="#3258F3"/>
<stop offset="1" stop-color="#2DA6FF"/>
</linearGradient>
<linearGradient id="paint1_linear_937_412" x1="9.1875" y1="2.00012" x2="9.1875" y2="22.1251" gradientUnits="userSpaceOnUse">
<stop stop-color="#96CAFF"/>
<stop offset="1" stop-color="#96CAFF" stop-opacity="0.65"/>
</linearGradient>
<linearGradient id="paint2_linear_937_412" x1="22.0106" y1="21.622" x2="13.1976" y2="19.8011" gradientUnits="userSpaceOnUse">
<stop stop-color="#3258F3"/>
<stop offset="1" stop-color="#2DA6FF"/>
</linearGradient>
</defs>
<path d="M4.15625 22.1251H14.9375C15.3187 22.1251 15.6844 21.9737 15.954 21.7041C16.2235 21.4345 16.375 21.0689 16.375 20.6876V3.43762C16.375 3.05637 16.2235 2.69074 15.954 2.42116C15.6844 2.15157 15.3187 2.00012 14.9375 2.00012H4.15625C3.58438 2.00012 3.03593 2.2273 2.63155 2.63167C2.22718 3.03605 2 3.5845 2 4.15637V19.9689C2 20.5407 2.22718 21.0892 2.63155 21.4936C3.03593 21.8979 3.58438 22.1251 4.15625 22.1251ZM3.4375 4.15637C3.4375 3.96575 3.51323 3.78293 3.64802 3.64814C3.78281 3.51335 3.96563 3.43762 4.15625 3.43762H14.9375V20.6876H4.15625C3.96563 20.6876 3.78281 20.6119 3.64802 20.4771C3.51323 20.3423 3.4375 20.1595 3.4375 19.9689V4.15637Z" fill="url(#paint0_linear_937_412)"/>
<path d="M3.4375 4.15637C3.4375 3.96575 3.51323 3.78293 3.64802 3.64814C3.78281 3.51335 3.96563 3.43762 4.15625 3.43762H14.9375V20.6876H4.15625C3.96563 20.6876 3.78281 20.6119 3.64802 20.4771C3.51323 20.3423 3.4375 20.1595 3.4375 19.9689V4.15637Z" fill="url(#paint1_linear_937_412)"/>
<path d="M19.9688 2.00012H18.5312C18.15 2.00012 17.7844 2.15157 17.5148 2.42116C17.2452 2.69074 17.0938 3.05637 17.0938 3.43762V20.6876C17.0938 21.0689 17.2452 21.4345 17.5148 21.7041C17.7844 21.9737 18.15 22.1251 18.5312 22.1251H19.9688C20.5406 22.1251 21.0891 21.8979 21.4934 21.4936C21.8978 21.0892 22.125 20.5407 22.125 19.9689V4.15637C22.125 3.5845 21.8978 3.03605 21.4934 2.63167C21.0891 2.2273 20.5406 2.00012 19.9688 2.00012ZM20.6875 19.9689C20.6875 20.1595 20.6118 20.3423 20.477 20.4771C20.3422 20.6119 20.1594 20.6876 19.9688 20.6876H18.5312V3.43762H19.9688C20.1594 3.43762 20.3422 3.51335 20.477 3.64814C20.6118 3.78293 20.6875 3.96575 20.6875 4.15637V19.9689Z" fill="url(#paint2_linear_937_412)"/>
</svg>
