<svg width="28" height="29" viewBox="0 0 28 29" fill="none" xmlns="http://www.w3.org/2000/svg">
<g filter="url(#filter0_d_854_9449)">
<path d="M19.6734 8.47508C19.8452 8.66204 19.8786 8.86771 19.7736 9.09207L12.0415 25.316C11.9174 25.5497 11.7169 25.6666 11.4401 25.6666C11.4019 25.6666 11.3351 25.6572 11.2396 25.6385C11.0773 25.5918 10.9556 25.503 10.8745 25.3721C10.7933 25.2412 10.7719 25.101 10.81 24.9514L13.6308 13.6213L7.81742 15.0376C7.77923 15.0469 7.72196 15.0516 7.64559 15.0516C7.47376 15.0516 7.3258 15.0002 7.20171 14.8974C7.02988 14.7571 6.96783 14.5748 7.01556 14.3505L9.89364 2.78197C9.93182 2.65109 10.0082 2.54359 10.1227 2.45945C10.2373 2.37532 10.3709 2.33325 10.5237 2.33325H15.2202C15.4016 2.33325 15.5543 2.39168 15.6784 2.50853C15.8025 2.62539 15.8646 2.76327 15.8646 2.92219C15.8646 2.99698 15.8407 3.08112 15.793 3.1746L13.3445 9.66699L19.0147 8.29279C19.0911 8.27409 19.1483 8.26474 19.1865 8.26474C19.3679 8.26474 19.5302 8.33485 19.6734 8.47508Z" fill="white"/>
</g>
<defs>
<filter id="filter0_d_854_9449" x="-1" y="-1" width="32" height="32" filterUnits="userSpaceOnUse" color-interpolation-filters="sRGB">
<feFlood flood-opacity="0" result="BackgroundImageFix"/>
<feColorMatrix in="SourceAlpha" type="matrix" values="0 0 0 0 0 0 0 0 0 0 0 0 0 0 0 0 0 0 127 0" result="hardAlpha"/>
<feOffset dx="1" dy="1"/>
<feGaussianBlur stdDeviation="1"/>
<feComposite in2="hardAlpha" operator="out"/>
<feColorMatrix type="matrix" values="0 0 0 0 0 0 0 0 0 0 0 0 0 0 0 0 0 0 0.25 0"/>
<feBlend mode="normal" in2="BackgroundImageFix" result="effect1_dropShadow_854_9449"/>
<feBlend mode="normal" in="SourceGraphic" in2="effect1_dropShadow_854_9449" result="shape"/>
</filter>
</defs>
</svg>
