<svg width="24" height="24" viewBox="0 0 24 24" fill="none" xmlns="http://www.w3.org/2000/svg">
<defs>
<linearGradient id="paint0_linear_169_2225" x1="17.4305" y1="16.9545" x2="5.30984" y2="8.38136" gradientUnits="userSpaceOnUse">
<stop stop-color="#33A752"/>
<stop offset="1" stop-color="#18AB3F" stop-opacity="0.5"/>
</linearGradient>
<clipPath id="clip0_169_2225">
<rect width="24" height="24" fill="white"/>
</clipPath>
</defs>
<g clip-path="url(#clip0_169_2225)">
<circle cx="12" cy="12" r="12" fill="#4AB76A" fill-opacity="0.2"/>
<path d="M15.2047 5.24172C14.558 4.72601 13.8007 4.35679 12.988 4.16099C12.1754 3.96519 11.3279 3.94776 10.5074 4.10996C9.41491 4.32392 8.41259 4.8477 7.62762 5.61484C6.84265 6.38198 6.3104 7.35791 6.09841 8.4188C5.9436 9.21425 5.97173 10.033 6.18079 10.8167C6.38986 11.6004 6.77471 12.3297 7.30789 12.9526C7.80271 13.494 8.08634 14.1863 8.10953 14.9093V16.9547C8.10953 17.4971 8.33178 18.0174 8.7274 18.4009C9.12302 18.7845 9.6596 19 10.2191 19H13.0318C13.5913 19 14.1279 18.7845 14.5235 18.4009C14.9192 18.0174 15.1414 17.4971 15.1414 16.9547V15.0389C15.165 14.2406 15.4675 13.4738 15.9993 12.864C16.9311 11.7464 17.3704 10.3174 17.2216 8.88761C17.0728 7.45779 16.348 6.14268 15.2047 5.22808V5.24172ZM13.735 16.9547C13.735 17.1355 13.661 17.3089 13.5291 17.4368C13.3972 17.5646 13.2183 17.6364 13.0318 17.6364H10.2191C10.0326 17.6364 9.85374 17.5646 9.72186 17.4368C9.58999 17.3089 9.5159 17.1355 9.5159 16.9547V16.2729H13.735V16.9547ZM14.9094 12.0186C14.2023 12.8317 13.7898 13.8471 13.735 14.9093H12.3287V12.864C12.3287 12.6832 12.2546 12.5098 12.1227 12.3819C11.9908 12.254 11.812 12.1822 11.6255 12.1822C11.439 12.1822 11.2601 12.254 11.1282 12.3819C10.9964 12.5098 10.9223 12.6832 10.9223 12.864V14.9093H9.5159C9.49735 13.8649 9.09887 12.8604 8.3908 12.0731C7.92363 11.5304 7.60948 10.8796 7.47898 10.1842C7.34849 9.4887 7.40609 8.77231 7.64619 8.10486C7.88628 7.43741 8.30067 6.84167 8.84894 6.37573C9.39722 5.9098 10.0607 5.58956 10.7746 5.44625C11.3882 5.32376 12.0222 5.33528 12.6306 5.47998C13.239 5.62467 13.8065 5.8989 14.292 6.28276C14.7775 6.66662 15.1687 7.15047 15.4372 7.6992C15.7058 8.24792 15.8449 8.84774 15.8446 9.45511C15.8498 10.389 15.5191 11.2955 14.9094 12.0186Z" fill="url(#paint0_linear_169_2225)"/>
</g>
</svg>
