<svg width="24" height="24" viewBox="0 0 24 24" fill="none" xmlns="http://www.w3.org/2000/svg">
<defs>
<linearGradient id="paint0_linear_169_2417" x1="17.7045" y1="17.675" x2="3.59662" y2="6.01559" gradientUnits="userSpaceOnUse">
<stop stop-color="#3258F3"/>
<stop offset="1" stop-color="#56B6FD"/>
</linearGradient>
<clipPath id="clip0_169_2417">
<rect width="24" height="24" fill="white"/>
</clipPath>
</defs>
<g clip-path="url(#clip0_169_2417)">
<circle cx="12" cy="12" r="12" fill="#D3E1F6"/>
<path d="M17.2433 8.45799C16.7166 7.47288 15.9476 6.63844 15.009 6.03349C14.1596 5.48663 13.1945 5.14555 12.1903 5.03735C11.1861 4.92915 10.1705 5.05681 9.22427 5.41019C8.27801 5.76357 7.42714 6.33293 6.73926 7.07303C6.05138 7.81313 5.54545 8.70358 5.26166 9.67363C4.97787 10.6437 4.92405 11.6666 5.10447 12.6611C5.28488 13.6556 5.69457 14.5943 6.30097 15.4026C6.90738 16.2109 7.69379 16.8666 8.59773 17.3175C9.50167 17.7683 10.4982 18.002 11.5082 18H11.6966C12.8001 17.9674 13.8771 17.6538 14.8259 17.0889C15.7747 16.524 16.564 15.7263 17.1191 14.7713C17.6743 13.8163 17.977 12.7354 17.9987 11.6308C18.0205 10.5261 17.7605 9.43414 17.2433 8.45799ZM10.8587 16.6545C9.61047 16.4881 8.46505 15.8738 7.63546 14.9257C6.80587 13.9776 6.34856 12.7602 6.34856 11.5C6.34856 10.2398 6.80587 9.0224 7.63546 8.07429C8.46505 7.12618 9.61047 6.51184 10.8587 6.34549V16.6545ZM12.1577 6.34549C12.7192 6.41737 13.2654 6.57981 13.775 6.82649L12.1577 9.62799V6.34549ZM12.1577 12.1955L14.8661 7.53499C15.2655 7.87815 15.6114 8.27908 15.8924 8.72449L12.1577 15.1985V12.1955ZM12.9046 16.4725L16.5354 10.2C16.6451 10.6247 16.7019 11.0613 16.7042 11.5C16.7034 12.6349 16.3316 13.7384 15.6456 14.642C14.9596 15.5457 13.997 16.2 12.9046 16.505V16.4725Z" fill="url(#paint0_linear_169_2417)"/>
</g>
</svg>
