<svg width="24" height="24" viewBox="0 0 24 24" fill="none" xmlns="http://www.w3.org/2000/svg">
<defs>
<linearGradient id="paint0_linear_381_13333" x1="21.3209" y1="19.2727" x2="4.21079" y2="3.13631" gradientUnits="userSpaceOnUse">
<stop stop-color="#FF7728"/>
<stop offset="1" stop-color="#FF984C"/>
</linearGradient>
<linearGradient id="paint1_linear_381_13333" x1="21.3209" y1="19.2727" x2="4.21079" y2="3.13631" gradientUnits="userSpaceOnUse">
<stop stop-color="#FF7728"/>
<stop offset="1" stop-color="#FF984C"/>
</linearGradient>
<linearGradient id="paint2_linear_381_13333" x1="13.9091" y1="10.9679" x2="13.187" y2="14.0305" gradientUnits="userSpaceOnUse">
<stop stop-color="#FF7728"/>
<stop offset="1" stop-color="#FF984C"/>
</linearGradient>
</defs>
<path fill-rule="evenodd" clip-rule="evenodd" d="M5.4443 3.6853C7.08879 2.58649 9.02219 2 11 2C12.3132 2 13.6136 2.25866 14.8268 2.7612C16.0401 3.26375 17.1425 4.00035 18.0711 4.92893C18.9997 5.85752 19.7363 6.95991 20.2388 8.17317C20.7413 9.38642 21 10.6868 21 12C21 13.9778 20.4135 15.9112 19.3147 17.5557C18.2159 19.2002 16.6541 20.4819 14.8268 21.2388C12.9996 21.9957 10.9889 22.1937 9.0491 21.8079C7.10929 21.422 5.32746 20.4696 3.92894 19.0711C2.53041 17.6725 1.578 15.8907 1.19215 13.9509C0.806299 12.0111 1.00433 10.0004 1.76121 8.17317C2.51809 6.3459 3.79981 4.78412 5.4443 3.6853ZM6.55544 18.6518C7.87104 19.5308 9.41775 20 11 20C13.1217 20 15.1566 19.1571 16.6569 17.6569C18.1572 16.1566 19 14.1217 19 12C19 10.4177 18.5308 8.87103 17.6518 7.55544C16.7727 6.23984 15.5233 5.21447 14.0615 4.60896C12.5997 4.00346 10.9911 3.84504 9.43928 4.15372C7.88743 4.4624 6.46197 5.22433 5.34315 6.34315C4.22433 7.46197 3.4624 8.88743 3.15372 10.4393C2.84504 11.9911 3.00347 13.5997 3.60897 15.0615C4.21447 16.5233 5.23985 17.7727 6.55544 18.6518Z" fill="url(#paint0_linear_381_13333)"/>
<path d="M12 9C12 8.73478 11.8946 8.48043 11.7071 8.29289C11.5196 8.10536 11.2652 8 11 8C10.7348 8 10.4804 8.10536 10.2929 8.29289C10.1054 8.48043 10 8.73478 10 9V15C10 15.2652 10.1054 15.5196 10.2929 15.7071C10.4804 15.8946 10.7348 16 11 16C11.2652 16 11.5196 15.8946 11.7071 15.7071C11.8946 15.5196 12 15.2652 12 15V9Z" fill="url(#paint1_linear_381_13333)"/>
<path d="M8 11C7.73478 11 7.48043 11.1054 7.29289 11.2929C7.10536 11.4804 7 11.7348 7 12C7 12.2652 7.10536 12.5196 7.29289 12.7071C7.48043 12.8946 7.73478 13 8 13H14C14.2652 13 14.5196 12.8946 14.7071 12.7071C14.8946 12.5196 15 12.2652 15 12C15 11.7348 14.8946 11.4804 14.7071 11.2929C14.5196 11.1054 14.2652 11 14 11H8Z" fill="url(#paint2_linear_381_13333)"/>
</svg>
