<svg width="130" height="115" viewBox="0 0 130 115" fill="none" xmlns="http://www.w3.org/2000/svg">
<defs>
<linearGradient id="paint0_linear_218_4835" x1="77.4547" y1="58.8701" x2="77.4979" y2="59.9121" gradientUnits="userSpaceOnUse">
<stop stop-color="#4285F4" stop-opacity="0.7"/>
<stop offset="1" stop-color="#166EFF"/>
</linearGradient>
<linearGradient id="paint1_linear_218_4835" x1="77.4547" y1="61.2343" x2="77.4979" y2="62.2763" gradientUnits="userSpaceOnUse">
<stop stop-color="#4285F4" stop-opacity="0.7"/>
<stop offset="1" stop-color="#166EFF"/>
</linearGradient>
<linearGradient id="paint2_linear_218_4835" x1="77.4547" y1="63.5983" x2="77.4979" y2="64.6403" gradientUnits="userSpaceOnUse">
<stop stop-color="#4285F4" stop-opacity="0.7"/>
<stop offset="1" stop-color="#166EFF"/>
</linearGradient>
<linearGradient id="paint3_linear_218_4835" x1="77.9342" y1="79.5748" x2="80.5852" y2="87.383" gradientUnits="userSpaceOnUse">
<stop stop-color="#4285F4" stop-opacity="0.7"/>
<stop offset="1" stop-color="#166EFF"/>
</linearGradient>
<linearGradient id="paint4_linear_218_4835" x1="83.777" y1="75.3818" x2="85.1572" y2="79.4482" gradientUnits="userSpaceOnUse">
<stop stop-color="#4285F4" stop-opacity="0.7"/>
<stop offset="1" stop-color="#166EFF"/>
</linearGradient>
<linearGradient id="paint5_linear_218_4835" x1="78.7112" y1="70.561" x2="79.5073" y2="72.9066" gradientUnits="userSpaceOnUse">
<stop stop-color="#4285F4" stop-opacity="0.7"/>
<stop offset="1" stop-color="#166EFF"/>
</linearGradient>
<linearGradient id="paint6_linear_218_4835" x1="72.8715" y1="72.675" x2="74.781" y2="78.2993" gradientUnits="userSpaceOnUse">
<stop stop-color="#4285F4" stop-opacity="0.7"/>
<stop offset="1" stop-color="#166EFF"/>
</linearGradient>
<linearGradient id="paint7_linear_218_4835" x1="77.1654" y1="23.1176" x2="69.9384" y2="28.8957" gradientUnits="userSpaceOnUse">
<stop stop-color="#4285F4" stop-opacity="0.7"/>
<stop offset="1" stop-color="#166EFF"/>
</linearGradient>
<linearGradient id="paint8_linear_218_4835" x1="61.9462" y1="56.5806" x2="81.7143" y2="109.991" gradientUnits="userSpaceOnUse">
<stop stop-color="#4285F4" stop-opacity="0.7"/>
<stop offset="1" stop-color="#166EFF"/>
</linearGradient>
</defs>
<g opacity="0.8">
<path d="M81.5627 58.8701H73.3467" stroke="#FFFEFE" stroke-width="0.811363" stroke-miterlimit="10"/>
<path d="M81.5627 58.8701H73.3467" stroke="url(#paint0_linear_218_4835)" stroke-width="0.811363" stroke-miterlimit="10"/>
<path d="M81.5627 61.2343H73.3467" stroke="#FFFEFE" stroke-width="0.811363" stroke-miterlimit="10"/>
<path d="M81.5627 61.2343H73.3467" stroke="url(#paint1_linear_218_4835)" stroke-width="0.811363" stroke-miterlimit="10"/>
<path d="M81.5627 63.5983H73.3467" stroke="#FFFEFE" stroke-width="0.811363" stroke-miterlimit="10"/>
<path d="M81.5627 63.5983H73.3467" stroke="url(#paint2_linear_218_4835)" stroke-width="0.811363" stroke-miterlimit="10"/>
<path d="M96.8906 18.057H88.6746" stroke="#B9D4DB" stroke-width="0.811363" stroke-miterlimit="10" stroke-linecap="round"/>
<path d="M96.8906 20.421H88.6746" stroke="#B9D4DB" stroke-width="0.811363" stroke-miterlimit="10" stroke-linecap="round"/>
<path d="M96.8906 22.785H88.6746" stroke="#B9D4DB" stroke-width="0.811363" stroke-miterlimit="10" stroke-linecap="round"/>
<path d="M22.9119 55.978H14.6959" stroke="#B9D4DB" stroke-width="0.811363" stroke-miterlimit="10" stroke-linecap="round"/>
<path d="M22.9119 58.3422H14.6959" stroke="#B9D4DB" stroke-width="0.811363" stroke-miterlimit="10" stroke-linecap="round"/>
<path d="M22.9119 60.7061H14.6959" stroke="#B9D4DB" stroke-width="0.811363" stroke-miterlimit="10" stroke-linecap="round"/>
<path d="M108.257 91.8097H100.041" stroke="#B9D4DB" stroke-width="0.811363" stroke-miterlimit="10" stroke-linecap="round"/>
<path d="M108.257 94.1737H100.041" stroke="#B9D4DB" stroke-width="0.811363" stroke-miterlimit="10" stroke-linecap="round"/>
<path d="M108.257 96.5378H100.041" stroke="#B9D4DB" stroke-width="0.811363" stroke-miterlimit="10" stroke-linecap="round"/>
<path d="M107.035 59.3979C104.727 59.3979 102.856 57.5303 102.856 55.2265C102.856 52.9227 104.727 51.0552 107.035 51.0552C109.342 51.0552 111.213 52.9227 111.213 55.2265C111.213 57.5303 109.342 59.3979 107.035 59.3979Z" fill="#B9D4DB"/>
<path d="M105.988 48.9561C104.786 48.9561 103.811 47.9836 103.811 46.7839C103.811 45.5841 104.786 44.6116 105.988 44.6116C107.19 44.6116 108.164 45.5841 108.164 46.7839C108.164 47.9836 107.19 48.9561 105.988 48.9561Z" fill="#B9D4DB"/>
<path d="M98.3291 48.2684C97.6357 48.2684 97.0737 47.7074 97.0737 47.0153C97.0737 46.3233 97.6357 45.7623 98.3291 45.7623C99.0224 45.7623 99.5845 46.3233 99.5845 47.0153C99.5845 47.7074 99.0224 48.2684 98.3291 48.2684Z" fill="#B9D4DB"/>
<path d="M97.5829 56.9752C95.9207 56.9752 94.5733 55.63 94.5733 53.9706C94.5733 52.3112 95.9207 50.9659 97.5829 50.9659C99.2451 50.9659 100.593 52.3112 100.593 53.9706C100.593 55.63 99.2451 56.9752 97.5829 56.9752Z" fill="#B9D4DB"/>
<path d="M26.8766 105.672C24.569 105.672 22.6983 103.805 22.6983 101.501C22.6983 99.197 24.569 97.3295 26.8766 97.3295C29.1842 97.3295 31.0549 99.197 31.0549 101.501C31.0549 103.805 29.1842 105.672 26.8766 105.672Z" fill="#B9D4DB"/>
<path d="M32.7196 97.4811C31.5176 97.4811 30.5432 96.5085 30.5432 95.3088C30.5432 94.1091 31.5176 93.1365 32.7196 93.1365C33.9216 93.1365 34.896 94.1091 34.896 95.3088C34.896 96.5085 33.9216 97.4811 32.7196 97.4811Z" fill="#B9D4DB"/>
<path d="M27.6526 90.8218C26.9592 90.8218 26.3972 90.2608 26.3972 89.5687C26.3972 88.8767 26.9592 88.3157 27.6526 88.3157C28.3459 88.3157 28.908 88.8767 28.908 89.5687C28.908 90.2608 28.3459 90.8218 27.6526 90.8218Z" fill="#B9D4DB"/>
<path d="M21.8129 96.439C20.1507 96.439 18.8032 95.0938 18.8032 93.4344C18.8032 91.775 20.1507 90.4297 21.8129 90.4297C23.4751 90.4297 24.8225 91.775 24.8225 93.4344C24.8225 95.0938 23.4751 96.439 21.8129 96.439Z" fill="#B9D4DB"/>
<path d="M31.0558 35.1741C28.7482 35.1741 26.8775 33.3065 26.8775 31.0028C26.8775 28.699 28.7482 26.8314 31.0558 26.8314C33.3634 26.8314 35.2341 28.699 35.2341 31.0028C35.2341 33.3065 33.3634 35.1741 31.0558 35.1741Z" fill="#B9D4DB"/>
<path d="M38.589 26.983C37.387 26.983 36.4126 26.0104 36.4126 24.8107C36.4126 23.611 37.387 22.6384 38.589 22.6384C39.791 22.6384 40.7654 23.611 40.7654 24.8107C40.7654 26.0104 39.791 26.983 38.589 26.983Z" fill="#B9D4DB"/>
<path d="M30.361 25.6425C28.6988 25.6425 27.3513 24.2973 27.3513 22.6379C27.3513 20.9785 28.6988 19.6333 30.361 19.6333C32.0231 19.6333 33.3706 20.9785 33.3706 22.6379C33.3706 24.2973 32.0231 25.6425 30.361 25.6425Z" fill="#B9D4DB"/>
<path d="M77.9342 87.9175C75.6266 87.9175 73.7559 86.0499 73.7559 83.7462C73.7559 81.4424 75.6266 79.5748 77.9342 79.5748C80.2418 79.5748 82.1125 81.4424 82.1125 83.7462C82.1125 86.0499 80.2418 87.9175 77.9342 87.9175Z" fill="#FFFEFE"/>
<path d="M77.9342 87.9175C75.6266 87.9175 73.7559 86.0499 73.7559 83.7462C73.7559 81.4424 75.6266 79.5748 77.9342 79.5748C80.2418 79.5748 82.1125 81.4424 82.1125 83.7462C82.1125 86.0499 80.2418 87.9175 77.9342 87.9175Z" fill="url(#paint3_linear_218_4835)"/>
<path d="M83.777 79.7264C82.575 79.7264 81.6005 78.7538 81.6005 77.5541C81.6005 76.3544 82.575 75.3818 83.777 75.3818C84.979 75.3818 85.9534 76.3544 85.9534 77.5541C85.9534 78.7538 84.979 79.7264 83.777 79.7264Z" fill="#FFFEFE"/>
<path d="M83.777 79.7264C82.575 79.7264 81.6005 78.7538 81.6005 77.5541C81.6005 76.3544 82.575 75.3818 83.777 75.3818C84.979 75.3818 85.9534 76.3544 85.9534 77.5541C85.9534 78.7538 84.979 79.7264 83.777 79.7264Z" fill="url(#paint4_linear_218_4835)"/>
<path d="M78.7112 73.0671C78.0178 73.0671 77.4558 72.5061 77.4558 71.814C77.4558 71.122 78.0178 70.561 78.7112 70.561C79.4045 70.561 79.9666 71.122 79.9666 71.814C79.9666 72.5061 79.4045 73.0671 78.7112 73.0671Z" fill="#FFFEFE"/>
<path d="M78.7112 73.0671C78.0178 73.0671 77.4558 72.5061 77.4558 71.814C77.4558 71.122 78.0178 70.561 78.7112 70.561C79.4045 70.561 79.9666 71.122 79.9666 71.814C79.9666 72.5061 79.4045 73.0671 78.7112 73.0671Z" fill="url(#paint5_linear_218_4835)"/>
<path d="M72.8715 78.6843C71.2093 78.6843 69.8618 77.3391 69.8618 75.6797C69.8618 74.0203 71.2093 72.675 72.8715 72.675C74.5336 72.675 75.8811 74.0203 75.8811 75.6797C75.8811 77.3391 74.5336 78.6843 72.8715 78.6843Z" fill="#FFFEFE"/>
<path d="M72.8715 78.6843C71.2093 78.6843 69.8618 77.3391 69.8618 75.6797C69.8618 74.0203 71.2093 72.675 72.8715 72.675C74.5336 72.675 75.8811 74.0203 75.8811 75.6797C75.8811 77.3391 74.5336 78.6843 72.8715 78.6843Z" fill="url(#paint6_linear_218_4835)"/>
<path d="M67.6277 29.8747C59.0847 17.8564 53.781 6.96456 55.7818 5.54711L58.0741 3.92309C60.0749 2.50559 68.6224 11.0993 77.1654 23.1176C85.7084 35.1359 91.012 46.0277 89.0112 47.4452L86.7189 49.0692C84.7182 50.4867 76.1708 41.893 67.6277 29.8747Z" fill="#3F74E0"/>
<path d="M69.92 28.2507C61.377 16.2324 56.0736 5.34056 58.0744 3.92309C60.0751 2.50563 68.6225 11.0993 77.1654 23.1176C85.7084 35.1359 91.0118 46.0277 89.011 47.4452C87.0103 48.8627 78.4629 40.269 69.92 28.2507Z" fill="#FFFEFE"/>
<path d="M69.92 28.2507C61.377 16.2324 56.0736 5.34056 58.0744 3.92309C60.0751 2.50563 68.6225 11.0993 77.1654 23.1176C85.7084 35.1359 91.0118 46.0277 89.011 47.4452C87.0103 48.8627 78.4629 40.269 69.92 28.2507Z" fill="url(#paint7_linear_218_4835)"/>
<path d="M71.8273 19.2798C69.4506 20.9636 76.4513 30.8121 78.828 29.1283C81.2047 27.4445 81.5642 23.8749 79.631 21.1553C77.6978 18.4357 74.204 17.596 71.8273 19.2798Z" fill="#E4F2FF"/>
<path d="M88.6746 56.5806L82.4003 111.376H82.3323C82.3323 113.244 73.2051 114.759 61.9462 114.759C50.6874 114.759 41.5602 113.244 41.5602 111.376H41.4921L35.2178 56.5806H88.6746Z" fill="#FFFEFE"/>
<path d="M88.6746 56.5806L82.4003 111.376H82.3323C82.3323 113.244 73.2051 114.759 61.9462 114.759C50.6874 114.759 41.5602 113.244 41.5602 111.376H41.4921L35.2178 56.5806H88.6746Z" fill="url(#paint8_linear_218_4835)"/>
<path d="M61.9463 61.0156C47.1847 61.0156 35.218 59.0301 35.218 56.5808C35.218 54.1315 47.1847 52.146 61.9463 52.146C76.7079 52.146 88.6746 54.1315 88.6746 56.5808C88.6746 59.0301 76.7079 61.0156 61.9463 61.0156Z" fill="#E4F2FF"/>
<path d="M60.5893 68.8876H61.7891C62.0884 68.8876 62.3311 69.1298 62.3311 69.4286V108.149C62.3311 108.448 62.0884 108.69 61.7891 108.69H60.5893C60.29 108.69 60.0473 108.448 60.0473 108.149V69.4286C60.0473 69.1298 60.29 68.8876 60.5893 68.8876Z" fill="#E4F2FF"/>
<path d="M49.011 108.743L50.4549 108.544C50.6854 108.512 50.8594 108.111 50.8436 107.647L49.5475 69.6169C49.5317 69.1531 49.3321 68.8028 49.1016 68.8346L47.6577 69.034C47.4272 69.0658 47.2532 69.4676 47.269 69.9315L48.5651 107.961C48.5809 108.425 48.7806 108.775 49.011 108.743ZM74.1987 108.743L72.7548 108.544C72.5243 108.512 72.3503 108.111 72.3661 107.647L73.6622 69.6169C73.678 69.1531 73.8776 68.8028 74.1081 68.8346L75.552 69.034C75.7824 69.0658 75.9565 69.4676 75.9407 69.9315L74.6446 107.961C74.6288 108.425 74.4291 108.775 74.1987 108.743Z" fill="#E4F2FF"/>
<path d="M50.2106 49.5658L52.0912 55.9308L68.3464 51.1443C68.4329 51.1188 68.5136 51.0766 68.5837 51.02C68.6538 50.9635 68.7122 50.8936 68.7553 50.8146C68.7984 50.7355 68.8255 50.6487 68.835 50.5592C68.8446 50.4697 68.8363 50.3792 68.8108 50.2928L61.2033 24.5435C61.1778 24.4571 61.1355 24.3766 61.0789 24.3066C61.0222 24.2366 60.9523 24.1784 60.8731 24.1353C60.7939 24.0923 60.7069 24.0652 60.6173 24.0557C60.5276 24.0462 60.4369 24.0544 60.3504 24.0799L38.3518 30.5576C38.2653 30.583 38.1847 30.6252 38.1145 30.6818C38.0444 30.7384 37.9861 30.8082 37.9429 30.8873C37.8998 30.9663 37.8727 31.0531 37.8632 31.1426C37.8537 31.2322 37.8619 31.3227 37.8874 31.409L43.8086 51.4509L50.2106 49.5658Z" fill="white"/>
<path d="M52.0901 55.9306L50.2096 49.5657L43.8077 51.4506L52.0901 55.9306Z" fill="#3086A3"/>
<path d="M50.8009 32.2273L58.9021 29.8419L59.9927 33.5333L51.8915 35.9187L50.8009 32.2273Z" fill="#3086A3"/>
<path d="M49.3311 34.6666L43.1267 36.4933" stroke="#3086A3" stroke-width="0.811363" stroke-miterlimit="10"/>
<path d="M63.573 45.9452L57.3684 47.7716" stroke="#3086A3" stroke-width="0.811363" stroke-miterlimit="10"/>
<path d="M60.8425 36.4139L44.5213 41.2199" stroke="#3086A3" stroke-width="0.811363" stroke-miterlimit="10"/>
<path d="M61.7795 39.5833L45.4583 44.3892" stroke="#3086A3" stroke-width="0.811363" stroke-miterlimit="10"/>
<path d="M62.7166 42.7526L46.3954 47.5585" stroke="#3086A3" stroke-width="0.811363" stroke-miterlimit="10"/>
</g>
</svg>
