<svg width="24" height="24" viewBox="0 0 24 24" fill="none" xmlns="http://www.w3.org/2000/svg">
<defs>
<linearGradient id="paint0_linear_937_344" x1="21.3928" y1="22.758" x2="0.876337" y2="4.63291" gradientUnits="userSpaceOnUse">
<stop stop-color="#3258F3"/>
<stop offset="1" stop-color="#2DA6FF"/>
</linearGradient>
<linearGradient id="paint1_linear_937_344" x1="1.84613" y1="5.16499" x2="21.4731" y2="5.16499" gradientUnits="userSpaceOnUse">
<stop stop-color="#78B4FF"/>
<stop offset="1" stop-color="#78B4FF" stop-opacity="0.5"/>
</linearGradient>
<linearGradient id="paint2_linear_937_344" x1="1.84613" y1="14.462" x2="22.5061" y2="15.495" gradientUnits="userSpaceOnUse">
<stop stop-color="white" stop-opacity="0.9"/>
<stop offset="1" stop-color="white" stop-opacity="0"/>
</linearGradient>
<clipPath id="clip0_937_344">
<rect width="20" height="23.2258" fill="white" transform="translate(1.84613)"/>
</clipPath>
</defs>
<g clip-path="url(#clip0_937_344)">
<path fill-rule="evenodd" clip-rule="evenodd" d="M21.8474 4.51611H1.84735V18.3698C1.84731 18.3755 1.84729 18.3813 1.84729 18.3871C1.84729 18.3928 1.84731 18.3986 1.84735 18.4044V18.7097H1.86916C2.21223 21.2316 6.54847 23.2258 11.8473 23.2258C17.1461 23.2258 21.4824 21.2316 21.8254 18.7097H21.8474V4.51611Z" fill="url(#paint0_linear_937_344)"/>
<ellipse cx="11.8461" cy="4.83871" rx="10" ry="4.83871" fill="white"/>
<ellipse cx="11.8461" cy="4.83871" rx="10" ry="4.83871" fill="url(#paint1_linear_937_344)" fill-opacity="0.8"/>
<path d="M1.84613 11.7742C4.35979 13.4408 11.8789 15.7742 21.8461 11.7742V14.5161C11.8789 18.5161 4.35979 16.1828 1.84613 14.5161V11.7742Z" fill="url(#paint2_linear_937_344)"/>
</g>
</svg>
